<?xml version="1.0" encoding="UTF-8" standalone="no"?>
<svg xmlns:inkscape="http://www.inkscape.org/namespaces/inkscape" xmlns:sodipodi="http://sodipodi.sourceforge.net/DTD/sodipodi-0.dtd" height="24" id="svg22" version="1.1" viewBox="0 -960 960 960" width="24" xmlns="http://www.w3.org/2000/svg" inkscape:export-filename="../../../fastlane/metadata/android/en-US/images/icon.png" inkscape:export-xdpi="2457.6001" inkscape:export-ydpi="2457.6001" inkscape:version="1.2.2 (b0a8486541, 2022-12-01)" sodipodi:docname="app-icon.svg">
    <sodipodi:namedview bordercolor="#666666" borderopacity="1.0" id="namedview14" pagecolor="#ffffff" showgrid="false" inkscape:current-layer="svg22" inkscape:cx="-0.79787641" inkscape:cy="14.39502" inkscape:deskcolor="#d1d1d1" inkscape:pagecheckerboard="0" inkscape:pageopacity="0.0" inkscape:pageshadow="2" inkscape:showpageshadow="2" inkscape:window-height="1011" inkscape:window-maximized="1" inkscape:window-width="1920" inkscape:window-x="0" inkscape:window-y="0" inkscape:zoom="15.039923" />
    <defs id="defs26">
        <linearGradient id="linearGradient3295" inkscape:swatch="solid">
            <stop style="stop-color:#000000;stop-opacity:1;" id="stop3293" offset="0" />
        </linearGradient>
    </defs>
    <g style="display:inline;stroke-width:0.952893" id="g20" transform="matrix(0.84054097,0,0,0.8443391,73.259541,-65.339075)">
        <path style="display:inline;opacity:1;fill:#000000;fill-opacity:1;stroke:#000000;stroke-width:0;stroke-dasharray:none;stroke-opacity:1;paint-order:stroke markers fill" d="m 540.47219,-40.593815 c -15.556,15.486 -34.413,23.2301 -56.569,23.2301 -22.156,0 -41.012,-7.7433 -56.569,-23.2301 L 31.354187,-434.79257 c -15.556,-15.48602 -23.3350005,-34.2582 -23.3350005,-56.31453 0,-22.05633 7.7782005,-40.82751 23.3350005,-56.31453 L 427.33419,-941.62038 c 15.556,-15.4861 34.413,-23.2301 56.569,-23.2301 22.156,0 41.012,7.7432 56.569,23.2301 l 395.98001,394.19875 c 15.556,15.48602 23.335,34.2582 23.335,56.31453 0,22.05633 -7.7782,40.82751 -23.335,56.31453 z" id="path1266" opacity="0.801" stroke-width="0" inkscape:label="black" sodipodi:nodetypes="sscsscsscsscs" />
        <path style="display:inline;opacity:1;fill:#ffffff;fill-opacity:1;stroke:#000000;stroke-width:0;stroke-dasharray:none;stroke-opacity:1;paint-order:stroke markers fill" d="m 527.20394,-146.2617 c -11.90738,11.85376 -26.3414,17.78149 -43.30075,17.78149 -16.95935,0 -31.39262,-5.92712 -43.30075,-17.78149 L 137.49955,-448.00114 c -11.90738,-11.85376 -17.86173,-26.22293 -17.86173,-43.10595 0,-16.88302 5.95378,-31.25141 17.86173,-43.10595 l 303.10289,-301.73944 c 11.90738,-11.8538 26.3414,-17.7815 43.30075,-17.7815 16.95935,0 31.39262,5.92704 43.30075,17.7815 l 303.10293,301.73944 c 11.9072,11.85377 17.8617,26.22293 17.8617,43.10595 0,16.88302 -5.9538,31.25142 -17.8617,43.10595 z" id="path1266-3" opacity="0.801" stroke-width="0" inkscape:label="white" sodipodi:nodetypes="sscsscsscsscs" />
    </g>
    <path style="display:inline;opacity:1;stroke:#000000;stroke-width:20.6961;stroke-linecap:square;stroke-dasharray:none;stroke-opacity:1;paint-order:normal" d="m 498.49658,-393.45433 v -23.7192 c 0.49992,-22.70936 7.49908,-33.81242 39.49464,-62.57821 37.49497,-34.3165 49.99328,-56.52179 49.99328,-90.33 0,-59.04551 -41.49436,-96.89135 -106.48326,-96.89135 -72.49092,0 -109.48574,39.868 -109.48574,118.08764 h 42.49461 c 0,-54.50296 19.49768,-78.72707 64.4913,-78.72707 38.49521,0 63.992,23.21427 63.992,57.53162 0,23.21426 -10.99876,42.89583 -37.49496,66.61501 -42.49462,37.84918 -51.99296,52.48499 -51.99296,82.25978 v 27.75596 z m 0,47.94243 h -44.99445 v 52.48499 h 44.99445 z" id="path18" opacity="0.801" stroke="#000000" stroke-linecap="round" stroke-linejoin="round" stroke-width="37.985" inkscape:highlight-color="#000000" inkscape:label="Question mark" />
</svg>
