<?xml version="1.0" encoding="UTF-8" standalone="no"?>
<svg
   height="24"
   id="svg22"
   version="1.1"
   viewBox="0 -960 960 960"
   width="24"
   inkscape:export-filename="../../../fastlane/metadata/android/en-US/images/icon.png"
   inkscape:export-xdpi="2457.6001"
   inkscape:export-ydpi="2457.6001"
   inkscape:version="1.2.2 (b0a8486541, 2022-12-01)"
   sodipodi:docname="behaviour.svg"
   xmlns:inkscape="http://www.inkscape.org/namespaces/inkscape"
   xmlns:sodipodi="http://sodipodi.sourceforge.net/DTD/sodipodi-0.dtd"
   xmlns="http://www.w3.org/2000/svg"
   xmlns:svg="http://www.w3.org/2000/svg">
  <sodipodi:namedview
     bordercolor="#666666"
     borderopacity="1.0"
     id="namedview14"
     pagecolor="#ffffff"
     showgrid="false"
     inkscape:current-layer="g20"
     inkscape:cx="10.224539"
     inkscape:cy="13.950953"
     inkscape:deskcolor="#d1d1d1"
     inkscape:pagecheckerboard="0"
     inkscape:pageopacity="0.0"
     inkscape:pageshadow="2"
     inkscape:showpageshadow="2"
     inkscape:window-height="699"
     inkscape:window-maximized="1"
     inkscape:window-width="1366"
     inkscape:window-x="0"
     inkscape:window-y="0"
     inkscape:zoom="16.23545"
     showguides="false" />
  <defs
     id="defs26">
    <linearGradient
       id="linearGradient3295"
       inkscape:swatch="solid">
      <stop
         style="stop-color:#000000;stop-opacity:1;"
         offset="0"
         id="stop3293" />
    </linearGradient>
  </defs>
  <g
     style="display:inline;stroke-width:0.952893"
     id="g20"
     transform="matrix(0.71445981,0,0,0.71768815,234.27062,-127.53824)">
    <path
       style="display:inline;opacity:1;fill:#000000;fill-opacity:1;stroke:#000000;stroke-width:0;stroke-dasharray:none;stroke-opacity:1;paint-order:stroke markers fill"
       d="m 555.22819,-39.665561 c -15.556,15.486 -34.413,23.2301 -56.569,23.2301 -22.156,0 -41.012,-7.7433 -56.569,-23.2301 l -395.98,-394.198759 c -15.556,-15.48602 -23.335,-34.2582 -23.335,-56.31453 0,-22.05633 7.7782,-40.82751 23.335,-56.31453 l 395.98,-394.19875 c 15.556,-15.4861 34.413,-23.2301 56.569,-23.2301 22.156,0 41.012,7.7432 56.569,23.2301 l 395.98001,394.19875 c 15.556,15.48602 23.335,34.2582 23.335,56.31453 0,22.05633 -7.7782,40.82751 -23.335,56.31453 z"
       id="path1266"
       opacity="0.801"
       stroke-width="0"
       inkscape:label="black"
       sodipodi:nodetypes="sscsscsscsscs" />
    <path
       style="display:inline;opacity:1;fill:#ffffff;fill-opacity:1;stroke:#000000;stroke-width:0;stroke-dasharray:none;stroke-opacity:1;paint-order:stroke markers fill"
       d="m 541.95994,-145.33345 c -11.90738,11.85376 -26.3414,17.78149 -43.30075,17.78149 -16.95935,0 -31.39262,-5.92712 -43.30075,-17.78149 L 152.25555,-447.07289 c -11.90738,-11.85376 -17.86173,-26.22293 -17.86173,-43.10595 0,-16.88302 5.95378,-31.25141 17.86173,-43.10595 l 303.10289,-301.73944 c 11.90738,-11.8538 26.3414,-17.7815 43.30075,-17.7815 16.95935,0 31.39262,5.92704 43.30075,17.7815 l 303.10293,301.73944 c 11.9072,11.85377 17.8617,26.22293 17.8617,43.10595 0,16.88302 -5.9538,31.25142 -17.8617,43.10595 z"
       id="path1266-3"
       opacity="0.801"
       stroke-width="0"
       inkscape:label="white"
       sodipodi:nodetypes="sscsscsscsscs" />
  </g>
  <rect
     style="fill:#000000;stroke-width:25.0547"
     id="rect382-3"
     width="160"
     height="48"
     x="196.95038"
     y="-304.91788" />
  <rect
     style="fill:#000000;stroke-width:30.6858"
     id="rect382-3-7"
     width="240"
     height="48"
     x="116.95037"
     y="-724.91785" />
  <rect
     style="fill:#000000;stroke-width:25.0548"
     id="rect382-3-6"
     width="160"
     height="48"
     x="36.950367"
     y="-504.91788" />
</svg>
