<?xml version="1.0" encoding="UTF-8" standalone="no"?>
<svg xmlns:inkscape="http://www.inkscape.org/namespaces/inkscape" xmlns:sodipodi="http://sodipodi.sourceforge.net/DTD/sodipodi-0.dtd" height="24" id="svg22" version="1.1" viewBox="0 -960 960 960" width="24" xmlns="http://www.w3.org/2000/svg" inkscape:export-filename="../../../fastlane/metadata/android/en-US/images/icon.png" inkscape:export-xdpi="2457.6001" inkscape:export-ydpi="2457.6001" inkscape:version="1.2.2 (b0a8486541, 2022-12-01)" sodipodi:docname="side.svg">
    <sodipodi:namedview bordercolor="#666666" borderopacity="1.0" id="namedview14" pagecolor="#ffffff" showgrid="false" showguides="false" inkscape:current-layer="g20" inkscape:cx="1.3032763" inkscape:cy="10.460507" inkscape:deskcolor="#d1d1d1" inkscape:pagecheckerboard="0" inkscape:pageopacity="0.0" inkscape:pageshadow="2" inkscape:showpageshadow="2" inkscape:window-height="699" inkscape:window-maximized="1" inkscape:window-width="1366" inkscape:window-x="0" inkscape:window-y="0" inkscape:zoom="14.578643" />
    <defs id="defs26">
        <linearGradient id="linearGradient3295" inkscape:swatch="solid">
            <stop style="stop-color:#000000;stop-opacity:1;" id="stop3293" offset="0" />
        </linearGradient>
    </defs>
    <g style="display:inline;stroke-width:0.952893" id="g20" transform="matrix(0.84054097,0,0,0.8443391,73.259541,-65.339075)">
        <path style="display:inline;opacity:0;fill:#000000;fill-opacity:0;stroke:#000000;stroke-width:0;stroke-miterlimit:2.1;stroke-dasharray:none;stroke-opacity:1;paint-order:stroke markers fill" d="M 483.90319 -833.18308 C 467.90653 -833.18308 454.33131 -827.5239 443.09986 -816.34298 L 157.19767 -531.72689 C 145.96567 -520.54528 140.28148 -507.03176 140.28148 -491.1071 C 140.28148 -475.18244 145.96621 -461.66819 157.19767 -450.48731 L 443.09986 -165.87121 C 454.33203 -154.68974 467.90653 -149.03112 483.90319 -149.03112 C 499.89987 -149.03112 513.47506 -154.69032 524.70653 -165.87121 L 810.60871 -450.48731 C 821.84066 -461.66892 827.5249 -475.18244 827.5249 -491.1071 C 827.5249 -507.03176 821.83999 -520.546 810.60871 -531.72689 L 524.70653 -816.34298 C 513.47434 -827.52453 499.89987 -833.18308 483.90319 -833.18308 z " id="path1266" inkscape:label="black" />
        <path style="display:inline;opacity:1;fill:#000000;fill-opacity:1;stroke:#000000;stroke-width:0;stroke-miterlimit:2.1;stroke-dasharray:none;stroke-opacity:1;paint-order:stroke markers fill"
            d="M 483.90319 -941.16324 C 462.85501 -941.16324 444.95854 -933.76083 430.18035 -919.04905 L 54.027508 -544.58828 C 39.248563 -529.87562 31.813392 -512.06059 31.813392 -491.1071 C 31.813392 -470.15361 39.249323 -452.33762 54.027508 -437.62592 L 430.18035 -63.165143 C 444.95949 -48.452698 462.85501 -41.050953 483.90319 -41.050953 C 504.95137 -41.050953 522.84785 -48.453458 537.62604 -63.165143 L 913.77888 -437.62592 C 928.55782 -452.33857 935.99299 -470.15361 935.99299 -491.1071 C 935.99299 -512.06059 928.55706 -529.87657 913.77888 -544.58828 L 537.62604 -919.04905 C 522.8469 -933.76159 504.95137 -941.16324 483.90319 -941.16324 z M 483.90319 -833.18308 C 499.89987 -833.18308 513.47434 -827.52453 524.70653 -816.34298 L 810.60871 -531.72689 C 821.83999 -520.546 827.5249 -507.03176 827.5249 -491.1071 C 827.5249 -475.18244 821.84066 -461.66892 810.60871 -450.48731 L 524.70653 -165.87121 C 513.47506 -154.69032 499.89987 -149.03112 483.90319 -149.03112 C 467.90653 -149.03112 454.33203 -154.68974 443.09986 -165.87121 L 157.19767 -450.48731 C 145.96621 -461.66819 140.28148 -475.18244 140.28148 -491.1071 C 140.28148 -507.03176 145.96567 -520.54528 157.19767 -531.72689 L 443.09986 -816.34298 C 454.33131 -827.5239 467.90653 -833.18308 483.90319 -833.18308 z "
            id="path852" inkscape:label="black" />
    </g>
</svg>
