<?xml version="1.0" encoding="UTF-8" standalone="no"?>
<svg xmlns:inkscape="http://www.inkscape.org/namespaces/inkscape" xmlns:sodipodi="http://sodipodi.sourceforge.net/DTD/sodipodi-0.dtd" height="24" id="svg22" version="1.1" viewBox="0 -960 960 960" width="24" xmlns="http://www.w3.org/2000/svg" inkscape:export-filename="../../../fastlane/metadata/android/en-US/images/icon.png" inkscape:export-xdpi="2457.6001" inkscape:export-ydpi="2457.6001" inkscape:version="1.2.2 (b0a8486541, 2022-12-01)" sodipodi:docname="behaviour.svg">
    <sodipodi:namedview bordercolor="#666666" borderopacity="1.0" id="namedview14" pagecolor="#ffffff" showgrid="false" showguides="false" inkscape:current-layer="svg22" inkscape:cx="-5.1091481" inkscape:cy="30.198715" inkscape:deskcolor="#d1d1d1" inkscape:pagecheckerboard="0" inkscape:pageopacity="0.0" inkscape:pageshadow="2" inkscape:showpageshadow="2" inkscape:window-height="699" inkscape:window-maximized="1" inkscape:window-width="1366" inkscape:window-x="0" inkscape:window-y="0" inkscape:zoom="5.4803656" />
    <defs id="defs26">
        <linearGradient id="linearGradient3295" inkscape:swatch="solid">
            <stop style="stop-color:#000000;stop-opacity:1;" id="stop3293" offset="0" />
        </linearGradient>
    </defs>
    <g style="display:inline;stroke-width:0.952893" id="g20" transform="matrix(0.71445981,0,0,0.71768815,234.27062,-127.53824)">
        <path style="display:inline;opacity:1;fill:#000000;fill-opacity:1;stroke:#000000;stroke-width:0;stroke-dasharray:none;stroke-opacity:1;paint-order:stroke markers fill"
            d="m 511.89637,-963.87078 c -22.15598,0 -40.97712,7.70035 -56.5331,23.18643 L 59.303555,-546.51506 c -15.55678,15.487 -23.2912,34.33134 -23.2912,56.38765 0,22.05631 7.73522,40.79279 23.2912,56.27879 L 455.36327,-39.67933 c 15.55698,15.486784 34.37712,23.295285 56.5331,23.295285 22.15597,0 40.97711,-7.809301 56.53309,-23.295285 l 396.05968,-394.16929 c 15.5568,-15.487 23.2912,-34.22248 23.2912,-56.27879 0,-22.05631 -7.7352,-40.90165 -23.2912,-56.38765 L 568.42946,-940.68435 c -15.55698,-15.48688 -34.37712,-23.18643 -56.53309,-23.18643 z m 0,111.0336 c 16.95933,0 31.39382,5.99802 43.30194,17.85247 l 303.11362,301.75014 c 11.90719,11.85375 17.82378,26.22416 17.82378,43.10716 0,16.883 -5.91589,31.25264 -17.82378,43.10716 l -303.11362,301.64129 c -11.90737,11.85374 -26.34261,17.85246 -43.30194,17.85246 -16.95934,0 -31.39383,-5.99811 -43.30195,-17.85246 L 165.4808,-447.02025 c -11.90737,-11.85375 -17.82378,-26.22416 -17.82378,-43.10716 0,-16.883 5.91584,-31.25264 17.82378,-43.10716 l 303.11362,-301.75014 c 11.90737,-11.85379 26.34261,-17.85247 43.30195,-17.85247 z"
            id="path1266" inkscape:label="black" />
        <path style="opacity:0;fill:#fbbeab;stroke:#000000;stroke-width:0.0281902;stroke-miterlimit:1" d="M 14.327819,18.387691 C 14.02121,18.248848 8.3952627,12.572172 8.3400095,12.345892 8.3149233,12.243155 8.3098402,12.022096 8.3287138,11.85465 8.3625559,11.554404 8.40372,11.50949 11.312181,8.5994305 c 3.212913,-3.21468 3.151025,-3.1647194 3.730366,-3.0114099 0.248325,0.065714 0.626883,0.4181819 3.12386,2.9085759 1.562711,1.5585905 2.886621,2.9293245 2.942023,3.0460745 0.127037,0.267709 0.129533,0.709712 0.0053,0.943452 -0.147477,0.277539 -5.764199,5.848883 -5.975811,5.927532 -0.252095,0.0937 -0.568264,0.08356 -0.81013,-0.02596 z" id="path975" transform="matrix(55.986354,0,0,55.734514,-327.89895,-1159.9213)" />
        <path style="opacity:0;fill:#fbbeab;stroke:#000000;stroke-width:0.0281902;stroke-miterlimit:1" d="M 14.327819,18.387691 C 14.02121,18.248848 8.3952627,12.572172 8.3400095,12.345892 8.3149233,12.243155 8.3098402,12.022096 8.3287138,11.85465 8.3625559,11.554404 8.40372,11.50949 11.312181,8.5994305 c 3.212913,-3.21468 3.151025,-3.1647194 3.730366,-3.0114099 0.248325,0.065714 0.626883,0.4181819 3.12386,2.9085759 1.562711,1.5585905 2.886621,2.9293245 2.942023,3.0460745 0.127037,0.267709 0.129533,0.709712 0.0053,0.943452 -0.147477,0.277539 -5.764199,5.848883 -5.975811,5.927532 -0.252095,0.0937 -0.568264,0.08356 -0.81013,-0.02596 z" id="path977" transform="matrix(55.986354,0,0,55.734514,-327.89895,-1159.9213)" />
        <path style="opacity:0;fill:#fbbeab;stroke:#000000;stroke-width:0.0281902;stroke-miterlimit:1" d="M 14.327819,18.387691 C 14.02121,18.248848 8.3952627,12.572172 8.3400095,12.345892 8.3149233,12.243155 8.3098402,12.022096 8.3287138,11.85465 8.3625559,11.554404 8.40372,11.50949 11.312181,8.5994305 c 3.212913,-3.21468 3.151025,-3.1647194 3.730366,-3.0114099 0.248325,0.065714 0.626883,0.4181819 3.12386,2.9085759 1.562711,1.5585905 2.886621,2.9293245 2.942023,3.0460745 0.127037,0.267709 0.129533,0.709712 0.0053,0.943452 -0.147477,0.277539 -5.764199,5.848883 -5.975811,5.927532 -0.252095,0.0937 -0.568264,0.08356 -0.81013,-0.02596 z" id="path979" transform="matrix(55.986354,0,0,55.734514,-327.89895,-1159.9213)" />
        <path style="opacity:0;fill:#fbbeab;stroke:#000000;stroke-width:0.0281902;stroke-miterlimit:1" d="M 14.327819,18.387691 C 14.02121,18.248848 8.3952627,12.572172 8.3400095,12.345892 8.3149233,12.243155 8.3098402,12.022096 8.3287138,11.85465 8.3625559,11.554404 8.40372,11.50949 11.312181,8.5994305 c 3.212913,-3.21468 3.151025,-3.1647194 3.730366,-3.0114099 0.248325,0.065714 0.626883,0.4181819 3.12386,2.9085759 1.562711,1.5585905 2.886621,2.9293245 2.942023,3.0460745 0.127037,0.267709 0.129533,0.709712 0.0053,0.943452 -0.147477,0.277539 -5.764199,5.848883 -5.975811,5.927532 -0.252095,0.0937 -0.568264,0.08356 -0.81013,-0.02596 z" id="path981" transform="matrix(55.986354,0,0,55.734514,-327.89895,-1159.9213)" />
        <path style="opacity:0;fill:#fbbeab;stroke:#000000;stroke-width:0.0281902;stroke-miterlimit:1" d="M 14.327819,18.387691 C 14.02121,18.248848 8.3952627,12.572172 8.3400095,12.345892 8.3149233,12.243155 8.3098402,12.022096 8.3287138,11.85465 8.3625559,11.554404 8.40372,11.50949 11.312181,8.5994305 c 3.212913,-3.21468 3.151025,-3.1647194 3.730366,-3.0114099 0.248325,0.065714 0.626883,0.4181819 3.12386,2.9085759 1.562711,1.5585905 2.886621,2.9293245 2.942023,3.0460745 0.127037,0.267709 0.129533,0.709712 0.0053,0.943452 -0.147477,0.277539 -5.764199,5.848883 -5.975811,5.927532 -0.252095,0.0937 -0.568264,0.08356 -0.81013,-0.02596 z" id="path983" transform="matrix(55.986354,0,0,55.734514,-327.89895,-1159.9213)" />
        <path style="opacity:0;fill:#fbbeab;stroke:#000000;stroke-width:0.0281902;stroke-miterlimit:1" d="M 14.327819,18.387691 C 14.02121,18.248848 8.3952627,12.572172 8.3400095,12.345892 8.3149233,12.243155 8.3098402,12.022096 8.3287138,11.85465 8.3625559,11.554404 8.40372,11.50949 11.312181,8.5994305 c 3.212913,-3.21468 3.151025,-3.1647194 3.730366,-3.0114099 0.248325,0.065714 0.626883,0.4181819 3.12386,2.9085759 1.562711,1.5585905 2.886621,2.9293245 2.942023,3.0460745 0.127037,0.267709 0.129533,0.709712 0.0053,0.943452 -0.147477,0.277539 -5.764199,5.848883 -5.975811,5.927532 -0.252095,0.0937 -0.568264,0.08356 -0.81013,-0.02596 z" id="path985" transform="matrix(55.986354,0,0,55.734514,-327.89895,-1159.9213)" />
        <path style="opacity:0;fill:#ffffff;stroke:#000000;stroke-width:0.0281902;stroke-miterlimit:1;fill-opacity:0" d="M 14.327819,18.387691 C 14.02121,18.248848 8.3952627,12.572172 8.3400095,12.345892 8.3149233,12.243155 8.3098402,12.022096 8.3287138,11.85465 8.3625559,11.554404 8.40372,11.50949 11.312181,8.5994305 c 3.212913,-3.21468 3.151025,-3.1647194 3.730366,-3.0114099 0.248325,0.065714 0.626883,0.4181819 3.12386,2.9085759 1.562711,1.5585905 2.886621,2.9293245 2.942023,3.0460745 0.127037,0.267709 0.129533,0.709712 0.0053,0.943452 -0.147477,0.277539 -5.764199,5.848883 -5.975811,5.927532 -0.252095,0.0937 -0.568264,0.08356 -0.81013,-0.02596 z" id="path987" transform="matrix(55.986354,0,0,55.734514,-327.89895,-1159.9213)" />
    </g>
    <rect style="fill:#000000;stroke-width:25.0547" height="48" id="rect382-3" width="160" x="180" y="-304.91788" />
    <rect style="fill:#000000;stroke-width:30.6858" height="48" id="rect382-3-7" width="240" x="100" y="-724.91785" />
    <rect style="fill:#000000;stroke-width:25.0548" height="48" id="rect382-3-6" width="160" x="36.950367" y="-504.91788" />
</svg>
