<?xml version="1.0" encoding="UTF-8" standalone="no"?>
<svg xmlns:inkscape="http://www.inkscape.org/namespaces/inkscape" xmlns:sodipodi="http://sodipodi.sourceforge.net/DTD/sodipodi-0.dtd" height="24" id="svg22" version="1.1" viewBox="0 -960 960 960" width="24" xmlns="http://www.w3.org/2000/svg" inkscape:export-filename="../../../fastlane/metadata/android/en-US/images/icon.png" inkscape:export-xdpi="2457.6001" inkscape:export-ydpi="2457.6001" inkscape:version="1.2.2 (b0a8486541, 2022-12-01)" sodipodi:docname="dice.svg" xml:space="preserve"><sodipodi:namedview
     bordercolor="#666666"
     borderopacity="1.0"
     id="namedview14"
     pagecolor="#ffffff"
     showgrid="false"
     inkscape:current-layer="svg22"
     inkscape:cx="18.566223"
     inkscape:cy="10.203469"
     inkscape:deskcolor="#d1d1d1"
     inkscape:lockguides="false"
     inkscape:pagecheckerboard="0"
     inkscape:pageopacity="0.0"
     inkscape:pageshadow="2"
     inkscape:showpageshadow="2"
     inkscape:window-height="699"
     inkscape:window-maximized="1"
     inkscape:window-width="1366"
     inkscape:window-x="0"
     inkscape:window-y="0"
     inkscape:zoom="22.002321" />
    <defs id="defs26"><linearGradient
       id="linearGradient1607"
       inkscape:swatch="gradient"><stop
         style="stop-color:#000000;stop-opacity:1;"
         id="stop1603"
         offset="0" /><stop style="stop-color:#f8f8f8;stop-opacity:0;" id="stop1605" offset="1" /></linearGradient>
        <linearGradient id="linearGradient3295" inkscape:swatch="solid"><stop
         style="stop-color:#000000;stop-opacity:1;"
         id="stop3293"
         offset="0" /></linearGradient></defs>
    <path style="stroke-width:17.85263158;stroke-dasharray:none;stroke:#000000;stroke-opacity:1;fill:#000000;fill-opacity:1"
        d="m 476.3632,-79.956369 c -2.04524,-0.294586 -7.62323,-1.438429 -12.39557,-2.541887 -4.77232,-1.103441 -11.18711,-2.979455 -14.25499,-4.168897 -3.06786,-1.189459 -16.4551,-7.320265 -29.74937,-13.624057 -13.29437,-6.30377 -29.74947,-14.11016 -36.56705,-17.34751 -6.81757,-3.23738 -26.06176,-12.42654 -42.76478,-20.42036 -16.7032,-7.99384 -50.45002,-24.01409 -74.99342,-35.60057 -24.54331,-11.58646 -57.17464,-26.9125 -72.51425,-34.05784 -15.33961,-7.14536 -33.71369,-15.79604 -40.83145,-19.22375 -9.22869,-4.44425 -15.05026,-8.23764 -20.29198,-13.22247 -4.04275,-3.84464 -9.5628,-10.23797 -12.26687,-14.20743 -2.70389,-3.96943 -6.52264,-10.66306 -8.48594,-14.87472 -1.96339,-4.21164 -4.56475,-11.28326 -5.78087,-15.71469 -2.07692,-7.56848 -2.21113,-19.55947 -2.21113,-197.70981 0,-179.29479 0.12383,-190.17984 2.26402,-199.30499 1.24517,-5.30874 4.42216,-13.95468 7.05989,-19.21317 2.63774,-5.25849 7.19708,-12.38552 10.13174,-15.83787 2.93457,-3.45233 8.12466,-8.5544 11.53341,-11.33793 3.40874,-2.78353 9.54456,-6.74251 13.63523,-8.79773 4.09049,-2.05523 11.62087,-5.67831 16.73407,-8.05128 5.11311,-2.37297 19.89489,-9.45519 32.84838,-15.73825 12.9534,-6.28305 27.45621,-13.25781 32.22845,-15.49943 4.77234,-2.24161 15.0917,-7.13092 22.9319,-10.86511 7.84029,-3.7342 30.15225,-14.46227 49.58235,-23.84013 19.4302,-9.37786 42.85784,-20.65991 52.06162,-25.07118 9.20369,-4.41126 32.05788,-15.28823 50.78738,-24.17102 18.72922,-8.88277 37.45041,-17.42921 41.60254,-18.9921 4.15204,-1.5628 11.81391,-3.72241 17.02629,-4.79903 5.2124,-1.07667 13.64373,-1.95758 18.73636,-1.95758 5.09244,0 13.62242,0.59923 18.95547,1.33158 5.33297,0.73235 13.76078,2.68762 18.7286,4.34499 4.96772,1.65738 21.4229,8.9378 36.56703,16.17865 15.14405,7.24089 34.22831,16.37907 42.40938,20.30707 8.18108,3.92801 27.14639,13.12592 42.14513,20.43981 14.99856,7.31388 31.73262,15.39811 37.1867,17.96493 5.45408,2.56685 19.30944,9.19592 30.78969,14.7313 11.48025,5.53537 21.03032,10.06429 21.22256,10.06429 0.19232,0 9.48573,4.38815 20.65218,9.75141 11.16645,5.36328 27.55395,13.23162 36.41686,17.48521 8.86283,4.25358 20.52881,9.64501 25.92431,11.98097 5.39561,2.33593 13.55754,6.73846 18.13782,9.78336 4.58019,3.04493 10.39183,7.82116 12.91504,10.61389 2.52295,2.7927 6.67923,8.31449 9.23619,12.2706 2.55696,3.95614 6.12111,11.64686 7.92025,17.0905 1.79923,5.44364 3.86098,13.72826 4.5819,18.41023 0.89077,5.78546 1.18895,68.47799 0.93057,195.68624 -0.33898,166.94319 -0.59303,187.84345 -2.3502,193.37137 -1.08363,3.40878 -3.37319,9.61699 -5.08784,13.796 -1.71467,4.17901 -5.38143,10.93169 -8.14813,15.00594 -2.7668,4.07425 -8.68386,10.7554 -13.14916,14.847 -4.48795,4.11247 -12.14358,9.43497 -17.11916,11.90197 -4.95012,2.45449 -30.19693,14.47748 -56.10364,26.71776 -25.9068,12.24027 -56.30697,26.69144 -67.55601,32.11368 -11.24894,5.42223 -43.32271,20.88698 -71.27476,34.36611 -27.95205,13.47911 -60.30387,28.94536 -71.89297,34.36942 -11.58918,5.424071 -24.37462,11.252298 -28.41196,12.951614 -4.03742,1.699324 -11.39298,4.126059 -16.34562,5.392747 -4.95274,1.266688 -13.64283,2.562868 -19.31125,2.880409 -5.66851,0.317549 -11.97969,0.336329 -14.02494,0.04175 z M 453.62129,-143.7874 c 2.49071,-1.24877 6.24024,-4.34718 8.3325,-6.88538 2.09218,-2.5382 4.79562,-7.15626 6.00786,-10.26235 2.06564,-5.29339 2.22574,-15.86644 2.55444,-168.64958 0.24872,-115.57829 -0.0505,-165.41793 -1.03094,-171.30555 -0.75981,-4.56688 -3.20684,-12.09722 -5.43756,-16.73407 -2.23088,-4.63686 -6.64637,-11.30005 -9.81216,-14.8071 -3.16579,-3.50709 -8.47564,-8.1216 -11.79946,-10.2545 -3.32382,-2.1329 -20.47763,-10.76001 -38.11952,-19.17135 -17.64189,-8.41134 -43.51125,-20.75565 -57.48727,-27.43179 -13.97603,-6.67615 -37.40366,-17.84217 -52.06153,-24.81336 -14.65777,-6.9712 -45.05794,-21.42196 -67.556,-32.11276 -22.49797,-10.69083 -44.0216,-20.30745 -47.83025,-21.37027 -6.34331,-1.77017 -7.52215,-1.75876 -14.03991,0.13598 -5.18288,1.50672 -8.58711,3.54051 -12.536,7.48942 -3.83463,3.83467 -5.98972,7.37722 -7.3644,12.10593 -1.72992,5.95022 -1.90699,25.13464 -1.61169,174.56286 l 0.33167,167.87798 3.26146,7.59822 c 1.79381,4.179 5.5381,10.95077 8.32059,15.04835 2.78269,4.09758 7.42234,9.4728 10.31062,11.94496 2.88808,2.47213 11.13657,7.49511 18.32977,11.16214 7.19338,3.66703 28.13932,13.77527 46.54689,22.46275 18.4073,8.68747 37.93045,17.88589 43.38453,20.44094 5.45408,2.55506 26.92942,12.72097 47.72312,22.59092 20.7936,9.86997 52.5884,25.08948 70.65492,33.82117 18.06651,8.73167 35.89612,16.82728 39.6211,17.99026 4.05493,1.26592 8.78078,1.85808 11.77591,1.47557 2.75163,-0.35139 7.04067,-1.66063 9.53131,-2.90939 z m 104.10265,-5.11578 c 7.74696,-3.76617 43.09112,-20.92785 78.54241,-38.1371 35.45155,-17.20924 70.87206,-34.35003 78.71226,-38.09065 7.8401,-3.74061 30.44493,-14.7571 50.23279,-24.48107 34.33118,-16.87072 36.29945,-18.02729 43.00439,-25.26934 3.89284,-4.2049 8.99314,-11.59951 11.43675,-16.58157 2.42565,-4.94569 4.96745,-11.99674 5.64839,-15.66901 0.78463,-4.23139 1.23795,-66.91658 1.23795,-171.14835 0,-145.49786 -0.22219,-165.12377 -1.92665,-170.1258 -1.05954,-3.10987 -3.83581,-7.88488 -6.1694,-10.61115 -2.3335,-2.72626 -6.61434,-5.90569 -9.51271,-7.0654 -2.89829,-1.15969 -7.57324,-2.10855 -10.3885,-2.10855 -3.48635,0 -9.42408,1.95322 -18.62002,6.125 -7.42577,3.36874 -43.06481,20.21442 -79.1979,37.43458 -13.77806,6.56629 -29.621,14.12016 -45.35829,21.62613 -25.53413,12.17863 -50.79013,24.23118 -66.49674,31.73478 -25.38704,12.12827 -48.53121,23.91649 -51.43131,26.19615 -2.90019,2.27967 -6.56424,5.53936 -8.14245,7.24375 -1.57829,1.70439 -4.7133,5.8879 -6.96694,9.29669 -2.25344,3.4088 -5.42926,10.10242 -7.05737,14.87473 l -2.9601,8.6769 v 170.43952 c 0,159.66237 0.13772,170.79651 2.17944,176.08586 1.1988,3.10551 4.31449,7.73111 6.9239,10.27914 2.60939,2.54799 6.36993,5.1052 8.35669,5.68269 1.98686,0.57749 5.91995,0.91264 8.74027,0.74479 3.21127,-0.19111 10.3921,-2.86442 19.21314,-7.15272 z m -48.91677,-430.07673 c 4.47586,-1.3428 15.18312,-5.80366 23.79424,-9.91304 8.61102,-4.10938 25.41783,-12.07502 37.34852,-17.70144 11.93086,-5.62642 38.70533,-18.33462 59.49893,-28.24042 20.7936,-9.90582 46.73136,-22.3168 57.63961,-27.57999 10.90806,-5.26317 23.73755,-11.39204 28.50988,-13.61971 4.77224,-2.22765 16.30258,-7.73387 25.62279,-12.23602 11.94179,-5.76848 17.72943,-9.28601 19.59923,-11.91173 1.45916,-2.0493 2.95876,-5.61009 3.33239,-7.91289 0.4323,-2.66343 -0.10198,-5.83377 -1.46828,-8.7131 -1.18137,-2.48943 -3.61307,-5.56652 -5.40381,-6.83801 -1.79082,-1.27147 -15.24872,-8.02202 -29.9065,-15.00125 -14.65786,-6.97921 -38.36446,-18.25957 -52.68136,-25.06746 -14.31681,-6.8079 -30.49322,-14.49457 -35.9473,-17.08148 -5.45398,-2.58695 -22.46693,-10.66736 -37.80654,-17.9565 -15.33951,-7.28913 -41.27728,-19.53892 -57.63951,-27.22175 -16.36224,-7.68281 -31.76701,-14.62183 -34.23282,-15.42 -2.4659,-0.79819 -8.7047,-1.92463 -13.86411,-2.50323 -5.17891,-0.5808 -14.09037,-0.57463 -19.89543,0.0137 -5.78304,0.58617 -14.04705,2.40187 -18.36443,4.03487 -4.31738,1.63299 -23.74713,10.50817 -43.17714,19.72261 -19.43019,9.21443 -48.43591,23.02269 -64.45728,30.68502 -16.02126,7.66236 -35.26536,16.85142 -42.76478,20.42016 -7.49932,3.56872 -26.18567,12.48076 -41.52529,19.80448 -15.33951,7.32372 -32.99548,15.75111 -39.23546,18.72752 -7.74336,3.69356 -12.56425,6.89038 -15.18456,10.0693 -2.89053,3.50665 -3.83924,5.89517 -3.83924,9.66549 0,3.3123 1.05963,6.56721 3.12961,9.61345 2.32041,3.41488 5.76543,5.85786 13.32523,9.44934 5.60768,2.66406 31.67107,15.01671 57.91874,27.45035 26.24777,12.4336 49.95428,23.59368 52.68137,24.80016 2.72699,1.20648 16.67206,7.88582 30.98905,14.843 14.31681,6.95718 40.53353,19.49152 58.25917,27.85408 17.72573,8.36257 35.01755,16.07859 38.42637,17.14671 3.40884,1.06811 7.3135,2.20417 8.677,2.52458 1.3635,0.32042 8.78467,0.57177 16.49138,0.55857 10.3034,-0.0177 16.16648,-0.67026 22.15033,-2.46544 z"
        id="path234" transform="matrix(0.95,0,0,0.95,24.262097,-24.14736)" inkscape:label="Core" sodipodi:nodetypes="sssssssssssssssssssssssssssssssssssssssssssssssssssssssssssssssscsssssssssssscssssssssssssssssssssssssssssssscssssssssssssssssssssssssssssssssssssssssssss" /></svg>
