<?xml version="1.0" encoding="UTF-8" standalone="no"?>
<svg
   height="24"
   id="svg22"
   version="1.1"
   viewBox="0 -960 960 960"
   width="24"
   inkscape:export-filename="../../../fastlane/metadata/android/en-US/images/icon.png"
   inkscape:export-xdpi="2457.6001"
   inkscape:export-ydpi="2457.6001"
   inkscape:version="1.2.2 (b0a8486541, 2022-12-01)"
   sodipodi:docname="side.svg"
   xmlns:inkscape="http://www.inkscape.org/namespaces/inkscape"
   xmlns:sodipodi="http://sodipodi.sourceforge.net/DTD/sodipodi-0.dtd"
   xmlns="http://www.w3.org/2000/svg"
   xmlns:svg="http://www.w3.org/2000/svg">
  <sodipodi:namedview
     bordercolor="#666666"
     borderopacity="1.0"
     id="namedview14"
     pagecolor="#ffffff"
     showgrid="false"
     inkscape:current-layer="g20"
     inkscape:cx="11.420816"
     inkscape:cy="10.32332"
     inkscape:deskcolor="#d1d1d1"
     inkscape:pagecheckerboard="0"
     inkscape:pageopacity="0.0"
     inkscape:pageshadow="2"
     inkscape:showpageshadow="2"
     inkscape:window-height="679"
     inkscape:window-maximized="0"
     inkscape:window-width="1314"
     inkscape:window-x="26"
     inkscape:window-y="23"
     inkscape:zoom="14.578643"
     showguides="false" />
  <defs
     id="defs26">
    <linearGradient
       id="linearGradient3295"
       inkscape:swatch="solid">
      <stop
         style="stop-color:#000000;stop-opacity:1;"
         offset="0"
         id="stop3293" />
    </linearGradient>
  </defs>
  <g
     style="display:inline;stroke-width:0.952893"
     id="g20"
     transform="matrix(0.84054097,0,0,0.8443391,73.259541,-65.339075)">
    <path
       style="display:inline;opacity:1;fill:#000000;fill-opacity:1;stroke:#000000;stroke-width:0;stroke-miterlimit:2.1;stroke-dasharray:none;stroke-opacity:1;paint-order:stroke markers fill"
       d="m 537.64374,-63.119479 c -14.7782,14.7117 -32.69235,22.068595 -53.74055,22.068595 -21.0482,0 -38.9614,-7.356135 -53.74055,-22.068595 L 53.981637,-437.6083 c -14.7782,-14.71172 -22.16825,-32.54529 -22.16825,-53.4988 0,-20.95351 7.38929,-38.78613 22.16825,-53.4988 L 430.16264,-919.09472 c 14.7782,-14.71179 32.69235,-22.06859 53.74055,-22.06859 21.0482,0 38.9614,7.35604 53.74055,22.06859 l 376.18101,374.48882 c 14.7782,14.71172 22.16825,32.54529 22.16825,53.4988 0,20.95351 -7.38929,38.78613 -22.16825,53.4988 z"
       id="path1266"
       opacity="0.801"
       stroke-width="0"
       inkscape:label="black"
       sodipodi:nodetypes="sscsscsscsscs" />
    <path
       style="display:inline;opacity:1;fill:#ffffff;fill-opacity:1;stroke:#000000;stroke-width:0;stroke-dasharray:none;stroke-opacity:1;paint-order:stroke markers fill"
       d="m 524.74603,-165.83658 c -11.23148,11.1809 -24.84616,16.77215 -40.84285,16.77215 -15.99668,0 -29.61064,-5.59067 -40.84282,-16.77215 L 157.16277,-450.44803 c -11.23147,-11.18089 -16.84783,-24.7344 -16.84783,-40.65907 0,-15.92468 5.61582,-29.47745 16.84783,-40.65907 l 285.89759,-284.61145 c 11.23146,-11.18093 24.84614,-16.77215 40.84282,-16.77215 15.99669,0 29.61065,5.59059 40.84285,16.77215 l 285.89762,284.61145 c 11.23129,11.1809 16.84779,24.73439 16.84779,40.65907 0,15.92467 -5.61583,29.47745 -16.84779,40.65907 z"
       id="path1266-3"
       opacity="0.801"
       stroke-width="0"
       inkscape:label="white"
       sodipodi:nodetypes="sscsscsscsscs" />
  </g>
</svg>
