<?xml version="1.0" encoding="UTF-8"?>
<svg height="100mm" version="1.1" viewBox="0 0 100 100" width="100mm" xmlns="http://www.w3.org/2000/svg" xml:space="preserve">


    <g transform="translate(401 -8.1)"><g transform="matrix(.25 0 0 .25 -374 6.5)"><path d="m180 147c0 85-0.027 169 0.096 253 5e-3 3.4-0.67 4.1-4.1 4.1-57-0.14-114-0.14-171 0-3.4 8e-3 -4.1-0.67-4.1-4.1 0.11-132 0.11-263 7.2e-5 -395-0.0029-3.4 0.67-4.1 4.1-4.1 57 0.14 114 0.14 171 3.1e-5 3.4-0.0082 4.1 0.67 4.1 4.1-0.14 47-0.098 94-0.098 142z" opacity="0"/><path d="m32 242c0.34-0.3 0.37-0.47 0.47-0.89 0.5-1.1 0.95-1.8 2.4-2 6.1-2.6 12-1.9 18-2 2.3-0.048 4.3 0.45 6.2 2.5 1.3 8 0.26 16 0.34 23 0.018 1.7-0.035 3.7-2.2 4.5-2.2 0.82-2.7-1.4-4.1-2.1-3.5-1.8-7.1-3.4-12-3.2-4.2-1-5.7-4.5-8.6-7.1-0.48-4-0.55-7.8-0.65-12-0.24-0.55-0.44-0.64-0.34-0.86z" fill="#b4421e" /><path
        d="m166 81c1.8 4.3 2.1 8.6-1.3 13-2 0.16-3.2-0.88-4.6-1.6-3.1-1.6-6.2-2.3-9.6 0.26-2.9-0.74-5.4-1.3-8.4-1.9-4.8-4-9.9-4.1-16-2.4-1.2 0.036-1.8-0.34-2.7-0.94-5.1-1.9-10-1.8-15-2.7-3.6-0.67-7.5-2.3-12 0.069-1.7 1.2-3.2 0.68-5.1 0.85-2.1-0.016-3.7-0.036-5.8-0.47-1.3-0.14-2.2-0.26-3.6-0.75-3.8-4.3-8.7-2.9-13-3.7-2.2-0.43-4.8 0.66-6-2.7 0.18-1.5 0.74-2.3 1.3-3.6 5.8-2.2 11-3.6 17 0.19 1.5 1.6 2.9 2.3 5.1 1.7 2.8-1.4 5.8-0.81 8.6-2.6 6.3 1.3 12 1.8 19 3.5 2.1 0.49 3.9-0.053 5.9 0.58 1.3-0.0024 2.3-0.04 3.4 0.66 1.4 1 2.7 0.69 4.3 0.74 3.1-0.36 5.8 0.23 8.9-0.57 0.95 0.27 1.4 0.59 2.1 1.3 2.4 1.7 4.8 1.2 7.5 1.1 4 1.6 7.9 1.3 12 2.4 3.2 1.4 5.2 0.036 7.3-2.1z" fill="#983f1a" /><path
        d="m40 26c0.4-0.59 0.6-0.86 1.1-1.2 5.2-3.6 9.9-7.6 16-9.4 2.9 0.5 5.5 0.87 7.8 3 0.48 0.51 0.62 0.77 0.69 1.4 0.24 1.4-1.4 1.9-0.94 3.3-2.4 4.1-2.5 8.8-5.5 13-1.2 1.6-2.6 1.2-4.2 1.5-0.67 0.18-0.93 0.26-1.6 0.33-1.3-0.67-2.5-0.82-3.3-1.8-3.6-4.3-4.2-4.3-7.9 0.89-0.62 1.1-1.3 1.8-2.2 2.8-1.8 1.7-2.6 3.6-4 5.7-1.8 2.8-2.5 6.6-7.2 4.9-1.4-1.4-1.7-3-2.9-4.5-0.24-4 2.6-6.2 4-9.5 0.6-0.96 1.6-0.95 2-2 2.3-3 5-5.3 7.7-8.1z" fill="#b24421" /><path d="m142 88c2.8 0.33 5.2 0.67 8 1 2.5 1.7 5.3 0.76 7.7 1.9 1.6 0.74 2.8 1.2 2.8 3.1-0.022 1.8-1.6 2.3-2.8 2.7-6.2 2.3-13 3.7-19 5.2-7.9 1.9-16 4.4-23 6.7-0.96 0.28-2 0.35-3.3 0.91-0.73 0.47-1 0.69-1.5 1.2-1.5 1.5-3.5 1.7-4.9 3.5-3.8 0.34-2.2 4.4-4.4 5.9-0.37 0.86-0.39 1.4-0.55 2.3-2 1-3.4 2.8-5.8 1.3-1.3-2.5-1.2-4.7-0.93-7.4-0.16-2.4 0.94-3.7 2.6-5 1.9-2.2 3.1-4.7 6.6-4.8 2.8-1.4 5.4-2.4 8.3-3.2 10-3.1 19-6.4 26-15 1.6-0.34 2.8 0.0069 4.5 0.018z" fill="#b94c22" /><path
        d="m19 176c0.38-0.72 0.57-0.97 1-1.3 1.4-1.3 2.5-2.8 4.3-2.7 3.7 0.26 3.8-2.2 3.9-5.1 0.01-1.8 0.031-3.2 0.012-5-0.21-2.2 0.35-4.1-0.57-6.2-0.26-2.3-0.32-4.4-0.44-6.8-0.46-0.87-0.88-1.3-1.8-0.84-2.3 0.49-4.4 0.83-6.8 1.1-1.1-0.54-1.8-1.1-1.8-2.7 0.38-2.1 1.7-3 3.2-4.1 2.7-0.53 5-0.41 7.7-0.86 3.4-1.4 6.6 0.56 9.9-0.84 0.96-0.54 1.7-0.72 2.7-1.1 1.3-0.28 2.3-0.34 3.6 0.08 0.98 0.32 1.6 0.69 2.7 0.25 1.8-0.22 2.8-1.8 4.7-1.3 1.1 0.17 1.9 0.21 3 0.44 1.8 1 2.3 2.5 3.1 4.3-0.37 1.8-0.85 3.1-1.1 4.9-0.38 2 0.05 3.7-0.72 5.7-3.5 2.2-5 0.01-5.6-2.5-0.87-3.7-3.4-3.6-6.2-3.5-3.1 0.056-6 1.3-9 1.8-2.4 0.38-3.2 3.3-2.8 4.6 1.4 5.5-0.19 11 1.8 17-1.1 3.4-3.5 5.1-6.6 6.6-6.2 0.49-6.2 5.3-7.4 9.2-1.1 3.7 1.6 5.2 4 6.6 1.3 0.75 2.5 1.2 2.7 3.2-0.48 0.95-0.98 1.2-2.1 1.2-10-0.89-13-5.2-8.9-16 0.74-2 1.8-4.2 3.5-6.5z" fill="#873a1b" /><path
        d="m144 282c-3.5 3.3-3.8 7.6-4.6 12-0.77 3.9-0.62 7.9-1.3 12-0.54 3.2-1.1 6 3 7.2 0.37 0.11 0.78 0.66 0.88 1.1 1.7 7 3.7 14 0.15 21-0.75 0.97-1.5 1.4-2.8 1.6-0.93-0.3-1.3-0.68-1.5-1.6-0.38-2.1 0.41-3.7 1.1-4.9 1.3-2.3 0.35-3.4-1.6-4.8-0.3-0.84-0.4-1.3-0.42-2.2 1.9-4.1-0.7-8.1-5.5-9-0.71-0.14-1.5-0.14-2.4-0.87-1.8-0.99-1.2-2.4-1.2-3.9 0.19-1.5 1.2-2 2-3 0.48-1 0.86-1.6 1.4-2.6 1.1-2 1.5-3.9 1.7-6.1 1.2-2.8-0.15-5.3 0.39-8.1 0.27-0.61 0.4-0.84 0.77-1.4 2.9-1.6 4.9-2.9 1.2-6-0.3-3.9-1.8-7.7 2.7-10 4.1 1.4 7.2 3.4 8.8 7.6-0.2 1.8-1.2 2.3-2.8 2.6z" fill="#7b3712" /><path d="m157 264c0.18 0.85 0.23 1.3 0.3 2 0.21 3.3-0.61 6.4 0.31 9.9-0.21 3.8-2.3 3.7-5.2 3-1.2-0.61-2.6 0.32-3.3-1.4 0.28-1.4-1-2.3-0.91-3.6-3.2-3.3-1.2-7.4-2.5-11-0.62-1.7-1.1-3.3-2.9-4.6-1.7-1.4-1.8-2.9-1.3-4.9-0.077-0.6-0.17-0.83-0.45-1.4-1.4-2.9-5.7-3.4-4.4-7.7 2.7-2.4 4.8-4.5 2-8-0.98-1.2 0.082-2.9 0.39-4.6 1.2-1.1 2.3-0.79 3.8-0.83 0.76 0.13 1.3 0.17 1.3 0.38 3.8 11 11 20 13 33z" fill="#a8471e" /><path
        d="m32 37c-2 2.3-4.2 4.3-4.4 7.7 0.28 3.7-0.73 6.8-1.9 10-0.12 0.85-0.18 1.3-0.29 2.2-0.51 4.6 0.37 8.6 2.4 13 0.26 0.85 0.36 1.3 0.49 2.2 0.38 1 0.71 1.7 1.1 2.6 0.41 0.98 0.69 1.6 1.1 2.6 0.43 1.3 0.59 2.3 0.56 3.7-0.79 5.1 1.2 9 4 13 0.54 1.1 0.84 1.8 1.1 3.1-0.51 2.4 1.4 5.1-2.1 6.2-11-18-16-36-11-56 2.4-9 8.5-15 16-21-0.65 3.4-4 5.1-5.6 8.5-0.52 0.97-1.1 1.5-1.8 2.3z" fill="#7b3215" /><path d="m51 371c-0.22-0.91-0.23-1.4-0.12-2.1 0.92-1.8 0.52-3.2-0.37-5-0.27-6.7 0.21-13-1.2-20 0.54-2.6-0.1-4.7 0.15-7.2 0.25-2.8 0.45-5.1 0.25-7.9-0.087-2.7 0.87-4.5 2.9-6.3 3-1.4 5.6-2.2 7.9 1.1 0.49 2.2-0.17 3.6-0.95 5.1-2.8 5.4-3.3 11-2.8 17 0.62 7.2 2.6 14 0.88 22-0.62 2.6 1.1 5.1 1.9 8 0.06 1.1 0.028 1.9-0.13 2.9-0.33 1.5 0.5 2.1 1.3 3.1 0.54 0.73 0.71 1.2 0.75 2.2-0.75 0.91-0.43 2.3-1.9 2.7-1.9 0.52-3.3 1.3-5.3 0.51-2.5-1.3-1.9-3.2-1.9-4.9-0.15-3.7-0.48-7.5-1.5-12z" fill="#ad4824" /><path
        d="m57 35c2.6-3.7 3.7-7.7 5.2-12 0.058-0.96 0.2-1.5 0.82-2.2 0.2-0.21 0.29-0.66 0.32-0.88 0.16-4.8-3.4-2.8-5.9-3.3-6 1.4-10 5.8-16 7.9 6.2-7.8 15-12 25-12 2.2 0.64 4.5 0.084 5.2 2.9 0.48 5.3-3.4 8.4-4.9 13-0.2 4.7-2.7 8.2-4.4 12-0.87 2-1.6 4-2.1 6.5-0.3 1.4-0.64 2.4-1.7 3.5-0.64 0.74-1 1.1-1.9 1.5-1 0.12-1.6 0.14-2.6 0.13-1.3-0.04-2.2 0.046-3.6-0.34-2.7-2.2-0.41-4.1-0.17-6.5 0.18-1.5 0.69-2.5 0.91-4 0.8-1.6 1.6-2.7 2.5-4.3 0.81-1.1 1.8-1.3 2.9-2z" fill="#7b3215" /><path d="m157 264c-4.6-10-9-21-14-31-3.9-1.7-2.4-5.9-4.3-8.7 1.1-12-2.2-23-7.1-33-0.32-0.68 0.28-1.6-0.56-2.5 0.16-1.1 0.3-1.7 0.83-2.7 0.93-0.65 1.5-0.65 2.6-0.082 5.2 11 8.7 21 10 33 0.84 2.1 0.32 4 0.2 6.2-1.1 8.6 3.7 15 7.5 21 3.4 5.6 3.7 11 4.1 18z" fill="#90410b" /><path
        d="m50 329c0.32 2.8 0.54 5.2-0.34 7.9-0.81 0.94-0.39 2.1-1.6 2.4-0.63-14-3.7-27-4.2-40-0.11-3.1 0.47-6.3 1-9.3 0.36-2 2.3-1.6 3.7-1.7 3.3-0.22 2.7-1.6 1-3.7-1.5-3-1.3-5.6 1.2-8.2 2.5-1.7 4.7-0.96 7.3-0.65 1.1 0.28 1.7 0.63 2.2 1.7 0.13 1.6 0.17 2.8 0.12 4.4-0.051 0.7-0.068 0.98-0.13 1.7 0.34 1.4-1.2 1.7-1.1 3-1.1 1.6-1.9 3.2-3.4 3.8-5.8 2.1-6.3 6.7-5.8 12 0.062 2.1-1.4 3.6-0.99 5.8-0.19 1.9 0.092 3.3 0.18 5.2 0.55 5.4 1.9 10 0.74 16z" fill="#6d3113" /><path d="m111 110c7-3.7 14-7.6 23-9 6.7-1.1 13-4.4 20-4.6 1.4-0.038 3.1-0.79 3.1-2.7-0.064-1.6-1.7-1.8-2.9-2.4-1.2-0.52-2.4-1.1-3.8-2 4.6 0.33 10-1.3 14 4.4-1.5 3.4-4.6 3.7-7.5 4.8-14 5.2-28 7.2-42 11-0.77 0.23-1.6 0.1-2.9 0.074z" fill="#a34d1d" /><path
        d="m99 121c0.27-0.76 0.31-1.2 0.36-2 0.45-3.2 1.5-5.7 4.7-7.1 2-0.55 3.7-0.91 5.7-1.3-1.3 2.2-2.9 4.5-4.6 6.6-4.4 5.4-5.7 19-1.2 24 2.4 2.8 6.7 3.9 10 6.1-0.14 1.5 0.12 2.4 1.1 3.3 1.5 1.3 1.4 2.8-0.5 4.3-1.6 0.57-3 0.2-4.7 0.54-2-1.5-4.9-1.1-6-4-2-1.7-1.6-4.1-2.6-5.8-1.4-2.4-3-3.9-6.3-2.3-0.94-0.35-1.4-0.68-2.1-1.4-0.45-1.5-0.47-2.7-0.56-4.3 2.5-5.5 3.2-11 6.4-17z" fill="#913f12" /><path
        d="m114 154c-0.38-1.1-0.79-2.1-1.5-2.6-3.5-2.5-1.9-3.4 1.5-3.8 1.3 1.3 3.6 0.29 4.2 2.6 0.17 0.52 0.31 0.71 0.65 1.2 0.2 0.28 0.32 0.69 0.35 0.9 0.21 0.49 0.4 0.77 0.76 1.2 0.15 0.2 0.25 0.57 0.26 0.76 0.17 0.48 0.36 0.75 0.72 1.2 0.15 0.2 0.25 0.61 0.27 0.82 0.2 0.48 0.39 0.74 0.74 1.2 0.15 0.19 0.25 0.58 0.27 0.79 0.18 0.48 0.36 0.75 0.72 1.2 2.1 3.6 4 6.9 6.1 11 0.32 0.62 0.51 0.93 0.89 1.4 0.16 0.22 0.26 0.55 0.26 0.73 0.56 0.93 0.47 1.8 0.66 3 2.3 3 3.6 6.2 4.4 10-0.45 0.4-0.93 0.41-1.8 0.44-0.75 0.43-1.2 0.78-2.1 1.1-1.1-0.37-2.2-0.4-2.3-1.9-0.25-1.2-1.8-1.1-1.5-2.5-1.3-2-1.5-4.1-2.7-6.2-0.94-1.4-1.6-2.6-2.9-3.6-0.42-1.3-1.8-1.5-2.2-2.9-2.6-3.2-1.4-7.6-4.4-11-0.48-0.93-0.82-1.5-1.3-2.5-0.44-0.97-0.62-1.6-0.029-2.6z" fill="#873f0f" /><path
        d="m35 241c-0.97 0.4-1.6 0.53-2.5 0.63-0.71-2.2-0.91-4.4 0.31-6.9 2.2-1.6 4.6-1.1 7-2 2.3-0.86 4.1-2.4 6.7-1.9 2.8 0.11 5.2 0.75 7.6 0.82 3.6 0.1 5.1-1.4 4.4-5.4 0.91-0.8 0.97-2 2.5-2.2 1.7-0.12 2.9-0.5 4.6-0.43 3.9-0.19 5.6 2.2 6.7 4.8 1.1 2.4-1.4 3.2-3.1 4.7-1.1 0.7-1.8 1.2-2.8 1.9-0.65 0.69-0.96 1.1-1.4 1.9-0.23 0.9-0.46 1.4-1.2 2-1.6 0.33-2.8 1.4-4.6 0.86-8.3-2.5-16-2.2-24 1.2z" fill="#733215" /><path d="m54 145c-0.3-1.3-0.28-2.5-0.21-4-1.1-1.2-1.4-2.7-2.4-4.1-0.65-1.5 0.19-2.6 0.4-4.1 0.12-1.7 0.24-3.1-1.9-3.5-2.7-0.6-2.3-3.5-4.4-4.7-0.43-0.36-0.6-0.51-1-0.87-1.6-1.5-3.3-2.3-5-3.6-0.24-0.81-0.16-1.3 0.31-2 5-0.44 8.6 2 12 4.9 1 0.87 1.9 3 3.5 1.9 1.5-1.1-0.15-2.7-0.63-4-0.34-0.91-0.92-1.7-1.5-2.9 1.9-3.5 3.5-0.72 5.6 0.46 1.2 1.5 1.6 2.9 1.9 4.7 0.6 1.6-0.24 3.1 0.59 4.6 0.34 3.7 2.6 4.2 5.7 4 1.2-0.21 2.1-0.18 3.3 0.092 5 5.8-0.67 8.8-3.3 13-0.96 0.31-1.5 0.27-2.4-0.14-3.4-4.8-3.4-4.9-6.9-0.82-0.95 1.1-1.9 1.5-3.6 1.1z" fill="#722f12" /><path
        d="m93 19c14 4.1 26 9.5 37 19 3.2 2.8 7.1 4.7 10 8.3 0.28 1.1 0.79 1.9 0.088 3.2-3.4 1.5-6-0.53-9.1-1.4-2.1-3.5-4.4-6.3-8.3-7.9-1.1-0.71-1.8-1.4-2.8-2.1-0.68-0.45-1.1-0.65-1.8-0.95-2-0.44-2.2-2.5-3.9-3.2-2.6-2.4-5.9-2.3-9-3.7-1.3-0.52-2.2-0.88-3.5-1.3-1.3-0.27-2.4-0.22-3.7-0.81-1.1-0.78-2-1.3-3.1-2.1-0.96-0.72-1.2-1.5-1.6-2.6-0.57-1.5-1.1-2.7-0.37-4.3z" fill="#a04f20" /><path d="m24 198c0.56-0.43 0.8-0.63 1.2-1 0.4-0.75 0.82-1.2 1.9-1.4 2.3 1.2 3.8 2.7 4.7 5.2 0.12 2.7 0.92 4.9 0.91 7.6 0.045 1.2 0.33 1.9 0.63 3-3 4.6 0.55 7.7 2 11-0.055 0.64-0.098 0.89-0.18 1.5-0.11 1.2-0.18 1.9-0.23 3.1-0.032 0.91-0.054 1.4-0.14 2.3-0.18 0.62-0.29 0.86-0.75 1.3-0.6 0.19-0.86 0.17-1.4-0.083-5.7-6.4-7.4-14-11-22 1.1-1.9 2.9-2.9 3.7-5.1 0.99-1.9 1.6-3.5-0.75-4.9-0.39-0.44-0.59-0.61-0.48-1z" fill="#683215" /><path
        d="m166 81c-0.16 4.2-2.7 5.2-6.7 4.8-1.7-1.1-2.1-2.6-2.2-4.3-0.34-6-3.2-9.4-9.5-11-0.95-0.12-1.4-0.4-1.9-1.2-0.65-2.3 0.11-3.9 1.3-5.9 1.3-1.1 2.4-1.7 4.2-1.6 2.6 0.072 4.2 1.3 6.3 2.5 0.34 0.32 0.39 0.3 0.39 0.33 0.16 0.19 0.32 0.34 0.73 0.74 1.9 2.5 4.2 4.4 4.3 7.9-0.58 3 0.68 5.1 2.6 7.1 0.29 0.18 0.41 0.19 0.42 0.26z" fill="#ac5323" /><path d="m47 283c-9.8-5.2-15-13-15-24 2.4-1.6 3.1 0.58 4.4 2.1 0.89 6.9 5.6 9.5 11 12 1.5 1 0.62 2.5 1.4 3.9-0.38 2.6-0.061 4.8-2.1 6.8z" fill="#733215" /><path d="m139 335c1.1-0.016 1.8-0.016 2.8-4e-3 -0.18 2.8-1.8 4.1-4.7 4.3-4.4 0.3-6.4 2.6-5.8 7.3 0.39 3.1 0.11 6.3 0.14 9.9-0.29 1.6-1.1 2-2.6 1.8-2.3-1.5-3.3-3.4-3.9-6-0.14-0.88-0.2-1.4-0.23-2.3 0.064-1.1 0.053-1.9 0.08-3 0.28-0.88 0.17-1.4-0.02-2.2-0.41-1.2 1.1-1.8 0.43-3 0.57-1.2 0.36-2.2 0.96-3.4 0.75-0.83 1.3-1.4 2-2.2 0.49-0.39 0.71-0.52 1.3-0.76 2.1-0.86 4.3-0.36 6.2-1.8 1.4-0.04 1.9 1.1 3.2 1.3z" fill="#683215" /><path
        d="m161 397c-8.4 3.7-17 3.6-26 3.4-3.8-0.077-7.7-2e-3 -12-0.068-0.62-0.37-0.77-0.67-0.81-1.5 2.3-2.5 5.2-1.9 8.2-2.9 3.3 0.33 5.9 2.4 9.2 1 4.4 2 4.8-1.4 6-4.2 2.3-2.6 5.4-1.6 8.3-2.7 2.2 0.58 3.8 1.4 6 1.6 2.2 1.6 1.6 3.2 0.82 5.3z" fill="#8f5120" /><path d="m152 277c1.9 0.23 3.4-0.22 4.2-2.4-0.2-1.4 0.3-1.9 1.7-1.6 2 2.1 1.5 4.3 1.5 6.9-1.4 2.9-3.9 1.9-5.8 1.8-2-0.13-4-0.21-6.4-0.84-1.1-2-0.69-4.1-3.3-5.1-2.2-0.88-1.3-3.8-2.1-6.2-0.41-1.5 0.17-2.3 0.7-3.6 3-2.1 4.8-1 6.1 1.7 0.6 1.4 1.3 2.7 2.4 4.3 0.31 1.1 0.33 1.9 0.37 3 7e-3 0.93 0.13 1.4 0.67 2.1z" fill="#7b3712" /><path d="m48 276c-0.61-1.2-0.91-2-1.3-3.1-4-3.7-8.1-6.8-12-11-0.97-1.5-1.7-2.8-2.7-4.3-0.28-0.91-0.31-1.6-0.24-2.5 3.9-0.14 5.8 2.9 8.4 5.3 3 1.6 5.9 2.2 8.8 3.1 2 0.65 2.9 1.8 2.9 4.3-0.12 2.8 1 5.2-0.56 7.9-1.3 1.2-2.2 1.3-3.6 0.34z" fill="#913c1d" /><path
        d="m21 145c-0.9 0.99-1.8 1.6-3 2.4-1.2 1.6-3 0.78-4.6 1.4-1.9-0.087-2.9-0.82-3.9-2.3-0.24-0.75-0.27-1.2-0.25-1.9 3.1-5.1 5.1-11 9-15 0.089-0.4 0.08-0.46 0.11-0.46 3.1-0.49 3.5-4.3 6.9-4.9 3.8 2.1 2.8 4.2 0.66 6.5-3.9 4-6.4 8.5-4.9 15z" fill="#a24624" /><path d="m152 64c-1.2 0.49-1.9 0.78-2.9 1.2-3.8 1.5-7.8-0.42-11-5.5 0.21-1.5 0.81-2.3 1.6-3.4 1.5-0.77 2.6-1.2 4-2.1 2.1-0.69 3.7-0.26 5.6 0.8 0.6 0.53 0.83 0.81 1.3 1.2 0.41 0.29 0.59 0.43 1 0.81 0.26 0.23 0.16 0.23 0.16 0.18 0.22 0.22 0.45 0.47 0.9 0.88 0.2 0.17 0.14 0.13 0.15 0.1 1 1.9 1.8 3.8-0.75 5.8z" fill="#783b16" /><path d="m93 19c0.88 0.97 1.4 1.8 2.1 2.8-1.7 2.2-4 2.2-6.2 1.3-2-0.88-4.1-1.5-6.6-2.4-2.2-1.4-4.3-1.6-6.5-1.5-1.9 0.07-3.9 0.64-5.4-1.8-0.47-1.9-1.2-3.1-2.7-4 8.6-0.44 17 1.8 25 5.6z" fill="#9c4c1a" /><path d="m24 198c0.33 0.31 0.33 0.48 0.32 0.91-11-0.53-15-8-9.2-18 1-1.7 2.4-3.1 3.9-4.8-0.49 2.5-1.2 5.3-2.1 7.9-2.8 8.7-1.8 11 7 14z" fill="#652f15" /><path
        d="m117 399c-2-0.22-3.7-0.22-5.8-0.29-2.3-1.5-4.8-0.32-7.1-1.8-2.2-3.7 0.45-6.1 1.6-9.2 0.91-1.1 1.8-1.3 3.1-1.4 3 1.2 4.7 3.5 7.1 5.6 0.8 1.6 1.8 2.2 3 2.9 1.6 0.9 2.1 2.2 0.56 4.1-0.88 0.46-1.4 0.52-2.4 0.23z" fill="#9f5322" /><path d="m150 377c0.36 0.27 0.51 0.62 0.52 0.81 0.19 0.51 0.4 0.8 0.84 1.3 0.2 0.18 0.13 0.089 0.18 0.055 0.6 1.3 1.4 2.5 1.1 4.4-2.3 3.6-4.9 6.6-6.7 11-0.61 0.68-1.1 0.84-2 0.78-0.7-0.044-0.98-0.061-1.7-0.15-1.4-0.73-2-1.7-3-2.9-1.7-2.9 0.012-4.8 1-6.7 1.6-3.1 2.4-6.6 5.6-9.1 1.7-0.38 2.7 0.16 4.2 0.97z" fill="#963713" /><path
        d="m150 383c0.5-1.4 0.8-2.6 1.2-4.1 1.2 0.35 2.2 1 3.7 1.8 0.59 0.25 0.83 0.45 1.2 0.83 0.18 0.15 0.073 0.15 0.075 0.093 0.2 0.2 0.41 0.44 0.77 0.88 0.14 0.2 0.26 0.56 0.26 0.75 0.36 0.78 0.97 0.9 1.8 1.2 0.26 0.16 0.16 0.19 0.15 0.14 0.21 0.23 0.44 0.49 0.9 0.9 0.2 0.17 0.083 0.17 0.082 0.11 0.22 0.22 0.46 0.48 0.92 0.89 0.21 0.17 0.1 0.1 0.13 0.051 0.33 0.47 0.47 1 0.7 1.9 0.49 1 0.83 1.8 1.1 2.8-0.39 0.82-0.71 1.4-1.7 1.4-2-0.041-3.7-0.038-5.8-0.044-2.2-3.1-5.4-5.4-5.6-9.6z" fill="#a34d1d" /><path d="m27 125c-3.2 0.78-4.7 3.3-7.8 3.6 2.2-2.9 4-6.4 7.5-8.6 2.9-1.9 5.6-3.2 9.4-1.7 1.1 0.7 1.9 1.3 1.9 2.8-1.1 2.2-3 2.6-5.1 3.3-1.9 1.3-3.5 0.58-5.8 0.58z" fill="#873a1b" /><path d="m59 120c-1.9-0.73-3.4-1.3-5.2-2-3.9-1.9-7.4-3.8-11-5.9-0.57-0.74-0.65-1.2-0.14-2.1 3.4-1.3 6.5 1.4 10-0.25 1.2 0.29 2.1 0.48 3.3 0.72 1.9 0.39 3.2 1.1 4 3 0.74 1.7 1.8 3 1 5-0.36 1-0.79 1.4-1.8 1.5z" fill="#893b1c" /><path
        d="m89 397c-0.7 0.26-1.1 0.29-1.9 0.27-0.52-0.24-0.73-0.43-1.2-0.92-1.2-2-0.22-3.6-0.041-5.6 1.7-2.5 2.2-5.4 5.4-6.4 1.8 0.53 3.4 0.42 5 1.3 1.4 1.7 1.6 3.3 1.1 5.4-0.28 2.4-2.6 2.5-3.7 4.2-0.76 0.43-1.2 0.56-2.1 0.58-1.1 0.16-1.7 0.47-2.6 1.1z" fill="#8c3715" /><path d="m128 357c1.1-0.094 1.9-0.083 3-0.074 3.3 3.1 6.1 6.3 9.1 9.8 0.78 1.9 0.36 3.1-1.8 3.7-2.2-0.034-3.1-1.3-3.7-2.7-0.67-1.6-1.9-2.1-3.8-2.1-1.5-0.15-2.6-0.48-3.5-1.8-0.57-2-0.75-3.6-0.19-5.7 0.19-0.61 0.34-0.82 0.88-1.1z" fill="#824121" /><path d="m18 129c-0.63 6-3.8 11-8.4 15 0.33-6.2 3.2-11 8.4-15z" fill="#873a1b" /><path d="m55 396c-3.6 0.33-3.3-1.9-3.2-4.4 1.8-2.1 4.1-2.7 6.5-3.8 0.63 9e-3 0.88 0.018 1.5 0.078 1.4 0.44 2.4 0.81 3.6 1.6 0.77 1.3 1.2 2.4 1.5 3.9-2.4 4.4-6.3 1.6-9.9 2.6z" fill="#823817" /><path d="m150 55c-1.3 0.62-2.7 0.91-4.5 1.3-1.6-0.12-2.9-0.56-4.6-0.33-2-0.14-2.9-1-3-3.1-0.12-1.3-0.23-2.1 0.89-3.1 0.61-0.87 0.91-1.4 1.4-2.3 3.9 1.5 7 4.2 9.9 7.5z" fill="#9f5322" /><path
        d="m50 371c3.1 1.8 2.5 5.1 2.8 8.1 0.18 2.1 0.34 4.2 0.64 6.6 1.6 1.9 1.3 3.1-1.2 3.5-1.9-6-2.2-12-2.2-18z" fill="#823817" /><path d="m50 343c0.66 7.3 1 14 1.4 22-0.2 0.6-0.42 0.73-0.97 0.63-1.8-1.7-1.4-3.6-1.3-5.3 0.42-5.4-0.78-11-0.85-17 0.4-0.91 0.84-1.1 1.7-0.69z" fill="#6d3113" /><path d="m43 110c-0.55 0.53-0.79 0.77-1.2 1.2-2.5 0.17-3.6-1.7-5.2-3.4-0.58-1.1-0.85-2-1.7-2.9-0.54-0.76-0.83-1.3-1.2-2.1 0.97-2 0.5-3.8 0.11-5.9 0.089-0.59 0.24-0.83 0.79-1.2 1.5-0.096 2.2 0.67 2.5 1.6 1.5 4.1 3.1 8 6.3 11 0.4 0.38 0.082 0.93-0.41 1.7z" fill="#9a4829" /><path d="m33 228c-0.2-0.97-0.28-1.7-0.38-2.8 0.22-1 0.67-1.4 1.8-1.5 1.4 0.48 1.7 1.4 2.4 2.5 0.84 1.4 1.2 2.9 2.5 3 3.8 0.51 2.8 2.6 1.6 5.2-2.7 0.41-5 0.52-7.7-0.53-0.4-0.3-0.45-0.47-0.56-0.9-0.057-0.69-0.038-1.1 0.0046-1.9 0.043-0.5 0.065-0.67 0.11-1.1 0.32-0.73 0.37-1.2 0.14-2z" fill="#9a4829" /><path
        d="m93 395c0.41-1.7 1.1-2.9 2.6-3.9 1.8-2.4 3.4-3.9 5.9-0.62 2.5 1.5 1.1 4.1 2.6 6 0.27 0.59 0.34 0.85 0.12 1.4-1.7 0.039-3.3 0.74-4.9-0.78-2.1-1.6-4.4-0.62-6.4-2z" fill="#9f5322" /><path d="m56 396c2.2-1.5 5.7-0.095 8.5-2.5 0.41-0.47 0.57-0.67 1.1-0.99 3.5 0.3 6.5 1.1 10 0.96 0.96-0.036 1.5-0.049 2.5-0.028 3.4 0.021 6.6-1.4 9.1 2.2 0.25 0.4 0.28 0.83 0.3 1-10-1.4-21-0.29-32-0.76z" fill="#a56128" /><path d="m28 167c1.6 5.6 1.5 5.8-7.4 7.7-0.019-2.2 1.3-3.6 3.5-3.8 2.3-0.26 3-1.9 3.8-3.9z" fill="#652f15" /><path d="m25 204c1.4 1.6 2.8 3.3 1.6 5.3-1.2 1.9-2.9 0.31-4.6-0.2-0.58-2.5-0.58-4.7 3-5.1z" fill="#824121" /><path d="m36 121c0.24-1.1 0.3-1.7 0.39-2.6 1.1-0.36 2.2-0.41 3.6-0.41 0.57 0.32 0.76 0.57 1.1 0.95 1.1 2 2.9 2.8 5 3.7 0.25 0.21 0.19 0.34 0.15 0.39 0.67 0.91 1 2.1 0.076 2.7-2.8 1.9-5.3-0.82-8-1-2-0.13-3.1-1-2.4-3.7z" fill="#a24624" /><path
        d="m48 276c0.89-0.37 1.6-0.4 2.8-0.43 0.78-0.043 1.1 0.11 1.3 0.72-0.58 2.4-1.2 4.6-1.8 7-0.91 0.033-1.7-0.28-2.8-0.74-0.062-2.2 0.17-4.2 0.53-6.6z" fill="#823817" /><path d="m52 389c0.51-1.1 1-1.9 1.7-3 1.5-0.29 3-0.31 4.8-0.34 1.4 0.58 1.5 1.4 0.73 2.7-2.1 1.9-3.5 4.4-6.8 2.4-0.31-0.53-0.36-0.96-0.44-1.7z" fill="#9a4829" /><path d="m152 64c-0.038-1.9 0.29-3.6 0.71-5.8 2.1 1.5 3.6 3.6 5 6.3-1.8 0.084-3.5-0.18-5.7-0.57z" fill="#a56128" /><path d="m147 280c4.1 0.37 7.8 2 12 0.32 0.7 2-0.72 1.8-2.1 1.8-4.1-0.04-8.2-0.063-13-0.16 0.12-0.37 0.69-0.67 1.5-1.1 0.076-0.87 0.39-1.2 1.5-0.88z" fill="#b97430" /><path d="m137 369c1.2-0.7 2-1.3 2.9-2 1.9-0.092 2.9 1.1 4.1 2.4 0.26 0.6 0.38 0.92 0.4 1.7-1.2 0.83-0.83 2.6-2.6 3-2.7 0.52-4.5-0.22-5.9-2.6-0.13-1.2 0.098-1.9 1.1-2.5z" fill="#873f0f" /><path d="m166 81c-3-0.85-4.6-2.8-2.9-6.4 1.1 1.9 1.9 4 2.9 6.4z" fill="#983f1a" /><path d="m158 273c-0.53 0.66-1 0.9-1.7 1.3-1-2.5-0.36-4.9 0.7-7.7 2 1.5 0.8 3.9 1 6.4z" fill="#90410b" /><path
        d="m13 147c1.6-0.22 2.9-0.23 4.6-0.22 0.47 0.62 0.56 1.2 0.68 2.1-1.4 0.35-2.9 0.38-4.7 0.34-1.2-0.61-1.2-1.3-0.5-2.3z" fill="#652f15" /><path d="m150 377c-0.98 0.29-2 0.24-3.4 0.21-3.6-0.35-3.6-2.3-2.1-5.3 2.3 1.2 3.9 3 5.5 5.1z" fill="#c35b2f" /><path d="m13 147c0.22 0.76 0.15 1.4 0.064 2.3-2.3 0.52-3.7-0.21-3.6-3.1 1.1-9e-3 2.2 0.33 3.5 0.83z" fill="#873a1b" /><path d="m50 343c-0.51 0.3-0.93 0.3-1.7 0.29-0.36-1.1-0.4-2.1-0.4-3.5 0.5-0.92 0.96-1.5 1.6-2.2 0.3 1.6 0.42 3.4 0.46 5.4z" fill="#873a1b" /><path d="m93 395c2.2 0.33 4.3 0.21 6.2 1.9-2.3 0.97-4.6-0.039-7.4-0.51-0.55-0.15-0.69-0.34-0.58-0.79 0.65-0.35 1-0.44 1.7-0.6z" fill="#b97430" /><path d="m104 398c-0.24-0.33-0.14-0.81-0.1-1.1 0.18-0.43 0.33-0.62 0.75-0.57 2.1 0.41 4.1 0.26 5.9 1.8-1.9 0.19-4.1 0.15-6.6-0.21z" fill="#b97430" /><path d="m161 393c0.52-0.56 1-0.83 1.8-1.2 0.13 1.6 1.2 3.5-1.1 4.9-0.48-1.1-0.59-2.2-0.67-3.7z" fill="#7b3712" /><path d="m27 156c1.7 1.2 1.8 3 0.93 5.3-1.6-1.3-0.95-3.2-0.93-5.3z"
        fill="#652f15" /><path d="m50 365c0.18-0.31 0.4-0.3 0.95-0.27 1.1 1.2 1 2.2-0.13 3.5-0.43-0.81-0.61-1.9-0.83-3.2z" fill="#93401f" /><path d="m117 399c0.27-0.42 0.77-0.5 1.6-0.63 1.4-0.88 2.5-1.6 4-0.083 0.21 0.43 0.26 0.82 0.27 1-1.9 0.14-3.8 0.089-5.9-0.31z" fill="#b97430" /><path d="m145 225c-0.31-1.5-0.3-3.3-0.29-5.5 1.6 1.3 0.86 3.3 0.29 5.5z" fill="#9f5322" /><path d="m35 105c0.85 0.24 1.5 0.98 1.7 2.3-0.87-0.21-1.5-0.91-1.7-2.3z" fill="#7b3215" /><path d="m33 231c0.32 0.52 0.35 1.1 0.29 1.8-0.41-0.27-0.72-0.72-1.1-1.5 0.13-0.29 0.33-0.29 0.82-0.3z" fill="#733215" /><path d="m25 149c0.25-0.73 0.87-0.87 1.6 2e-3 -0.36 0.13-0.82 0.11-1.6-2e-3z" fill="#652f15" /><path d="m91 395c0.24 0.049 0.22 0.23 0.19 0.69-0.5 0.54-0.98 0.81-1.8 1 0.24-0.56 0.78-1.1 1.6-1.7z" fill="#93471a" /><path d="m131 176c-0.3-0.48-0.55-1.3-0.83-2.4 1.1 0.19 0.92 1.2 0.83 2.4z" fill="#a56128" /><path d="m162 389c-0.32-0.21-0.57-0.74-0.85-1.6 0.71-0.038 0.95 0.52 0.85 1.6z" fill="#b97430" /><path
        d="m159 385c-0.41 0.026-0.94-0.25-1.7-0.71 0.37 0.014 0.98 0.21 1.7 0.71z" fill="#b97430" /><g fill="#8f5120"><path d="m123 160c-0.18 0.012-0.37-0.25-0.69-0.72 0.13 0.021 0.4 0.24 0.69 0.72z"/>
        <path d="m119 152c-0.18 0.013-0.36-0.24-0.67-0.68 0.12 0.018 0.39 0.22 0.67 0.68z" />
        <path d="m120 154c-0.19 8e-3 -0.39-0.26-0.73-0.74 0.14 0.015 0.43 0.24 0.73 0.74z" /></g><path d="m151 379c-0.15-9e-3 -0.37-0.29-0.77-0.78 0.11 0.031 0.4 0.27 0.77 0.78z" fill="#a34d1d" /><path d="m156 382c-0.16 0.057-0.41-0.14-0.84-0.48 0.14-0.033 0.45 0.095 0.84 0.48z" fill="#b97430" /><path d="m121 156c-0.2 0.017-0.39-0.25-0.7-0.74 0.14 0.02 0.41 0.25 0.7 0.74z" fill="#8f5120" /><path d="m160 386c-0.18 0.036-0.43-0.21-0.87-0.65 0.15-9e-3 0.47 0.18 0.87 0.65z" fill="#b97430" /><path d="m122 158c-0.19 0.021-0.39-0.24-0.7-0.7 0.13 0.015 0.41 0.23 0.7 0.7z" fill="#8f5120" /><path d="m32 242c0.16-8e-3 0.25 0.26 0.21 0.4s-0.47-0.013-0.47-0.013 0.1-0.38 0.26-0.39z" fill="#733215" /><path d="m130 172c-0.2 0-0.41-0.3-0.75-0.83 0.15 0.02 0.45 0.28 0.75 0.83z" fill="#a56128" /><path d="m152 57c-0.19 0.096-0.45-0.08-0.84-0.46 0.15-0.051 0.45 0.083 0.84 0.46z" fill="#a56128" /><path d="m161 387c-0.18 0.036-0.43-0.21-0.87-0.64 0.14-9e-3 0.47 0.18 0.87 0.64z" fill="#b97430" /><path
        d="m153 58c-0.18 0.042-0.45-0.19-0.87-0.62 0.16-0.022 0.47 0.17 0.87 0.62z" fill="#a56128" /><path d="m157 383c-0.25 0.07-0.46-0.17-0.77-0.65 0.17-9e-3 0.47 0.18 0.77 0.65z" fill="#b97430" /><path d="m144 371c-0.24-0.42-0.19-0.61-0.089-1.1 0.34-0.08 0.62 0.12 0.99 0.57 0.093 0.24 0.047 0.3 0.023 0.32-0.23 0.16-0.43 0.29-0.92 0.19z" fill="#c35b2f" /><path d="m159 66c-0.16 0.038-0.38-0.17-0.75-0.55 0.2-0.15 0.48 0.0044 0.75 0.55z" fill="#a56128" /><path d="m51 268c-3-3.1-7.4-3.5-10-6.9 4.4-2.7 8.7-0.65 12 1.6 3.4 2.2 3.4 0.97 3.6-1.7 0.37-6.4 0.72-13 1.1-20 0.15-0.67 0.29-0.9 0.75-1.4 2.3-0.56 2.5 0.77 2.5 2.2 0.055 1.8 1 2.8 2.7 3.8 0.2 2.5 2.3 3.9 2.1 6.6-1.3 7-1.3 14-2.5 21-1.1 1.2-1.7 2.3-3.5 2.4-5.4 0.13-7.9-2.5-8.9-7.4z" fill="#9f3716" /><path d="m59 241c-0.35 0.28-0.84 0.31-1.1 0.33-5.7-3.3-11-2.1-17-1.4-1.8 0.21-3.6 0.8-5.7 1.3 0.39-1.8 2-2.6 3.8-2.9 6.3-1.1 13-1.5 19-0.14 1.1 0.83 1.5 1.6 0.76 2.9z" fill="#913c1d" /><path
        d="m58 47c0.95-6.5 5.3-11 6.9-18 4.9-3.4 7.8-2.1 10 4.5-0.0092 1.1-0.034 1.7-0.071 2.7-0.024 0.98-0.031 1.5-0.084 2.5-0.51 2.3 0.44 3.1 2.2 3.4 1.7 0.32 2.8-0.68 3.8-1.7 1.5-1.5-0.068-2.3-0.72-3.3-0.27-0.41-0.41-0.88-0.51-1.8-0.74-2.1 0.47-3.4 1.3-5.2 0.44-0.53 0.68-0.69 1.3-0.9 2.8 0.53 5.1-1.2 7.8-0.095 0.64 0.094 0.89 0.11 1.5 0.15 0.87 0.046 1.4 0.14 2.1 0.45 1.6 0.62 2.9 0.94 4.7 0.84 1.1-0.11 1.8-0.13 2.9-0.02 1.1 0.26 1.9 0.5 3.1 0.68 4.3 1.2 3.7 5.9 6.8 8.1 0.51 3.8 2.8 7.3-0.097 11-0.5 0.49-0.73 0.65-1.3 1-4.1 1.8-4.1 4.8-3.2 8.4-0.21 1.3-0.73 2.2-1.1 3.5-0.57 1-0.96 1.7-1.8 2.5-0.87 0.39-1.4 0.51-2.4 0.63-2.1 0.22-3.9 0.72-5.7-0.75-1.5-0.72-1.8-1.9-2.4-2.9-2.7-4.2-5.3-4.4-9.4-0.52-2.2 1.6-1.7 3-0.14 4.7 0.43 0.32 0.6 0.44 1 0.73 1 0.62 1.8 0.97 3 1.2 2.2-0.54 3.9-1.9 6.4-1.7 2.4-0.35 4.5-1.1 6.2 1.5 1.4 4.1-2.1 5.4-3.9 7.9-3 0.53-5.7 0.8-8.8 1.1-1.6-1.3-3.1-1.7-5.1-1.2-4.8-1.9-9.5-2.4-15-0.93-3 0.31-5.7 0.93-8.8 0.73-2.3 0.16-4.1-0.21-6.3 0.092-3.1-2.3-3.2-5.2-3-8.7-1.5-7.1 3-11 6.2-17 0.34-0.73 0.4-1.1 0.53-1.8 0.47-0.92 1-1.5 1.6-2.3z"
        fill="#b34520" /><path d="m96 77c-1.8-2.8-3-5.6 2.2-6.1 0.88-0.52 1.3-1.1 1.9-2 1.4-0.55 2.3 0.014 2.9 0.78 2 2.5 3.3 0.8 5-0.92 0.55-0.23 0.78-0.3 1.4-0.48 1.1-0.28 1.8-0.23 2.9-0.37 0.63-0.11 0.88-0.15 1.5-0.28 2.9-1.2 5.1-1.2 7.2 1 3.1 3.3 7.2 4.1 11 1.9 4.7-2.6 7.7-0.5 11 3.2 0.25 0.95 0.31 1.5 0.29 2.5-0.026 1.3-0.058 2.1-0.44 3.3-1.6 2-3.9 0.56-5.7 2-3.1-0.083-5.8-0.41-9-0.82-4.2-2.7-8.1-4.6-13-2.2-6.4 0.51-12-2-19-1.6z" fill="#ba4b22" /><path d="m91 83c1.6 0.18 2.9 0.18 4.7 0.18 4.8 0.85 9.3 0.38 14 1.6 2 0.55 4.1 0.39 5.2 3.1 0.1 1.6-0.23 2.5-1.7 3.3-1.1 0.4-1.7 0.68-2.8 1-1.9-0.52-3.2-1.3-5.3-0.91-1.3 0.034-2.1 0.075-3.4 0.18-3.1 0.17-5.1 1.6-6.9 3.3-2.6 2.5-5.2 2.4-7.7 0.038-3.2-3-6.8-5.1-11-6.3-2.7-0.77-5.2-2.6-3.6-6.6 4-1.1 7.6 1.3 12-0.15 1.1-0.25 1.9-0.23 3-0.2 1.3 1.2 2.9 0.55 4.2 1.6z" fill="#bb431c" /><path d="m148 69c3 0.25 5.8 0.85 8.1 2.6 4.6 3.5 4.2 8.2 2.5 13-4.1-0.2-8.1-0.74-13-1.4-1.6-1.2-2.8-2.1-3.3-4 1.6-2.7 2.2-5.4 3.2-8.3 1-0.43 0.97-1.7 2.1-2.2z"
        fill="#b94c22" /><path d="m113 88c-3.4-2.7-7-3.1-11-3.4-2.1-0.14-4.3-0.1-6.4-1.9 4.1-1.9 8.5-0.77 13-0.24 4.7 0.57 9.4 1.2 15 1.9-0.8 4.7-4.8 6.2-10 3.6z" fill="#b34520" /><path d="m84 81c-2.7 3.1-6.3 1.7-10 1.1-1.6 1.1-2.8 2.2-5.1 1.6-3.3-1.5-6.2-0.59-9.1-0.48-2.9 0.11-6.2 1.2-7.9-3 0.11-1.9 0.48-3 2.2-3.6 1.6-0.3 2.8 0.049 4.3-0.27 0.67-0.18 0.93-0.26 1.6-0.31 2 0.018 3.5-0.35 5.2 0.75 4 3.4 8.9 1.8 13 3.1 1.7 0.53 3.6 0.66 5.8 1z" fill="#b34520" /><path d="m113 88c3.9-0.12 7.7 0.078 11-2.9 0.71-0.21 1.1-0.19 1.9-0.16 2 1.4 5 0.88 5.8 4.1-0.17 3-2.2 3.7-4.1 3.9-4.2 0.34-8.3 0.78-12 1.9-3.9 1-5.1-0.76-4.2-5.6 0.8-0.57 1.3-0.81 2.1-1.2z" fill="#c0461e" /><path d="m115 79c3.1-4.2 8.8-3.7 12 1.5-1.3 0.32-2.6 0.31-4.3 0.29-0.97-0.39-1.5-0.76-2.4-1.3-2-0.23-3.6-0.31-5.7-0.44z" fill="#c35b2f" /><path d="m130 89c-1.4-1.5-2.6-2.7-4-4.1 5 0.29 10 0.19 16 2.5-0.77 0.5-1.9 0.81-3.3 1.2-2.7 2.4-5.2 2.7-8.1 0.39z" fill="#b34520" /><path
        d="m145 79c0.22 1.8 0.5 3.1 0.88 4.8-2.1-0.18-4.2-0.68-6.7-1.3-0.52-1.4 0.61-1.9 1.5-3 0.47-0.62 0.72-1 1.1-1.6 0.51-1 1.1-1.4 2.4-0.95 0.71 0.63 0.91 1.1 0.87 2.1z" fill="#ad4824" /><path d="m65 77c-1.9 0.15-3.6 0.15-5.6 0.13-0.94-0.37-1.1-0.85-0.77-1.8 2.8-0.46 5.3-0.54 8.1 0.42-0.2 0.47-0.8 0.79-1.7 1.3z" fill="#8c3715" /><path d="m82 77c1.4-1.9 3.1-2.2 4.5 0.6-1.3 0.036-2.8-0.21-4.5-0.6z" fill="#ae4923" /><path d="m141 79c-0.23 0.77-0.76 1.6-1.5 2.7-0.65 0.19-1.1 0.16-1.8 0.094 0.46-1.4 1.6-2.3 3.3-2.8z" fill="#b25027" /><path d="m91 83c-1.1 0.18-2.4-0.058-3.7-1.3 1.1-0.2 2.4 0.099 3.7 1.3z" fill="#b34520" /><path d="m121 79c0.44 0.16 1.1 0.51 1.9 1.1-0.44-0.16-1.1-0.51-1.9-1.1z" fill="#b25027" /><path d="m35 44c0.39-2.3 0.9-4.1 2.1-6.1 1-1.2 1.9-2 3-3.1 0.51-0.61 0.8-1 1.1-1.4 2-2.9 4.5-5.9 8.2-5.4 3.2 0.49 2.1 4.7 3.8 7.2 1.3 3.1-0.63 4.3-2.9 5.7-1.6 1.7-3.8 2.3-3.7 5.2 0.054 2.7-2.8 1.7-5 1.9-2.9-0.81-7.3 1.9-6.6-4.1z" fill="#b7411d" /><path
        d="m35 44c1.9 1.9 4.3 2 6.9 2.8 0.79 0.5 1.2 0.97 1.5 1.9 0.1 1.8-1.2 2.4-1.9 2.6-3.7 0.85-6.5 3.2-9.9 5.3-1.6 0.044-2.9 0.25-3.9-1.4-1.2-2.5-1.8-4.7 1.1-6.3 3.1-0.46 3.9-3.3 6.1-4.8z" fill="#b3401d" /><path d="m29 49c-0.99 1.7-1.2 3.2-1 5-0.12 2.4-1.2 2.9-3.3 1.7 0.27-3.7 1.3-6.9 3-10 0.56 0.84 0.93 2 1.3 3.5z" fill="#a34420" /><path d="m49 40c1.5-1.6 2.7-2.8 4.1-4.2 0.39-0.23 0.56-0.23 0.98-0.23 0.75-0.0062 1.2 0.17 1.6 0.85-0.34 1.7-0.71 3.1-1.3 4.8-2.3 1.3-4.7 3.8-5.4-1.2z" fill="#b2431c" /><path d="m57 17c2.4-0.92 5.5-2.7 6 2.6-1.6-1.3-3.7-1.7-6-2.6z" fill="#9a4829" /><path d="m40 35c-0.22 1.1-0.95 2-2.4 2.7 0.22-1.1 0.95-2 2.4-2.7z" fill="#b3401d" /><path d="m56 37c-0.52-0.085-0.82-0.35-1.3-0.82 0.57-0.49 1.4-0.78 2.5-1.1-0.096 0.55-0.51 1.2-1.1 2z" fill="#a8411e" /><path d="m63 21c-0.041 0.4-0.25 0.92-0.61 1.7-0.31-0.48-0.17-1.1 0.61-1.7z" fill="#9e411f" /><path d="m32 37c0.22-0.44 0.66-1.1 1.3-1.8-0.22 0.44-0.66 1.1-1.3 1.8z" fill="#9e411f" /><path
        d="m68 82c1.8-0.097 3.1-0.094 4.9-0.088 1.3 1.7 2.4 3.2 4.4 3.5 4.7 0.72 8.4 2.9 11 6.4 1.1 1.2 2.4 1.4 3.3-0.064 2-3.4 5.3-2.8 8.9-2.9 1.2 0.79 1.9 1.6 3.2 0.22 1.6-0.22 3-0.22 4.8-0.22 1.4 3.3 2.2 6.5 7 6.4 1.9-0.038 2.2 4.2 0.35 6.1-1 1.1-2.3 1.8-3.6 3.2-2.5 1.9-5.1 2.3-8 3.2-0.82 0.078-1.3 8.3e-4 -1.7-0.17-5.2-1.9-5.2-1.9-4.6 4-0.81 1.2-1.7 2.1-2.7 3.2-3.5 3.4-2.7 6.3 0.54 9.4 0.21 0.59 0.21 0.85 0.029 1.4-2.3 1.4-4.5 2-6.9 1.6-4.5-0.74-7-3.6-6.1-8 0.98-4.9 0.56-8.8-4-12-2.3-1.4-1.9-3.9-1.8-6.3 0.17-5.1-1.3-6.5-6.5-6.3-4.5 0.2-7.8-2.5-11-4.4-1.6-0.86-1.6-2.8-1.2-4.5 0.49-1.9 2-2.5 3.7-3.2 1.9-0.74 3.8 0.43 5.9-0.84z" fill="#c0461e" /><path d="m112 105c-0.16-1.1-0.16-2.4 0.39-3.3 1.5-2.6 1.4-4.1-1.9-5-4.2-1.1-3.5-4.1-2-7.4 0.56-0.32 1-0.32 1.8-0.32 0.9 1.6 1.9 3.9 3.5 3.1 4.9-2.5 10-1.6 16-2.9 2.7-0.86 5.1-1.1 7.9-0.25 3.2 3.7 2.9 5.2-2.2 6.5-5 1.3-9.6 4.4-14 7-2.7 1.5-5.4 2.6-8.9 2.5z" fill="#c14921" /><path
        d="m95 125c0.28-0.45 0.28-0.61 0.28-1-0.17-0.42-0.33-0.58-0.22-0.97 1.4-0.83 2.5-1.4 3.8-2.2-0.71 5.3-1.6 11-4.3 16-2.6 2.7-5.6 1.4-8 1-3.7-0.68-7.4-1.5-12-1.8-2.1-3.5-0.96-5.3 2.6-5.5 2.7-0.2 5.3-0.89 7.9-0.85 3.9 0.063 6.7-1.8 9.6-4.5z" fill="#aa431f" /><path d="m98 112c-2-1.5-3.9-3.1-5.6-4.9-1.5-1.5-1.4-3.3-0.076-5 1.3-1.7 2.5-0.63 3.8 0.28 2.5 1.7 6.2 1.6 7.5 5.5-1.8 1.3-3.9 2-5.6 4z" fill="#c14921" /><path d="m95 123c0.0077 0.45-0.013 0.92-0.026 1.2-4.9-3.4-5.1-5.5-0.35-8.7 0.35 2.3 0.36 4.7 0.37 7.5z" fill="#c14921" /><path d="m104 112c-1.2 2.1-2.7 4.2-4.5 6.6-0.84-3.3 0.22-5.9 4.5-6.6z" fill="#aa431f" /><path
        d="m35 121c3.2 2.2 6.2 4.3 10 2.7 2.3 0.64 3.8 2.1 5 4.4 0.22 1.3 0.95 2.2 0.58 3.6-0.73 1.1-1.2 2-2.1 3-2.9 0.43-5.2 0.19-7-2-1.4-1.7-3.3-2.3-5.2-0.67-1.7 1.5-2 3.4-0.92 5.4 1.1 2.1 2.3 4.2 0.28 6.7-2.5 0.11-4.5 1.3-7.1 1.4-2.7 0.028-5 0.044-7.8 0.074-4.5-0.77-5.2-2.8-3.9-6.7 1.7-5 5.6-8.4 8.1-13 0.11-0.33 0.13-0.3 0.13-0.3 1.1-1.3 2.9-1.7 3.9-3.6 1.9-0.35 3.5-0.48 5.6-0.66z" fill="#b2431c" /><path d="m32 172c-1.9-6-1.3-12-1.8-18-0.32-3.7 1.5-6.4 5.6-7 1.2-0.17 2.3-0.33 3.4-0.62 6.5-1.7 11 0.02 14 6.8 3.2 0.28 2.3 3.2 3.6 5-1.7 4.3-1.6 8.4-1.8 12-0.12 3-0.28 6.1-4.2 7.3-0.71-7e-3 -0.98-0.011-1.7-0.021-3.2-1.4-2.4-3.6-1.9-6 1-4.4 1.6-8.8 0.97-13-0.47-3.3-1.7-6.2-5.8-6.2-3.7 0.087-6 2.7-6.3 7-0.14 2.5 0.078 5 0.56 7.4 0.47 2.4 0.24 4.6-2.3 6.3-1.3 0.021-2-0.34-2.6-1.6z" fill="#aa4220" /><path
        d="m55 159c-0.33-1.8-0.61-3.2-0.96-5-0.079-2.1-0.077-3.8-0.065-6 0.76-0.95 1.6-1.4 2.8-1.7 1 0.3 1.5 0.66 2.1 1.5 0.76 6.1 2.2 12 1.1 18-0.28 1.5 0.12 3.2 0.68 5.2-1.6 5.1 1.1 10-0.94 15-0.13 1.9 0.96 2.8 1.9 4.3-0.65 2.6 0.25 4.5 0.88 7 0.039 1.9 0.12 3.3-0.16 5.3-1.2 2.1-2.2 3.8-5.1 3-1.5-0.22-2.2-0.71-2.7-2.1-1.2-1.3-0.039-2.9-1.4-4.1-0.032-2-0.69-3.4-1.2-5.3-1.1-6.4-0.34-12 2.2-18 2.2-4.9 0.86-10 0.87-16 6.2e-4 -0.31 0.04-0.63 0.089-1.4z" fill="#742a0e" /><path d="m36 143c-0.61-1.1-0.85-1.9-1.3-2.6-4.2-6.4-4-8 1.8-13 2.7-2.4 4.6-2 6.4 0.93 1 1.7 2.1 3.4 4.4 4.3 3.8 1 1.6 3.4 1.6 5.6-1 1.9-3.1 1.7-4.3 3.4-1.2 0.64-2.2 0.89-3.5 1.1-1.1 0.057-1.8 0.078-2.9 0.095-0.81 0.37-1.3 0.5-2.1 0.085z" fill="#ba441c" /><path
        d="m49 177c0.49 0.31 0.69 0.33 1.2 0.38 1.9 1.7 3.2 3.4 3 6.3-0.63 0.81-1.2 1.1-2.2 1.2-5.4-1.3-10-3.2-15-5.6-2.3-1.2-4.1-0.81-6.1 0.077-1.3 0.59-2.6 1.4-4.2-0.2-0.29-0.63-0.31-0.92-0.074-1.6 2.4-1.5 4.4-2.8 6-5.1 0.95-0.27 1.7-0.28 2.8-0.29 4.3-3.3 7.2 0.62 10 1.6 1.4 0.39 2.3 1.8 3.6 3.2z" fill="#a73b1b" /><path d="m26 177c0.37 0.14 0.37 0.32 0.35 0.75 1.2 1.6 1.1 2.8 0.052 4.3-3.5 4.8-3.5 4.8 1.4 8.1 1.7 2.4 5.4 3.3 3.4 7.4-1.3 0.92-2.2 0.41-3.5-0.026-0.84-0.26-1.3-0.29-2-0.35-0.97-0.49-1.6-1.1-2.3-1.4-3.3-1.5-6.6-3.4-5.5-7.6 1.2-4.5 1.2-10 8.1-11z" fill="#aa4723" /><path d="m57 148c-1.1 3e-3 -1.9 6.2e-4 -3.1 2e-3 -0.41-0.82-0.42-1.7-0.5-2.7 1.7-2 2.3-4.5 3.6-6.6 1.7-2.8 4.6-3.3 7.3-2 2.9 1.3 1.1 3.6 0.34 5.8-0.55 0.89-0.73 1.5-0.75 2.6-0.16 0.54-0.26 0.74-0.66 1.1-1.3 0.63-2.3 1.1-3.6 1.8-0.98 0.29-1.6 0.039-2.6 9e-3z" fill="#5c2912" /><path d="m36 143c0.83-0.027 1.3 0.015 2.1 0.099-2.1 2.4-5 2.5-8.4 2 1.8-0.75 3.9-1.4 6.4-2.1z" fill="#a34420" /><path
        d="m44 142c0.85-1.4 1.6-2.3 3.1-3 1.2-0.8 1.9-0.35 2.5 0.87-0.067 1.4-0.71 1.9-1.8 2.6-1.1 0.27-1.9 0.28-3 0.3-0.6-0.16-0.82-0.33-0.71-0.75z" fill="#b2431c" /><g fill="#a34420"><path d="m54 137c0.43 1.5 0.48 2.6 0.46 4-0.78 0.33-1.5 0.39-3 0.22-1.7-3-1.7-5.1 2.6-4.2z"/>
        <path d="m47 143c-0.082-0.43 0.16-0.9 0.54-1.6 0.78-0.89 1.5-1.3 2.8-0.56 0.33 0.28 0.39 0.36 0.42 0.41-0.95 0.94-2.1 1.6-3.7 1.7z" />
        <path d="m44 142c0.31 0.078 0.31 0.25 0.32 0.67-0.82 0.36-1.6 0.47-2.7 0.51 0.54-0.41 1.3-0.75 2.4-1.2z" /></g><path d="m139 322c0.038 0.77-7e-3 1.1-0.16 1.6 1.7 4.6-1.8 11-6.8 11-1.2 0.16-2.4 0.37-4.2 0.5-4.9-0.45-5.7-4.2-7.4-7.8 0.078-2.3 0.81-4.1 0.35-6.5-0.91-4.9 2.3-6.4 5.8-8.3 6.5-0.08 9.7 3.9 12 9z" fill="#b3401d" /><path d="m128 315c-2.6 1.4-4.7 2.8-5.3 5.9-0.56 0.87-1 1.4-2 1.8-2.7-0.2-4.9-0.069-6.4 2.7-0.56 0.23-0.81 0.28-1.4 0.34-2 0.045-3.6 0.028-5.6 0.046-1.3 1e-3 -2.2 0.14-3.3-0.57-0.96-0.43-1.5-0.73-2.2-1.5-0.22-1.6-1.3-2.6-0.62-4.3 1.9-2.3 4.7-2.8 7.2-4.4 0.97-0.4 1.5-0.64 2.5-1 3.9 2 6.5 0.16 8.8-2.1 2.3-2.2 4.6-4.4 7.9-5.8 0.91 0.41 1.2 0.86 1.3 1.8 0.19 1.5 0.45 2.6 0.83 4 1.2 2-0.23 2.4-1.6 3.2z" fill="#993617" /><path
        d="m139 273c-3.3 2.3-3.6 5.2-2.5 8.7 4e-3 0.98-0.33 1.5-1.3 1.9-0.97 0.39-1.5 0.49-2.5 0.21-1.6-0.92-2.8-1.7-3.8-3.2-0.73-1.5-0.83-2.8-1.4-4.4-0.16-0.63-0.2-0.89-0.28-1.6-2.4-4.6-1.8-8.9 0.047-13 4.8-2.3 7-1.7 8.6 2.8 0.76 2.1 2.1 2.7 4.1 3.5 0.37 0.91 0.42 1.5 0.4 2.5 0.14 1.4-0.083 2.3-1.4 3.1z" fill="#863317" /><path d="m133 282c0.84 0.044 1.3 0.058 2 0.082 2.9 1.5 3.4 3.6 1.6 6.6-0.29 0.37-0.28 0.37-0.28 0.37-1.1 2.3-2 4.7-2 7.7-0.3 2.4-0.6 4.5-0.94 6.9-0.56 0.96-1.1 1.5-1.7 2.3-0.69 0.77-1.2 1.3-2 2-0.47-0.086-0.7-0.32-1.1-0.72-1.8-0.93-1.4-2.1-0.71-3.2 2-3.2 2.1-6.8 1.7-11-0.07-0.73-0.087-1-0.13-1.8-0.15-3.4-2-6-1.2-9.5 1.7-2.3 2.9-0.076 4.8 0.1z" fill="#a8411e" /><path d="m128 334c5.8-1.3 11-3 11-10 4.9 2.5 1.1 5.3-0.097 8.5-0.9 1.2-1.2 2.4-2.7 2.9-2 0.95-3.7 1.6-6 1.6-1-0.95-2.9-0.64-2.6-2.7z" fill="#a8411e" /><path d="m128 315c0.17-0.86 0.73-1.7 1.5-2.8 6.4 1.1 10 5 9.8 10-4.1-1.9-5.2-7.8-11-7.2z" fill="#9e411f" /><path
        d="m139 273c-0.12-1.1-0.11-1.8-0.092-3 1.3-1.2 2-3.6 4.6-1.7-0.31 4.2 3.2 7 3.4 11-0.34 0.51-0.69 0.63-1.3 0.8-0.77-3.6-5-4-6.5-7.2z" fill="#824121" /><path d="m136 289c-0.55-1.9-0.84-4-1.2-6.4 0.36-0.4 0.82-0.44 1.6-0.49 3.3 2.5 2.6 4.7-0.41 6.9z" fill="#9b3b1d" /><path d="m134 297c-1.3-2.5-0.49-5 1.6-7.4 0.091 2.3-0.34 4.8-1.6 7.4z" fill="#983f1a" /><path d="m136 336c0.61-0.9 1.4-1.6 2.4-2.5 0.31 0.32 0.33 0.79 0.37 1.6-0.68 1.3-1.5 2-2.8 0.92z" fill="#873a1b" /><path d="m131 306c0.23-0.44 0.69-1.1 1.4-1.8-0.23 0.44-0.69 1.1-1.4 1.8z" fill="#93401f" /><path
        d="m129 261c-1.3 4.6-1.6 8.8 1.5 13-3.5 3-4.3 8.6-10 9.6-0.86 0.16-1.4 0.22-2.2 0.35-1.7 0.37-2.9 0.84-4.7 0.87-2.6-0.25-4.7 1.1-7.3 0.051-0.99-1.3-1.2-2.5-1.7-4.1-0.21-0.99-0.13-1.6 0.38-2.4 4-1.2 8.6-0.23 11-4.6 0.11-0.2 0.068-0.48 0.083-1.1-0.045-1.8 1-3.2 0.84-5.1 0.37-0.73 0.62-1.1 1.1-1.7 4.7-3.7 5-7.4 1.4-14-0.12-1.2 0.012-2 0.65-3 0.45-0.5 0.62-0.71 1-1.2 3-1.5 3.1-4.4 4.8-6.8 0.84-0.46 1.3-0.73 2.1-1.2 1.6-0.96 3-1.1 4.8-1.1 3 0.39 4.7 1.6 4.8 4.9 0.78 3.2 3.7 4.3 4.9 7.1-1.8 2.1-2.3 4.6-3.1 6.8-1.3 3.6-3.1 5.4-7 2.9-0.94-0.62-2.1-0.89-3.5 0.33z" fill="#963719" /><path d="m130 243c-0.64 0.24-1.1 0.26-1.8 0.28-1.9 1.4-3.4 2.9-5.1 4.7-0.22 0.26-0.28 0.72-0.32 0.96-0.84 1.1-1.7 2-3 1.2-1.4-0.96-1.4-2.6-1.1-4 0.95-4.2 2.7-8.2 5.5-12 0.48-0.95 0.75-1.5 1.2-2.5 0.96-1.2 1.9-1.3 3.4-1.2 3.9 0.69 7.8-1.1 11 2.3 1.4 3.5 2.7 6.4 3.9 9.5 0.5 1.3 2 2.7 0.59 4-1.3 1.1-2.7-0.31-4-0.83-0.6-0.24-1.2-0.51-2.1-0.88-1.8-1-3.2-1.9-4.9-2.9-1 0.64-2.1 0.67-3.1 1.5z" fill="#b84520" /><path
        d="m129 261c-0.19-2 0.4-3.3 2.7-2.3 2.8 1.3 4.2-0.22 5.1-2.7 0.93-2.4 2.6-4.1 5.4-5 0.33-0.094 0.38 0.35 0.4 0.57 1.2 1.1 0.68 2.7 1.7 4.1 3.2 5 3.2 11 6.1 16-2.6-0.93-3-4.6-6.4-5.5-2.4-0.86-3 1.9-5.1 1.9-3.6 0.87-5.9 0.51-5.9-3.7 0.011-2.3-1.7-3-4-3.3z" fill="#8d3718" /><path d="m140 233c-3.7-0.17-7.1-0.45-11-0.73-1.8-0.56-2.3-1.6-1.9-3.5 0.44-1.3 1.1-1.9 2.4-2.1 1.7-0.11 3-0.19 4.7-0.39 3.3 0.29 3.4-4.4 6.9-3.4 0.66 3 0.98 5.7 1.4 8.8-0.72 0.6-1.5 0.84-2.6 1.2z" fill="#8d3718" /><path d="m145 256c-1-0.55-1.7-1.7-1.8-3.4 1 0.56 1.6 1.7 1.8 3.4z" fill="#963719" /><path d="m152 277c-0.22-0.26-0.51-0.77-0.78-1.5 0.25 0.28 0.48 0.75 0.78 1.5z" fill="#8d3718" /><path
        d="m43 111c-4.2-3.7-5.8-8.7-8.2-14-0.73-0.74-1.2-1.2-1.9-2-1.9-4.5-4.4-8.4-4.5-14-0.54-1.3-0.8-2.3-1.4-3.4-0.26-0.99-0.33-1.7-0.42-2.9 8e-3 -0.9 0.0098-1.4-0.11-2.2-0.065-0.62-0.084-0.98-0.086-1.6-0.11-0.53-0.24-0.78-0.37-1.5 2.2-3.5 3.9-0.35 6.2 0.11 0.99 0.82 1.8 1.1 3 1.6 0.53 0.44 0.68 0.68 0.87 1.3 0.052 1.3 0.075 2.1 0.13 3.3-0.052 1.7 0.35 3 0.27 4.7 0.49 11 4.9 19 13 26 1.4 1.2 4.4 1.9 2.7 5.2-3.3 1.1-5.7-1.2-8.9-2z" fill="#ad4824" /><path d="m32 73c-1.8-0.62-3.2-1.5-5-2.6-1.7-2.6-2.3-5.3-2-8.2 0.13-1.4 0.61-3-0.83-4.7-0.22-0.72-0.21-1.1-0.16-1.8 1.1-0.6 2.1-0.89 3.4-1.3 1.1 0.16 1.9 0.44 3 0.8 2.4 1.6 4.9 2.4 7.7 3.6 0.53 0.84 0.64 1.4 0.61 2.4 0.27 1.9-0.66 3.2-1 5-4.5 0.33-3.9 4.2-5.6 6.8z" fill="#b24421" /><path d="m24 57c2.9 0.69 2.4 3.1 2.4 5.4-0.022 2.1 0.27 4.3 0.45 6.8-0.015 0.62-0.051 0.84-0.15 1.4-3.2-3.7-3-8.4-2.7-14z" fill="#a34420" /><path d="m27 78c0.47 0.58 0.97 1.5 1.5 2.7-0.46-0.57-0.97-1.5-1.5-2.7z" fill="#a34420" /><path
        d="m33 95c0.45 0.25 0.98 0.76 1.7 1.5 0.16 0.23-0.31 0.24-0.54 0.24-0.5-0.49-0.77-0.98-1.1-1.7z" fill="#9e411f" /><path d="m27 73c0.13 0.35 0.22 0.91 0.24 1.7-0.13-0.35-0.21-0.91-0.24-1.7z" fill="#a34420" /><path d="m59 383c-1.6-0.36-2.7-1.1-3.2-2.7-0.081-1.2-0.2-2.1 0.64-3.1-2.3-12-0.93-24-2.4-35-0.69-5.6 0.075-12 4.4-17 3.6-3.7 7.2-2.1 11-0.77 2.3-0.018 3.2 1.2 4.1 3 0.8 3.3 3 5.3 4.6 8-0.58 1.9-1 3.5-2 5.2-2.7 2.4-4.5 1.2-6.6-0.71-6.5-5.9-7.2-5.6-9.2 2.7-1 4.4-0.96 8.3 1.1 13 1.9 3.7 2.8 7.8 1.4 13 3.1-0.45 4.3-2.8 6-4.3 1.9-1.7 3.6-3.1 6.3-0.92 1.3 2.6-0.57 4.1-1.3 6.3-2.4 2.3-4.8 4.2-5.7 7.7-0.4 0.72-0.68 1.1-1.2 1.7-1.1 0.99-1.7 1.9-2.6 3-0.34 0.44-0.48 0.62-0.9 0.99-1.6 0.55-3 0.41-4.7 0.92z" fill="#b6421b" /><path
        d="m71 326c-4.1-0.36-7.7-0.71-12-1.1-1.9-1.6-3.8-1.6-6-1.1-0.96-0.072-1.4-0.43-1.8-1.5-5e-4 -0.76 0.039-1.1 0.29-1.8 2.9-2.6 6-1.8 9-1.7 6.4 0.15 8.7-1.3 10-6.8 1.4-1.3 2.5-2.3 3.5-3.8 0.95-1.8 2.3-2 4-2.2 2.1-0.52 3.3-1.8 5.1-2.9 0.87-0.19 1.4-0.17 2.3-0.067 0.69 0.056 0.97 0.078 1.6 0.33 1.5 2 1.5 4.1 1.8 6.5-0.17 0.72-0.3 1.2-0.49 1.2-5.9 0.18-7.2 5.7-11 9-3.1-0.42-4.8 0.37-4.9 3.4-0.05 0.99-0.31 2-1.9 2.2z" fill="#9f3b19" /><path d="m63 381c0.22-0.22 0.24-0.71 0.24-0.95 0.82-1.1 1.5-2.1 2.8-3 0.45-0.43 0.67-0.64 1.1-1 1.3-1.2 2.1-2.5 4.3-2.3 1.6 0.93 2 2.6 1.3 3.1-4.2 3.6-5.8 9.7-12 12-0.42 0.15-0.91 0.17-1.2 0.18-0.25-0.74-0.25-1.5-0.25-2.6 0.27-0.86 0.54-1.3 0.94-2.1 0.27-1.7 1.8-2 2.8-3.1z" fill="#9f3b19" /><path d="m53 322c0.26 0.75 0.28 1.2 0.31 2-0.72 1.8-1.5 3.3-2.3 5.1-1.8-4.3-1.9-9.3-2.5-15 0.39-0.9 0.87-1.2 1.9-1.3 0.97 0.32 1.5 0.56 2.4 1.1 2 2.7-0.84 4.9 0.22 7.6z" fill="#893b1c" /><path
        d="m63 381c-0.15 1.1-0.89 2.1-2.3 2.9-0.52-0.085-0.76-0.32-1.2-0.73 0.75-1.1 1.8-1.8 3.5-2.1z" fill="#ae4221" /><path d="m57 377c-0.041 0.65-0.28 1.5-0.65 2.6-0.5-0.73-0.45-1.7 0.65-2.6z" fill="#ae4221" /><path d="m82 31c-0.28 1.8-0.59 3.2-0.96 5-2.6 1.4-5 1.2-7.7-0.33-0.73-4.8-3.8-6.1-8.2-6.4 0.049-4.3 3.1-7.5 4.6-12 4-0.89 7.8-0.98 12 0.64 2.5 2.4 1 4.6-0.38 6.9-4.4 2.8 0.39 3.7 0.72 5.8z" fill="#aa4723" /><path d="m56 51c0.43 5.6-4.8 9.6-4.5 16-2.4 1.8-4.6-0.11-7.4-0.18-1.2-0.43-1.9-0.75-2.7-1.7-0.97-1.5-0.05-2.5 0.28-4 0.22-0.66 0.34-0.91 0.79-1.4 3.7-0.15 6.9-0.81 9.1-4.2 0.2-0.55 0.28-0.77 0.48-1.3 0.6-1.1 1.3-1.7 2.2-2.6 0.64-0.29 1.1-0.34 1.8-0.42z" fill="#9f3b19" /><path d="m49 40c1.4 1.3 2.9 1.8 4.9 1.9 0.077 0.82-0.2 1.6-0.6 2.7-1.7 1.7-3.4 2.9-3.9 5.3-0.27 1.3-1.3 2.6-3.5 2.7-1.7-0.74-3-1.3-3.6-3.3-0.076-0.88-0.077-1.3-0.078-2.1 3.4-1.4 2-6.9 6.7-7.2z" fill="#b24421" /><path
        d="m45 51c3.3-1.4 3.4-6.1 7.9-6-0.16 1.7-0.67 3.5-1.3 5.6 0.29 0.75 0.6 1.2 0.79 2.2-0.37 1.2-0.71 2-1.2 3.2-0.4 0.58-0.61 0.78-1.2 1.2-2.8 1.5-5.4 1.5-8.4 1.1-1.2-2.1-0.7-3.8 0.3-5.9 0.73-1.4 1.7-1.1 3.1-1.3z" fill="#a34420" /><path d="m51 53c0.0055-0.81 0.054-1.3 0.16-2 0.77-0.32 1.5-0.32 2.5-0.31 0.084 0.81-0.19 1.6-0.62 2.7-0.88 0.86-1.5 0.66-2.1-0.36z" fill="#7e2f10" /><path d="m58 47c-0.19 0.45-0.59 1.1-1.2 1.9 0.19-0.46 0.59-1.1 1.2-1.9z" fill="#9f3b19" /><path d="m142 223c-1.5 2.6-3 5-6.5 5.3-0.88 0.095-1.4 9e-3 -2.1-0.5-0.37-0.53-0.48-0.76-0.63-1.4 5.2-12-1.7-22-4.8-33-1.2-4.2-4.7-7.6-6-12-0.58-2-1.4-4.1-0.18-6.6 0.38-0.55 0.57-0.74 1.1-1.1 1.3-0.32 2-0.14 2.9 0.88 1.2 2.1 2.1 3.9 3.2 6 0.63 0.79 1.1 1.3 1.8 2.1 0.3 0.96 0.38 1.7 0.5 2.7 0.38 1 0.94 1.5 1.6 2.3 6.3 11 8 22 9.1 35z" fill="#b1481e" /><path d="m133 188c-0.51-0.23-1-0.79-1.6-1.6 0.27-0.22 0.67-0.17 1.4-0.091 0.29 0.48 0.29 0.92 0.28 1.7z" fill="#9e411f" /><path
        d="m59 283c-0.16-1.5-0.1-2.5-0.025-4 1.3-1.9 2.5-3.7 4.9-4.7 6.4-0.4 12-0.19 19-0.036 2.1 3 4.7 3.1 7.3 2.4 1.7-0.45 3.2-0.78 4.9 0.76 0.73 3.7-3.2 3.6-4.3 6.2-2.1 1.5-4.5 0.33-6.4 2.4-0.97 0.53-1.6 0.63-2.7 0.66-1.4 0.17-2.4 0.16-3.8-0.081-3.9-1.4-7.3-1.5-11-0.029-2.9-0.71-4.7-2.6-7.4-3.6z" fill="#9b3717" /><path d="m59 283c2.4 2e-3 4.7 0.013 7.6 0.032 1.7 1.3 3 2.9 0.61 3.9-11 4.4-12 14-14 24-0.93 1.5-0.69 3.5-3.2 3.2-0.79-0.24-1.2-0.28-1.8-0.37-0.35-1.7-0.41-3.3-0.49-5.4-0.25-2.3 0.25-4.2-0.59-6.3-0.18-6 0.41-11 7.1-13 1.3-0.41 1.9-1.8 2.5-3.4 0.54-0.87 0.97-1.4 1.7-2.1 0.23-0.25 0.25-0.25 0.24-0.26z" fill="#aa431f" /><path d="m51 268c3.6 0.092 4 4.9 8 5.6 1.1 0.84 1.2 1.6 0.43 2.8-2.4 0.23-4.4 0.2-6.9 0.17-0.66-0.23-0.87-0.45-1.2-0.85-0.18-2.5-0.21-4.9-0.24-7.6z" fill="#8c3211" /><path d="m59 277c0.038-1 0.1-1.8 0.19-2.8 0.75-0.66 1.5-0.96 2.5-1.4 2.8-0.49 4.2 0.17 2.8 3.4-1.6 1.4-2.9 2.2-4.9 2.4-0.39-0.4-0.45-0.84-0.53-1.6z" fill="#a04f2b" /><path
        d="m47 302c1.6 1.2 1.7 3.1 0.91 5.4-0.95-1.4-1.1-3.2-0.91-5.4z" fill="#893b1c" /><path d="m59 283c-0.22 0.42-0.67 0.99-1.3 1.7 0.22-0.42 0.67-1 1.3-1.7z" fill="#9b3717" /><path d="m75 134c6.4 1.5 12 2.5 19 3.5 0.42 1.1 0.42 2.2 0.42 3.6-0.18 1.5-0.86 2-2.4 2.1-3.9-1.3-7.4-1.5-11-1.4-3.4-2.7-5.4-1.9-7.3 1.3-2.7 4.8-4.3 9.8-3.8 15 0.57 6.6-0.7 13-0.99 20-0.43 9.5 1.6 18 2.6 28 0.38 3.6 3.4 7.2-0.31 11-2.7-0.22-4.4-1.2-5.2-3.9-2.2-6.3-3.9-12-3.6-19 0.23-5.8 0.16-12-1.9-18 0.49-1.2-0.07-2.2 0.36-3.4-0.2-8.1-0.015-16-0.55-24 0.46-1.9 1.6-2.6 3.1-3.5 0.28-0.29 0.31-0.28 0.31-0.29 0.68-0.76 1.5-0.89 2.7-0.85 2.1-2.9 5.9-5 3.3-9.5 0.99-3.7 3-3.2 5.7-1z" fill="#963819" /><path d="m91 141c1.2-0.049 2-0.058 3.1-0.075 0.81 0.02 1.2 0.048 2 0.09 4.6 1.3 5.5 6 9.1 8.6 1.4 1.7 2.6 2.9 4.8 3.3 2.1 1.6 3.9 3.1 6.1 4.8 0.37 1.6 1.3 2.6 1.3 4.4-1.2 1.5-2.6 2.3-3.9 1.2-7.4-6.6-17-9.9-24-17-0.35-0.39-0.46-0.86-0.52-1.8 0.0098-1.6 0.12-2.7 2-3.1z" fill="#b1481e" /><path
        d="m105 150c-4.3-0.78-6.8-4-8.8-8.2 7-2.1 6.3 4.5 8.8 8.2z" fill="#a34420" /><path d="m115 158c-2.6-0.35-4.2-1.8-5.3-4.2 0.98-0.042 2.1 0.21 3.6 0.55 0.6 0.58 0.87 1.1 1.3 1.8 0.47 0.55 0.7 0.92 0.45 1.8z" fill="#9e411f" /><path d="m122 169c0.64 1.1 0.96 1.8 1.4 2.9 0.66 1 1 1.8 0.27 3-0.29 0.33-0.32 0.36-0.34 0.38-0.97 1.1-2 1.7-3.5 0.98-4.2-2-6.4-7.6-4.2-12 2-1.2 3.2-0.61 3.9 0.99 0.58 1.3 1.1 2.7 2.6 3.9z" fill="#b1481e" /><path d="m122 169c-2.2-0.39-3-2.6-4.6-4.4-1.1-0.22-1.6-0.72-1.5-1.9-0.097-1.4-0.38-2.5-0.76-3.9-0.091-0.33-0.051-0.37-0.031-0.39 0.39-0.44 0.84-0.58 1.7-0.2 1.9 3.7 3.5 7.1 5.2 11z" fill="#9e411f" /><path d="m123 175c-0.35-0.78-0.34-1.5-0.3-2.7 1.3 0.092 2.2 0.83 2.8 2.5-0.64 0.29-1.4 0.27-2.5 0.24z" fill="#9e411f" /><path d="m117 158c-0.28 0.22-0.7 0.21-1.4 0.17-0.32-0.45-0.33-0.89-0.33-1.7 0.54 0.19 1.1 0.71 1.8 1.5z" fill="#913f12" /><path d="m131 183c-0.38-0.28-0.89-0.8-1.5-1.6 0.38 0.28 0.89 0.8 1.5 1.6z" fill="#9e411f" /><path
        d="m67 232c4.4-3.6 4.4-3.6-0.76-7-0.19-0.49-0.16-0.75 0.13-1.3 1.5-0.76 2.6-1.3 4.4-1.2 1.2-0.018 1.9-0.046 3-0.25 2.5-0.27 4.5 0.48 6.8 1.3 1.6 0.042 2.9 0.079 4 1.5 0.43 0.5 0.58 0.72 0.86 1.3 0.31 1.2 0.39 2 0.043 3.2-0.97 1.6-1.1 3.2-2.5 4.6-0.98 0.37-1.6 0.43-2.6 0.48-1.3 0.13-2.1 0.22-3.4 0.21-1.8 8e-3 -3.2 0.32-5 0.67-2.6-0.13-4.6-0.7-5-3.6z" fill="#963819" /><path d="m67 232c1.7-0.058 3.2-2e-4 5 0.036 1.6 1.1 2.3 2.3 0.9 3.7-3 3.2-3.8 7.2-4.2 11-0.19 2.2-1.2 4.1-2.4 5.9-0.85 1.3-1.9 1.7-3.6 0.3-0.09-2.1 0.12-4 0.34-6.2-2-3.3-1.8-6.3-0.17-9.8 0.4-0.84 0.42-1.3 0.47-2 0.46-0.85 0.92-1.4 1.7-2.1 0.74-0.52 1.2-0.8 2-1.2z" fill="#a83f1c" /><path d="m62 225c-0.6 0.84-0.89 1.3-1.3 2-4.9 6-5.8 6.3-12 3.6-0.19-1.4-0.47-2.7 0.48-3.1 5.5-2.4 7.2-7.8 10-12 0.66-0.2 0.94-0.23 1.7-0.3 1.5-0.092 2.1 0.49 2.8 1.7 0.13 3.2 1.2 6.1-1.8 8.6z" fill="#ae4221" /><path
        d="m41 235c-0.093-3.9-4.9-3.4-6.1-6.6 3.1-2.1 6.7-2.3 11-2.8 0.99 0.73 1.5 1.2 2.3 2.2 0.42 1.5 0.58 2.6-0.6 3.9-2.5 0.66-4.1 2.1-6.1 3.3z" fill="#8d3718" /><path d="m47 232c-0.42-0.82-0.43-1.5-0.46-2.6 0.53-1.4 1.4-1.6 2.7-0.8 4.6 4.6 7.3-0.094 11-1.5-1.5 5.9-4 6.9-13 5z" fill="#9b3b1d" /><path d="m63 237c0.28 2.9 0.24 5.9 0.16 9.3-3.8 0.42-2.6-2.9-3.7-5.1-0.12-1.1-0.13-1.8-0.13-2.9 1.1-0.65 2.2-0.93 3.6-1.3z" fill="#8c3211" /><path d="m63 225c-0.048-2.5 0.27-4.9 0.61-7.8 3-3.4 3.5-0.023 4.9 1.9 1.3 2.5 0.032 3.8-1.6 5.3-0.33 0.32-0.45 0.44-0.51 0.51-1 0.05-2 0.034-3.4 0.032z" fill="#963819" /><path d="m65 233c-0.24 0.41-0.73 0.96-1.4 1.7 0.25-0.4 0.72-0.97 1.4-1.7z" fill="#963819" /><path
        d="m75 134c-2.1 0.19-3.9 0.24-6.1 0.35-1.1-0.11-1.8-0.29-2.8-0.57-4.2-1.5-5.8-4.3-5.7-8.4 0.071-1.9-0.22-3.8-1.5-5.9-0.74-1.2-1.3-2.1-2.1-3.1-1.2-0.83-1.1-2.1-2.2-2.9-0.94-0.11-1.6-0.1-2.6-0.11-9.9-5.8-14-15-18-25-0.85-2-1.1-3.8 0.58-5.9 1.6-2.3 3.8-1.6 6-2 2.9 0.6 3-2.2 4.9-3.1 2.4 0.53 4.7-0.69 6.9 1.4 2.7 3.1 5.8 2.3 8.7 2.5 2 0.16 3.9 0.46 6.3 0.85-0.43 2.5-2.6 2.4-4.5 3-1.2 0.33-2.2 1-2.2 2.4-0.0042 1.1 0.76 1.9 1.7 2.2 2.7 1.1 5 3 8.4 2.3 6.6-1.4 9.8 1.6 9 8.3-0.43 3.7-0.39 6.2 4.1 6.7 2.3 0.23 2.6 2.3 2.5 4.2-0.051 1.3-0.28 2.6-0.51 4-1.5 8.6-0.75 9.6 8.3 10 0.15 1.5-0.087 2.9-0.41 4.4-0.68 3.1-2.4 4.6-5.7 3.7-4.3-1.1-8.5-0.24-13 0.74z" fill="#bb431c" /><path d="m59 119c3.3 0.41 4.9 2.2 4.4 5.4-0.55 3.3 1.6 5.6 2.7 8.7-3.2 0.75-6.5 1.2-7.3-3.7-0.79-1.4-0.73-2.6-0.72-4.1 0.035-1.8 0.08-3.2 0.14-5 0.24-0.63 0.46-0.85 0.83-1.2z" fill="#aa4220" /><path
        d="m51 141c-0.85 0.32-1.6 0.33-2.7 0.35-0.61-0.5-0.86-1-1.2-1.8 0.14-2 0.41-3.8 0.77-5.9 0.61-0.94 1.1-1.5 1.9-2.2 1.5-1.1 2.5-0.73 3.7 0.66 0.31 1.7 0.39 3 0.43 4.8-1.4 1.1-2.3 2.3-2.9 4z" fill="#b34a21" /><path d="m54 132c-1 0.032-2-0.26-3.4-0.67-0.096-0.9 0.11-1.7 0.44-2.7 1.6 0.41 2.6 1.4 2.9 3.4z" fill="#a24624" /><path d="m46 123c-1.9 9e-3 -3.8-0.65-4.8-3.2 1.6 0.56 3.3 1.4 4.8 3.2z" fill="#913c1d" /><path d="m58 125c0.35 0.87 0.59 2 0.81 3.5-1-0.66-1.4-1.8-0.81-3.5z" fill="#893b1c" /><path d="m66 144c-0.61 0.48-1.4 0.8-2.5 1.2 0.19-0.53 0.7-1.1 1.4-1.8 0.44 0.056 0.66 0.28 1.1 0.67z" fill="#7b3215" /><path
        d="m141 76c-2.7-3.2-5.4-5-9.8-2.7-3 1.6-6.1 0.41-8.9-1.3-2.4-1.5-4.9-2.8-8.3-1.9-2.4-3.9-5.8-5.7-10-6.6 0.18-1.1 0.45-1.9 0.84-3 2.5-2.2 6.1-2.2 8-5.4 0.41-0.33 0.56-0.46 0.91-0.81 0.52-0.68 0.75-1.2 0.72-2.1-0.18-0.98-0.35-1.6-0.37-2.7-0.67-2.6 0.34-4.6 0.92-7.1 0.78-1.3 1.7-2 2.8-3.2 1.6-1.3 3-0.36 4.7-0.13 4.6 0.23 7.8 1.6 8.4 6.9 0.94 1.3 1.4 2.3 0.86 3.8-9e-3 0.24 0.053 0.67 0.26 1 0.2 0.33 0.58 0.55 0.81 0.6 2 0.39 3.8-1.4 5.7 0.44 1.1 0.92 2 1.6 3.2 2.5 0.93 0.81 1.3 1.5 0.56 2.8-0.5 0.82-0.76 1.3-1.1 2-0.14 2.1 0.053 4 1.9 5 2.6 1.3 2.2 3.4 1.9 5.9-0.92 2.4-1.3 4.8-3.8 6.2z" fill="#ae4923" /><path d="m78 23c1.1-1.9 3.1-2.6 3.9-4.9 3.9 1.8 8.1 2.8 13 3.6 0.4 0.79 0.4 1.5 0.41 2.7 0.038 0.63 0.075 0.89 0.3 1.5 0.43 1.2 0.15 1.8-0.66 2.7-1.3 1-2 2.1-3.3 3.1-2.8-0.32-5.3-0.7-8.2-1.1-2.2-2.3-3.5-4.9-5.2-7.6z" fill="#a24624" /><path
        d="m91 32c-0.012-1.4-0.022-2.8-0.016-4.6 0.76-1.1 1.8-1.3 2.8-2.1 0.24-0.18 0.72-0.23 0.96-0.26 1.3-0.0025 2.4 0.025 3.8 0.057 1.6 1 3.2 1.2 4.8 2.3 0.64 0.66 0.93 1.1 1.4 2 1.1 1.4 0.96 2.4-0.57 3.3-1.1 0.16-1.8 0.29-2.9 0.49-0.86 0.49-1.4 0.9-2.2 1.5-2-0.34-3.8-0.86-5.8-1.5-0.92-0.12-1.5-0.29-2.1-0.93-0.21-0.2-0.2-0.21-0.21-0.2z" fill="#823817" /><path d="m104 33c-0.14-1.3-0.1-2.3-0.065-3.7 0.18-0.51 0.35-0.64 0.8-0.59 3.7 0.83 8.1-1.4 10 3.9 0.3 1.1 0.63 1.8 0.6 3-0.063 0.64-0.11 0.89-0.34 1.5-1 2.2-2.8 2.3-4.8 2.8-3.2-1.4-4.6-4.1-6.4-7z" fill="#b25027" /><path d="m128 49c1.1-1.1 2-2 3.1-3.1 3-0.35 5.5 0.64 7.8 2.8 0.27 0.85 0.27 1.5 0.27 2.4-2.2 1.8-4.3 3.6-7.6 3.8-1.9 0.62-2.5-0.56-3.3-1.8-0.11-0.82-0.13-1.3-0.17-2.1-0.36-0.76-0.47-1.2-0.11-2.1z" fill="#823817" /><path d="m113 35c0.4-0.36 0.83-0.48 1-0.54 2.2-1.3 4.4-1 6.9-0.23 0.4 0.75 0.42 1.2 0.46 2 1.3 1.7 0.12 2.7-0.67 4.1-0.8 0.86-1.4 1.4-2.1 2.2-2.1 0.97-4.2 3.1-5.9 0.84-1.8-2.3-2.3-5.3 0.33-8.3z" fill="#823817" /><path
        d="m121 35c-1.8 0.23-3.9 0.2-6.3 0.15-0.2-0.5 0.034-0.97 0.41-1.7 2.1-0.12 4.1-0.29 5.9 1.5z" fill="#9e411f" /><path d="m103 28c-1.7-0.17-3-0.83-4.1-2.4 0.95-0.05 2.1 0.16 3.5 0.5 0.68 0.56 0.87 1 0.58 1.9z" fill="#913c1d" /><path d="m120 41c-7e-3 -0.99 0.24-2.1 0.58-3.6 0.62 0.17 1.1 0.68 1.8 1.4-0.62 0.83-1.4 1.4-2.4 2.2z" fill="#9e411f" /><path d="m103 28c-0.14-0.61-0.13-1.1-0.12-1.8 0.57 0.45 1.1 1.2 1.8 2.3-0.073 0.28-0.25 0.28-0.69 0.29-0.47-0.19-0.66-0.39-0.99-0.75z" fill="#93401f" /><path d="m36 226c-0.85-0.35-1.4-0.38-2.3-0.43-0.38-0.016-0.4-0.029-0.39-0.041-2.2-3.9-1.6-8.3-2.5-13-0.23-1.1-0.23-1.8-0.23-2.9 1-1.8 2.2-2.8 4.6-2.1 1.1 0.04 1.7 0.24 2.5 1.1 0.35 4.6 0.5 8.9 2.2 13 0.63 1.5 0.31 2.9-0.66 4.5-1.2 0.83-2.1 0.61-3.2-0.3z" fill="#aa4723" /><path d="m35 209c-1.7 0.24-3.1 0.27-4.8 0.32-0.9-2.1-1.5-4.2-0.61-6.7 1.6-1.3 1.1-3.5 3-4.6 1.6-0.24 2.6 0.11 3.3 1.6 0.11 2.1 0.55 3.7 0.64 5.8 0.17 1.6 0.017 2.7-1.6 3.5z" fill="#93401f" /><path
        d="m30 212c2.8 3.2 1.8 7.7 2.7 12-3.3-3.1-2.9-7.5-2.7-12z" fill="#93401f" /><path d="m33 199c-0.47 1.7-1.1 2.7-2.7 3.3-1.2-1.3-2.2-2.7-3.3-4.4 0.6-0.34 1.4-0.44 2.6-0.57 0.79-0.44 1.3-0.75 2.2-0.9 1.3 0.51 1.5 1.3 1.2 2.6z" fill="#873a1b" /><path d="m33 228c0.052 0.2 0.091 0.74 0.072 1.5-0.067-0.25-0.076-0.7-0.072-1.5z" fill="#824121" /><path d="m141 76c0.074-2.5-0.52-4.9 1.5-7.1 1.3-1 2.3-1.8 4-0.45 0.71 0.36 1.1 0.39 1.7 0.44 0.36 0.73 0.45 1.5 0.57 2.5 0.42 3.6-0.2 6.2-4.6 6.4-0.9-0.14-1.4-0.33-2.1-0.59-0.48-0.38-0.7-0.7-1.1-1.2z" fill="#8c3715" /><path d="m147 69c-1.2 0.26-2.3 0.24-3.8 0.19 1.2-3.6-3.4-5.9-2.2-9.6 1.6 2.8 3.9 4.9 7.7 5.7-0.25 1.2-0.87 2.3-1.6 3.7z" fill="#983f1a" /><path d="m35 262c4.5 2.4 11 3.3 12 10-7 0.46-9-5.1-12-10z" fill="#823817" /><path
        d="m126 349c-0.061 0.75-0.1 1.2-0.16 1.9-1.5 2.2-0.87 5-3.1 7-2.9 1.5-5 4.5-8.8 2.3-0.68-1.5-1.4-2.7-0.3-4.3 0.1-1.3 0.24-2.2 0.85-3.3 2.6-2 5.4-3.4 5-7.4 1.3-2.8 0.73-5.8 2.6-8.4 1.5-0.76 2.6-1.7 4.4-0.65 1.4 0.51 1.6 1.3 1.6 2.8-0.034 1.5-0.055 2.6-0.081 4-0.41 0.94-0.86 1.5-1.4 2.3-0.2 0.71-0.23 1.1-0.28 1.9-0.084 0.75-0.13 1.2-0.19 1.9z" fill="#a34420" /><path d="m127 337c-1.4-0.25-2.4-0.26-3.9-0.27-0.68 0.055-0.97 0.11-1.7 0.35-1 0.22-1.6 0.062-2.4-0.57-0.53-0.49-0.74-0.69-1.2-1.2-1.3-1.5-0.37-3-0.77-4.6-0.44-1.9-1.4-3.1-1.7-5 0.031-0.68 0.081-0.95 0.34-1.6 0.95-1.3 1.9-1.9 3.5-1.8 2.9 0.17 2.1 2.5 3.2 4.2 1.1 3 2.2 5.4 5 7.1 0.87 0.99 1.4 1.8 2.2 2.9 0.13 0.27-0.26 0.35-0.46 0.37-0.66 0.4-1.2 0.53-2.1 0.19z" fill="#993617" /><g fill="#824121"><path d="m122 356c0.96-2.2 1.6-4.1 3.7-5.3 0.96 1.6 1.6 3.4 2.5 5.5 0.12 0.33-0.01 0.46-0.076 0.53-0.74 0.71-1.4 1.5-2.9 1.5-2 0.4-2.9-0.18-3.2-2.2z"/>
        <path d="m126 349c-0.082-0.34-0.079-0.87 0.011-1.6 0.083 0.34 0.078 0.87-0.011 1.6z" />
        <path d="m126 345c0.18-0.44 0.58-1.1 1.2-1.9-0.18 0.44-0.58 1.1-1.2 1.9z" /></g><path d="m127 337c0.39-0.24 0.89-0.23 1.8-0.19 0.069 0.5-0.24 0.97-0.72 1.7-0.43-0.26-0.68-0.74-1-1.5z" fill="#913c1d" /><path d="m123 399c-1.5-0.078-2.5-0.17-3.9-0.33-1.8-1.7-4.1-2.5-4.5-5.3-0.42-2.3 0.64-3 2.8-3 1.8 0.13 3.1 0.32 4.8 0.34 1.2-0.085 1.9-0.47 3.1-0.41 3.4 1.1 6.5 0.28 9.5-0.04 1.4-0.15 2.9-0.77 4.5 0.48 0.86 0.65 1.4 1.1 2.1 1.8-1.4 5.5-6.3 4.6-10 6.1-2.7 0.3-5.2 0.34-8.1 0.39z" fill="#854119" /><path d="m150 383c2 1.2 3.8 2.3 5.4 3.8 1.9 1.7 1.9 3.6 0.06 5.8-2.6 0.36-5 0.5-7.7 0.73-0.91 1.5-1.5 0.69-2.2-0.25 0.012-4.2-0.33-8.1 4.5-10z" fill="#b25027" /><path d="m132 399c2.3-3.1 6.5-3.8 10-6 0.5-0.13 0.67-0.092 1.1-3e-3 3.2 2.6 1.5 4.1-1.4 5.5-3.4 0.34-6.4 0.41-9.8 0.47z" fill="#753515" /><path d="m141 399c0.24-1.7 0.87-3.4 1.6-5.4 0.56-0.38 1-0.42 1.9-0.51 0.8 0.16 1.2 0.37 1.9 0.64 0.26 3.6-1.1 5.7-5.4 5.3z" fill="#783b16" /><path
        d="m139 268c0.096-1.3 0.13-2.3 0.33-3.3 0.28-1.3 0.78-2.8 2.3-2.8 2-0.097 2.1 1.7 2.4 3.5 0.012 1.1-0.023 1.8-0.079 2.9-1.4 0.66-2.8 0.96-4.6 1.3-0.37-0.39-0.38-0.82-0.41-1.6z" fill="#93401f" /><path d="m142 57c-0.3-0.68-0.32-1.4-0.31-2.5 0.82 0.13 1.6 0.62 2.6 1.3-0.54 0.52-1.3 0.83-2.3 1.2z" fill="#983f1a" /><path d="m105 397c-0.049 0.37-0.54 0.42-0.79 0.44-2.1-0.88-3.2-2.2-3.3-4.7-1.2-2.4-1.1-4.3 1.5-5.8 1.3-0.083 2.2-0.11 3.4 0.15 0.59 0.34 0.78 0.55 1 1.2-0.55 3.1-1.2 5.7-1.9 8.8z" fill="#903b15" /><path d="m110 388c-1.1 0.042-1.8 0.061-2.9 0.11-0.36 0.032-0.39-0.14-0.41-0.23-1.2-1.3-3.5-1.2-3.5-4 0.14-1.6-3e-3 -2.8 1.3-4 1.7-0.89 3.1-1.4 5-0.91 0.68 0.22 0.94 0.34 1.6 0.66 0.97 0.81 1.3 1.6 1.9 2.7-0.072 1.2 0.85 2 0.12 3.1-0.22 1.1-0.65 1.7-1.7 2.1-0.54 0.27-0.76 0.36-1.3 0.48z" fill="#7e2f10" /><path d="m119 392c-1.5 0.54-2.7 0.83-4.2 1.2-2.7-0.39-4.1-2-5.2-4.4-0.12-0.3-0.12-0.43-0.12-0.49 0.6-0.64 1.3-1.1 2.4-1.7 3.2-1.4 5.1 0.7 7.5 2.3 0.56 1.3 0.61 2.1-0.43 3.1z"
        fill="#903b15" /><path d="m140 391c-4.1 3.6-8.7 3.3-14 2.4-3.5-4.4 0.42-6.8 2.5-10 3.8-4.2 5.8-9.7 12-11 1-0.3 1.7-0.35 2.7-0.42 0.53-3e-3 0.73 8e-3 1.2 0.037 0.59 1.7 0.89 3.5 1.3 5.6-1.8 4.8-3.8 9.3-5.8 14z" fill="#b34a21" /><path d="m30 121c-0.22 1.7-1.3 2.9-3.5 3.6 0.35-1.6 1.5-2.7 3.5-3.6z" fill="#a24624" /><path d="m55 113c0.87 0.16 1.6 0.87 2.1 2.2-0.58-0.45-1.3-1.2-2.1-2.2z" fill="#aa4220" /><path d="m92 386c-1.1 2.1-2 3.8-4 5.1-2.7 2.1-5.2 3.7-8.3 0.28-1.7-2.3-0.83-3.8 0.35-5.4 2.4-3.3 4.6-6.8 7.5-10 0.85-0.73 1.4-0.88 2.6-0.8 3.1 0.72 4.2 2.9 5.7 5.4 0.41 0.53 0.57 0.74 0.84 1.3-0.43 2.8-2.8 3-4.7 4.4z" fill="#aa4220" /><path d="m104 388c-1.2 1.5-2.1 2.7-3.1 4.1-1.6-0.35-3.1-1.2-5.1-0.85-0.26-1.1-0.21-2.2-0.11-3.6 0.69-1.3 0.94-2.5 1.1-4.1 3.5-4.2 4.5-4.2 7-0.29 0.4 1.8 0.71 3.1 0.2 4.8z" fill="#a24624" /><path d="m81 390c2.4 1.6 4.5 1.7 7.1 1.3 0.025 1.4-0.3 2.8-0.68 4.6-3-0.73-6.2-0.67-9.7-0.81-2.1-3.5 0.08-4.6 3.2-5.1z" fill="#93471a" /><path
        d="m99 385c-0.55 0.85-1.3 1.5-2.4 2.2-1.4-0.18-2.5-0.48-3.9-0.81-0.095-1.7 1-2.7 2.4-3.9 2.2-0.47 2.6 1.4 3.9 2.5z" fill="#9e411f" /><path d="m128 363c1.1 0.55 2 0.87 3.1 1.3 0.88 0.71 1.5 1.2 1.7 2.4-4.5 6.9-9.8 12-17 16-1.5 0.032-2.6-0.3-3.8-1.2-0.32-0.26-0.3-0.36-0.28-0.4-1.6-1.2-2.1-2.6-0.54-4.1 5-5 9.3-11 16-15 0.62 0.016 0.86 0.11 1.4 0.45z" fill="#993617" /><path d="m131 367c0.052-1.1 0.084-1.8 0.14-2.8 3.1-0.51 5.1 0.87 6.1 4.1 0.022 0.76-0.086 1.2-0.25 1.9-0.61 1.5-0.88 2.8-3 2.9-3.7-0.89-4.3-2.9-3-6.2z" fill="#a04f2b" /><path d="m128 363c-0.18 0.44-0.35 0.46-0.78 0.52-1.6 0.49-2.8 0.55-3.7-1.4-0.2-1.7-0.67-3 1.1-4.3 1.1-0.31 1.8-0.3 2.8-0.25 0.42 1.7 0.48 3.3 0.53 5.4z" fill="#9a4829" /><path d="m60 389c3.7-4.3 7.3-8.7 11-14 0.017-1-0.55-1.7-0.12-2.8 3.4-2 5.2-4.7 6.1-8.5 0.93-1.2 1.8-1.8 3.2-2.3 1.3-0.15 2.2-0.1 3.4 0.3 1.7 1.6 2 3.3 1.6 5.5-0.16 5.9-4.7 8.5-8.1 11-2.4 1.9-4.4 3.9-6.4 6.6-2 1.9-4.4 2.9-6 5.3-0.58-9e-3 -0.81-0.1-1.3-0.44-1-0.51-1.8-0.77-2.9-1.2z"
        fill="#8c3211" /><path d="m63 390c-0.086-0.33 0.4-0.38 0.65-0.4 1.5-0.29 2.2 0.39 2.5 1.9-0.21 0.6-0.38 0.81-0.91 1.2-0.37 0.15-0.71 0.15-0.88 0.15-0.55-0.84-0.93-1.7-1.4-2.8z" fill="#93471a" /><path d="m35 226c0.74-0.4 1.4-0.46 2.5-0.54 4.2-2.8 7.6-1.5 7.7 3.5-3.4 0.064-6.5-0.27-10-0.61-0.4-0.7-0.37-1.4-0.31-2.4z" fill="#9b3b1d" /><path d="m81 390c-1.7 1.5-3.1 2.8-4.1 4.9-0.53 0.28-0.91 0.27-1.6 0.25-0.95-0.49-1.6-1-1.8-2.2 0.3-1.7 0.46-3.1 0.71-4.8 2.6-2.1 3.4-4.8 4.6-7.3 1.6-3 3-6 7-7 1.7 0.072 2.9 0.06 3.1 2-1.6 5.5-6 8.9-8 14z" fill="#8c3211" /><path d="m75 391c0.27 1.1 0.33 1.9 0.42 3-3.2 0.5-6.6 1.1-9.9-1-0.31-0.21-0.25-0.31-0.22-0.36 2.2-2.4 5.3-1.4 8.3-2.3 0.67 0.12 0.92 0.25 1.4 0.75z" fill="#93471a" /><path d="m134 372c1.1-0.44 1.9-0.76 2.9-1.2 1.5-2e-3 2.7 0.1 4.2 0.19-2.9 3.8-6.1 7.5-9.6 12-1.4 1.3-2.4 1.4-3.7-0.32-0.48-0.97-0.75-1.5-1-2.5 0.12-1.6 0.32-2.8 1.2-4.2 1.6-2.1 3.2-3.5 6-3.6z" fill="#9f3716" /><path
        d="m62 253c3.1-2.5 3.7-5.8 3.9-9.2 0.31-4.6 1.4-8.9 5.8-12 1.6-0.28 3-0.3 4.7-0.33 0.86-0.016 1.3-0.021 2.1-0.01 0.78 0.014 1.2 0.02 2 0.027 3.7-0.41 6.3-2.9 9.9-3.6 1.2-0.37 1.9 1.2 3.1 0.28 2.2-8e-3 4 0.6 6.2 0.35 4.8 1.1 9.1 2.5 14 1.2 2.8-0.095 5.3-0.65 8.1-0.033 1.1 0.23 1.9 0.32 2.9 1.1 0.71 0.72 0.95 1.2 1 2.2 0.52 2.4-0.53 3.8-1.4 5.4-1.5 2.9-4.2 5.7-1.9 9.7 0.22 0.95 0.22 1.7 0.22 2.8-2.1 2.8-0.79 6.1-2.4 9-2.7 1.1-3.5 2.7-3.4 5.2 0.12 2.1-0.34 4.1-0.72 6.1-0.89 4.7-4.4 6.2-9.1 6.6-0.64 0.4-0.9 0.59-1.3 0.94-2.2 3.6-4.9 0.38-7.6 0.87-2.7-3.3-6-3.9-9.5-3.2-1.8 0.37-3.4 0.087-5.4-0.13-6.4-0.065-12-0.1-19-0.16-1.1-1.1-1.7-2.2-2.4-3.6-0.091-6.7-0.0032-13 0.072-20z" fill="#ba401b" /><path
        d="m53 79c-2.3 0.19-4.4 0.23-6.8 0.32-1.1 1.4-2.6 0.77-4 1.4-2-0.18-3.6-0.13-5.5-0.88-1.4-1.7-0.67-3.5-1.5-5.4-0.22-0.36-0.32-0.84-0.38-1.1-2.7-2.8-1.5-5.2 0.49-7.9 0.61-1.5 0.94-2.5 1.3-4 1.7-2.2 3.6-2.9 6-0.8-0.11 1.3-0.45 2.1-0.92 3.1-0.12 2.1-0.46 3.9-0.53 5.7-0.064 1.7 0.42 2.8 2.6 3 3 0.62 5.8 0.59 8.7 2.2 2.1 0.28 3.7 0.29 5.8 0.32 0.44 0.5 0.46 0.98 0.5 1.8 0.025 0.36 0.0033 0.4-0.014 0.41-0.71 0.62-1.5 0.86-2.8 0.81-1.1 0.22-2 0.44-3.1 0.8z" fill="#7e2f10" /><path d="m71 65c-0.7 0.24-1.1 0.29-1.8 0.38-2.7 1.6-4.4 0.75-6.3-1.3-2.2-2.5-2.1-4.9-1.1-7.8 1.3-3.9 4.9-4.5 8.1-5.4 2.4-0.72 4.4 0.42 5.6 3.3-0.095 2.3-0.43 4.2-0.79 6.5 1e-3 2.6-1.8 3.2-3.7 4.2z" fill="#7d3013" /><path d="m97 41c2.9 1.8 4.2 4 2.4 6.8-1.8 2.8-4.3 4.8-7.9 3.9-2.5-0.57-4.1-2.3-4.2-4.9-0.14-2.6 0.99-4.5 3.5-5.4 1.9-0.62 3.8-1.1 6.2-0.48z" fill="#8d3718" /><path
        d="m116 48c0.91 0.6 1.4 0.9 2.1 1.4 2.6 2.5 1.1 4.6-0.53 6.9-0.25 0.27-0.71 0.39-0.95 0.44-2 1-3.8 1.6-5.9 1.7-2.4 0.12-4.4-0.11-5.3-2.3-0.91-2.4-2.1-5.2 1.6-7.2 0.38-0.26 0.8-0.32 1-0.36 2.5-1.1 4.8-2.8 7.9-0.62z" fill="#753515" /><path d="m78 23c0.79-0.13 1.3-0.11 1.8-0.08 6.5 0.44 7.2 1.9 3.5 7.6-0.19 0.27-0.55 0.36-0.73 0.41-1.2 0.01-2.2 0.025-3.2-0.084-2.3-0.25-4.4-0.98-5-3.4-0.62-2.6 1.7-3.3 3.7-4.4z" fill="#7d3013" /><path d="m76 54c-1.9-0.96-3.8-2.1-6.3-1.7-3.5 0.61-6.4 2.2-6.8 6-0.42 3.9 1.8 6.1 6.1 6.7-3.5 3.4-5.8 0.64-7.4-2.4-1.7-3.3-0.81-6.7 1.5-9.3 2.3-2.7 5.5-4.3 9.3-3.9 2.3 0.28 3.3 2.1 3.8 4.6z" fill="#a8411e" /><path d="m83 70c-0.31-0.4-0.35-0.56-0.44-0.97-0.19-0.44-0.33-0.62-0.56-1.1-0.044-0.67 0.067-1 0.33-1.2 1.4-0.92 4.2-0.97 3.9-3-0.32-2-3.2-0.85-5-1.8-0.42-0.24-0.55-0.4-0.69-0.87 5-6 11-5.1 14 2.3 1.6 2.6 0.2 3.7-1.8 5.1-2.1 0.87-3.8 1.5-6 2.2-1.5 0.05-2.7 0.33-4.1-0.59z" fill="#963819" /><path
        d="m73 35c2.4-0.36 4.9-0.38 7.6 0.56 2.3 2.3 2.4 4.6 0.58 6.9-2 2.4-4.6 3.3-7.6 2.6-3.7-0.87-4.4-3.2-2-7.2 0.69 0.15 1.1 0.74 1.7 0.38 0.45-0.27 0.21-0.76-0.26-1.4-0.17-0.64-0.15-1-0.1-1.8z" fill="#9b3b1d" /><path d="m116 48c-2.4 0.43-4.8 0.53-7.7 0.62 1.7-2.4 2-5.2 1.5-8.7 0.2-2.3 0.55-4.1 2.8-5.2-0.96 3.9-1.3 7.5 4.9 7.9-0.23 1.7-0.85 3.4-1.5 5.3z" fill="#9e411f" /><path d="m53 75c-2.9 0.34-6 0.37-9.6 0.39-1.4-1-2.3-2.1-1.7-4 0.13-1.2-0.73-2.1-0.016-3.3-0.23-1.6 0.48-2.1 1.9-2.5 2.6-0.17 4.8 0.2 7.1 1.7 0.32 2.8 0.53 5.3 2.3 7.8z" fill="#873a1b" /><path d="m73 37c1-0.12 1.8-0.1 2.6 0.0036 1.9 0.24 3.8 0.6 3.9 3 0.1 2-1.3 3-3.1 3.4-2.2 0.47-3.5-0.66-4-2.7-0.16-0.64-0.21-1.3-0.35-2.4 0.2-0.61 0.44-0.84 0.83-1.2z" fill="#803114" /><path d="m107 49c-2.6 7.2-0.83 9 8.9 8-2.3 3.5-6.2 2.6-10 2.7-0.85-3.7-4.8-7.8 1.4-11z" fill="#9a3d1a" /><path d="m93 69c0.22-1.5 0.82-2.9 1.6-4.7 1.9 0.015 3.6 0.33 5.6 0.67 1.8 1.3 2.2 2.7 0.78 4.8-0.89 0.55-1.4 0.8-2.1 1.1-1.6-1.6-3.5-1.8-5.9-1.9z"
        fill="#ad4824" /><path d="m104 63c8.3-1.6 8.9-1.2 10 6.4 0.015 0.38-0.46 0.44-1 0.45-0.8-0.039-1-0.085-1.5-0.28-2.3-2.1-5.2-2.2-7.8-3.5-0.4-0.37-0.5-0.57-0.63-1.1 0.26-0.82 0.55-1.3 1-2z" fill="#9a3d1a" /><path d="m101 70c-0.29-1.6-0.29-3-0.29-4.8 0.41-0.46 0.82-0.5 1.5-0.57 0.3-0.037 0.43 0.093 0.49 0.16 1.6 2.9 6 2.1 7.1 5.8-3.1 3.4-5.8 1.6-8.8-0.58z" fill="#9a3d1a" /><g fill="#a8411e"><path d="m83 68c-0.33 0.48-0.36 0.65-0.43 1.1-4.1-1.3-4.5-3.9-2.2-7.6 0.23-0.24 0.46-0.24 0.57-0.24 0.62 0.7 1.2 1.3 2.5 1.7 1.5 1.1 1.5 2.2 0.8 3.7-0.49 0.54-0.69 0.75-1.2 1.3z"/>
        <path d="m71 65c0.78-1.2 1.9-2.5 3.3-3.9 1.3 2.9-0.78 3.4-3.3 3.9z" />
        <path d="m83 70c0.94 0.0069 2.1 0.23 3.5 0.58-0.99 0.71-2.2 0.81-3.5-0.58z" /></g><path d="m99 35c0.29-0.35 0.83-0.81 1.6-1.4-0.29 0.35-0.82 0.81-1.6 1.4z" fill="#a24624" /><path d="m91 32c0.39 0.067 0.9 0.31 1.6 0.69-0.35-0.075-0.94-0.3-1.6-0.69z" fill="#a24624" /><path d="m110 71c-3.4-0.76-7-0.9-7.3-5.7 3.6-0.85 7.7-2.6 9 3.5 0.15 0.56 0.23 0.74 0.15 1.2-0.33 0.35-0.5 0.45-0.89 0.75-0.38 0.23-0.56 0.25-0.99 0.31z" fill="#7e2f10" /><path d="m111 71c-0.036-0.15 0.19-0.38 0.62-0.73 0.3-0.31 0.41-0.47 0.71-0.4 0.19 0.23 0.22 0.24 0.23 0.26-0.44 0.27-0.89 0.52-1.6 0.88z" fill="#ae4923" /><path d="m104 89c0.46 0.47 0.6 0.94 0.62 1.4 0.058 1.3 1.5 3.1-0.61 3.7-1.8 0.42-2.2-1.5-2.5-2.9-0.099-0.47-0.099-0.95-0.16-1.8 0.73-0.37 1.5-0.37 2.6-0.37z" fill="#c14921" /><path d="m144 78c2-1.5 3.7-3.2 4.7-6 1.8 3.3 0.16 5.3-3.5 6.7-0.57-0.097-0.8-0.32-1.2-0.7z" fill="#9f3b19" /><path d="m56 78c0.58-0.33 1.4-0.58 2.5-0.86-0.35 0.82-1.2 1.3-2.5 0.86z" fill="#983f1a" /><path
        d="m45 51c-0.039 0.71-0.3 1.2-0.68 1.9-1.5 2.1-5.4 1-5.5 4.9-0.32 0.85-0.72 1.1-1.6 1.3-2.8-0.046-5.3-0.11-5.9-3.6 2.8-3.4 6.8-4.2 11-6.2 1.2 0.35 2 0.88 3.1 1.6z" fill="#b7411d" /><path d="m49 177c-4.9-0.17-9-2.8-14-4.5-0.76-4.6-1.2-9-1.6-13-0.49-5.4 1.4-7.5 8.8-8.7 4.3-0.75 7.1 1.6 8.1 5.6 1.8 7.1 1.7 14-1.5 21z" fill="#b5411b" /><path d="m52 183c-0.53-2.1-1.1-3.9-1.7-5.9 3.1-1.4 3.4-4 3.7-6.8 0.28-3.6-0.28-7.3 0.9-11 1.9 5.5 1.3 11 0.51 17-0.69 5.5-1 11-1.4 17-0.6 2.6-2.4 2.8-4.7 2.7-1.6-0.013-2.9-0.01-3.6-1.7-0.85-2.5 0.56-3.7 1.8-4.8 2-1.7 3.6-3.7 4.6-6.6z" fill="#8c3715" /><path d="m68 220c-1.8-0.65-3-1.6-4.3-2.6-0.74-0.48-1.2-0.79-2-1.2-3.4-1.3-7.2-1.8-7.2-6.9 0.29-2.2 0.2-4.1 2.6-5.1 1.6-0.51 2.7-1 4-1.7 2.6-0.54 2 1.6 2.2 2.6 0.51 2.3 1.5 4.2 3.7 5.9 1.1 1.5 1.9 2.7 3 4.1 0.71 0.46 1.1 0.8 1.5 1.6-0.25 1.9-1.8 2.2-3.5 3.3z" fill="#803114" /><path
        d="m67 211c-5.6 0.24-4.4-4.7-5.8-8.3-0.15-1.7-0.17-3.1-0.18-4.9-1.7-1.9-0.37-4.2-1.7-6.1-0.52-1.4-0.79-2.5-1.1-3.9 1.9-2.4 1.7-4.8 1.7-7.3-0.0052-1.5-0.89-3.3 0.71-4.9 4.1 4.6 2.8 10 2.7 16-0.22 7 0.34 13 3.7 20z" fill="#8b371a" /><path d="m57 204c-0.21 1.8-0.47 3.3-0.89 5.2-1.9 2.3-4 2.2-6.5 1.1-1.2-4-0.057-7.9-2.1-12-0.27-1.3 0.091-1.9 1.1-2.7 1.7-0.57 3.1-0.88 4.8-1.2 0.94 1.1 1.5 2.1 2.2 3.5 0.24 1.2 0.14 2.1 0.9 3.1 0.26 0.98 0.33 1.7 0.46 2.8z" fill="#aa4220" /><path d="m61 148c0.33 8 0.43 16 0.4 24-0.49 0.78-0.95 0.94-1.8 0.57-0.59-7.6-0.91-15-1.2-23 0.052-0.65 0.094-0.86 0.36-1.3 0.8-0.45 1.3-0.88 2.2-0.54z" fill="#8b371a" /><path d="m59 172c0.49-0.38 0.92-0.36 1.7-0.35 0.33 0.75 0.33 1.5 0.34 2.6-0.69 4.3 1.6 8.8-2.6 12-0.045-4.6 0.22-9.4 0.55-15z" fill="#803114" /><path d="m59 191c1.7 0.95 2 2.8 2 5.2-1.7-0.98-1.9-2.9-2-5.2z" fill="#803114" /><path d="m57 201c-0.84-0.33-1.3-1.2-1-2.5 0.37 0.57 0.67 1.4 1 2.5z" fill="#8c3715" /><path
        d="m59 149c-0.23 0.34-0.65 0.41-0.86 0.45-0.46-0.21-0.7-0.45-1.1-0.88 0.29-0.47 0.76-0.76 1.5-1.2 0.78 0.21 0.94 0.67 0.51 1.6z" fill="#722f12" /><path d="m25 193c-5.2-4.6-5.2-5.2 0.6-14 9-4 16 1.7 24 4.4 2.5 2.2 0.87 4.1-0.4 5.4-1.3 1.3-2.7 2.8-5.1 3.5-2.3 8e-3 -3.4-0.7-3.8-2.7-0.69-3.3-2.7-5.4-6.2-5.2-3.3 0.14-5.5 2-6.6 5.1-0.48 1.4-0.7 2.9-2.3 4z" fill="#b2431c" /><path d="m43 190c3.8-0.9 6.2-2.9 7.3-6.7 0.54-0.34 0.98-0.35 1.7-0.36 2.3 2.2 0.7 3.9-0.66 5.5-1.1 1.4-2.3 2.7-3.7 4.3-2 4.3-6.2 4.6-9.8 6.6-1.6-0.097-2.5-0.8-3.9-1.5-1.1-2.7 0.37-4.1 2.1-4.9 2.2-1 4.1-2.5 6.9-3z" fill="#aa4723" /><path d="m43 190c-1.1 4.8-5.6 4.9-8.7 7.2-0.65 0.65-1.1 0.85-2.1 0.57-0.77-0.25-1.2-0.3-1.9-0.41-1.4-1.7-3-2.8-5-3.9-1.4-8.9 5-15 13-12 3.8 1.4 5.3 4.2 5.2 8.4z" fill="#ba441c" /><path d="m59 149c-0.25-0.33-0.26-0.79-0.28-1.6 0.91-1.3 2-2 3.6-2.3-0.2 0.8-0.72 1.7-1.4 2.7-0.69 0.49-1.2 0.75-1.9 1.1z" fill="#7b3215" /><path
        d="m123 327c-0.84-0.42-1.7-1.3-2.7-2.4-1.3-0.77-1.3-1.6-0.52-2.9 1.1-0.29 1.8-0.32 2.8-0.36 0.36 1.7 0.37 3.4 0.38 5.6z" fill="#a73b1b" /><path d="m131 291c0.25 0.42 0.26 0.59 0.27 1-1.9 4.2-0.81 8.9-3.9 13-4.1 4.9-8.6 9.3-15 12-0.75 0.3-1.2 0.34-1.9 0.39-6 1.8-6.2 1.5-6.4-4.4-0.18-6.7 0.43-13 1.3-20 0.76-5.7 3.3-8.1 9.1-8.9 2.2-0.3 4.4-0.5 7-0.34 4.3 1.1 5.6 5.3 9.3 7.2z" fill="#ba401b" /><path d="m123 285c-2.8-0.23-5.1-0.24-7.4-0.18-4.2 0.11-6.8 2.3-8.2 6.1-2.7 7.5-1.3 15-2 23-0.18 2.1 1.7 2.6 3.8 2.8-1.3 2-3.6 1.9-6.3 1.9-4.2-1.8-3.5-6.1-5.2-9.5 0.76-1.3 1.1-2.4 1.3-3.9 2.4-5 1.6-9.8 1.1-15-0.12-1 0.16-1.5 0.55-2.4-0.51-4.3 1.7-5.5 5.5-5.5 2.8 0.2 5.2 0.19 8 0.17 1.1-0.73 1.9-0.98 3.1-0.92 0.77 9e-3 1.2 0.01 2 7e-3 2.7 0.81 4.8-2.4 7.5-0.04 0.45 3-0.3 4.5-3.7 3.3z" fill="#ae4221" /><path d="m112 317c1-2.8 3.8-4.2 6.1-6.1 5.8-5 9.5-11 12-19 0.52 4.7-0.069 9.6-2.6 14-4.8 4.2-8.6 9.6-16 10z" fill="#b24421" /><path
        d="m101 309c0.91 3.3 1.5 6.4 2.1 9.8 0.088 1.4 0.087 2.5 0.085 4 0.23 1.2 0.52 2 0.74 3.3-0.19 2.4 0.099 4.4-1.9 6.2-1.1 0.26-1.8 0.29-2.9 0.094-2.5-2.9-0.49-6-1.5-9.2-0.81-1.1-1.4-1.8-1.7-3.1 1.2-2.4-0.14-4.3-0.1-6.7 0.23-0.9 0.47-1.4 1-2.1 1.3-1.4 1.6-3.5 4.2-2.4z" fill="#963713" /><path d="m101 331c0.79-2.1 1.2-3.8 1.6-5.9 0.46-1.5 1.7-1.4 2.6-2.2 0.73 8e-3 1.2 0.22 2 0.56 0.69 0.6 1.1 1.1 1.5 2.1-0.023 4-1.6 7.2-2.9 10-1.1 2.7-3 3.3-6 1.7-1-2.5-1.9-4.8 1.1-6.7z" fill="#b44320" /><path d="m120 321c0.25 0.95 0.22 1.7 0.21 2.8-0.84 0.66-1.7 0.96-2.9 1.4-0.89 0.48-1.5 0.82-2.5 0.39-0.44-0.32-0.58-0.5-0.74-1 2e-3 -5.4 0.81-5.9 5.9-3.5z" fill="#803114" /><path d="m114 324c0.8 0.079 1.4 0.29 2.2 0.62 0.27 0.12 0.23 0.57 0.22 0.8-0.32 0.81-0.76 1.2-1.8 1.7-2.9 0.77-5.4 1.7-7.8-1-0.23-0.87-0.23-1.3-0.22-2.1 1.8-0.3 3.5-0.25 5.8-0.19 0.73 0.29 1.1 0.39 1.7 0.23z" fill="#aa4220" /><path d="m105 323c-0.43 0.61-1.2 1.2-2.2 1.9-0.089-0.42 0.096-0.94 0.41-1.7 0.58-0.24 1-0.24 1.8-0.23z"
        fill="#a8411e" /><path d="m115 324c-0.22 0.048-0.62 0.046-1.2 5e-3 -0.14-0.038 0.24-0.086 0.43-0.12 0.19-0.03 0.56 0.061 0.75 0.11z" fill="#b44320" /><path d="m126 282c-2.1-0.24-3.9-0.21-6-0.28 1.6-1.1 3.3-2.3 4.1-4.4 1-2.6 3.1-3.6 6.2-3.7 0.39-0.021 0.41 0.47 0.42 0.71 0.92 1.2 1.2 2.3 0.27 3.9 0.25 1.2 0.79 2 1.5 3.1-0.99 0.33-2.2 0.42-3.7 0.49-0.94 0.61-1.7 0.8-2.8 0.13z" fill="#9b3b1d" /><path d="m131 279c-0.21-0.89-0.2-2-0.19-3.4 1.3 0.69 1.8 1.9 0.19 3.4z" fill="#963719" /><path d="m126 282c0.87-0.23 1.6-0.22 2.6-0.17 1.7 2.5 2.6 5.1 2.5 8.4-6.6 1.3-7 1.1-7.9-5.2 0.88-1.2 1.8-2 2.8-3z" fill="#ba4b22" /><path d="m107 279c5.6-2.6 8.2-7.1 7.9-14-0.12-2.3 0.79-4.6 3.3-6 4.2 1.1 2.2 3.7 1.6 6.4-0.22 0.86-0.22 1.3-0.23 2.1-0.11 2-0.99 3.3-1.8 5.1-1.9 5.3-5.9 6.2-11 6.1z" fill="#ae401e" /><path
        d="m107 283c-0.99 2.2-2.1 4.2-3.3 6.3-2.1 0.65-2.8-0.84-2.7-1.9 0.47-2.8-0.75-4.5-3.1-4.3-2.9 0.25-0.38 2.9-1.2 4.7-0.59 3.5-0.58 6.9-5.1 7.5-2.9-3.6-2.1-7.4-1.8-12 1-2.1 2.4-3.1 4.1-4.2 1.1-1.5 2.1-1.9 3.9-0.74 2.8 0.56 5.1 0.86 7.8 1.2 0.7 0.94 1 1.8 1.4 3z" fill="#893b1c" /><path d="m120 266c-0.7-2-1.1-4.1-1.4-6.5 0.78-2.8 1.2-5.4 3.7-7.3 0.42 1.6 0.58 3.3 1.6 4.9 3.6 5.9 3.4 6.6-3.8 8.9z" fill="#9f3b19" /><path d="m123 248c0.39-2.1 1.8-3.8 4.4-4.7-0.53 2-1.9 3.7-4.4 4.7z" fill="#a8471e" /><path d="m118 273c-0.044-1.4 0.4-2.9 1.6-4.5 0.73 1.6 0.25 3.2-1.6 4.5z" fill="#9f3b19" /><path d="m130 243c0.52-0.5 1.3-1.1 2.5-1.7-0.52 0.5-1.3 1.1-2.5 1.7z" fill="#a8471e" /><path d="m118 282c-0.55 0.34-1.3 0.61-2.4 0.93 0.32-0.81 1.1-1.3 2.4-0.93z" fill="#9b3b1d" /><path
        d="m94 231c-1-0.24-1.8-0.25-2.9-0.26-2.5-0.22-4.7 0.093-7.1-0.71-0.25-1.1-0.26-1.8-0.27-3 0.31-1.2 0.97-1.8 1.9-1.8 7.1 0.048 14-1.3 21 1 4.9 1.6 9.5-0.96 14-0.17 2.3 0.38 4.9-0.36 7.5 1.1 0.23 1.5 0.22 2.6 0.21 4.1-0.5 0.64-0.99 0.88-1.7 1.2-0.7 0.1-1.2 0.11-1.9 0.13-1.1 0.014-1.8 0.012-2.9 5e-3 -2.8-0.2-5.3 0.28-8.1-0.68-5.1 0.54-9.8 0.39-15-0.34-1.9-0.1-3.4 0.22-5.2-0.67z" fill="#9b3717" /><path d="m125 233c0.37-0.22 0.91-0.27 1.7-0.27-0.018 0.29-0.24 0.52-0.63 0.92-0.4-0.047-0.62-0.27-1-0.65z" fill="#a83f1c" /><path d="m129 228c-15 1.5-30-1.5-45-1-0.47 0.013-0.41-0.11-0.38-0.16-1.5-2-1.2-3.4 1.3-4 0.97-0.25 2-0.32 3-0.31 13 0.15 27-0.35 40 0.97 1.8 0.17 3.7-0.14 5.2 2.1 0.24 0.58 0.24 0.75 0.24 1.2-0.18 0.96-0.69 1.2-1.7 1.3-1.1 0.013-1.8 0.015-2.9 0.024z" fill="#b3401d" /><path d="m132 228c0.24-0.35 0.73-0.61 1.5-0.98 0.48 0.089 0.71 0.29 1.1 0.65-0.67 0.24-1.5 0.33-2.6 0.33z" fill="#9b3717" /><path
        d="m36 65c0.1 2.3-0.14 4.7-0.44 7.6-0.81 0.4-1.6 0.4-2.7 0.4-0.048-2.9-1.4-6.5 3.1-8z" fill="#ae4923" /><path d="m37 78c1.6 0.64 3.1 1 4.8 1.5 1.1 0.64 1.3 1.4 0.59 2.5-2.3 0.31-4.4 0.31-6.8 0.3-0.42-1.4-0.4-2.8-0.38-4.6 0.76-0.96 1.2-0.5 1.8 0.33z" fill="#a8411e" /><path d="m37 78c-0.45 0.078-0.95-0.16-1.7-0.53-0.22-0.87-0.19-1.6-0.11-2.7 1 0.53 1.6 1.6 1.8 3.2z" fill="#8d3718" /><path d="m37 59c0.086-0.7 0.24-1.1 0.46-1.7 0.86-2.6 2.2-2.8 4.4-1 2.5-0.25 4.6-0.86 7-1.5 1.4 3.8-2.8 3.4-4.3 5.7-0.29 0.28-0.71 0.31-0.92 0.32-2-0.012-3.8-0.036-6-0.053-0.51-0.45-0.58-0.91-0.72-1.7z" fill="#7b3215" /><path d="m76 363c-4.2 1.8-6.5 4.6-8.6 7.7-1.4 2-3 4-5.7 2.5-2.4-1.4-2.5-4-1.3-6.2 2.3-4.1 0.9-7.8-0.91-11-4.1-8.3-0.46-16 2.1-23 0.92-2.7 3.4-2.6 4.9 0.012 2 3.5 5.4 5.3 8.5 8 4.2 0.2 4.3 3.6 5.5 6.4 0.77 6.1-0.43 11-4.6 16z" fill="#bb3f18" /><path
        d="m101 331c0.011 1.7-0.33 3.5-0.68 5.6 0.45 1.1 0.83 1.9 0.16 3.1-0.94 0.84-1.6 1.3-2.8 1.6-4.3-3.1-7.2-3.2-12-0.084-1.1 0.19-1.9 0.25-3.1 0.33-3.1-0.49-4.4-2.3-5-5.2-2.1-2.1-3.7-4-4.1-7 0.57-1.5-0.057-3.2 2-3.8 0.65-0.017 0.91-0.026 1.5-0.051 2.7 1.8 3.9 5.1 7.6 5.7 2.2 0.097 3.9-0.43 6-0.96 0.78-0.36 1.2-0.57 2-0.94 2.4-0.11 4.5-0.31 6.4 1.4 0.73 0.29 1.2 0.3 2 0.32z" fill="#9f3b19" /><path d="m77 336c2 0.52 3.8 1.4 5.1 3.4 0.8 0.93 1.6 1.4 2.4 2.4 0.22 1.6 1 2.7 0.32 4.3-0.7 1.2-1.7 1.3-2.9 1.7-1.1 0.16-1.6-9e-3 -2.4-0.77-2.4-2-3-4.5-4.1-7.1 0.41-1.5 0.95-2.6 1.7-4.1z" fill="#b94c22" /><path d="m81 347c0.77-0.55 1.3-0.81 2-1.2 2.8 0.44 2.2 3 2 4.1-0.52 3.2-0.33 6.3-0.87 9.9-0.79 1.7-2.1 1.7-3.5 2.7-0.85 0.83-1.4 1.4-2.1 2.1-2 1.5-1.5 4.7-4.8 4.6 0.1-2.3 0.7-4.1 1.4-6.2 0.12-0.33 0.12-0.33 0.12-0.33 4.2-4.3 4.4-10 5.7-16z" fill="#ae4221" /><path d="m76 327c-1.2 0.9-2 1.5-3.1 2.2-0.83-0.65-1.4-1.5-2.1-2.5-0.87-4.5-0.15-7.7 5.5-7.3 2.7 2.6 1 5-0.31 7.7z" fill="#8c3211" /><path
        d="m72 373c-0.54 0.79-0.79 1.3-1.2 2-1.2 0.53-2.3 0.82-3.8 1.2 0.74-2.7 2.1-5.3 5.3-6.8 0.31-0.13 0.33-0.12 0.33-0.11 1.4 1.3 0.61 2.4-0.72 3.7z" fill="#ae4221" /><path d="m66 377c-0.2 1.1-0.94 2-2.4 2.8 0.083-1.2 0.77-2.2 2.4-2.8z" fill="#ae4221" /><path d="m51 310c0.054-12 4.1-21 15-27 3.6-0.24 6.9-0.22 11-0.21 1.2 0.76 2 1.2 3.3 0.22 0.66-0.18 1.1-0.17 1.9-0.17 7.2 2.6 7.4 2.9 6.6 12-2.2 3.4-4.5 6.3-6.9 9.6-0.36 0.48-0.54 0.64-1 0.97-2.4 0.24-2.7 2.1-4 3.6-0.78 1.1-1.3 1.9-2.1 3-3.2 3.1-6.8 5.5-11 5.9-6.2 0.74-8.9 1.2-13-8.4z" fill="#bb411a" /><path d="m51 310c0.49-0.14 1.1-0.045 1.4 0.31 6.4 8.8 14 6.2 22 2.5-3.3 5.7-8.5 8.4-15 7.9-1.8-0.12-3.6-0.058-5.9-0.088-2.3-0.94-2.1-3-3.2-4.7-0.24-0.69-0.26-1.1-0.29-1.9 0.3-1.4 0.62-2.6 0.97-4z" fill="#b2431c" /><path
        d="m76 327c0.0086-2.4 0.28-4.8 0.64-7.6 3.7-3.1 5-8.6 11-9.2 4.1-2.8 6.3 0.59 9.1 2.6 0.78 2.1 1.4 3.9 2.2 5.9-1.7 2.7-3.7 1.7-5.3 0.38-6.1-5.1-9.7-1.6-11 4.4-0.37 1.3-0.6 2.6-1.2 3.7-0.94 1.8-2.1 1.8-3.7 0.11-0.42-0.25-0.6-0.26-1-0.26z" fill="#ab411e" /><path d="m88 296c0.82-5.2-0.3-9.5-4.5-13 1.8-0.3 3.9-0.34 6.3-0.38 2.3 3.2 1.6 7 2.9 11 1.1 1.4 1.5 2.4 0.23 3.9-1.4 1.5-1.1 3-1.3 4.4-0.29 2.1-0.7 4-3.9 3.2-0.57-0.35-0.75-0.37-1.2-0.42-3.3-3.4 0.51-5.6 1.4-8.6z" fill="#aa431f" /><path d="m87 305c3.5-1.8 2.6-6 5.3-8.5 5 0.33 2.4 4.1 3.2 6.8-2.2 3.9 2.8 5.1 2.5 8.4-0.24 0.52-0.49 0.69-0.91 1-2.9-0.85-5.6-1.8-8.7-2.9-1.4-1.4-1.8-2.8-1.4-4.8z" fill="#893b1c" /><path d="m88 296c-0.33 2.6-0.95 5.3-1.6 8.4-0.5 0.4-0.92 0.43-1.7 0.47-1 0.63-1.8 1-3.1 0.31 1.4-3.6 3.2-6.7 6.4-9.2z" fill="#b2431c" /><path d="m50 316c1.5 0.68 2.2 2.2 2.8 4.2 0.091 0.49 0.089 0.66 0.085 1.1-2-0.91-2.6-2.8-2.9-5.3z" fill="#aa431f" /><path
        d="m77 310c0.16-1.6 0.65-3.3 2.5-4.7 0.93 0.46 1.3 1.2 0.54 2.4-1.1 0.92-1.9 1.5-3 2.2z" fill="#b2431c" /><path d="m80 308c-0.31-0.64-0.31-1.4-0.31-2.5 6e-4 -0.37 0.5-0.38 0.75-0.38 1 4e-3 1.8 0.013 2.9 0.029-0.41 1.4-1.5 2.3-3.3 2.9z" fill="#aa431f" /><path d="m43 70c-0.27 1.7-0.3 3.1-0.35 5-4.5-2.5-3.3-6.2-1.3-10 0.75-0.029 1.3 0.23 2.1 0.63 0.016 0.97-0.23 1.8-0.54 3 0.3 0.63 0.45 1 0.15 1.7z" fill="#893b1c" /><path d="m44 61c0.18-2.6 2.3-3.9 4.4-5.7 0.23-0.23 0.24-0.26 0.25-0.25 0.91-0.91 1.9-1.1 3.4-0.27-0.83 4.3-4.4 5-8.1 6.2z" fill="#7e2f10" /><path d="m53 55c-1 0.26-2 0.27-3.4 0.29 0.095-0.56 0.57-1.1 1.3-1.9 0.72 0.086 1.2 0.34 2 0.72 0.24 0.13 0.22 0.62 0.19 0.86z" fill="#7b3215" /><path d="m42 57c-1.5 0.38-2.8 0.48-4.5 0.62-0.88-4.8 2.9-3.8 6-4.3-0.19 1.1-0.77 2.2-1.5 3.7z" fill="#b24421" /><path
        d="m134 226c-14-0.054-29-0.41-43-0.7-2.3-0.047-4.7-0.32-7 1.6-1.4-6e-3 -2.5-0.25-4-0.54-0.63-0.19-0.91-0.33-1.4-0.88-2.4-3.5-3.7-6.3-3.5-11 0.2-4.2-1.8-8.6-1.8-13-0.036-9.1 0.28-18-1.2-27-0.24-1.5-0.41-3-0.15-4.4 1-5.7 3.1-11 1.4-18 0.15-0.76 0.25-1.1 0.66-1.7 0.96-1.2 1.8-1.7 2.1-2.9 1.9-6.3 7.3-7.8 13-3.4 8.8 6.3 17 12 26 18 0.58 0.62 0.84 1.1 1.2 1.9-1.7 5.6 1.2 8.6 5.8 11 0.92 4.6 2.4 8.8 4.9 13 5.9 8.6 7.1 19 9.9 28 1.1 3.7-0.85 6.8-3.3 9.8z" fill="#bd431c" /><path d="m98 278c-0.93 0.37-2 0.47-3.5 0.57-3.8-1.2-7.7 1.2-11-1.7 4.8-1.4 9.8-3.4 15 1.1z" fill="#ae401e" /><path d="m81 283c-0.42 0.99-1.3 1.4-2.5 0.17 0.6-0.18 1.4-0.18 2.5-0.17z" fill="#aa431f" /><path
        d="m70 217c0.21-0.69 0.22-1.1 0.22-1.8 0.62-1.7 0.79-3.3 0.31-4.7-2.6-7.4-2.7-15-4-23-1.3-7.8 0.0039-15 0.073-23 0.042-4.6 0.29-9.3 0.69-14 0.7-8 5.1-12 14-13 1.4 0.92 1.7 2.6 0.73 2.9-4.7 1.5-4.5 5.8-6 9.6-0.31 0.34-0.31 0.34-0.31 0.34-0.54 0.93-1.9 1.6-1.4 2.9 2.1 5.3-0.91 10-1.4 15-0.22 2.1-0.26 4.4 0.38 6.6 1.1 3.7-0.14 7.6 0.47 11 1.5 8.7-1.2 18 2.2 26 1.7 4.4-1.5 8-3.9 12-1.7 0.32-3.1 0.31-4.9 0.29-0.15-1.4 0.1-2.8 0.43-4.6 0.073-0.35 0.1-0.38 0.12-0.39 0.84-0.84 1.7-1.6 2.7-2.8z" fill="#a73b1b" /><path d="m75 151c-1-5.1 0.11-9.6 5.5-12 3.3 0.63 6.4 1.5 9.8 2.6 0.076 0.92-0.19 1.7-0.53 2.7-7.3-2.8-11 1.4-15 7.1z" fill="#b3401d" /><path d="m71 225c-0.42-3-0.19-6 1.4-8.7 0.34-0.55 0.74-1.3 0.58-1.9-2.2-7.4-0.16-15-2.8-23-0.5-1.4-1.6-3.1-1.1-4.2 3.1-8.7-1.3-18 2.8-27 0.72-1.5 0.51-3.3-0.02-4.9-0.74-2.3-0.089-3.9 2.5-4.9 1.3 12-0.28 25 0.57 37 0.83 12-0.41 25 4.8 36-1.7 1.7-3.5 1.4-5.8 0.65-1.1-0.29-1.8-0.32-2.9-0.37z" fill="#b3401d" /><path
        d="m84 230c2.4-0.12 4.5-0.24 6.9 0.75-2.7 1.2-5.8 1.4-9.3 1.2 0.49-0.64 1.3-1.2 2.4-1.9z" fill="#a83f1c" /><path d="m74 225c1.5-0.26 3.3-0.3 5.4-0.34 0.44-9.8e-4 0.44 0.48 0.43 0.73-2 1.1-3.9 1.4-5.9-0.39z" fill="#a8411e" /><path d="m79 232c-0.34 0.1-0.88 0.14-1.6 0.12 0.34-0.098 0.88-0.14 1.6-0.12z" fill="#a83f1c" /><path d="m45 229c-1.8-2.4-4-3.4-7-3.9-2.3-4.6-4.6-9.1-2.5-15 4.3-4.8 8.8-1.7 13-0.79 3.9 0.83 7.2 3.4 11 6 0.96 6-3.1 12-9.4 13-1.1 0.058-1.9 0.072-3 0.11-0.8-0.019-1.2-0.058-2-0.12z" fill="#b7411d" /><path d="m60 216c-7.7-3.1-15-6.3-24-6-0.62-0.24-0.84-0.46-1.2-0.85-0.16-1.2-0.16-2.3-0.15-3.7 0.95-2.6 2.9-2.2 5.2-2.2 3.9 0.64 7.6 0.54 11 3.5 1.3 1.8 2.8 2.3 4.9 2.4 0.53 3.2 3.4 4.2 5.3 6.4 9.6e-4 0.3-0.2 0.34-0.7 0.44z" fill="#9f3b19" /><path d="m42 82c-0.32-0.65-0.31-1.4-0.29-2.4 1.1-0.38 2.1-0.42 3.6-0.41-0.16 1.6-1.3 2.5-3.3 2.8z" fill="#b34520" /><path d="m134 66c-0.58 5-4.3 7.3-8.2 5.2-3.1-1.6-3.6-4.4-2.4-7.3 1.2-3 3.8-2.8 6.4-1.8 1.7 0.7 3.2 1.8 4.3 3.8z"
        fill="#7b3215" /><path d="m117 57c0.29-1.9 1.2-4 0.75-6.5 2.5 2.1 1.9 4.3-0.75 6.5z" fill="#9a3d1a" /><path d="m128 53c0.89 0.36 1.7 0.95 2.8 1.8-1.9 1.7-2.7 0.52-2.8-1.8z" fill="#a04f20" /><path d="m128 49c0.12 0.33 0.097 0.78 0.039 1.6-0.61-0.22-0.8-0.8-0.039-1.6z" fill="#a04f20" /><path d="m94 25c-0.53 0.48-1.3 1.1-2.5 1.7 0.53-0.48 1.3-1 2.5-1.7z" fill="#913c1d" /><path d="m41 205c-2.2 0.16-3.9 0.15-6 0.14-0.84-1.1-1-2.3-0.54-3.7 0.53-0.71 1-1.1 1.9-1.6 2.1-0.79 3.6-2.2 5.9-0.64 1.4 2.4 1.1 4.2-1.3 5.8z" fill="#aa4220" /><path d="m37 201c-0.74 0.35-1.2 0.35-2 0.35-0.85-0.55-1.4-1.1-2.1-1.8-0.52-0.61-0.79-1.1-1.2-1.8 0.35-0.28 0.81-0.33 1.6-0.41 1.2 0.27 2 0.56 3.1 0.93 1.3 0.62 1.4 1.4 0.58 2.7z" fill="#9e411f" /><path
        d="m99 339c0.49-0.86 0.72-1.4 1.1-2.1 5.3-1.8 4.2-7.4 7-11 2.5-0.3 4.8-0.28 7.6-0.26 2.1 0.81 1.8 3.1 3.6 4.1 1 1.2 1.4 2.6 2.7 3.6 0.23 0.22 0.23 0.23 0.23 0.23 0.53 0.53 1.1 1.1 1.7 1.8 0.18 0.22 0.22 0.7 0.25 0.94 0.014 2.9-2e-3 5.6-0.023 8.8-1.1 3.5-3.1 5.9-5.7 8.2-0.74 0.52-1.2 0.78-2 1.2-2.3 0.89-2.4 3.1-3.3 4.6-0.9 1.6-2.1 3.1-3.5 4-5.6 3.4-8 1.8-9.2-4.7-0.8-4.4-0.18-8.6 0.6-13 0.33-1.8 0.13-2.8-1.5-4.2-0.32-0.99-0.21-1.6 0.35-2.5z" fill="#ba421c" /><path d="m99 341c3.1 1.1 3 3.4 2.7 5.8-0.42 3.6-1 7.2-0.47 11 0.28 1.8 0.36 3.8 2.6 4.3 2 0.45 3.5-0.7 4.8-2 1.9-1.9 2.7-5.1 6.5-5.1 0.28 1.1 0.29 2.2 0.3 3.7 1.6 2 1.4 3-0.33 4.7-3.3 3.4-6.7 6.5-11 8.9-6.5-0.98-9.8-6.6-8-12 1.1-3.5 1.2-7.2 1.2-11-0.022-2.7 0.45-5.3 2-8z" fill="#b44320" /><path d="m103 370c4.7-3.3 9.3-6 12-11 2.2-1.3 4.2-2.3 6.6-3.3 1.2 0.2 2 0.51 3.2 0.93 0.27 1.1 0.22 2.1 0.16 3.5-6.1 6.4-11 14-21 16-1.4 0.18-2.2-0.28-3.3-1.1-2-2.6-0.68-4 1.6-5.5z" fill="#9b3717" /><path
        d="m117 354c0.9-2.8 2.9-5.2 5.4-7.7 0.15 3.5-1.7 6-5.4 7.7z" fill="#b44320" /><path d="m118 331c-2.1-0.8-3-2.3-3.3-4.6 0.38-0.37 0.82-0.38 1.6-0.42 0.94 1.1 1.6 2.3 2.3 3.7 0.16 0.69 0.027 1-0.57 1.3z" fill="#a83f1c" /><path d="m118 331c0.085-0.51 0.31-0.73 0.7-1.1 0.77 0.96 1.4 2.1 2.1 3.5-1.1-0.17-2.1-0.92-2.8-2.4z" fill="#a73b1b" /><path d="m123 336c-0.39-0.28-0.93-0.8-1.6-1.6 0.39 0.28 0.93 0.8 1.6 1.6z" fill="#a73b1b" /><path d="m129 381c0.89 0.91 1.4 1.5 2.2 2.2-1.2 3.4-3.7 6-4.7 9.8-0.84 0.28-1.6 0.22-2.7 0.13-1.5-0.68-2.3-1.5-2.3-3.4 0.13-5.6 2.9-9 7.5-8.8z" fill="#a83f1c" /><path d="m123 389c0.33 1.3 0.36 2.3 0.39 3.7-1.1 0.18-2.2-1e-3 -3.6-0.31-0.35-0.85-0.38-1.6-0.29-3.1 1.2-1.7 2.2-1.8 3.5-0.31z" fill="#a04f2b" /><path d="m104 388c-0.35-1.1-0.33-2.1-0.3-3.6 0.15-0.55 0.3-0.71 0.67-0.63 0.81 1.4 1.4 2.5 2.1 3.9-0.61 0.29-1.4 0.3-2.5 0.3z" fill="#8c3211" /><path
        d="m105 375c4-3.4 7.6-6.4 11-9.6 2.5-2.2 4.9-4.3 8.7-4.9 0.93 0.52 1.5 1.1 2.3 1.9-4.4 6.5-11 11-16 18-1.5 0.32-2.9 0.33-4.7 0.34-3.6-0.82-4-2.6-1.9-5.5z" fill="#ab411e" /><path d="m105 375c0.67 1.7 0.97 3.5 1.4 5.5-0.2 1.2-0.49 2-0.87 3.2-0.091 0.32-0.54 0.32-0.76 0.32-2-1.4-3.6-2.2-5.2 0.63-1.8 0.17-3.2-0.33-4-2.3-0.12-0.31-0.096-0.8-0.086-1 0.86-3.3-2.4-5-2.5-8.1 0.089-1.4 0.87-2.2 1.1-3.5 2-3.3 3.4-2.8 4.6 0.16 0.72 1.8 1.3 3.7 3.4 4.9 1.1 0.21 1.9 0.23 3 0.26z" fill="#8c3715" /><path d="m119 389c-2-0.66-4.1-1.3-6.4-2.1-0.54-0.18-0.74-0.3-0.72-0.67 0.23-1 0.24-1.8 0.25-2.9 0.46-1.4 1.4-1.3 2.7-1.4 2.9 1.4 6.2 2.2 4.5 6.6-0.32 0.33-0.36 0.37-0.38 0.39z" fill="#a8411e" /><path d="m115 383c-0.99 0.31-1.7 0.34-2.8 0.39-0.64-0.47-0.94-0.96-1.4-1.7 0.93-0.27 2-0.28 3.4-0.3 0.88 0.32 1.1 0.77 0.67 1.6z" fill="#903b15" /><path d="m112 386c0.24-0.15 0.31 0.28 0.35 0.49-0.51 0.49-1.1 0.78-1.9 1.2 0.25-0.43 0.77-0.97 1.5-1.7z" fill="#8c3211" /><path
        d="m94 373c0.57 2.9 3.6 4.8 1.5 8-1.4-1.3-2.6-2.9-4-4.7-1.1-1.4-0.79-2.5 0.29-3.9 1-0.32 1.6-0.18 2.3 0.64z" fill="#9e411f" /><path d="m92 373c-0.13 1.2-0.42 1.9-0.85 2.9-0.58 0.29-1 0.33-1.8 0.39-1.1-0.27-1.9-0.56-3.1-0.91-1.7-1.1-2-2.3-0.51-4 2.5-0.61 4.3 0.14 6.2 1.7z" fill="#8c3715" /><path d="m115 383c-0.14-0.73-0.13-1.2-0.13-1.9 5.2-4.9 10-9.5 16-14 1.2 1.4 2 2.9 3.2 4.7-0.73 1.7-1.7 3.1-2.8 4.9-0.65 0.84-1.2 1.4-1.9 2.1-0.23 0.63-0.25 1.1-0.3 1.8-2.7 2.2-4.9 4.4-5.9 8-1.1 0.34-2.2 0.33-3.6 0.32-1.7-1.8-3-3.6-4.4-5.7z" fill="#b24421" /><path d="m92 373c-1.8-0.3-3.3-0.59-5.2-0.99-1.4-1.2-3.4-1.1-4-3.1-0.17-1.9-0.16-3.5-0.14-5.5-0.17-0.64-0.34-0.87-0.43-1.5 3-6.4 2.4-13 1.7-20-0.27-0.92-0.18-1.4 0.38-2.2 2.7-3.7 6.6-3.4 10-4 2-0.38 2.2 1.5 2.4 3.3 0.87 2.1 0.66 3.6-1.5 4.7-3.8-0.5-4.8 1.4-4.6 4.4 0.21 3.8-0.41 7.6-0.29 11 0.09 3-0.4 6.4 3.1 8.5 0.55 0.25 0.74 0.4 1.2 0.8-0.071 1.2-0.4 2.2-0.9 3.5-0.57 0.33-0.97 0.3-1.7 0.27z" fill="#753515" /><path
        d="m83 369c1.9-0.043 3.3 0.53 3.9 2.7-0.17 1.1-0.45 1.8-0.79 2.9-3.2 4.5-6.3 8.7-9.7 13-2.6 0.91-4.3-0.84-6.7-1.5-0.41-0.36-0.53-0.55-0.67-1.1 3.3-6.7 9.8-10 14-16z" fill="#a34420" /><path d="m74 392c-2.8 1.4-5.5 1.4-8.7 1.4-0.71-0.82-1-1.6-1.4-2.8 0.6-2.6 2-4.2 4.5-5.2 0.31-0.13 0.4-0.035 0.45 0.014 1.3 2.6 5.4 2.7 5.2 6.6z" fill="#a34420" /><path d="m72 373c-0.035-0.98 0.25-2.1 0.61-3.5 1.6-1.5 3.1-2.8 4.9-4.1-0.26 3.3-1.8 6-5.5 7.7z" fill="#9f3b19" /><path d="m83 362c-0.17 0.4-0.18 0.81-0.2 1-0.76 0.18-1.5 0.15-2.6 0.12 0.12-0.59 0.6-1.2 1.3-1.9 0.87-0.38 1.3-0.2 1.5 0.78z" fill="#983f1a" /><path d="m74 392c-2.7-1.4-8.7 0.092-5.3-6.5 0.44-0.43 0.75-0.54 1-0.71 5.6-3.5 5.6-3.5 6 3-0.17 1.4-0.42 2.5-0.83 3.8-0.15 0.29-0.62 0.33-0.85 0.35z" fill="#b25027" /><g fill="#a83f1c"><path d="m129 379c0.27-0.4 0.77-0.96 1.5-1.7-0.27 0.4-0.77 0.96-1.5 1.7z"/>
        <path d="m114 232c2.2-0.33 4.7-0.51 7.5 0.53-2.2 1.1-4.8 1.6-7.5-0.53z" />
        <path d="m94 231c1.2-0.014 2.7 0.19 4.5 0.53-1.3 0.87-2.9 1.1-4.5-0.53z" /></g><path d="m81 64c-0.15-0.96-0.12-1.7-0.051-2.8 2.3-0.76 4.3-2.3 6.8-1.7 2 0.48 4 1.2 4.2 3.6 0.27 2.5-1.6 3.5-3.6 4.1-1.6 0.42-3.3 0.46-5.3 0.68-0.45-0.15-0.47-0.32-0.53-0.74-0.74-1-0.75-2.1-1.5-3.2z" fill="#7b3215" /><path d="m43 70c-0.32-0.49-0.32-0.86-0.32-1.5 0.16-0.33 0.31-0.39 0.46-0.44 1.4-0.38 2.8-1.1 4.1 0.061 0.54 0.47 0.63 1.2 0.13 1.7-1.2 1.3-2.7 0.64-4.4 0.15z" fill="#742a0e" /><path d="m113 70c0.12 0.12-0.23 0.13-0.41 0.14-0.18 0.012-0.2-0.38-0.21-0.57 0.16-0.021 0.32 0.14 0.61 0.43z" fill="#ba4b22" /><path d="m81 64c0.47 0.54 1 1.4 1.6 2.5-0.47-0.54-0.99-1.4-1.6-2.5z" fill="#963819" /><path d="m37 201c-0.35-0.66-0.35-1.4-0.34-2.5 2.9-2.5 6-3.9 9.7-5.2 0.85 0.45 1.4 1 2.1 1.8 0.21 0.88 0.19 1.6 0.15 2.6-7.6e-4 0.95-9e-3 1.6-0.19 2.6-1.1 1.9-2.6 2-4.5 1.8-0.86-0.48-1.3-0.88-2-1.6-1.7-0.028-3.2 0.24-5 0.6z" fill="#9f3b19" /><path
        d="m70 217c-0.12 1.1-0.82 2.1-2.3 2.8 0.17-1.1 0.91-2 2.3-2.8z" fill="#963819" /><path d="m42 200c0.53-0.36 0.97-0.38 1.7-0.39 0.97-0.89 2.1-0.88 3.1-1.7 0.66-0.23 1.1-0.25 1.9-0.28 3.7 2.1 3 5.4 2.4 8.8-3.3 0.25-6.5-0.046-9.8-1.6-0.058-1.6 0.22-3 0.59-4.8z" fill="#b84520" /><path d="m98 312c-1.7-0.76-3.2-1.8-4.7-2.8-1.5-1-2.6-2.2-0.96-4.2 0.86-0.25 1.7-0.2 2.1-0.67 2.7-3 2.7-15-0.23-18-1.7-3.7 0.049-5.1 3.3-5.2 3.1-0.1 6.2-0.14 5.7 4.4-0.096 0.97-0.088 2-0.092 3.3 6e-3 0.82-0.024 1.2-0.083 1.9-1.1 4.7-1.2 9.2-1.8 14-0.24 1.4-0.26 2.4-0.3 3.8-0.9 1.4-1.8 2.3-2.9 3.5z" fill="#6a2d13" /><path d="m101 305c-0.62-4.3-0.78-8.9 1.5-14 0.59 4.3 0.49 8.8-1.5 14z" fill="#893b1c" /><path d="m77 327c2.1-2 2.4-4.6 3.3-6.9 3-8.1 7.1-9.3 14-4.2 1.3 1 2.8 1.7 4.6 2.7 0.34 0.87 0.35 1.6 0.35 2.7-0.64 2.2-1 4-1.2 5.9-0.22 2.4-1.4 4.5-4.5 5.2-0.75 0.27-1.2 0.28-2 0.29-2.6 1.1-4.9 2.6-8 1.2-3.4-1.4-5.5-3.3-6.3-6.9z" fill="#b5411b" /><path
        d="m93 333c3.2-2.6 1.5-7.9 5.4-11 1.5 2.6 0.81 5.3 0.28 8.4-1.8 1-3.6 1.7-5.7 2.3z" fill="#ab411e" /><path d="m94 286c1.1-1.1 1.5-2.8 3.3-2 1.5 0.61 1.7 1.9 1.7 3.3 0.014 5.1 0.15 10-0.038 15-0.15 4.1-1.6 4.7-6 2.3-0.2-2.9-0.18-5.4-0.24-8.3-0.05-0.95-0.0075-1.6-0.011-2.4 0.4-2.7 0.85-5.2 1.3-8.1z" /><path d="m81 347c-0.27 5.6 0.37 12-5.4 16 0.95-5 4-9.6 3.6-16 0.52-0.33 0.97-0.34 1.8-0.34z" fill="#b6421b" /><path d="m94 343c1.3-0.92 2.1-1.8 3.1-2.9 0.66-0.5 1.1-0.74 1.9-1.1 0.26 0.32 0.27 0.76 0.29 1.5-0.48 7.2-0.4 14-2 21-0.93 3.9 1.3 7 5.6 8.4 0.024 1.5-0.31 2.8-0.7 4.6-2.1 2.1-3.6 1.9-4.6-0.69-0.53-1.4-0.23-3.1-1.9-4.1-0.4-0.062-0.58-0.021-1 0.13-4.5-3.3-2.2-8.2-3.3-13-0.16-1.8-0.15-3.1 1.3-4.2 4.1-2.7 2.5-5 0.12-7.7 0.035-1 0.34-1.5 1.3-1.9z" fill="#a24624" /><path d="m83 334c2.2-0.53 4.6-0.85 7.4-1.2-1.7 2.5-4.1 3.5-7.4 1.2z" fill="#ab411e" /><path d="m85 340c0.4 0.44 0.44 0.88 0.49 1.6-0.35 0.82-0.83 1-1.8 0.69-0.58-0.77-0.82-1.3-1.1-2.1 0.63-0.26 1.4-0.24 2.4-0.22z"
        fill="#a34420" /><path d="m83 342c0.47-0.42 0.94-0.45 1.8-0.5 0.92 0.78 2 1.6 2 2.4-0.38 5.9 1 12-3.3 18-0.55-0.081-0.78-0.39-1.2-0.91 0.76-4.9 0.94-9.6 0.81-15-0.024-1.5-0.045-2.5-0.079-4z" fill="#a04f2b" /><path d="m94 356c0.08 4.7 0.18 9.1 0.26 14-4.7 0.61-6.7-1.6-6.4-6.2 0.46-6.4 0.68-13 1.2-19 0.33-3.9 2.4-3.7 5.1-1.2 0.14 0.79 0.13 1.2 0.17 2 0.18 0.49 0.31 0.66 0.62 1.1 0.33 0.67 0.43 1.1 0.36 1.8-0.26 1.6-0.077 2.9-0.89 4.4-0.44 1.3-0.29 2.3-0.43 3.6z" /><path d="m47 198c-0.51 0.51-1.3 1.1-2.4 1.8 0.51-0.51 1.3-1.1 2.4-1.8z" fill="#aa4220" /><path d="m93 353c-0.2-1.9-0.21-3.6-0.18-5.7 0.12-0.62 0.2-0.82 0.5-1.3 0.27-0.4 0.32-0.56 0.47-0.97 3.7 1.9 3.2 4.6 0.79 7.7-0.6 0.58-0.97 0.67-1.6 0.23z" fill="#a04f2b" /><path d="m93 353c0.42-0.28 0.75-0.23 1.3-0.11 0.052 0.82-0.14 1.6-0.46 2.6-1.1-0.31-0.98-1.2-0.87-2.5z" fill="#753515" /><path d="m94 346c0.15 0.18 0.029 0.44-0.32 0.81-0.25-0.19-0.16-0.48 0.32-0.81z" fill="#753515" /></g></g></svg>
