<?xml version="1.0" encoding="UTF-8"?>
<svg height="100mm" version="1.1" viewBox="0 0 100 100" width="100mm" xmlns="http://www.w3.org/2000/svg" xml:space="preserve">


    <g transform="matrix(.9 0 0 .9 -377 -86)"><g transform="matrix(.26 0 0 .26 445 95)"><path d="m239 121v299c-79 3e-5 -159 3e-5 -238 6e-5 -2.4e-5 -140-2.4e-5 -279-4.8e-5 -419 79-4.3e-5 159-4.3e-5 238-8.5e-5 1.1e-4 40 1.1e-4 80 1.1e-4 120m-166 238c0.39 0.89 0.78 1.8 1.4 3.4 0.12 1.8 0.23 3.5-0.13 5.6 0.15 1.3 0.31 2.6 0.61 4.5 0.14 0.41 0.28 0.82 0.042 1.8 0.12 0.41 0.24 0.82-0.33 1.2-2.9 5-5.8 10-9.3 15-3.5 3.2-7 6.5-11 10-0.25 0.21-0.48 0.45-1.1 0.99-0.48 0.55-0.96 1.1-2 1.8-0.49 0.29-0.99 0.58-2.1 0.88-0.44 0.013-0.88 0.025-2.2 0.025-3.8 0.26-7.9-0.25-10 4.8-0.53 4 1.5 6 5.3 6 5.3 0.022 11-0.2 16-0.44 9.9-0.45 20-1.1 30-1.4 11-0.33 13 2.3 15-11 0.18-1.1 0.47-2.3 0.82-3.4 1.4-4.5 0.34-8.2-3.5-12-1.1-0.75-2.2-1.5-3.3-3.1 0.18-2 0.12-4 0.58-5.9 3.1-13 3.5-26 2.9-39 0.95-0.72 1.9-1.4 3.7-2.1 7.2 1.6 5.8-4.7 7.4-9.3 1.4 2 2.3 3.3 3.1 5.3 0.21 1.5 0.43 3 0.74 5.2 2.1-0.9 3.5-1.5 5.8-2.1 2.8-0.29 5.5-0.57 8-0.16-0.15 3.4-0.31 6.8-0.33 11-0.014 1.1-0.029 2.1-0.76 3.6-1.6 8.7 2.3 16 5.9 24-1e-3 0.36-3e-3 0.72-0.31 2-0.66 4.1-1.3 8.2-2.4 13-0.32 3.8-0.86 7.5-0.89 11-0.018 2.4 0.73 4.8 1.1 7.9 0.011 0.76 0.022 1.5 0.3 2.6 0.19 0.22 0.41 0.41 1.6 0.6 7.4 0.24 15 0.53 22 0.69 4.4 0.095 8.9-0.033 13-0.047 8.1-0.026 16 0.078 24-0.21 1-0.037 2.9-2.2 2.8-3.1-0.17-1.5-1.5-3.5-2.8-4-2.4-0.93-5.2-0.96-7.8-1.3-7.9-0.92-15-2.6-21-9.4-0.2-0.25-0.44-0.46-0.72-0.63 0 0 4e-3 -0.014-0.28-0.61-0.93-1.5-1.9-2.9-2.5-5.1 0.11-1.6 0.7-3.4 0.23-4.8-1.6-4.9-3.6-9.7-5.6-15 0.39-11 0.77-23 1.8-34 0.21-0.11 0.43-0.23 1.2-0.5 6.6-2.4 11-7.5 14-14 0 0 0.22-0.34 0.28-0.4 0 0-0.066-0.062 0.1 0.31 0.33-0.13 0.66-0.26 1.6-0.69 3.8-2.9 7.5-5.8 12-8.2 0.99 0.88 1.9 1.8 3 2.6 7.1 5.3 13 12 22 14 8.1 1.7 15-0.92 18-7.8-15-6.5-28-15-39-27-0.96-1.4-1.9-2.9-2.8-5.1-0.44-5.7-0.79-11-1.4-17-0.28-2.8-1-5.5-0.98-8.7 0.5-2.1 1-4.2 2-6.8 1.1-1.6 1.9-4 3.4-4.8 9.5-4.8 11-14 13-23 0 0 5.3e-4 0.014 0.37-0.23 0.24-0.2 0.39-0.44 0.5-1.4-0.021-0.44-0.041-0.87 0.14-2.1 0.19-9.9-0.024-20-6-29-1.3-2.1-2.6-4.2-4.1-7-1.3-3.1-2.6-6.2-3.9-10 0.76-1.9 1.6-3.7 2.3-5.6 0.73-2.1 1.3-4.3 2-6.7-3.5-0.3-5.9-0.51-8.9-1.1-0.8-1.3-1.6-2.5-1.7-4 5-2.4 7.3-7 9.2-12 2.6-6.7 5.2-13 7.8-20-2.3-2.6-4.9-5.7-7.9-9.1-0.19-0.24-0.42-0.44-0.84-1.4-1.3-5.1-2.6-10-4-16-0.05-0.73-0.1-1.5-0.16-3-1.6-6.4-3.2-13-4.8-20-0.046-0.43-0.093-0.85-0.079-2-0.65-2.1-1.3-4.2-2-7-0.66-2.7-1.3-5.5-1.9-9-3.9-10-7.3-20-12-30-2-4.3-6.7-7.4-10-12-4.2-3.8-8.5-7.6-13-12-0.52 0.51-1.5 1-1.5 1.5 0.51 12 1.1 25 1.8 37 0 0-9e-3 -0.11-0.42 0.081-0.29 0.15-0.45 0.39-0.65 1.5-2 5.4-4.1 11-6 16 0 0 0.052-0.055-0.41 0.14-0.15 0.29-0.29 0.57-0.87 1.4-4.3 2.2-8.5 4.3-14 6.5-1 0.054-2.1 0.11-3.8 0.15-1.1 0.34-2.2 0.68-4.2 0.93-1.7-0.058-3.4-0.12-5.5-0.68-8.7-5.2-12-13-12-23 0.065-9.5-1.5-19-2.3-29-0.15-0.31-0.29-0.61-0.071-1.3-0.13-0.44-0.26-0.87-0.39-2.1-0.33-2.4-0.66-4.8-0.99-7.1-3.1 3.3-4.4 6.8-6.5 9.7-14 21-24 44-33 67-3.5 9.6-6.7 19-14 27-4.4 4.3-8.6 8.8-13 13-1 1.1-2 3.5-1.5 4.6 3 6.2 6.5 12 10 19 0.68 1.4 1.4 2.9 2 4.9 0.28 0.48 0.56 0.95 0.87 2.2 2e-4 0.75 3.9e-4 1.5-0.65 2.6-1.7 0.85-3.4 2.2-5.3 2.4-3.9 0.51-5.3 2.7-5.8 6.6-1.8 3.5-3.6 6.9-5.8 11-0.65 4-3.3 8.3 1.2 12-0.61 0.75-1.2 1.5-2.4 2.6-3.2 4.4-6.7 8.6-9.5 13-5.5 9.5-6.1 19-0.098 29 3 5 6.3 9 12 9.3 2.9 0.15 5.9-0.47 9.1-0.22 0.48 0.81 0.95 1.6 1.4 3.1-9.2e-4 0.44-0.0018 0.88-0.25 1.7-0.11 0.29-0.093 0.56 0.03 1.5 0.15 1.6 0.29 3.2 0.29 4.9 0 0 0.021 0.24-0.26 0.49 0.14 0.32 0.28 0.64 0.51 1.8 0.15 1.3 0.3 2.6 0.26 4.8-0.31 1.9-0.74 3.9-0.9 5.8-0.73 9.2-3.8 18 0.64 28 1.4 5.4 2.8 11 4.1 17-0.039 10 7.8 18 20 20 0.19-0.012 0.38-0.024 0.79 0.62 2.7 1.1 5.4 2.1 8.1 3.3 1.5 0.69 2.9 1.7 4.3 2.9-0.048 0.26-0.1 0.52-0.47 1.5 0.77 2.3 1.5 4.5 2.5 7.4 0.06 0.41 0.12 0.83-0.28 1.6 0.29 0.58 0.59 1.2 0.96 2.4 0.043 0.94 0.086 1.9-0.18 3.6z" opacity="0"/><path
        d="m128 351c0.014-1.1 0.029-2.1 0.21-3.8 0.98-3.8 1.8-6.9 3-10 5.5-0.42 11-0.73 16-1.1 2.9-0.24 5.8-0.63 8.7-0.95-0.39 11-0.77 23-1.3 35 0.01 4.4-1.1 7.3-5.3 8.6-4.3 0.11-5.3 2.3-4.4 5.6 0.38 1.4 1 2.8 1.6 4.1 2.2 4.5 1.5 6-3.4 6.6-2.7 0.33-5.6-0.18-8.6-0.62-0.55-1.5-0.87-2.7-0.99-4.3 0.061-4.6-0.079-8.9-0.22-13 1e-3 -0.36 3e-3 -0.72 0.14-1.6-1.7-8.4-3.5-16-5.3-24z" fill="#b9a680" /><path d="m100 389c3.7 2.9 4.8 6.6 3.4 11-0.35 1.1-0.64 2.2-0.82 3.4-2 13-4.1 10-15 11-9.9 0.3-20 0.99-30 1.4-5.3 0.24-11 0.46-16 0.44-3.8-0.016-5.8-2-4.9-6.5 3.8-1.7 7.2-3.1 11-4.4 0.44-0.013 0.88-0.025 1.9 0.088 1.1-0.31 1.6-0.74 2.2-1.2 0.48-0.55 0.96-1.1 1.9-1.9 0.69-0.49 0.91-0.72 1.1-0.99 3.5-3.2 7-6.5 11-9.9 1.6-0.14 2.5-0.11 3.7 0.14 0.5 0.51 0.79 0.8 1.2 1.3 0.74 0.088 1.4-0.033 2.2-0.3 0.19-0.15 0.63-0.35 1-0.32 2.8 0.043 5.2 0.058 8 0.031 0.79-0.048 1.2-0.055 2 0.16 2 0.11 3.8 0.27 5.5-0.15 3.4-0.87 6.8-2.1 10-3.1z" fill="#0f1110" /><path
        d="m190 294c11 12 24 20 39 27-3.2 6.9-10 9.6-18 7.8-9.3-2-15-9.2-22-14-1.1-0.79-2-1.7-3.2-3.2-3.4-4.4-6.6-8.3-9.9-12-4.7-5.4-9.2-10-14-16-1.8-1.9-3.5-3.4-5.1-5.3-0.23-0.79-0.44-1.3-0.28-1.9 2.9 1.7 5.4 3.5 7.9 5.3 4.2 3.1 8.4 6.3 13 9.4 0.48-0.4 0.97-0.79 1.5-1.2-1.2-3.2-2.3-6.4-3.2-9.4 3.5 3.4 6.7 6.5 9.9 9.7 3e-3 0.06 0.12 0.068 0.23 0.38 1.8 1.6 3.4 2.9 5.1 4.3z" fill="#8d8d7d" /><path
        d="m75 368c-0.12-1.8-0.23-3.5-0.24-5.9 0.18-1.5 0.25-2.3 0.51-3.4-0.15-1.5-0.48-2.7-0.9-4.1-0.52-0.71-0.96-1.2-1.4-1.6-0.06-0.41-0.12-0.83-0.092-1.9 0.11-1.5 0.13-2.3 0.3-3.3-0.16-0.76-0.47-1.3-0.89-2.2-0.17-0.73-0.23-1.2-0.14-1.9 0.063-0.9-0.024-1.5-0.066-2.3 0.045-0.16 0.33-0.35 0.4-0.28 0.068 0.07 0.16 0.015 0.16 0.015s-0.22-0.17-0.23-0.5c0.059-0.54 0.13-0.75 0.66-0.91 7 0.39 14 0.56 20 1.2 1.4 0.15 3.5 2.1 3.7 3.4 1.6 13 1.3 25-3.6 38-0.77 1.9-0.78 4.2-1.2 6.4-0.11 0.096-0.39 0.11-0.83-0.021-2.8 0.019-5.1 0.17-7.8 0.049 0.08-1.7 0.53-3.1 1.3-4.6 0.14-2.8-0.071-5.5-0.13-8.1-0.09-4.2-1.6-5.2-5.5-3.4-1.2 0.55-2.4 1.2-3.5 1.8-0.14-0.41-0.28-0.82-0.22-1.8 0.022-1.8-0.16-3.1-0.33-4.3z" fill="#bfad85" /><path
        d="m164 396c5.5 6.4 13 8.1 21 9 2.6 0.31 5.4 0.34 7.8 1.3 1.3 0.51 2.6 2.5 2.8 4 0.11 0.97-1.8 3.1-2.8 3.1-8 0.29-16 0.18-24 0.21-4.4 0.014-8.9 0.14-13 0.047-7.4-0.16-15-0.45-23-0.87-0.8-0.4-1-0.59-1.3-0.76-0.011-0.76-0.022-1.5 0.22-2.9 0.74-2 1.7-3.4 1.6-4.8-0.24-5.1 2.4-5.7 6.6-5 2.3 0.36 4.9-0.025 7.3-0.51 5.5-1.1 11-2.5 16-3.8 0 0-4e-3 0.014 0.14 0.21 0.35 0.44 0.58 0.65 0.84 0.83z" fill="#0c1110" /><path d="m33 257c-0.15-1.6-0.29-3.2-0.3-5.2 0.26-0.78 0.24-1.1 0.085-1.3 9.2e-4 -0.44 0.0018-0.88 0.33-1.8 0.9-1.7 1.8-2.8 2-4 1.9-11 7.4-20 14-29 2.4 0.47 4.7 0.6 6.5 1.7 4.4 2.8 8.6 6.1 13 9.6-1.3 5.9-2.6 11-4.1 17-0.46 2.8-0.7 5.3-1.2 7.7-1.1 0.11-2.5 0.13-2.6 0.54-0.74 2.4-1.2 5-1.9 7.7-0.46 0.48-0.72 0.75-1.4 0.96-4.5-3-8.9-1.5-13-1.2-3.8 0.3-8 2.4-10-2.6m6.8-13c-1.1 5.7 0.52 8.8 5.6 10 3.2 0.99 9.5-1.9 10-4.8 2-5.8 3.8-12 6-17 1.3-3.4 0.6-5.7-2.4-7.6-1.2-0.79-2.4-1.7-3.5-2.7-3.3-3-6-3.1-7.9 0.91-3.2 6.7-5.5 14-8.4 21z" fill="#955334" /><path
        d="m94 20c0.15 0.31 0.29 0.61 0.094 0.99-3.5-2.3-4.8-0.9-5.4 2.7-1.8 2.7-3.2 5.3-5.1 7.9-1.3 1.1-2.6 2-3.3 3.3-2.7 5.3-5.2 11-7.8 16-3.3 6.6-7.2 13-10 20-3.2 7.6-5.6 15-8.4 23-1.3 3.6-2.7 7.1-4.2 11-1.7 2.8-3.3 5.2-5.1 7.9-3.8 4.1-7.1 8.3-11 12-5.7 5.1-6.1 11-1 17 1.6 1.8 2.2 4.5 3.2 7.1-0.36 0.76-0.66 1.2-0.95 1.7-3.3-6.1-6.8-12-9.8-18-0.52-1.1 0.47-3.4 1.5-4.6 4.1-4.6 8.2-9.1 13-13 7.7-7.5 11-17 14-27 8.6-24 19-46 33-67 2-3 3.4-6.4 6.5-9.7 0.33 2.4 0.66 4.8 1 8 0.011 1.1 0.014 1.4 0.016 1.6z" fill="#2b2933" /><path d="m123 72c4.3-2.2 8.5-4.3 13-6.9 0.6-0.65 0.79-0.9 0.95-1.2 0 0-0.052 0.055 0.28 0.015 7.6-3.4 9.6-10 10-17 0.8-6.5 0.22-13 0.24-20 0.02-8.3 0.12-8.3 8-6.6 3e-3 2.5 5e-3 4.5-0.072 6.9-0.74 5.5-1.3 11-2.1 16-0.25 1.8-0.57 3.6-1.3 5.3-1.9 4.5-3.9 9-6.2 13-0.74 1.4-2.6 2.2-4 3.2-3.8 2.7-7.6 5.3-12 8-0.77-5.6e-4 -1.2-0.0011-2-0.21-2.1-0.41-4-0.61-5.8-0.81z" fill="#2b3b4e" /><path
        d="m89 23c0.32-3.4 1.6-4.8 5.1-2.2 1.2 9.7 2.7 19 2.7 29-0.069 10 3.1 18 12 23-0.17 1-0.43 1.6-1.1 2.1-1.1-0.0017-1.9-0.0022-2.9-0.2-1.1-0.4-1.9-0.61-2.8-1.2-0.85-1.4-1.4-2.8-2.4-3.5-4.2-2.9-7.7-5.9-6.2-12 0.51-2.1 0.2-4.4-0.0021-6.6-0.6-6.5-1.4-13-2-19-0.071-0.75 0.47-1.6 0.92-2.6 1.6-3.8-0.95-5.2-3.2-6.7z" fill="#293542" /><path d="m186 165c2.4 0.2 4.8 0.41 8.3 0.71-0.71 2.4-1.3 4.6-2 6.7-0.66 1.9-1.5 3.7-2.4 6.2-0.43 0.83-0.68 1.1-1.3 1.4-1.4 3-2.5 5.9-4 8.8-1.8 0.011-3.1 0.013-4.4-0.31-0.1-1.6-0.34-2.9-0.58-4.2-1.4 0.5-2.8 1-4.3 1.5-0.25-0.75-0.64-1.9-1.1-3.2-5.5 4.2-7.4 3.5-8.2-3.1 0.014-1.4 0.026-2.5 0.41-3.5 1.1-9e-3 1.8-1e-3 2.6 0.36 0.16 3.1 1.6 3.9 3.9 2.5 1.6-1 2.8-2.6 4.4-4 9.6-1.6 10-2.3 8.6-9.7z" fill="#542819" /><path d="m156 20c-7.9-1.3-8-1.2-8 7-0.016 6.6 0.56 13-0.24 20-0.85 6.9-2.9 14-11 17 1.7-5.4 3.7-11 6-17 0.4-0.79 0.58-1 0.81-1.2 0 0 9e-3 0.11 0.18-0.24 0.4-3 0.87-5.6 0.81-8.2-0.21-9.9-0.58-20-0.9-30 4.2 3.8 8.5 7.6 13 12-0.36 0.35-0.53 0.35-0.7 0.36z"
        fill="#3b4646" /><path d="m33 298c-4.3-9.1-1.3-18-0.56-27 0.15-2 0.59-3.9 1.3-6.3 2.1-0.38 3.7-0.31 5.2 0.037-8.1 8.7-3.7 19-4.1 28 2.5-0.45 5-0.92 5.6-2.3 4.4-9.5 14-13 22-18 0.025 1.2 0.05 2-0.2 3-5.3 4.7-10 9.1-16 14-2.9 3.1-5.4 6.1-8.4 9-1.9-0.023-3.4-0.03-4.9-0.037z" fill="#2c2333" /><path d="m169 176c-0.73-8e-3 -1.5-0.015-3-0.045-5.2-1.1-9.6-2.1-14-3.3-2.5-1.7-4.7-3.2-7.1-5.1-0.33-1.4-0.49-2.6-0.34-3.6 2-0.063 3.7-0.25 5.5-0.058 1.3 1.4 2.3 2.9 3.7 3.2 7.5 1.9 15 3.9 23 5.2 2.6 0.42 5.5-1.3 8.3-2-0.82-2.4-1.6-4.7-2.5-7.1-0.28-0.77-0.66-1.5-0.71-2.3 0.68-0.02 1.1-0.016 1.5-0.014 0.089-2e-3 0.23-0.11 0.23-0.11 0.8 1.3 1.6 2.5 2.7 4 1.8 7.6 1.2 8.3-8.8 9.9-3.1 0.49-5.5 0.84-7.9 1.2z" fill="#88442a" /><path d="m156 20c0.17-0.44 0.34-0.45 0.76-0.45 3.7 3.6 8.3 6.7 10 11 4.6 9.8 8 20 12 31-1.8-0.28-3.2-0.92-4.7-1.9-0.7-2.4-1.3-4.5-2.1-7-1.6-4.8-3.1-9.3-4.6-14-1.9-5.6-5.4-9.8-11-12-2e-3 -2-4e-3 -4.1-7e-3 -6.5z" fill="#2c3844" /><path
        d="m92 388c0.36-2.1 0.37-4.4 1.1-6.3 4.9-12 5.2-25 3.6-38-0.17-1.3-2.3-3.3-3.7-3.4-6.5-0.69-13-0.85-20-1.6 2.1-1.1 4.5-1.8 7.2-2.5 1.4 0.09 2.4 0.11 3.6 0.3 1.2 0.058 2.1-0.052 3.4-0.11 0.63 0.033 1 0.01 1.7 0.18 3.6 1.1 6.8 2 10 2.8 1.2 13 0.84 26-2.2 39-0.46 1.9-0.4 3.9-0.83 6.5-1.5 1.3-2.7 2-4 2.7z" fill="#9d9171" /><path d="m31 246c-2.9 0.27-5.9 0.89-8.8 0.74-6.1-0.31-9.4-4.3-12-9.3-6-9.8-5.4-19 0.098-29 2.7-4.7 6.3-8.9 9.8-13 0.32-0.14 0.4-0.044 0.4 0.37-0.0016 1.8 9.6e-4 3.2-0.0014 4.6-5e-3 2e-3 -9e-3 0.012-0.29 0.11-0.75 0.7-1.2 1.3-1.8 2.2-0.38 0.74-0.64 1.2-1.2 1.9-2.1 2.7-3.9 5.3-5.7 8.2-0.0089 1.5-0.015 2.5-0.32 3.8-4.2 8.3-0.74 23 6.4 27 0.51 0.34 1.3 0.29 2.2 0.52 3.1 0.033 5.9-0.025 9-0.14 1.4-0.36 2.5-0.67 3.6-0.65-0.34 1.1-0.63 1.9-0.92 2.7z" fill="#2d272e" /><path
        d="m163 395c-5.3 1.6-11 3-16 4.1-2.4 0.49-4.9 0.87-7.3 0.51-4.2-0.65-6.9-0.098-6.6 5 0.065 1.4-0.88 2.8-1.6 4.4-0.65-2.1-1.4-4.5-1.4-6.9 0.028-3.8 0.57-7.5 1.4-12 1.1-0.22 1.6-0.14 2.2-0.056 0.32 1.2 0.64 2.4 1.3 4.3 2.2 1.2 4.2 2.6 5.8 2.3 4-0.89 7.8-2.6 12-4.1 1.5-0.83 2.7-1.5 4.3-2.1 1.3-0.12 2.2-0.32 3.2-0.52 0.93 1.5 1.9 2.9 2.9 4.7z" fill="#18160f" /><path d="m114 333c-0.87-1.3-1.7-2.5-3.2-4.6-1.7 4.6-0.27 11-8.1 9.1-1.4-0.63-2.2-1.1-2.7-1.8 4.1-3.4 8.7-6 8.9-12 0.051-0.72-0.041-1.3-0.14-2.3 0.015-2.8 0.031-5.2 0.35-7.7 1.8-0.73 3.2-1.3 4.7-1.4 0.25 7-1.8 14 3 20-1.2 0.37-2 0.61-2.9 0.86z" fill="#233232" /><path d="m84 384c-0.45 1.4-0.9 2.8-0.95 4.5 0.4 0.33 0.53 0.27 0.19-0.064-0.63-0.18-0.91-0.016-1.4 0.41-0.26 1.2-0.28 2.2-0.3 3.1-2.4-0.015-4.9-0.03-7.6-0.42 0.32-2.5 0.92-4.6 1.5-6.8-0.78-0.32-1.6-0.63-2.3-0.95-1.3 2.4-2.6 4.8-3.9 7.2-0.94-0.033-1.9-0.066-3.2-0.086 2.5-5 5.4-10 8.6-15 0.37 1.2 0.45 2 0.66 3.2 1.5 0.68 2.9 1 4.6 1.5 1.6 1.1 2.8 2.1 4.1 3.2z"
        fill="#322b18" /><path d="m58 336c-0.19 0.012-0.38 0.024-1-0.3-1.7-1.8-2.9-3.2-4.1-5.1-0.0088-3.3 0.15-6.1-0.051-8.9-0.57-7.9-1.3-16-2-24-0.016-1.1-0.027-1.9 0.0072-3 0.99-1.1 1.9-1.9 2.9-2.2 0.67 6.1 2.2 12 1.8 18-0.71 8.8-0.23 17 3.7 25-0.59 0.41-0.92 0.65-1.2 0.89z" fill="#142837" /><path d="m193 120c2.7 3.1 5.3 6.1 7.6 8.7-2.6 6.9-5.2 14-7.8 20-1.9 4.8-4.1 9.4-9.5 12-0.33 0.079-0.48 0.19-0.5-0.19 0.01-1.2 0.049-1.9 0.39-2.8 0.8-0.71 1.3-1.3 2-2.2 0.41-1.4 0.62-2.6 1.1-3.8 1.6-2 2.9-3.9 4.1-5.9 4.3-7.1 8.3-14 3-23-0.55-0.89-0.32-2.3-0.45-3.4z" fill="#292633" /><path d="m175 299c3.2 3.8 6.4 7.7 9.6 12-3.8 3.3-7.5 6.2-12 9.2-0.79 0.16-0.98 0.16-1.2 0.17 0 0 0.066 0.062 0.043-0.29-0.031-0.86-0.04-1.4 0.12-2.2 0.65-3.7 1.1-7.1 1.7-11-0.31-2.4-0.66-4.4-0.72-6.6 0.97-0.56 1.7-0.87 2.3-1.2z" fill="#35282a" /><path
        d="m172 318c8e-3 0.51 0.016 1 0.017 1.9-7e-3 0.38-0.23 0.72-0.65 0.5-1.4-0.92-2.4-1.6-3.3-2.7-0.35-8.5-2.7-16-8.9-21-4.1-3.7-7.4-8.2-11-12 1.8 0.35 3.2 0.7 4.7 1.3 6 7.2 12 14 18 21 0.42 4 0.8 7.6 1.2 11z" fill="#493e37" /><path d="m22 192c-4.7-3.4-2.1-7.7-1.2-12 0.59 0.91 0.89 1.8 1.2 3 0.17 2.2 0.32 4 0.4 4.8 3-0.54 5.3-0.94 7.9-1.3 0.44 0.029 0.62 0.036 1.1 0.18 1.4 0.071 2.6 4.6e-4 4.1 0.075 2.1 0.38 3.9 0.62 5.8 1.2 1.7 0.73 3.2 1.1 5.1 1.6 1.5 0.38 2.7 0.72 3.8 1.4 0.33 1.1 0.61 1.9 0.61 2.9-2.8 0.072-5.3-0.074-7.9-0.43-1.1-0.74-1.9-1.3-3-1.9-0.74-0.058-1.3 0.028-2.2 0.11-0.73-0.019-1.2-0.033-1.8-0.38-5-3.2-9.4-0.91-14 0.46z" fill="#442724" /><path d="m31 246c0.16-1.1 0.45-1.9 0.82-3.3 1.4-5.1 2.7-9.5 4-14-3.6e-4 -2e-3 0.0029-2e-3 0.31-0.16 1.3-1.6 2.1-3.2 3.2-4.5 2.4-2.9 5-5.6 7.8-8.4 0.54 0.083 0.76 0.12 0.98 0.16-5.9 9-11 18-13 29-0.22 1.2-1.1 2.3-2 3.7-0.8-0.62-1.3-1.4-1.9-2.5z" fill="#4b2625" /><path
        d="m193 120c0.25 1.3 0.018 2.7 0.57 3.6 5.2 8.4 1.3 16-3 23-1.2 2-2.5 3.8-4.1 5.9-0.32 0.13-0.33 0.11-0.33-0.3 0.63-3 0.67-5.9 2-8 5-8 5.5-16 2.4-25 0.8-4e-3 1.3-7e-3 1.7-0.01 0.27 0.15 0.5 0.35 0.81 0.79z" fill="#262e45" /><path d="m156 335c-3.3 0.44-6.2 0.83-9.1 1.1-5.1 0.41-10 0.73-16 0.84-1.2-0.76-1.8-1.3-2.7-1.9-1.1-0.41-1.9-0.75-2.8-1.3 2.9e-4 -0.21 3e-5 -0.64 0.4-0.73 4.1-0.35 7.9-0.62 12-0.69 5.7 0.059 11-0.087 17 0.12 0.88 0.94 1.5 1.5 2.2 2.1-0.21 0.11-0.43 0.23-0.98 0.46z" fill="#47524b" /><path d="m184 263c0.52 2.7 1.2 5.4 1.5 8.2 0.58 5.7 0.92 11 0.98 18-0.85 0.52-1.3 0.61-1.8 0.71 0 0-0.12-9e-3 -0.072-0.42-0.2-2.9-0.45-5.5-0.69-8.4-0.087-1.9 0.25-3.6-0.37-4.8-2.2-4.4-1.6-11-8.4-12 1.5-1.3 2.7-2.4 4.3-3.6 0.66-0.14 1-0.21 1.6-0.051 1.1 1.1 2 2 2.9 2.9z" fill="#23212f" /><path
        d="m38 160c-1.9e-4 -0.75-3.8e-4 -1.5 0.17-2.8 0.42-0.72 0.63-0.95 1.2-1.2 3.8-1.3 7.2-2.7 11-4 5.2-0.014 9.8-0.02 15 0.23 3.1 0.77 5.9 1.3 8.9 2.1 0.39 1.8 0.63 3.2 0.55 4.6-0.53 0.072-0.75 0.1-1.3 0.022-7.6-5.5-15-6.4-24-3.1-3.2 1.3-6.2 2.9-9.7 4.4-0.9-0.15-1.4-0.23-1.9-0.31z" fill="#452c32" /><path d="m53 331c1.2 1.4 2.5 2.9 3.8 4.6-12-1.8-20-9.7-19-20 0.72-0.78 1.2-1 1.7-0.89 0.65 1.7 1.5 3 1.7 4.4 1 7.2 6 10 12 12z" fill="#212536" /><path d="m160 390c-1.1 0.55-2 0.76-3.1 0.58 2.1-5.1 0.3-7.1-5.9-7.2-0.49-1.8-0.88-3.2-1.3-4.6 3.8-1.2 4.9-4.1 5-8.1 2 4.5 4 9.3 5.7 14 0.47 1.4-0.12 3.2-0.37 5.1z" fill="#433623" /><path d="m39 264c-1.6-0.067-3.3-0.13-5.3-0.19-0.47-1.3-0.61-2.6-0.83-4.7-0.1-0.9-0.13-1.1-0.17-1.3 0 0-0.021-0.24 0.052-0.33 2.6 4.9 6.8 2.8 11 2.5 4.4-0.34 8.8-1.8 13 1.5 0.36 0.75 0.34 1.1-0.092 1.6-6.1 0.33-12 0.64-18 0.95z" fill="#59342c" /><path
        d="m203 228c-2.4 8.7-3.6 18-13 23-1.5 0.79-2.3 3.2-3.7 4.7-0.62-2.6-0.97-5.1-0.97-7.5 4.4 1.5 6.5-0.4 7.7-4.1 1e-3 -4e-3 9e-3 -6e-3 0.34-0.092 2.1-3.7 3.9-7.3 5.7-11 4e-3 -0.25 0.011-0.74 0.28-0.93 1.4-1.4 2.6-2.6 3.7-3.8z" fill="#30242a" /><path d="m108 75c0.26-0.52 0.52-1 0.91-1.8 1.8-0.2 3.5-0.15 5.8 0.2 1.8-0.21 3.1-0.71 4.3-1.2 1-0.054 2.1-0.11 3.5-0.18 2.2 0.19 4 0.39 5.9 0.94-4.9 2.6-9.3 6.8-16 4.1-1.8-0.67-3.2-1.3-4.6-2z" fill="#243450" /><path d="m174 60c1.4 0.65 2.8 1.3 4.6 2 1 2.8 1.7 5.5 2.1 9 0.58 2.8 1.3 5 2.1 7.1 0.046 0.43 0.093 0.85-0.031 1.9-0.036 3.1 0.098 5.6-0.09 7.9-1.8-3.7-3.2-7.3-4.7-11-6e-3 -5.5 0.92-11-4-14-0.34-0.25 3e-3 -1.4 0.029-2.2z" fill="#293143" /><path d="m85 384c-1.5-0.85-2.7-1.9-4.5-3.3-1.9-0.77-3.2-1.1-4.6-1.5-0.079-0.8-0.16-1.6-0.18-2.8-0.063-0.81-0.18-1.2-0.12-1.9 1.4-0.86 2.5-1.5 3.7-2 3.9-1.8 5.4-0.84 5.5 3.4 0.056 2.7 0.26 5.3 0.13 8.1z" fill="#ab9a78" /><path
        d="m158 334c-0.92-0.5-1.6-1.1-2.4-2-0.2-0.37-0.17-0.44 0.19-0.43 1.5-0.62 2.6-1.2 3.9-1.9 5.9-2 6.3-7.7 8.7-12 0.97 0.69 1.9 1.4 3.2 2.4-2.7 6.4-6.6 12-14 14z" fill="#292c2b" /><path d="m58 336c0.22-0.57 0.55-0.81 1.4-1.2 5.2 3.1 10 1.8 15 1 1.7-0.27 3.5 0.46 5.3 0.74-2.4 0.73-4.7 1.5-7.3 2.5-0.24 0.53-0.31 0.74-0.36 1.3 0.026 0.36-0.0086 0.39-0.0086 0.39s-0.28 0.19-0.48 0.47c-0.51 0.49-0.82 0.7-1.1 0.9-1.5-0.84-2.8-1.8-4.4-2.5-2.6-1.2-5.4-2.2-8.2-3.7z" fill="#443c32" /><path d="m198 196c5.8 8.7 6.1 19 5.5 29-0.32 0.36-0.75 0.34-0.77-0.073-0.97-4.2-1.9-7.9-3-12-0.36-0.71-0.61-1.2-0.56-1.8 0.34-2 0.64-3.9 0.39-5.7-0.43-3.1-1.2-6.1-1.8-9.2 0.052-0.048 0.15-0.15 0.15-0.15z" fill="#30242a" /><path d="m185 248c0.35 2.5 0.7 4.9 1.1 7.8-0.49 2.5-1 4.6-1.8 7-1.2-0.64-2-1.5-3.2-3-0.48-1.3-0.74-2.1-0.99-3.1 0.053-0.74 0.093-1.2 0.41-1.8 1-2.4 1.7-4.7 2.8-6.9 0.77 6e-3 1.2 6e-3 1.7 9e-3 -1.4e-4 3e-3 -8e-3 0.018-8e-3 0.018z" fill="#342027" /><path
        d="m144 7.6c0.53 10 0.91 20 1.1 30 0.055 2.6-0.41 5.2-0.87 8.2-0.82-12-1.4-24-1.9-37-0.02-0.49 0.96-1 1.7-1.2z" fill="#747c6e" /><path d="m128 351c2.2 7.6 4 15 5.6 24-3.6-7.2-7.5-15-5.6-24z" fill="#4b3d32" /><path d="m39 314c-0.46 0.24-0.92 0.48-1.6 0.83-1.6-5.3-3-11-4.4-16 1.5-0.38 3-0.38 4.8 0.08 0.33 2.8 0.26 5.1 0.065 7.7 0.29 0.74 0.71 1.3 1.1 2.2-0.0038 2.1-0.014 3.9-0.024 5.6z" fill="#2a1e27" /><path d="m22 183c-0.3-0.85-0.61-1.7-0.94-2.9 1.8-3.8 3.5-7.3 5.9-11 1.8 0.54 2.9 1.2 4.2 1.9 0.43 0.37 0.69 0.56 0.77 1-3.5 3.8-6.7 7.3-10 11z" fill="#462118" /><path d="m180 189c1.4-1e-3 2.7-3e-3 4.7 0.16 1.6-0.29 2.5-0.74 3.8-1.2 2.1 0.36 3.8 0.69 5.5 1 1.3 2.1 2.6 4.2 4.1 6.6 0.089 0.33-0.014 0.42-0.39 0.37-3.1-1.3-5.9-2.6-9-3.9-1.1 0.014-1.9 0.022-3 0.018-2.2-0.04-3.9-0.068-5.6-0.47 0.024-1.1 0.04-1.9 0.057-2.6z" fill="#30242a" /><path
        d="m31 171c-1.1-0.62-2.3-1.2-3.8-1.9-0.37-3.7 0.98-5.8 4.9-6.3 1.8-0.24 3.5-1.6 5.6-2.6 0.84-0.075 1.4 3e-3 2.1 0.43-1.1 1.4-2.5 2.4-4.1 3.6-1.8 2.4-3.2 4.6-4.7 6.8z" fill="#633423" /><path d="m50 152c-3.4 1.3-6.8 2.7-11 3.8-1.1-0.41-1.6-0.63-2.1-0.86-0.68-1.4-1.4-2.9-2.1-4.6 0.23-0.82 0.52-1.3 1.2-1.9 1.3 0.98 2 2.2 3.1 3.2 1.7 1.6 3.6 3.3 6.1 0.4 1.8 5e-4 3.2 3e-3 4.6 5e-3z" fill="#2c2d3f" /><path d="m183 88c-0.13-2.5-0.27-4.9-0.2-7.7 1.8 6.1 3.4 13 4.6 19-1 0.36-1.7 0.35-2.4 0.079 4e-3 -1.1-0.024-1.9-0.12-3-0.36-0.76-0.65-1.2-0.94-2.1-0.33-2.5-0.65-4.5-0.98-6.6z" fill="#292633" /><path d="m92 388c1.3-0.81 2.6-1.5 4.1-2.4 1.4 0.6 2.5 1.4 3.6 2.5-3.3 1.4-6.7 2.6-10 3.5-1.6 0.42-3.4 0.26-5.2-0.1 2.4-1.4 4.8-2.4 7.1-3.3-8e-6 0 0.29-0.012 0.39-0.11z" fill="#322b18" /><path d="m194 189c-1.7 0.035-3.4-0.29-5.4-1-0.1-2.8 0.14-5.1 0.38-7.5 0.25-0.26 0.49-0.52 0.95-0.95 1.5 2.9 2.8 6 4.1 9.5z" fill="#371b0f" /><path
        d="m192 119c-0.38 0.39-0.84 0.39-1.7 0.037-1-2.8-1.7-5.2-2.3-8-3e-3 -2.8 0.019-5.2 0.041-7.6 1.3 5.1 2.6 10 4 16z" fill="#292633" /><path d="m100 336c0.77 0.45 1.5 0.91 2.5 1.5-0.73 0.85-1.7 1.6-3 2.4-3.6-0.78-6.8-1.7-10-3 3.5-0.59 7-0.76 11-0.94z" fill="#443c32" /><path d="m22 192c4.7-1.6 9.1-4 14-0.69-0.64 0.41-1.1 0.45-2 0.48-1.8-0.034-3.2-0.052-4.9-2e-3 -3.1 1-5.9 2-8.6 2.9 1e-6 0-0.08-0.095-0.12-0.14 0.57-0.8 1.2-1.6 1.9-2.6z" fill="#2d272e" /><g fill="#4b3d32"><path d="m134 390c-0.78 0.3-1.4 0.22-2.2 0.096 0.38-4.2 1-8.3 1.9-13 0.29 3.8 0.43 8.1 0.37 13z"/>
        <path d="m114 333c0.89-0.62 1.7-0.87 3.1-1.1 0.85 0.2 1.2 0.42 1.6 0.99 0.34 1.4 0.67 2.5 1 3.6-1.4 0.6-2.8 1.2-5 2.1-0.31-2.2-0.52-3.7-0.7-5.6z" />
        <path d="m129 335c0.6 0.52 1.2 1 1.9 1.9-0.71 3.4-1.5 6.5-2.6 9.9-0.084-3.1 0.07-6.6 0.4-11 0.2-0.79 0.22-0.97 0.25-1.1z" /></g><path d="m188 103c8.2e-4 2.8-0.021 5.2-0.33 7.9-2.1-3.1-4.8-6.3-2.6-10 0.7 0.015 1.4 0.03 2.4 0.061 0.4 0.74 0.45 1.5 0.52 2.6z" fill="#293143" /><path d="m129 335c0.3 0.25 0.28 0.42 0.22 0.87-2.8 0.55-5.5 0.84-8.7 1.1-0.75-1.1-1.1-2.2-1.1-3.6 2.5-0.068 4.7 0.23 6.8 0.54 0.81 0.34 1.6 0.68 2.8 1.1z" fill="#233232" /><path d="m48 405c-3 1.3-6.4 2.7-10 4 1.8-4.2 5.9-3.7 10-4z" fill="#1b1617" /><path d="m203 225s0.43 0.024 0.64 0.036c0.23 0.45 0.26 0.88 0.1 1.8-0.37 0.69-0.55 0.92-0.7 1.2 0 0-5.3e-4 -0.014 8e-3 -0.013-1.2 1.2-2.3 2.4-3.7 3.4 0.077-2.3 0.39-4.3 1.1-6.4 1.1 1e-3 1.8 3e-3 2.6 5e-3z" fill="#2b283f" /><path d="m183 78c-0.79-1.8-1.5-3.9-2.1-6.3 0.84 1.8 1.5 3.9 2.1 6.3z" fill="#292633" /><path d="m73 348c-0.023 0.82-0.045 1.6-0.26 2.8-0.96-1.9-1.7-4.2-2.1-6.8 0.7-0.24 1-0.11 1.3-2e-3 0.058 0.43 0.12 0.86 0.25 1.9 0.31 1.1 0.55 1.6 0.79 2.1z"
        fill="#443c32" /><path d="m185 290c0.35-0.41 0.82-0.5 1.6-0.63 1.3 1.4 2.3 2.8 3.3 4.6-1.6-1-3.2-2.3-5-4z" fill="#373f44" /><path d="m74 355c0.33 1.2 0.67 2.4 0.57 3.8-0.76 0.12-1.1 0.036-1.4-0.048-0.043-0.94-0.086-1.9 0.015-3.1 0.36-0.45 0.59-0.54 0.83-0.59z" fill="#9d9171" /><path d="m119 72c-0.91 0.51-2.2 1-3.5 1.3 0.99-0.59 2.1-0.93 3.5-1.3z" fill="#293542" /><path d="m75 368c0.42 1 0.6 2.3 0.5 3.8-0.43-1-0.58-2.3-0.5-3.8z" fill="#443c32" /><path d="m72 344c-0.46 0.17-0.77 0.05-1.3-0.096-0.18-0.27-0.13-0.52-0.053-0.98 0.34-0.4 0.65-0.61 1.1-0.94 0.24 0.5 0.33 1.1 0.26 2z" fill="#9d9171" /><path d="m74 355c-0.16 0.3-0.39 0.39-0.79 0.49-0.48-0.6-0.77-1.2-0.84-1.9 0.67 0.28 1.1 0.74 1.6 1.4z" fill="#443c32" /><path d="m73 359c0.48-0.29 0.81-0.2 1.4-0.045 0.17 0.92 0.1 1.8-0.16 2.8-0.59-0.64-0.98-1.5-1.2-2.8z" fill="#443c32" /><path d="m52 404c-0.26 0.35-0.8 0.78-1.6 1.1 0.29-0.42 0.78-0.71 1.6-1.1z" fill="#1b1617" /><path
        d="m37 155c0.49-0.063 0.98 0.16 1.7 0.57 0.01 0.43-0.21 0.66-0.64 1-0.47-0.34-0.75-0.81-1-1.6z" fill="#2b2933" /><path d="m137 64c0.073 0.17-0.11 0.42-0.5 0.8-0.026-0.13 0.12-0.42 0.5-0.8z" fill="#3b4646" /><path d="m55 401c0.0075 0.13-0.22 0.36-0.67 0.71-0.0033-0.12 0.22-0.36 0.67-0.71z" fill="#1b1617" /><path d="m164 396c-0.13 0.014-0.36-0.2-0.71-0.63 0.14-0.026 0.37 0.18 0.71 0.63z" fill="#18160f" /><path d="m144 46c-0.023 0.08-0.21 0.29-0.51 0.67-0.14-0.19 0.016-0.43 0.51-0.67z" fill="#747c6e" /><path d="m94 19c-0.19-0.11-0.19-0.38-0.2-1.1 0.12 0.025 0.25 0.46 0.2 1.1z" fill="#293542" /><path d="m131 412c0.11-5e-3 0.32 0.19 0.66 0.58-0.11 7e-3 -0.33-0.19-0.66-0.58z" fill="#18160f" /><path d="m172 320c0.11-0.19 0.3-0.19 0.79-0.21-0.041 0.13-0.37 0.26-0.79 0.21z" fill="#493e37" /><path d="m203 228c-0.039-0.13 0.14-0.36 0.5-0.72 0.084 0.15-0.073 0.4-0.5 0.72z" fill="#30242a" /><path d="m33 251c0.28 0.097 0.3 0.38 0.051 0.83-0.27-0.098-0.29-0.38-0.051-0.83z" fill="#4b2625" /><path
        d="m33 258c0.17 0.076 0.21 0.28 0.26 0.78-0.12-0.016-0.26-0.34-0.26-0.78z" fill="#4b2625" /><path d="m149 378c0.82 1.4 1.2 2.8 1.5 4.9 0.4 3.6 0.87 6.5 1.3 9.4-3.9 1.4-7.7 3.1-12 4-1.6 0.36-3.6-1.1-5.6-2 2.6-0.18 5.5 0.33 8.2 1.2e-4 5-0.61 5.6-2.1 3.4-6.6-0.64-1.3-1.3-2.7-1.6-4.1-0.9-3.4 0.098-5.5 4.4-5.6z" fill="#443a1a" /><path d="m70 391c1.1-2.6 2.4-5 3.7-7.4 0.78 0.32 1.6 0.63 2.3 0.95-0.6 2.1-1.2 4.3-1.9 6.7-0.11 0.34-0.54 0.54-1.1 0.63-1 0.11-1.5 0.13-2 0.15-0.29-0.29-0.58-0.58-1.1-1.1z" fill="#87846f" /><path d="m91 388c-1.9 1.1-4.3 2-7 3.2-0.72 0.25-1.2 0.26-2 0.31-0.32-0.9-0.31-1.9 0.14-3 0.82-0.17 1.2-0.18 1.6-0.18 0 0-0.13 0.058-0.16-7e-3 2.3-0.21 4.6-0.36 7.4-0.38z" fill="#9d9171" /><path d="m71 393c0.39-0.23 0.87-0.25 1.7-0.21-0.3 0.18-0.96 0.3-1.7 0.21z" fill="#322b18" /><path
        d="m174 279c1.2 3.2 2.3 6.4 3.5 9.6-0.48 0.4-0.97 0.79-1.5 1.2-4.2-3.1-8.4-6.3-13-9.4-2.5-1.8-5-3.6-7.9-5.4-0.37-0.028-0.24-0.12-0.21-0.46-0.81-1.2-1.6-2.1-2.7-3.2-0.89-0.92-1.5-1.7-2.2-2.8-1-1.2-2-2.1-3.2-3.1-1.8-2.1-3.3-4-4.6-6.1 0.22-0.39 0.29-0.55 0.76-0.76 3.3-1 6.2-2 9.1-2.5 0.74 2.2 1.5 4.1 2.4 6.2 2.4 0.64 4.6 0.98 7 1.4 0.21 0.042 0.62 0.1 0.66 0.34 0.041 0.24 0.14 0.71 0.17 1.1 1 1.4 2 2.5 3.3 3.7 0.74 0.8 1.2 1.4 1.7 2.4 0.69 1 1.3 1.7 2.2 2.6 0.47 0.6 0.72 1.1 1 1.8 0.66 0.87 1.3 1.4 2.1 2.1 0.52 0.55 0.81 0.96 1.1 1.4z" fill="#9a9b8d" /><path d="m175 280c-0.57-0.61-0.86-1-1.5-1.9-0.9-0.99-1.5-1.6-2.1-2.1-0.25-0.46-0.5-0.91-1-1.8-0.91-1.2-1.6-1.9-2.2-2.6-0.48-0.64-0.97-1.3-1.8-2.4-1.3-1.6-2.3-2.6-3.3-3.7 0 0-0.1-0.47 0.32-0.75 3.2-0.28 5.9-0.29 8.7 0.14 0.03 7.7 5.7 15 12 17 0.25 2.5 0.5 5 0.7 7.9-3.3-2.8-6.5-6-9.9-9.3z" fill="#373f44" /><path
        d="m175 298c-0.57 0.64-1.3 0.95-2.5 1.3-5.3-6.7-11-12-19-16-0.43-1-0.77-1.8-0.72-2.5 3 0.64 5.6 1.3 8.2 1.9 4.5 5.1 9.1 10 14 16z" fill="#4d3728" /><path d="m151 269c0.65 0.74 1.3 1.5 2.2 2.7 1.1 1.4 1.9 2.3 2.7 3.2 0 0-0.13 0.091-0.11 0.17 0.21 0.59 0.42 1.1 0.39 2.1-2.8 0.14-5.3-0.23-8.2-0.68-2.8-2-5.3-3.9-7.4-5.8 1.7 0.13 3.2-0.051 4.3 0.53 3.4 1.8 4.5 0.49 4.8-2.7 0.66 0.23 1 0.37 1.4 0.51z" fill="#332e35" /><path d="m148 277c2.5 0.37 5.1 0.74 7.9 0.88 1.9 1.3 3.5 2.9 5.4 4.7-2.4-0.3-5-0.9-8.3-1.7-2.1-1.4-3.5-2.7-4.9-3.9z" fill="#393033" /><path d="m73 348c-0.38-0.33-0.61-0.83-0.81-1.6 0.34 0.29 0.65 0.87 0.81 1.6z" fill="#9d9171" /><path d="m72 341c-0.068-0.07-0.033-0.097-0.047-0.13-0.014-0.031 0.21 0.14 0.21 0.14s-0.09 0.055-0.16-0.015z" fill="#9d9171" /><path d="m40 244c2.8-7.3 5.1-14 8.3-21 1.9-4 4.7-3.9 7.9-0.91 1.1 0.99 2.3 1.9 3.5 2.7 3 1.9 3.7 4.2 2.4 7.6-2.2 5.7-4.1 12-6 17-1 2.9-7.3 5.8-10 4.8-5.1-1.6-6.8-4.6-5.5-11z" fill="#ab552c" /><path
        d="m64 244c1.3-5.5 2.6-11 4.1-17 1.5-1.1 2.7-1.6 4.3-2 4.1 0.68 7.8 1.4 12 2.4 0.75 2.9 1.4 5.4 2.2 8.6-2.8-0.53-4.3-0.82-6.5-1.2 0.47 2.5 0.83 4.4 1.2 6.6 0.071 0.8 0.14 1.3 0.26 2 0.15 0.68 0.25 1.1 0.23 1.8 0.59 2.4 1.3 4.5 2.1 6.9-0.11 2.9-0.36 5.4-0.74 7.5-1.7-2.1-3.2-4-4.8-6.2-1.1-3.6-2.1-6.8-3.1-10-0.58 0.16-1.2 0.32-1.7 0.49 0.38 2.7 0.76 5.4 1.1 8.1l-0.92 0.3c-1.6-2.4-3.1-4.9-4.7-7.3-0.47 0.25-0.93 0.5-1.4 0.75 0.21 1.7 0.42 3.4 0.33 5-1.4-2.3-2.6-4.5-3.7-6.7z" fill="#bb9c81" /><path d="m72 225c-1.2 0.47-2.4 0.95-3.9 1.7-4.5-2.8-8.6-6.1-13-8.9-1.7-1.1-4.1-1.2-6.5-1.7-0.52 0.066-0.74 0.03-1.2-0.37 0.074-1.4 0.4-2.5 1.1-3.5 1.4-0.051 2.5-0.087 3.5-0.11 0.0049 0.015 0.036 0.022 0.15 0.12 0.12 0.095 0.55 0.12 0.55 0.12s0.39-0.22 0.69-0.21c0.71 7e-3 1.1 6e-3 1.6 0.35 3.1 2.4 6 4.5 9.3 6.8 1.1 0.42 1.9 0.64 2.8 1.2 2.4 1.1 4.7 1.9 6.8 2.9-0.74 0.69-1.3 1.2-1.8 1.7z" fill="#4a3036" /><path
        d="m64 244c1.3 1.8 2.5 4 3.9 6.7 1.3 2.6 2.3 4.7 2.9 6.9-1.9 0.046-3.4 0.086-5-0.14-0.75-0.74-1.4-1.2-1.9-2.1-0.27-1.4-0.55-2.5-0.84-3.6 0.24-2.5 0.48-4.9 0.94-7.7z" fill="#92755f" /><path d="m64 256c0.61 0.48 1.2 0.97 2.1 2 0.92 1.1 1.6 1.6 2 2.2-3.8 1-7.2 1.9-11 2.7 0.015-0.4 0.03-0.79 0.047-1.5 0.27-0.56 0.53-0.84 1.3-1.4 2.1-1.6 3.7-2.8 5.3-4.1z" fill="#342733" /><path d="m64 256c-1.6 1.6-3.2 2.8-5.1 4.2 0.24-2.4 0.68-4.9 1.4-7.4 0.13-0.41 1.6-0.43 2.6-0.54 0.54 1.2 0.82 2.3 1.1 3.7z" fill="#59342c" /><path
        d="m50 152c-1.9 6e-3 -3.3 3e-3 -5.2-0.31-0.35-3.9 0.02-7.4-0.03-11-0.034-2.4-1.6-5.2-0.84-7.1 3-7.2 0.28-14 0.56-22 1.6-2.5 3.1-4.9 5.2-7.8 2.7-4.2 5.1-7.9 7-12 2.5-5.3 4.6-11 7.2-17 2.8-2.2 5-2 7.4 0.24 0.86 0.82 2.5 1.7 3.4 1.4 2.6-0.93 6.5-2 7-3.8 0.7-2.7 1.9-6.9-2.7-8.8-1.1-0.46-1.4-2.8-2-3.9 1.6-1.4 2.8-2.7 4.2-3.5 1.1-0.66 2.5-0.83 3.7-1.2 0.16 1.4 0.99 3.4 0.37 4.2-2.4 3.2-0.13 5.2 1.4 7.5 1.7 2.6 3.4 5.2 5.1 7.7-0.59 0.059-1.2 0.12-1.8 0.18-1.3 1.3-2.6 2.6-3.9 3.9 2 0.041 4 0.29 6 0.066 2.1-0.24 4.2-0.76 6.2-1.5 1.5-0.52 2.8-1.5 4.6-2.3 0.78 8.4e-4 1.2 0.0016 1.7 0.34 3 2.4 5.8 4.4 8.7 6.5 0.39-0.38 0.77-0.77 1.2-1.1-0.64-1.6-1.3-3.1-1.9-4.7 6.1 2.7 10-1.5 16-3.9 0.76-0.15 1.2-0.15 2.3-0.0011 3.7 1.4 6.6 1.7 9.2-0.81 2.2 0.59 4.1 0.83 6.1 1.1 1.4 0.2 3.2-0.025 4.1 0.75 3.6 3.1 8.9 5 7.9 12 3.3-0.93 5.6-1.8 7.9-2.2 1.6-0.26 4.2-0.46 4.9 0.45 2.3 3 4.4 2.1 6.9 1.1 1.2 4.5 3.3 8.6 3.4 13 0.12 3.9-1 8.2-3 12-2.1 3.6-2.4 4.9 1.6 6.1 7.4 2.1 8 3.2 6.2 12-4.5-2.6-5.3 0.92-7.1 3.9-1.3 2-4.1 3.4-6.6 4.1-0.56 0.17-3-3.2-3.2-5.2-0.39-3.6-0.26-7.5 0.5-11 1.7-8 0.79-9.7-7.3-11-0.33-0.051-0.66-0.14-0.99-0.11-4.7 0.37-7.8-1.7-9.8-6-0.52-1.1-2-2.1-3.3-2.5-2.3-0.68-4.8-1.2-7.2-1.2-3.1 0.018-6.9-3.2-9.7 1.6-2.5 0.0031-4.5 7.5e-4 -6.6-0.36-0.54-3.5-1.6-5.3-5.3-3.2-1.4 0.82-3.5 0.47-5 1.1-1.3 0.52-2.5 1.7-4.1 2.5-2.3 5e-3 -4.2-0.37-5.8 0.12-1.7 0.51-3.2 1.9-5.2 2.8-5.8 0.37-11-0.35-16 4.1-0.23-5e-4 -0.69-2e-3 -0.89 0.19-0.43 0.7-0.66 1.2-1.2 1.7-0.77 0.026-1.2 0.048-2 0.17-1 0.77-2.2 1.3-2.3 2.1-2.2 11-4.8 21-6.1 32-0.57 4.7-1.2 7.9-6.2 8.8-4.7 6e-3 -9.4 0.012-15 0.026z"
        fill="#223152" /><path d="m45 112c-0.0024 7 2.8 14-0.29 21-0.8 1.9 0.81 4.7 0.84 7.1 0.05 3.6-0.32 7.1-0.39 11-2 3.2-3.8 1.5-5.5-0.088-1.1-0.96-1.8-2.2-3-3.5-1.4-2.4-2-5.1-3.6-6.9-5.1-5.8-4.7-12 1-17 3.9-3.5 7.2-7.7 11-12z" fill="#212c4d" /><path d="m64 76c-2.3 5.5-4.4 11-6.9 16-1.9 3.9-4.3 7.6-6.8 12 1-3.4 2.4-7 3.7-11 2.8-7.7 5.2-16 8.4-23 2.9-6.8 6.8-13 10-20 2.7-5.3 5.1-11 7.8-16 0.64-1.2 1.9-2.1 3.3-3.3 0.34-0.081 0.35-0.068 0.32 0.3-0.64 1.9-1.1 3.5-1.9 4.9-1.9 3.5-4.2 6.7-5.8 10-3.8 8.2-7.2 16-11 25-0.64 1.5-1 3.1-1.5 4.7z" fill="#262e45" /><path d="m89 23c2.5 1.4 5.1 2.8 3.2 6.4-3.6-2.8-5.5 0.69-7.9 1.5 0 0-0.014-0.013-0.022-0.02 1.5-2.5 2.9-5.1 4.7-7.8z" fill="#262e45" /><path d="m140 72c-2.4 2.8-5.3 2.6-8.7 1.1 3.5-2.8 7.3-5.4 11-8.1 1.4-0.99 3.3-1.8 4-3.2 2.3-4.3 4.3-8.8 6.2-13 0.7-1.6 1-3.5 1.3-5.3 0.73-5.2 1.3-10 2.1-16 5.8 1.7 9.3 5.9 11 12 1.5 4.5 3 9 4.3 14-2.1-0.37-3.9-0.91-5.7-1.8-5.4-2.7-9.6 0.017-11 5.8-1.4 4.5-2.6 9.9-9.2 11-1.9 0.26-3.5 3-5.2 4.6z"
        fill="#243450" /><path d="m84 31c2.4-1.1 4.4-4.6 7.7-1.6 0.02 0.95-0.52 1.8-0.45 2.5 0.61 6.5 1.4 13 2 19 0.2 2.2 0.51 4.5 0.0021 6.6-1.5 6 2 9 6.2 12 1 0.69 1.6 2.1 2.5 3.7 0.45 1.1 0.7 1.6 0.95 2.1-1.4 0.77-2.8 1.8-4.2 2.3-2 0.69-4.1 1.2-6.2 1.5-2 0.22-4-0.025-6-0.066 1.3-1.3 2.6-2.6 3.9-3.9 0.59-0.059 1.2-0.12 1.8-0.18-1.7-2.6-3.4-5.2-5.1-7.7-1.5-2.3-3.8-4.3-1.4-7.5 0.63-0.85-0.2-2.8-0.37-4.2-1.2 0.39-2.6 0.55-3.7 1.2-1.4 0.87-2.6 2.1-4.2 3.5 0.55 1.2 0.86 3.5 2 3.9 4.6 1.9 3.4 6.2 2.7 8.8-0.48 1.8-4.4 2.9-7 3.8-0.88 0.32-2.6-0.58-3.4-1.4-2.3-2.2-4.6-2.4-7.4-0.24 0.2-1.4 0.57-3 1.2-4.5 3.5-8.3 7-17 11-25 1.6-3.6 4-6.8 5.8-10 0.78-1.4 1.2-3 1.9-4.9z" fill="#1d2f4f" /><path d="m113 77c1 1.6 1.7 3.1 2.3 4.7-0.39 0.38-0.77 0.77-1.2 1.1-2.9-2-5.7-4.1-8.7-6.7-0.086-0.76-0.086-0.93-0.086-1.1 0.75 4.6e-4 1.5 9.2e-4 2.6 0.0027 1.8 0.67 3.2 1.3 5 2z" fill="#1d2f4f" /><path
        d="m105 75c0.26 0.36 0.26 0.53 0.26 0.95-0.44 0.25-0.89 0.25-1.7 0.25-0.58-0.5-0.83-1-1.2-1.8 0.7-0.046 1.5 0.16 2.6 0.56z" fill="#243450" /><path d="m180 189c-0.16 1.1-0.17 1.8-0.42 2.9-0.23 0.39-0.68 0.41-0.99 0.21-5.8-0.074-11 0.054-17-0.072-0.027-0.42-0.04-0.59-0.044-1.2 0.36-3.8 0.72-7.1 1.4-10 1.1-0.016 1.8-0.025 2.6-0.034 0.87 6.2 2.7 6.9 8.2 2.7 0.43 1.3 0.82 2.4 1.1 3.2 1.4-0.5 2.8-1 4.3-1.5 0.24 1.3 0.48 2.6 0.58 4.2z" fill="#3f2116" /><path d="m166 180c-0.73 0.4-1.5 0.41-2.8 0.31-1.8 1.3-3 2.7-4.6 4.1-3.8 0.21-5.6-1.1-5.7-4.8-0.01-1.8-0.64-3.5-0.99-5.5 0.019-0.43 0.03-0.6 0.042-0.77 4.4 1 8.8 2.1 14 3.1 0.4 1.1 0.39 2.1 0.37 3.6z" fill="#602d1b" /><path d="m189 180c0.11 2.3-0.13 4.7-0.36 7.4-0.92 0.84-1.9 1.3-3 1.6 0.85-3.1 1.9-6 3.4-9z" fill="#59342c" /><path d="m169 176c2.4-0.7 4.8-1.1 7.6-1.4-0.96 1.3-2.2 2.9-3.7 3.9-2.2 1.5-3.7 0.67-3.9-2.5z" fill="#602d1b" /><path
        d="m57 263c3.9-0.86 7.4-1.7 11-2.7 1-0.18 1.5-0.15 1.9 0.23-0.45 2.7-0.86 5.1-1.5 7.4-0.37 1.4-1.1 2.7-1.9 4-0.66 0.051-1 0.08-1.8 0.079-1.2-0.041-2-0.053-2.8-0.066-7.8 5.4-17 8.8-22 18-0.64 1.4-3.1 1.8-5.6 2.3 0.35-9.6-4-20 4.1-28 5.9-0.59 12-0.9 18-1.2z" fill="#202a48" /><path d="m38 306c0.066-2.3 0.13-4.7 0.25-7.5 2.6-3.4 5.2-6.4 8.4-9.5 1.6-0.083 2.4-0.079 3.2 0.25-2.4 3.8-4.6 7.2-7.2 11-1.1 2.1-1.9 3.9-3.1 5.7-0.75 0.019-1.2 0.028-1.6 0.037z" fill="#554144" /><path d="m50 289c-0.84-4e-3 -1.7-8e-3 -3-0.032 4.6-4.5 9.5-8.9 15-14 1-0.25 1.4-0.28 1.8 0.025-3 3.1-6.1 5.8-8.9 8.6-1.2 1.2-2 2.7-3.3 4.2-0.76 0.31-1.3 0.56-1.7 0.81z" fill="#694b45" /><path d="m64 275c-0.43 0.027-0.85 0.054-1.6 0.11-0.34-0.76-0.37-1.6-0.39-2.7 0.8-0.38 1.6-0.37 2.7-0.026-0.033 1.1-0.37 1.9-0.71 2.7z" fill="#342733" /><path
        d="m181 161c0.34 0.75 0.72 1.5 1 2.2 0.84 2.3 1.6 4.7 2.5 7.1-2.8 0.73-5.7 2.4-8.3 2-7.6-1.2-15-3.2-23-5.2-1.4-0.35-2.4-1.9-3.6-3.5 0.41-1.3 0.78-2 1.5-2.8 0.89-0.64 1.5-1.2 2.3-1.8 0.61-0.08 0.95-0.15 1.7-0.25 5.9-2.2 12-4 18-2.7 0.34 0.33 0.57 0.48 1.2 0.69 2.4 1.4 4.5 2.8 6.6 4.1z" fill="#a6522f" /><path d="m144 164c0.16 1.1 0.31 2.3 0.47 3.9-0.88 1.6-1.8 2.7-2.9 3.9-0.74 0.32-1.2 0.57-2 0.89-2.1 0.81-3.9 1.5-5.9 2.3-0.7 0.36-1.1 0.65-1.9 0.94-1.5 0.31-2.6 0.62-4.1 0.93-1.5 0.28-2.6 0.57-4 0.88-1.1 0.35-1.9 0.67-3.1 0.99-2.1 0.01-3.7 0.023-5.6-0.13-1.3 0.26-2.3 0.68-3.8 1.1-3.9-0.059-7.4-0.11-11-0.46-3.2-1.6-6.2-2.9-9.6-4.2-1.1-0.086-1.8-0.12-2.7-0.36-0.76-0.42-1.3-0.63-2.2-0.95-2-0.76-3.6-1.4-5.3-2.5-0.029-2.6-0.015-4.8 0.22-7.2 0.69-0.51 1.2-0.84 1.8-0.82 0.024 5.8 4.6 5.6 8 7.4 10 5.4 21 5.8 32 2.6 6.8-2 14-3.2 19-10 0.57-0.45 0.93-0.76 1.5-0.81 0.51 0.79 0.84 1.3 1.2 1.8z" fill="#845742" /><path
        d="m142 172c0.88-1.1 1.8-2.2 2.8-3.5 2.4 1.3 4.6 2.8 7.1 4.5 0.3 0.32 0.29 0.49-0.011 1.1-0.53 2.1-0.8 3.8-1 5.5-0.74 6.1 1.1 8.3 7.4 9 1.3 1.1 2.6 1.8 3.9 2.6 0.013 0.17 0.026 0.34 0.036 1-0.012 0.68-0.02 0.85-0.41 1-5.6-2.3-13-1.7-15-9.4 0.4-5.2-0.072-9.5-5.2-12z" fill="#452a2b" /><path d="m181 161c-2.4-1.3-4.5-2.7-7-4.3-0.67-0.45-0.9-0.59-1.2-0.68-6.1-1.2-12 0.67-18 2.5-0.37-1.1-0.36-1.8-0.096-2.6 0.25-0.021 0.74-0.068 1.1-0.062 0.76-4e-3 1.2-0.013 2-0.17 6.5-0.37 13-0.59 19-0.58 1.4 0.74 2.6 1.3 4 2 0.7 0.41 1.2 0.62 1.7 0.83-0.039 0.77-0.078 1.5-0.18 2.7-0.45 0.38-0.84 0.37-1.5 0.39z" fill="#5d3834" /><path d="m155 156c-0.014 0.75-0.029 1.5-0.044 2.6-0.34 0.45-0.69 0.53-1.6 0.62-1.2 0.62-1.7 1.2-2.3 1.8-0.37 0.69-0.75 1.4-1.3 2.3-1.8 0.44-3.5 0.63-5.5 0.69-0.64-0.65-0.97-1.2-1.4-2.3-0.12-0.89-0.13-1.1 0.079-1.5 0.5-0.49 0.79-0.86 1.4-1.4 0.71-1.1 1.1-2 1.6-3 0.038-8e-3 0.022-0.084 0.29-0.18 0.77-0.34 1.3-0.6 2-0.65 1.5 0.094 2.6-0.012 4.1 0.018 1.1 0.4 1.9 0.67 2.7 0.94z"
        fill="#472d26" /><path d="m140 72c1.6-1.9 3.1-4.6 5-4.9 6.6-0.9 7.8-6.3 9.2-11 1.8-5.7 6-8.4 11-5.8 1.7 0.85 3.6 1.4 5.8 2.1 1 2.1 1.6 4.2 2.3 6.6 0.054 1.1-0.29 2.3 0.051 2.5 4.9 3.6 4 8.9 3.9 15-0.053 3.2 0.051 5.7 0.15 8.2-2.4 1.4-4.6 2.3-6.9-0.69-0.7-0.91-3.3-0.7-4.9-0.45-2.4 0.37-4.7 1.3-7.9 2.2 1-6.9-4.2-8.8-7.9-12-0.92-0.78-2.7-0.56-4.1-0.75-2-0.28-4-0.53-6.1-1.1z" fill="#1e3250" /><path
        d="m100 336c-3.7 0.43-7.2 0.6-11 1-0.73 0.25-1.1 0.27-1.9-0.019-1.4-0.14-2.5 0.026-3.5 0.2-1-0.023-2-0.046-3.4-0.14-2.1-0.34-4-1.1-5.7-0.8-5 0.8-9.9 2.1-15-1.2-4.5-7.9-5-16-4.3-25 0.46-5.6-1.1-11-1.7-18 0.035-0.42 0.16-0.42 0.37-0.42 0.21-4.6e-4 0.64-4e-3 1-9e-3 5.5-0.86 7.3-5.2 9.9-9 0.24-5e-3 0.73-0.012 1.1-0.076 1.5-1 2.6-2 3.9-3.2 4.7-2.7 9-5.3 14-7.7 5.3-2.9 11-5.3 15-10 2.2-2.9 6.1-4.5 9.3-6.2 0.09 2.5 0.12 4.5-0.035 6.9-0.37 4.8-0.55 9.2-0.92 14-1.2 2.9-0.81 4.8 2.1 6.2-0.23 9.4-0.53 18-0.68 27-0.025 1.4 0.56 2.8 0.86 4.2-0.016 2.4-0.033 4.7-0.19 7.7-0.05 1.2 0.044 1.7 0.14 2.3-0.083 5.9-4.7 8.5-8.8 12z" fill="#375859" /><path d="m84 337c0.79-0.34 1.8-0.51 3-0.42-0.83 0.37-1.8 0.48-3 0.42z" fill="#443c32" /><path
        d="m29 192c1.4 0.019 2.7 0.037 4.7 0.38 3.5 1.4 6.4 2.5 9.6 3.8 3.1 1.4 5.9 2.6 8.6 4.1-2 3.7-4.7 4.3-8.1 2.6-1.1-0.55-2.6-0.98-3.8-0.7-1.2 0.28-2.1 1.5-3.2 2.3 1 0.62 2.2 1.9 3.1 1.8 4.7-0.84 6.2 1.9 6.8 5.7-6.5 4-10 9.4-11 17 0 0-0.0033 2.9e-4 -0.32 0.14-2.8 5-5.2 9.9-7.7 15-2.8 0.057-5.6 0.11-8.8-0.26-1.2-1.9-1.8-3.4-2.8-4.7-3.7-5.4-6.7-11-4.6-18 0.46-1.5-0.52-3.5-0.84-5.2 0.0065-1.1 0.013-2.1 0.35-3.7 3.6-2.1 5.8-4.4 5.6-8.3 0.26-0.5 0.51-0.99 1.2-1.8 0.88-0.95 1.3-1.6 1.8-2.2 0 0 4e-3 -0.01 0.34-0.097 3.1-2.7 5.9-5.3 8.7-7.9z" fill="#202b4c" /><path d="m11 216c0.62 1.5 1.6 3.5 1.1 5-2.1 7 0.88 12 4.6 18 0.93 1.3 1.6 2.9 2.5 4.6-0.56 0.2-1.3 0.25-1.8-0.091-7.1-4.7-11-19-6.4-27z" fill="#27263b" /><path d="m28 244c2.1-4.8 4.6-9.8 7.3-15-0.99 4.3-2.3 8.7-3.7 13-1.1 0.67-2.2 0.98-3.7 1.3z" fill="#2b283f" /><g fill="#27263b"><path d="m29 192c-2.4 2.5-5.2 5.1-8.3 7.8-0.33-1.3-0.33-2.7-0.33-4.5 2.8-1.4 5.5-2.3 8.6-3.3z"/>
        <path d="m17 204c0.47 3.8-1.8 6-5.4 7.8 1.5-2.5 3.3-5 5.4-7.8z" />
        <path d="m20 200c-0.19 0.51-0.65 1.1-1.4 1.8 0.19-0.5 0.65-1.1 1.4-1.8z" /></g><path d="m153 393c-0.72-2.7-1.2-5.6-1.5-8.8 6.3-0.68 8.1 1.4 5.6 6.4-1.4 0.97-2.7 1.6-4.1 2.5z" fill="#9e966e" /><path d="m109 314c-0.6-1.3-1.2-2.7-1.2-4.1 0.16-8.9 0.45-18 0.69-28-0.64-2.6-1.3-4.4-1.9-6.1 0.18-4.4 0.35-8.9 1.1-14 1.9-0.031 3.3 0.23 4.8 0.94 0.77 15 1.5 29 2.2 44-0.015 1.5-0.014 2.5-0.19 3.7-0.39 0.35-0.59 0.57-0.77 0.81-1.5 0.58-2.9 1.2-4.7 1.9z" fill="#2d3e3e" /><path d="m114 312c0.18-0.71 0.38-0.93 1.1-1.1 0.71 2.3 1.4 4.8 1 7-0.99 5.8 1.9 11 7.4 13 0.88 0.29 1.6 1.1 2.4 1.7 0 0 2.6e-4 0.43-3e-5 0.64-2.2-0.09-4.3-0.39-6.8-0.68-0.7-0.2-1.1-0.42-1.6-0.75-5.3-5.8-3.3-13-3.5-20z" fill="#3b5352" /><path d="m109 324c-0.24-0.37-0.33-0.91-0.28-1.6 0.24 0.37 0.33 0.91 0.28 1.6z" fill="#2d3e3e" /><path d="m76 379c1.2 0.022 2.6 0.39 4.1 1.1-1.2-0.034-2.6-0.38-4.1-1.1z" fill="#9d9171" /><path d="m84 388c-0.04 0.34-0.43 0.35-1 0.25 0.094-0.26 0.37-0.42 1-0.25z" fill="#bfad85" /><path
        d="m39 314c-0.085-2.1-0.075-3.8 0.18-5.9 0.24-0.43 0.73-0.43 1-0.55 3.8-3.4 7.2-6.6 11-9.9 0.66 7.9 1.4 16 1.9 24 0.2 2.8 0.043 5.6 0.051 8.9-6.2-1.4-11-4.6-12-12-0.2-1.4-1.1-2.7-1.7-4.4z" fill="#1d2a47" /><path d="m51 298c-3.5 3.6-6.9 6.9-11 9.9-0.33-0.69-0.35-1.1-0.36-1.6 0.84-1.8 1.7-3.7 3.1-5.8 3-1.9 5.5-3.5 7.9-5.2 0.011 0.75 0.023 1.5 0.038 2.6z" fill="#27263b" /><path d="m51 295c-2.5 2-4.9 3.6-7.7 5.3 1.9-3.4 4.2-6.8 6.6-11 0.58-0.57 1.1-0.82 1.8-0.91 0.27 0.17 0.3 0.61 0.45 0.87 0.76 1.1 1.4 1.9 2 2.7 4e-6 0-0.12 2e-3 -0.18-2e-3 -1 0.77-2 1.5-2.9 2.7z" fill="#332a33" /><path d="m181 157c-1.2-0.51-2.4-1-3.8-2.1-0.23-1.4-0.23-2.1 0.21-2.8 3.1-0.011 5.8-0.018 8.5-0.026 0 0 0.015 0.015 0.023 0.023-0.2 1.1-0.41 2.3-1.2 3.7-1.7 0.62-2.8 0.95-3.8 1.3z" fill="#262e45" /><path d="m181 157c0.9-0.52 2-0.85 3.5-1.2-0.15 0.61-0.65 1.2-1.4 1.9-0.8-0.12-1.3-0.33-2-0.74z" fill="#332c3d" /><path
        d="m154 284c7.6 3.6 13 9.3 18 16 0.64 2.2 0.99 4.2 1.1 6.5-1.1 0.12-2-0.079-2.8-0.28-5.8-6.9-12-14-17-21 0.29-0.75 0.57-1 0.85-1.3z" fill="#794e3a" /><path d="m171 307c0.81-0.23 1.7-0.037 2.7 0.24-0.27 3.5-0.75 6.9-1.4 11-0.54-3.2-0.92-6.8-1.3-11z" fill="#73544d" /><path d="m115 307c-0.73-14-1.5-29-2.2-44 0.018-1.2 0.043-1.6 0.42-2.1 1.5-0.38 2.7-0.69 4.1-0.84 2.1 1.4 4 2.4 5.6 3.8 5.1 4.8 9.9 10 15 15 2.8 2.4 6.5 3.7 9.8 5.5-2e-3 -1e-3 -5e-3 -5e-3 -5e-3 -5e-3 3.7 4.2 7 8.7 11 12 6.3 5.7 8.6 13 8.9 21-2.4 4.7-2.8 10-9.1 12-1.7 0.71-2.8 1.3-3.9 1.9 0 0-0.038 0.063-0.07 0.082-5.4 0.16-11 0.31-16-0.047 3.6-5.3 8.8-4.2 14-3.5 4.3 0.58 7.4-0.7 9.9-4 5.2-6.9 0.55-21-6-26-3.1-2.3-5.4-5.6-8.1-8.5-1.1-1.2-1.8-3.4-3.1-3.7-8.3-2.4-14-8.9-20-14-0.89-0.74-1.8-1.9-2.7-2-1.3-0.19-3.7 0.3-3.8 0.76-0.67 5-2.4 10-1.1 15 2.2 7-1.1 13-0.25 20 0.056 0.43-1.5 1.1-2.3 1.6z" fill="#3b5352" /><path
        d="m154 284c-0.19 0.55-0.47 0.81-0.94 1.3-1.6-0.14-3-0.49-4.7-0.84-0.37 4e-3 -0.36 8e-3 -0.4-0.35-1.3-1.5-2.5-2.7-3.8-3.8-3.8-2.9-9.3-4.1-9.8-10 2.1 0.41 3.9 0.83 5.6 1.3 6e-3 0.01-0.03 0.03-0.03 0.03 2.5 1.9 5 3.8 7.8 5.8 1.8 1.3 3.2 2.6 4.9 4 0.64 0.89 0.98 1.6 1.4 2.7z" fill="#68483b" /><path d="m41 188c-1.8-0.24-3.5-0.48-5.7-1.2-1-2.3-1.8-4.1-2-6-0.29-2.9-0.15-5.9 0.2-8.9 5.5 0.73 11 1.4 16 2.5-0.032 1.1-0.055 1.9-0.49 2.6-4.4-0.54-6.7 0.99-6.9 5.2-0.096 1.9-0.45 3.9-0.69 5.8z" fill="#68321a" /><path d="m33 172c0.043 3-0.098 5.9 0.2 8.9 0.19 1.9 1 3.7 1.7 5.9-1 0.42-2.2 0.49-3.6 0.063-0.5-1.6-0.71-2.7-0.92-3.8-0.4 0.098-0.8 0.2-1.2 0.29 0.26 1.2 0.52 2.4 0.78 3.6-2.3 0.41-4.6 0.81-7.6 1.3-0.079-0.89-0.24-2.7-0.4-4.8 3.3-3.9 6.5-7.4 10-11 0.42-0.27 0.85-0.25 0.85-0.25z" fill="#633423" /><path d="m49 177c0.024-0.75 0.047-1.5 0.49-2.6 1.8-0.35 3.1-0.31 4.5 0.046 0.035 0.74 0.054 1.2 0.067 2-1.3 5.1-2.6 9.8-3.9 15-1.1-0.34-2.3-0.68-3.7-1.4 0.68-4.4 1.6-8.5 2.6-13z"
        fill="#5a2c17" /><path d="m49 177c-0.53 4.1-1.5 8.1-2.5 13-1.6-0.05-3.2-0.46-4.9-1.2 0.084-2.3 0.44-4.2 0.54-6.1 0.21-4.2 2.5-5.7 6.9-5.2z" fill="#6b3b24" /><path d="m50 191c1.3-5 2.6-9.7 4.3-15 1.4 1.2 2.5 2.9 3.4 4.8-1.7 4.1-3.3 7.9-5 12-0.42 0.37-0.61 0.61-1 0.89-0.25 7e-3 -0.74 1e-3 -0.74 1e-3 -0.28-0.78-0.57-1.6-0.9-2.7z" fill="#6a3c27" /><path d="m51 194c0.29-0.22 0.79-0.21 1.2 9e-3 0.64 0.76 0.85 1.3 1.1 2.2-0.0015 1.4-0.0039 2.5-0.25 3.6-0.24 2e-3 -0.73 6e-3 -0.73 6e-3 -2.8-1.2-5.7-2.4-8.8-4.1-0.26-1-0.26-1.5-0.26-1.9 2.5 0.15 5 0.29 7.7 0.22z" fill="#262b47" /><path d="m43 194c0.21 0.66 0.21 1.1 0.21 1.9-2.9-0.75-5.8-1.8-8.9-3.2 0.33-0.35 0.81-0.4 1.6-0.47 0.78-0.024 1.2-0.011 2.1 0.16 1.1 0.067 1.6-0.025 2.2-0.12 0.85 0.52 1.7 1 2.8 1.8z" fill="#27263b" /><path d="m30 187c-0.52-1.2-0.79-2.4-1-3.6 0.4-0.098 0.8-0.2 1.2-0.29 0.21 1.1 0.42 2.2 0.64 3.6-0.17 0.34-0.35 0.34-0.79 0.31z" fill="#68321a" /><path
        d="m40 192c-0.38 0.24-0.94 0.33-1.7 0.27 0.38-0.24 0.94-0.32 1.7-0.27z" fill="#2d272e" /><path d="m36 229c-0.026-7.4 3.8-13 11-17 0.82 3e-3 1 0.042 1.2 0.081-0.32 1-0.65 2.1-1 3.4-2.6 3.1-5.2 5.9-7.6 8.7-1.1 1.3-1.9 2.9-3.2 4.5z" fill="#2b283f" /><path d="m186 152c-2.7 0.42-5.4 0.43-9 0.44-5.9-0.012-11-0.023-16-0.41-0.48-4.4-1-8.4-1.2-12-0.47-8.8 4.5-19-4.5-26-0.56-0.46-0.5-1.6-1-2.2-2-2.5-3.6-5.9-6.2-7-5-2.1-11-2.8-16-4.1 2.3-4.8 6.1-1.5 9.2-1.6 2.4-0.014 4.9 0.5 7.2 1.2 1.3 0.37 2.8 1.3 3.3 2.5 2 4.3 5.1 6.4 9.8 6 0.32-0.025 0.66 0.061 0.99 0.11 8 1.2 8.9 2.9 7.3 11-0.76 3.6-0.89 7.4-0.5 11 0.21 1.9 2.7 5.3 3.2 5.2 2.4-0.73 5.3-2.1 6.6-4.1 1.9-2.9 2.6-6.5 7.1-3.9 1.9-8.4 1.2-9.6-6.2-12-4-1.1-3.7-2.5-1.6-6.1 2-3.3 3.1-7.7 3-12-0.13-4.1-2.2-8.2-3.4-13-0.15-2.8-0.25-5.3-0.2-8.1 1.6 3.3 3.1 6.8 4.9 11 0.65 2.2 0.98 4.3 1.2 6.9 0.29 1.1 0.71 1.7 1.1 2.2 0.028 0.82 0.057 1.6 0.053 2.7-2.2 4.5 0.53 7.6 2.6 11 0.93 2.6 1.5 5 2.2 7.8 3.6 8.9 3 17-1.9 25-1.3 2.1-1.4 5-2 8z"
        fill="#23304f" /><path d="m115 307c0.81-0.94 2.3-1.6 2.3-2-0.87-6.7 2.4-13 0.25-20-1.4-4.5 0.38-9.9 1.1-15 0.062-0.45 2.5-0.95 3.8-0.76 1 0.15 1.9 1.3 2.7 2 6.2 5.2 11 12 20 14 1.3 0.36 2 2.5 3.1 3.7 2.6 2.9 5 6.1 8.1 8.5 6.6 5 11 19 6 26-2.6 3.4-5.6 4.6-9.9 4-4.8-0.65-10-1.8-14 3.3-3.9 0.57-7.6 0.84-12 1.2-1.2-0.5-1.9-1.3-2.8-1.6-5.5-1.8-8.4-7.2-7.4-13 0.38-2.2-0.33-4.6-0.87-7.1-0.32-1.2-0.32-2.3-0.31-3.8z" fill="#355758" /><path d="m184 281c-6.3-0.81-12-8.4-12-16 1.1-0.47 1.9-0.48 2.7-0.5 7 0.89 6.4 7.5 8.6 12 0.62 1.2 0.28 2.9 0.37 4.8z" fill="#202c42" /><path d="m175 264c-0.95 0.28-1.7 0.29-2.8 0.32-3.1 0.028-5.9 0.037-9.1 0.085-0.46 0.038-0.88-0.023-1.1-0.35-0.37-0.68-0.5-1-0.27-1.7 5.9-0.92 11-1.6 17-2.1 0.079 0.084 0.24 0.25 0.24 0.25-1.3 1.1-2.6 2.2-4 3.5z" fill="#50312e" /><path d="m180 257c0.26 0.76 0.52 1.5 0.79 2.6-0.38 0.38-0.76 0.45-1.4 0.59-0.28 0.067-0.44-0.1-0.46-0.5 0.35-1.2 0.72-1.9 1.1-2.7z" fill="#50312e" /><path
        d="m36 164c1.4-1 2.7-2.1 4.2-3.4 3.3-1.8 6.3-3.4 9.5-4.7 8.3-3.3 16-2.4 24 3.4 4.1 7 3.5 8.3-3.5 9.3-0.016-0.48-0.026-0.68-0.0038-1.2 1.1-6.3-0.57-8.2-6.6-7.8-0.98 0.06-2.2 0.44-2.9 0.027-6.5-3.7-11 0.94-16 3.9-2.6 1.6-2.8 3.8-2.2 6.4-4.1-0.31-6.7-1.7-6.6-6z" fill="#945335" /><path d="m65 152c4.7-1.1 5.4-4.3 6-9 1.3-11 3.9-21 6.1-32 0.16-0.78 1.3-1.4 2.3-1.7-1.7 15-3.6 30-5.5 45-2.8-0.52-5.6-1-8.7-1.8z" fill="#2c2d3f" /><path d="m74 154c1.8-15 3.7-30 5.8-45 0.51-0.41 0.95-0.43 1.9-0.65 0.76-0.71 0.98-1.2 1.2-1.7 0 0 0.46 1e-3 0.69 0.31 0.23 0.72 0.23 1.1 0.034 1.9-1.2 4.8-2.3 9.4-3.4 14-0.32 1.4-0.51 2.5-0.96 3.8-0.3 2.4-0.34 4.6-0.61 7.1-0.18 4.1-0.13 7.8-0.1 12-0.13 1.7-0.23 3.1-0.38 4.8-0.048 0.84-0.048 1.3-0.28 2.1-0.81 2.1-1.4 4-2.2 5.8-0.25-2e-3 -0.74-0.016-0.74-0.016-0.24-1.4-0.49-2.8-0.87-4.6z" fill="#2e2225" /><path
        d="m75 159c0.32-0.04 0.81-0.027 1.3 0.25 1.8 1.9 3.1 3.5 4.4 5.1-0.014 2.2-0.028 4.4-0.44 7.1-3.2 1.5-6 2.6-9.1 3.6-0.45-0.019-0.63-0.028-0.78-0.37 0.043-1.8 0.063-3.2 0.075-4.9-0.024-0.42-0.039-0.59-0.054-0.76 7-1.3 7.6-2.6 3.9-9.5 0.07-0.37 0.28-0.41 0.82-0.48z" fill="#50291d" /><path d="m200 225c-0.31 2.1-0.63 4.1-0.97 6.6-0.027 0.39-0.035 0.89-0.35 1.3-2.1 4-3.9 7.5-5.7 11 0 0-8e-3 2e-3 -0.36 0.09-2.5 0.7-4.6 1.3-6.7 1.5 6.4e-4 -1.5-2e-3 -2.5-0.027-3.9-0.66-1.1-1.3-1.9-1.9-3.1-7e-3 -1.1-0.012-1.9 0.17-2.9-0.27-1.4-0.73-2.6-1.2-4.1-1.1-3.1-2.1-5.9-3.1-9-0.32-1.1-0.62-1.8-0.92-2.9-1.3-2.8-2.6-5.2-3.7-7.9 1.1-0.4 1.9-0.6 2.8-0.44 3.5 7 6.7 14 10 20 2.5 4.3 4.1 4.1 6.6-0.17 1.6-2.8 3.3-5.6 4.9-8 9e-3 0.78 0.013 1.2 0.017 1.7z" fill="#242947" /><path d="m193 244c1.5-3.5 3.2-7.1 5.3-11-1.5 3.5-3.2 7.1-5.3 11z" fill="#2b283f" /><path d="m186 246c2.1-0.61 4.2-1.2 6.7-1.9-0.78 3.6-2.9 5.5-7.3 4-0.35-0.062-0.34-0.077-0.28-0.36 0.35-0.76 0.63-1.2 0.91-1.7z" fill="#2b283f" /><path
        d="m155 332c0.75-0.62 1.9-1.2 3.3-1.9-0.75 0.62-1.9 1.2-3.3 1.9z" fill="#47524b" /><path d="m200 223c-1.6 2.8-3.3 5.6-4.9 8.4-2.5 4.2-4.1 4.5-6.6 0.17-3.7-6.5-7-13-10-20 1.5-1.1 2.9-1.5 3.8-2.4 1.6-1.5 2.8-3.4 4.2-5.1-2.7-0.6-5.7-2.3-8-1.6-4.8 1.4-8.4 5-11 9.8-4.4 1.4-8.5 2.7-13 4.1-1.1 1.3-1.9 2.5-3.2 3.8-4.1 0.042-7.8 0.064-12-0.26-3.1-3.8-0.071-7.2 0.032-11 0.028-0.75 0.046-1.2 0.37-1.7 0.65-2.1 1.8-4.5 1.2-6-2.2-5.2-1.4-7.3 4.9-8.8 5.4 1.4 11 2.6 16 3.9 5.1-0.33 9.9-0.65 15-0.96 3.2-0.97 5.9-2 8.6-2.9 0.74-8e-3 1.5-0.017 2.9 0.18 2.3 1.7 4.6 3 5.4 4.9 2 4.5 3.2 9.3 4.8 14 0.25 0.47 0.49 0.95 0.84 2.1 0.086 3.7 0.072 6.8 0.059 9.8z" fill="#1e2b4a" /><path d="m199 211c-1.8-4.5-3.1-9.3-5.1-14-0.83-1.9-3.1-3.1-5-4.9 2.5 1.1 5.3 2.4 8.4 3.7 0.95 3.2 1.7 6.2 2.2 9.3 0.25 1.8-0.046 3.7-0.39 5.7z" fill="#28293d" /><path d="m200 223c8e-3 -3.4 0.021-6.4 0.051-9.9 0.97 3.3 1.9 7 2.9 11-0.71 0.41-1.4 0.41-2.6 0.41-0.37-0.45-0.38-0.89-0.39-1.7z" fill="#28293d" /><path
        d="m180 257c-0.39 1.1-0.76 1.8-1.2 2.9-5.6 0.96-11 1.6-17 2.5-1.6 0.086-2.5-0.057-3.5-0.55-0.043-1.1-0.068-1.8 0.28-2.5 3.1-1 5.9-2 8.8-2.7 4.8 1.7 10-1.9 11-6.5 1.1-11-5-20-7-30-0.59-2.9-3.8-3.8-6.9-1.6-1.6 1.1-3.5 1.6-5.2 2 1.2-1.6 2.3-2.9 3.8-4.3 3.1-0.42 5.8-0.78 8.6-0.85 1.6 3.1 3.5 5.7 4.5 8.6 3.5 10 5.5 20 4.5 31-0.04 0.42-0.08 0.84-0.13 1.6z" fill="#854b35" /><path d="m181 255c0.66-11-1.3-21-4.8-31-1-2.9-2.9-5.5-4.1-8.6 2.6 1.4 5 3.1 7.3 4.7 0.3 0.75 0.6 1.5 0.65 2.7 1.3 6.1 2.8 12 4.4 18-7e-3 0.74-0.016 1.2-0.22 1.9-0.36 2.1-0.53 3.9-0.7 5.7-0.73 2.2-1.5 4.5-2.5 6.9z" fill="#50312e" /><path d="m183 248c-0.16-1.8 4e-3 -3.6 0.71-5.7 1-0.31 1.5-0.3 1.9-0.29 2e-3 1.1 5e-3 2.1 4e-3 3.6-0.29 0.88-0.57 1.4-0.92 2.1-0.51 0.27-0.95 0.27-1.7 0.27z" fill="#332835" /><path d="m40 306c0.34 0.45 0.35 0.9 0.37 1.7 0.0043 0.34-0.49 0.35-0.73 0.35-0.67-0.54-1.1-1.1-1.4-1.8 0.56-0.21 0.99-0.22 1.7-0.24z" fill="#332a33" /><path
        d="m70 169c0.022 0.46 0.036 0.63-0.23 1.3-5.5 1.7-11 2.9-16 4.2-1.4-0.04-2.7-0.08-4.5-0.1-5.5-0.67-11-1.4-16-2.1-0.4-0.038-0.83-0.057-1-0.064-0.5-0.17-0.76-0.35-1.2-0.72 1.3-2.4 2.8-4.6 4.5-7 0.2 4.1 2.8 5.5 7.3 5.8 6.2-0.34 12-0.7 17-1 2.1-0.6 3.9-1.2 6-1.8 1.4 0.26 2.5 0.46 3.6 0.66 0.0096 0.19 0.019 0.39 0.035 0.87z" fill="#844224" /><path d="m186 192c-2.3 0.99-5 2-8 2.7 0.31-1.1 0.89-1.9 1.5-2.7 0 0 0.45-0.027 0.68-0.042 2 0.013 3.7 0.04 5.9 0.08z" fill="#28293d" /><path d="m185 97c-0.36-0.26-0.78-0.79-1.1-1.5 0.42 0.28 0.71 0.76 1.1 1.5z" fill="#293143" /><path d="m149 269c-0.011 3.3-1.1 4.7-4.5 2.8-1.1-0.58-2.6-0.4-4.3-0.53-0.41 0.033-0.37 0.013-0.44-0.34-3.7-2.5-7.3-4.6-11-6.8-0.24-0.015-0.73-0.043-0.75-0.42-1.3-1.4-2.7-2.5-4-3.8-0.012-0.24-0.031-0.72-0.092-1.1-0.24-1.9-0.42-3.4-0.6-4.9 0.35-0.39 0.7-0.77 1-1.2 5.3 4.9 11 7.8 18 7.5 1.5 1.9 3 3.8 4.8 6.2 0.72 1.2 1.1 1.9 1.5 2.6z" fill="#242c3d" /><path
        d="m153 256c-2.9 0.96-5.8 1.9-9.3 2.6-3.8-2.3-8.7-1.2-10-5.9 1.2-1 2.1-1.8 3.4-2.7 1.4-0.11 2.4-0.17 3.4 0.046 1.1 0.14 2.1 4e-3 3.1-0.13-0.73-0.7-1.5-1.4-2.1-2.4 1.4-2 2.5-3.8 4-5.3 0.42-0.4 2 0.36 2.8 0.79-0.44 0.72-0.67 1.2-1.1 1.8-0.42 0.42-0.63 0.76-0.84 1.1 0.14 0.033 0.37 0.13 0.4 0.088 0.27-0.37 0.51-0.76 1-1.2 0.74-0.45 1.2-0.81 2-1.2 0.76 0.078 1.2 0.15 1.5 0.55-2.2 3-4.3 5.8-6.5 8.5 0.28 0.34 0.56 0.68 0.84 1 1.6-1.1 3.2-2.2 4.7-3.4 1.7-1.4 3.4-2.9 5.2-4.2 0.34 1 0.49 1.8 0.39 2.8-1.1 2.5-2 4.7-2.8 7m-10-1.6s-0.021-0.044 0 0z" fill="#866850" /><path d="m133 253c1.8 4.5 6.7 3.3 10 5.7 0.12 0.51 0.049 0.67-0.17 1.1-7.2 0.52-13-2.3-19-7.2-0.35 0.39-0.7 0.77-1 1.2 0.18 1.5 0.36 3 0.24 4.9-2.3-0.35-4.4-1-6.7-2-1.2-2.3-2.1-4.4-2.6-6.5 3.4-0.029 7.2 3.2 9.1-2.2 3.1-0.42 5.9-0.82 8.7-0.79 0.26 0.7 0.38 0.97 0.32 1.4-0.43 0.37-0.65 0.61-1.1 0.98-0.7 1-1.1 2-1.5 2.9 1 0.19 2.1 0.37 3.1 0.56z" fill="#332e35" /><path
        d="m153 257c0.84-2.7 1.7-4.9 3.1-7.3 1.1 0.2 1.6 0.48 2.1 1.1-7e-3 0.78-7e-3 1.2-0.034 2.1-0.019 2.5-0.011 4.5-3e-3 6.6 0.025 0.71 0.05 1.4-0.29 2.6-1.1 0.56-1.9 0.69-2.7 0.82-0.72-1.8-1.4-3.7-2.2-5.9z" fill="#673920" /><g fill="#8d8d7d"><path d="m155 263c0.57-0.42 1.3-0.54 2.5-0.75 1.3 0.059 2.2 0.2 3.5 0.4 0.46 0.41 0.59 0.77 0.76 1.4-2.2-0.065-4.3-0.41-6.7-1z"/>
        <path d="m163 265c0.95 0.73 1.9 1.8 3 3.2-0.95-0.74-1.9-1.8-3-3.2z" />
        <path d="m156 275c-0.85-0.55-1.7-1.4-2.5-2.7 0.84 0.56 1.7 1.4 2.5 2.7z" />
        <path d="m149 269c-0.68-0.8-1.1-1.5-1.5-2.5 0.93 0.56 1.9 1.4 2.9 2.6-0.35 0.22-0.73 0.087-1.4-0.15z" />
        <path d="m168 272c0.62 0.41 1.3 1.1 2 2.2-0.62-0.41-1.3-1.1-2-2.2z" />
        <path d="m171 276c0.54 0.23 1.1 0.79 1.8 1.7-0.53-0.24-1.1-0.78-1.8-1.7z" /></g><path d="m83 260c0.25-2.5 0.49-5 0.65-8.1-0.1-0.96-0.12-1.3 0.13-1.7 0.92-0.42 1.6-0.77 2.6-1.1 4.1-0.35 7.8-0.73 12-0.89 0.8 1.2 1.4 2.1 1.9 3.4-1.6 4.3-2.8 8.6-7.9 9.1 0.029-0.72 0.04-1.1 0.25-1.6 0.4-0.42 0.59-0.76 0.79-1.1-0.4 0.32-0.8 0.65-1.5 1.1-7.4 4.1-14 8-21 12 2.9-2.6 5.7-5 8.7-7.4-1.7-1.1-2.7-1.9-3.3-2.8 2.8-0.3 5.2-0.42 7.5-0.55z" fill="#463531" /><path d="m98 248c-3.7 0.37-7.4 0.75-12 0.78-2.1-2.1-3.6-3.9-5.1-5.7-0.069-0.46-0.14-0.91 0.14-1.8 2.8-1.4 5.3-2.4 8.2-3.4 3-0.094 5.5-0.17 8.1 0.17 0.11 3.6 0.21 6.8 0.3 9.9z" fill="#807d69" /><path d="m71 258c-1-2.1-2-4.2-3.1-6.7-0.2-2.1-0.41-3.8-0.62-5.5 0.47-0.25 0.93-0.5 1.4-0.75 1.6 2.4 3.1 4.9 4.7 7.3l0.92-0.3c-0.38-2.7-0.76-5.4-1.1-8.1 0.58-0.16 1.2-0.32 1.7-0.49 1 3.2 2 6.4 2.8 10-1.4 2.5-2.6 4.4-4.1 6.2-1.1-0.2-1.9-0.35-2.6-0.76 0.0097-0.59-0.011-0.92-0.031-1.3z" fill="#a08166" /><path
        d="m89 238c-2.5 0.99-5 2-7.8 3.1-0.7-1.8-1.1-3.7-1.5-6.2 2.2 0.41 3.7 0.7 6.5 1.2-0.81-3.2-1.5-5.7-2.1-8.7 0.019-0.48 0.27-0.72 0.53-0.5 1.3 2.6 2.3 4.9 3.3 7.6 0.39 1.4 0.75 2.5 1.1 3.5z" fill="#71604f" /><path d="m74 260c1.2-1.9 2.4-3.8 3.8-5.9 1.8 1.6 3.4 3.4 5.1 5.5-2.2 0.43-4.6 0.55-7.7 0.7-0.85-0.098-1-0.22-1.2-0.34z" fill="#836d56" /><path d="m72 225c0.097-0.51 0.64-1 1.8-1.7 3.5 0.19 6.4 0.62 9.5 1.3 0.31 0.84 0.54 1.4 0.76 2 0 0-0.25 0.24-0.38 0.36-3.8-0.55-7.5-1.2-12-1.9z" fill="#71604f" /><path d="m81 243c1.5 1.5 3 3.2 4.6 5.3-0.5 0.68-1.1 1-2.2 1.1-0.95-1.9-1.5-3.4-2.1-5-0.1-0.39-0.21-0.78-0.36-1.5z" fill="#71604f" /><path d="m81 245c0.69 1.2 1.3 2.7 1.9 4.6 0.14 0.71 0.16 1 0.13 1.6-0.76-1.8-1.5-3.8-2.1-6.3z" fill="#807d69" /><path
        d="m53 200c0.0024-1.1 0.0048-2.1 0.43-3.6 2.8-0.75 5.2-1.1 8-1.5 7-0.96 11-5.1 15-10 3.9-5.7 4.2-5.9 9.6-1.4 0.0084 0.24 0.021 0.72-0.13 0.9-0.36 0.42-0.6 0.63-1.2 0.82-0.77 7e-3 -1.2 0.012-2 0.13-1.2 1.9-2.2 3.6-3.1 5.4 1.1 0.17 2.3 0.35 3.7 0.52 0.76 5e-3 1.2 9e-3 1.9 0.16 0.74 0.7 1.2 1.2 1.5 2.1-1 3.1-1.3 6.4-2.9 8.6-2.8 3.9-3.5 7.4-1.4 12 1.5 3.3 0.73 6.4-3.8 6.5-3.9 0.13-7.8-0.13-12-0.22-0.81-0.22-1.6-0.44-2.8-1.2-3.3-2.6-6.3-4.7-9.3-6.8-0.4 2e-3 -0.81 4e-3 -1.8-0.011-0.74-0.012-0.92-7e-3 -1.1-2e-3 0 0-0.031-7e-3 -0.058-0.36-1-2.8-1.8-5 0.51-7.4 0.8-0.83 0.38-2.9 0.52-4.3z" fill="#202b4c" /><path d="m67 220c3.8-0.26 7.7-6e-3 12-0.13 4.5-0.14 5.3-3.2 3.8-6.5-2.1-4.5-1.4-8 1.4-12 1.6-2.2 1.8-5.5 3.1-8.3 2.3 3.6 3.2 7-0.98 9.8-0.63 0.42-0.66 1.7-0.98 3 0.0061 1.4 0.027 2.5-0.12 3.8-0.26 4.8 3.6 9.5-1 14-0.094 0.089-0.28 0.27-0.28 0.27-2.9-0.42-5.8-0.85-9.2-1.2-2.7-0.75-5-1.5-7.4-2.7z" fill="#2b283f" /><path
        d="m53 200c0.11 1.5 0.53 3.5-0.27 4.3-2.3 2.4-1.6 4.6-0.52 7.4-1 0.38-2 0.41-3.5 0.46-0.57-0.025-0.76-0.063-1.2-0.15-1.2-3.8-2.7-6.5-7.4-5.7-0.88 0.16-2-1.1-3.1-1.8 1-0.81 2-2 3.2-2.3 1.2-0.28 2.7 0.15 3.8 0.7 3.4 1.7 6.1 1.1 8.1-2.6 0.19-0.3 0.68-0.3 0.92-0.3z" fill="#15213d" /><path d="m55 212c2.9 1.7 5.9 3.8 9 6.2-2.9-1.7-5.9-3.8-9-6.2z" fill="#2b283f" /><path d="m52 212c0.06-0.099 0.24-0.1 0.68-0.1 0.26 7e-3 -0.12 0.22-0.12 0.22s-0.44-0.028-0.55-0.12z" fill="#2b283f" /><path d="m71 258c0.46 0.33 0.48 0.67 0.19 1.4-0.48 0.56-0.66 0.7-0.84 0.83-0.43-0.029-0.86-0.058-1.6-0.06-1-0.46-1.7-0.95-2.5-1.8 1.4-0.36 2.8-0.4 4.7-0.44z" fill="#836d56" /><path
        d="m132 100c5.8 1.3 11 2 16 4.1 2.6 1.1 4.2 4.5 6.2 7 0.5 0.62 0.44 1.8 1 2.2 9 7.4 4 17 4.5 26 0.22 4 0.75 8 0.89 13-1 1.7-1.8 3-2.6 4.3-0.43 9e-3 -0.87 0.019-1.6-0.4-0.37-1.8-0.42-3.3-0.52-5-0.34-9.4-0.61-18-0.95-28-1.4-4.4-2.5-8.6-4.1-13-0.41-1-2.2-1.5-3.6-2.3-0.83-0.4-1.4-0.71-2.1-1.3-5.8-1.1-11-1.9-17-2.7-2.1 0.029-3.8 0.07-5.9-0.062-7.1 0.023-14 0.22-21 0.21-0.42-0.46-0.68-0.7-0.93-0.94 1.6-0.98 3-2.3 4.7-2.8 1.7-0.49 3.6-0.11 6.3-0.12 5.3-0.0093 9.6-0.018 14-0.027 2 0.0023 4.1 0.0047 6.5 0.0016z" fill="#313347" /><path d="m100 103c0.7 0.24 0.96 0.48 1.1 1.2-1.8 0.96-3.5 1.4-5.2 1.9-2.8 0.89-5.7 1.8-8.9 2.8-1.1 0.014-1.8-2e-3 -2.6-0.017-0.0016-0.41-0.0033-0.82-0.0024-1.5 4.2-4.7 9.8-4 16-4.4z" fill="#2c2d3f" /><path d="m125 100c-4.3 0.37-8.7 0.38-14 0.39 0.75-0.86 1.9-2 3.2-2.5 1.6-0.61 3.6-0.26 5-1.1 3.6-2.1 4.7-0.33 5.3 3.2z" fill="#23304f" /><path d="m83 107c-0.024 0.31-0.25 0.82-0.68 1.5 0.023-0.31 0.25-0.82 0.68-1.5z" fill="#2c2d3f" /><path
        d="m179 192c-0.27 1-0.85 1.8-1.6 2.9-4.9 0.57-9.7 0.89-15 0.85-0.36-1.1-0.36-1.8-0.36-2.6 8e-3 -0.17 0.016-0.34 0.041-0.77 5.5-0.39 11-0.51 17-0.44z" fill="#23212f" /><path d="m162 191c-1.3-0.33-2.6-1.1-3.7-2.5 0.35-1.8 0.55-2.9 0.75-4.1 1.2-1.4 2.3-2.8 3.8-4.1-0.067 3.5-0.42 6.8-0.78 11z" fill="#5f3b2c" /><path d="m159 184c0.21 1.1 0.01 2.3-0.38 3.7-6.4-0.069-8.3-2.2-7.5-8.4 0.2-1.7 0.48-3.4 1-5.2 0.63 1.6 1.3 3.4 1.3 5.1 0.02 3.7 1.9 5 5.7 4.8z" fill="#502a21" /><path d="m92 259c-0.011 0.41-0.022 0.83-0.076 1.9-0.37 1.4-0.69 2.2-1.3 3.1-0.77 0.72-1.3 1.3-1.9 2.1-0.35 0.41-0.58 0.61-1.1 0.84-0.74 0.34-1.2 0.62-2 1.1-2.5 1.3-4.5 2.9-6.9 3.6-7.8 2.2-14 6.6-20 13-0.76 0.73-1.3 1.3-2.2 1.9-1.8 1-3.2 2-4.7 2.9 0 0-0.029-0.45-0.031-0.67 0.99-1.6 1.8-3.1 3-4.3 2.9-2.9 5.9-5.6 8.9-8.6 0.42-1.1 0.76-1.9 1.2-3 0.47-0.33 0.85-0.36 1.8-0.41 1.4-0.35 2.2-0.68 3-1 7.1-4 14-7.9 22-12 0.39-0.043 0.49 0.063 0.49 0.063z" fill="#594136" /><path
        d="m70 271c-0.9 0.66-1.7 0.98-2.8 1.3 0.21-1.3 0.91-2.6 1.3-4 0.62-2.3 1-4.7 1.5-7.4 0.13-0.48 0.31-0.62 0.76-0.93 1-0.026 1.8 0.13 2.9 0.33 0.55 0.16 0.71 0.28 1.2 0.56 1.3 0.87 2.3 1.6 4 2.7-3 2.4-5.8 4.8-8.7 7.4z" fill="#342733" /><path d="m151 161c0.27-0.51 0.83-1.1 1.7-1.7-0.25 0.54-0.85 1.1-1.7 1.7z" fill="#5d3834" /><path d="m173 156c0.12-0.057 0.36 0.085 0.69 0.44-0.12 0.046-0.35-0.1-0.69-0.44z" fill="#88442a" /><path
        d="m78 151c0.1-1.4 0.21-2.7 0.72-4.4 0.93-0.28 1.5-0.26 2.1 0.062 1.7 1.8 3.2 3.2 4.8 5 0.29 0.5 0.48 0.77 0.8 1.3 0.83 0.31 1.5 0.4 2.5 0.42 0.72-0.15 1.1-0.23 1.9-0.16 1.2 0.44 2 0.75 3.1 1.1 0.22 0.043 0.65 0.13 0.45 0.36-1.2 1.2-2.3 2.2-4 3.9 8.7-2.3 16-5.2 23-5.9 7.6-0.73 15 0.68 23 1.2 0.17-0.68 0.59-2.4 1.3-4.1 0.7-0.14 1.1-0.21 1.7-0.13 0.7-0.35 1.2-0.86 1.8-1.3 0.043 0.042-0.039-0.045 0.27-0.16 0.79-1 1.3-1.9 1.8-3.1 0.075-0.42 0.089-0.58 0.42-0.8 1.1-1 1.8-2 2.6-3.2 0.046-0.24 0.18-0.7 0.46-0.84 0.86-1.2 1.4-2.3 2.1-3.5 0.47 1.2 0.92 2.4 1.3 4-0.14 1.1-0.24 1.8-0.62 2.8-1.7 4.4-3 8.5-4.4 13 0 0 0.016 0.077-0.31 0.22-0.75 1.1-1.2 2-1.6 3-0.29 0.37-0.58 0.75-1.3 1.2-0.83 1-1.2 1.9-1.6 2.8-4.2 7-12 8.2-19 10-11 3.2-22 2.7-32-2.6-3.5-1.8-8-1.6-8-7.8-0.26-1.4-0.44-2.1-0.62-3.1-0.37-0.93-0.75-1.6-1.3-2.6-0.44-1.6-0.76-2.8-1.1-4.3-0.36-0.96-0.76-1.6-1.2-2.3z" fill="#be9b80" /><path
        d="m124 178c1.1-0.29 2.2-0.57 3.9-0.69 1.8 0.071 3-0.028 4.5-6e-3 1.4 1.7 2.5 3.3 3.3 4.9-3.1 0.63-7.4-4.8-8.9 2-0.43 0.031-0.6 0.046-1.1 0.12-0.78 0.36-1.3 0.66-2.2 0.95-3.1-0.012-5.7-0.012-8.7-0.22-5.8-1.3-5.9-1.2-6.8 2.5-3e-3 0.77-6e-3 1.2-0.28 1.6-0.75-0.35-1.2-0.64-1.8-1.2-2-2.8-3.9-5.2-5.8-7.7 0.06-0.11 0.17-0.33 0.17-0.33 3.5 0.052 6.9 0.1 11 0.19 1.8-0.29 2.7-0.62 3.7-0.95 1.7-0.013 3.3-0.027 5.6 0.16 1.5-0.27 2.3-0.74 3.2-1.2z" fill="#332939" /><path d="m71 175c2.8-1 5.6-2.1 8.9-3.2 2.1 0.6 3.7 1.3 5.7 2.4 0.33 0.92 0.33 1.4 0.045 2-1.3 0.064-2.3 0.21-3.2-0.13-4.3-1.7-6.9-0.24-8.3 4-0.46 1.4-1 2.8-1.9 4-2.4 3.4-4.2 7.7-9.3 7.5-0.0018-1.1-0.0039-1.8 0.19-2.8 0.43-0.73 0.66-1.2 1.2-1.9 6.6-1.8 5.4-7.6 6.7-12z" fill="#372935" /><path d="m136 182c-1.1-1.6-2.2-3.2-3.7-5.1-0.3-0.36-0.31-0.85-0.31-0.85 0.44-0.3 0.88-0.59 1.9-0.75 2.4 0.31 4.2 0.47 6.3 0.67 3.9 0.18 5.4 2 4.2 5.3-1 2.9-3.2 3-5.6 1.5-0.54-0.34-1.2-0.43-2.1-0.65-0.24-0.015-0.72-0.045-0.72-0.045z"
        fill="#2c2a43" /><path d="m137 182c0.63 0.2 1.3 0.29 1.9 0.63 2.4 1.5 4.6 1.4 5.6-1.5 1.2-3.3-0.33-5.1-4.2-5.7-0.41-1.2-0.44-2.1-0.47-2.9 0.48-0.25 0.95-0.5 1.7-0.81 5.4 2.1 5.9 6.5 5.3 12-0.41 1.5-0.63 2.4-1.2 3.2-2.1 0.33-3.8 0.66-5.9 0.98-0.67-6e-3 -1-9e-3 -1.5-0.36-0.11-0.81-0.17-1.3-0.31-2.1-0.37-1.4-0.68-2.5-0.98-3.5z" fill="#332939" /><path d="m79 153c0.32 1.2 0.64 2.4 0.99 4.3 0.46 1.3 0.9 1.9 1.3 2.6 0.19 0.71 0.37 1.4 0.5 2.5-0.53 0.69-1 1-1.7 1.5-1.5-1.4-2.8-3-4.4-4.9 0.38-2.1 0.96-4 2-6 0.68-0.037 0.95 0.044 1.3 0.05z" fill="#331e19" /><path d="m91 175c3 1.3 6 2.6 9.2 4.1 0.15 0.3 0.04 0.52-0.33 0.73-0.85 1.1-1.3 2-2.2 2.9-2.1-1-3.8-2-5.8-3-0.47-0.014-0.66-0.018-0.83-0.28 0.027-0.43 0.035-0.6 0.049-1.1-0.041-1.4-0.088-2.4-0.13-3.4z" fill="#4d2a26" /><path d="m140 173c0.38 0.74 0.41 1.6 0.43 2.8-1.8 0.24-3.6 0.067-5.7-0.3 1.4-0.93 3.2-1.7 5.3-2.5z" fill="#452a2b" /><path
        d="m91 175c0.4 1.1 0.45 2.1 0.21 3.5-0.76 0.74-1.2 1-2 1.3-0.42 0.017-0.59 0.023-0.76-0.36-0.022-1.4-0.035-2.4-0.032-3.8 0.025-0.49 0.034-0.69 0.043-0.89 0.72 0.034 1.4 0.069 2.5 0.15z" fill="#372935" /><g fill="#452a2b"><path d="m124 178c-0.53 0.45-1.4 0.92-2.5 1.2 0.55-0.52 1.3-0.84 2.5-1.2z"/>
        <path d="m115 179c-0.68 0.49-1.6 0.82-3 1.1 0.64-0.45 1.7-0.87 3-1.1z" />
        <path d="m132 176c0.36 8e-3 0.36 0.49 0.37 0.73-1.2 0.34-2.4 0.44-3.8 0.37 0.87-0.48 2-0.8 3.5-1.1z" /></g><path d="m141 163c0.17-0.77 0.53-1.7 1.2-2.6 0.25 0.26 0.26 0.51 0.21 1.1-0.42 0.69-0.79 1-1.4 1.4z" fill="#9f846b" /><path d="m88 175c0.21 0.4 0.2 0.6-0.16 1.1-0.79 0.24-1.2 0.22-1.7 0.2-2e-3 -0.47-4e-3 -0.93-0.0049-1.8 0.54-0.14 1.1 0.079 1.8 0.49z" fill="#4d2a26" /><path d="m146 187c0.22-0.84 0.44-1.7 0.85-2.8 2.2 7 9.2 6.5 15 8.7 0.38 0.77 0.38 1.5 0.39 2.6-5.1-0.91-10-2.2-16-4-0.4-1.9-0.43-3.2-0.45-4.6z" fill="#262332" /><path d="m158 156c0.44-1.1 1.2-2.4 2.4-3.7 5.3-0.083 10-0.072 16-0.058 0.47 0.75 0.47 1.5 0.48 2.6-6.1 0.6-12 0.82-19 1.2z" fill="#332c3d" /><path d="m156 151c0.041 1.4 0.083 2.8 0.13 4.7 8e-3 0.42-0.49 0.47-0.73 0.49-1.1-0.25-1.9-0.51-2.9-1.2 1-1.6 2.3-2.8 3.5-3.9z" fill="#332c3d" /><path
        d="m156 151c-1.2 1.5-2.4 2.7-3.7 4.1-1.3 0.43-2.5 0.54-3.9 0.072 0.79-4 1.8-7.3 3.1-11 0.37-1.4 0.44-2.7 0.58-4.4 0.089-1.8 0.12-3.2 0.28-4.7-0.24-0.73-0.61-1.3-1.1-2.3-0.084-3.8-0.069-7.2 0.28-10 1.4 0.37 2.5 0.67 3.6 0.97 0.28 9 0.55 18 0.89 27z" fill="#2a2420" /><path d="m151 144c-0.99 3.4-2 6.8-3 11-0.56 0.62-1.1 0.87-1.8 1.2 1.1-4.1 2.5-8.3 4.3-12 0.46 0.26 0.53 0.44 0.6 0.62z" fill="#9f846b" /><path d="m144 159c0.13-0.79 0.54-1.7 1.2-2.8-0.12 0.8-0.54 1.7-1.2 2.8z" fill="#9f846b" /><path d="m88 267c0.26-0.17 0.49-0.37 1.1-0.89 0.91-0.9 1.4-1.5 1.9-2.1 0.33-0.79 0.65-1.6 1-2.7 5.2-1.1 6.4-5.4 8.4-9.7 1.2-0.4 1.9-0.43 3-0.27 1.7 0.38 3.2 0.58 4.6 1 0.018 0.22 0.074 0.65 0.027 1-0.13 0.81-0.21 1.3-0.29 1.7-3.1 2.2-7 3.7-9.2 6.6-3.9 5.1-9.4 7.5-15 10-4.5 2.4-8.8 5-14 7.8-1.7 1.3-2.8 2.2-3.9 3.2 0 0-0.49 7e-3 -1.1 0.087-2.3 0.37-4.1 0.66-5.8 0.95 5.6-5.8 12-10 20-12 2.3-0.65 4.4-2.2 7.1-3.6 1.1-0.5 1.5-0.78 2-1.1z" fill="#47514a" /><path
        d="m108 255c0.026-0.89 0.11-1.4 0.63-2.1 1.5-0.33 2.5-0.33 3.6 0.067 0.33 2.8 0.62 5.2 0.9 7.6-0.024 0.42-0.049 0.84-0.11 1.6-1.4 0.057-2.8-0.2-4.6-0.53-0.39-2.1-0.43-4.1-0.52-6.6z" fill="#233232" /><path d="m59 284c2-0.47 3.7-0.76 5.8-1.1-1.9 3.7-3.7 8-9.2 8.6 0.32-2.1 0.94-3.9 1.6-5.6 0.54-0.54 1.1-1.1 1.8-1.8z" fill="#3f5656" /><path d="m57 286c-0.29 1.7-0.91 3.5-1.6 5.6-0.076 0.34-0.5 0.35-0.71 0.35-0.82-0.82-1.4-1.6-2.2-2.7 1.3-1.2 2.7-2.2 4.5-3.2z" fill="#47514a" /><path d="m107 276c0.83 1.5 1.5 3.2 2.1 5.4-2.9-0.56-3.3-2.5-2.1-5.4z" fill="#38514f" /><path d="m66 283c0.78-0.89 1.9-1.8 3.4-2.9-0.79 0.89-1.9 1.8-3.4 2.9z" fill="#3f5656" /><path d="m117 257c2 0.67 4.1 1.3 6.5 2.1 0.36 0.043 0.38 0.52 0.47 1.1 1.4 1.7 2.7 2.8 4 3.9 0 0 0.49 0.028 0.85 0.35 2 2.1 3.5 3.8 5.1 5.5 0.82 5.9 6.3 7.1 10 10 1.3 1 2.5 2.3 3.9 3.8-3.2-1.4-6.9-2.8-9.7-5.1-5.3-4.6-10-9.8-15-15-1.6-1.4-3.5-2.5-5.6-4.2-0.3-1.3-0.29-2-0.28-2.8z" fill="#493e37" /><path
        d="m117 257c0.21 1 0.2 1.8 0.2 2.9-1.1 0.68-2.3 0.99-3.8 1.4-0.64-2.3-0.92-4.8-1.2-7.9 0.58-1.4 1.2-2.1 1.8-2.9 0.94 2.1 1.9 4.2 3 6.5z" fill="#47514a" /><path d="m134 270c-1.9-1.7-3.5-3.5-5.2-5.5 3.5 1.8 7.1 4 11 6.4-1.7-0.068-3.5-0.48-5.6-0.9z" fill="#332e35" /><path d="m54 174c5.2-1.5 10-2.8 16-4.2 0.27 1.2 0.25 2.6-0.16 4.5-4.5 0.93-7.3 2.9-8 7.3-1.4-0.38-2.6-0.68-3.7-0.98-1.1-1.6-2.1-3.3-3.6-4.9-0.39-0.44-0.41-0.87-0.44-1.6z" fill="#68321a" /><path d="m58 181c1.3-7e-3 2.4 0.3 3.9 1.1 1 1.9 1.7 3.3 2.4 4.7-0.23 0.51-0.47 1-1.3 1.8-3.7 1.5-6.8 2.8-9.9 4.1 1.5-3.8 3.1-7.6 4.8-12z" fill="#562f20" /><path d="m53 193c3.3-1.4 6.4-2.7 9.8-4 0.36 0.72 0.37 1.4 0.11 2.7-0.75 1.4-1.2 2.3-1.7 3.2-2.4 0.35-4.8 0.69-7.6 1-0.63-0.53-0.84-1.1-1.2-1.8-0.025-0.5 0.17-0.74 0.59-1.1z" fill="#35262e" /><path d="m70 167c-1.1 0.16-2.2-0.045-4-0.33-2.5 0.54-4.2 1.2-5.9 1.8-5.4 0.36-11 0.72-17 1.1-1.4-2.6-1.3-4.8 1.4-6.4 4.8-3 9.1-7.6 16-3.9 0.73 0.42 1.9 0.033 2.9-0.027 6.1-0.37 7.8 1.5 6.6 7.8z"
        fill="#a9582d" /><path d="m80 127c0.19-1 0.38-2.1 1-3.6 2.1-1.4 3.7-2.4 5.7-3.3 1.1 0.034 1.8 0.056 2.7 0.34 1.1 0.37 2 0.49 3.4 0.61 2.4-0.091 4.5 0.21 6.3-0.39 2.2-0.74 4.2-2.2 6.6-3.5 2.6-1.8 4.9-3.5 7.5-5 6.4 7 5.6 9.9-3.1 12-0.93 0.27-1.9 0.34-3.1 0.33-1-0.075-2.1-0.26-2.5 0.17-3.2 3.5-3.6 11-1.1 15-2.1 2.3-4.1 4.3-6.1 6 0.075-0.2 0.068-0.62-0.11-0.92-2.8-0.36-5.4-0.42-8.2-0.64-1.1-0.73-2-1.3-2.9-2.2-0.15-0.73-0.24-1.1-0.22-1.9 0.14-0.73 0.17-1.2 0.38-1.9 1.8-2.5 3.4-4.8 5-7.4 0.027-1.5 0.018-2.5 0.19-3.8 0.57-4.3-1.7-3.5-4.1-2.7-2.4 0.77-5 1.3-7.4 2z" fill="#c2a289" /><path d="m86 120c-1.6 0.95-3.3 1.9-5.2 3 0.71-4.4 1.7-8.9 3-14 0.94-0.3 1.7-0.29 3.2-0.26 5.6-0.3 10-0.61 15-0.52-0.1 1.5-0.15 2.5-0.52 3.7-0.53 0.14-0.75 0.21-1.3 0.25-3.1 0.19-5.8 0.42-8.8 0.64-4.5 0.64-6.7 2.6-5.3 7.1z" fill="#ad907c" /><path d="m79 127c2.7-0.94 5.3-1.5 7.7-2.3 2.5-0.77 4.7-1.6 3.8 2.6-6.3-1.7-8 3.3-11 6.4-0.42 0.024-0.59 0.039-0.76 0.055 0.043-2.1 0.086-4.3 0.38-6.7z" fill="#ad907c" /><path
        d="m79 134c0.4-0.35 0.57-0.37 1.2-7e-3 0.65 4.2 0.87 8 1.1 12-0.52-0.025-1-0.051-1.9-0.11-0.44-3.8-0.49-7.5-0.31-12z" fill="#665451" /><path d="m79 153c-0.33 0.3-0.6 0.22-1.1-0.029-0.2-0.57-0.2-1-0.15-1.9 0.44 0.3 0.84 0.96 1.2 1.9z" fill="#665451" /><path d="m64 187c-1-1.3-1.7-2.7-2.4-4.5 0.37-4.8 3.1-6.8 7.6-7.4 0.55-0.079 0.72-0.07 1.2-0.051-1 4.4 0.18 10-6.4 12z" fill="#663929" /><path d="m168 212c2-4.8 5.6-8.4 10-9.8 2.3-0.69 5.3 0.98 8 1.6-1.4 1.7-2.6 3.6-4.2 5.1-0.9 0.88-2.3 1.2-3.8 2-1.1 0.36-2 0.56-3.5 0.96-2.8 0.18-4.8 0.16-6.9 0.14z" fill="#15213d" /><path d="m168 212c2.5 3e-3 4.5 0.02 7 0.041 1.7 2.4 3.1 4.9 4.4 7.7-2.4-1.3-4.8-3-7.5-4.7-3 0.34-5.7 0.71-9.2 1.1-2.9 1.3-5.1 2.5-7.3 3.4 0.033-1.4 0.057-2.5 0.08-3.5 4-1.4 8-2.7 12-4.1z" fill="#332835" /><path d="m184 240c-1.5-5.6-3.1-11-4.3-17 1.3 2.7 2.3 5.5 3.4 8.9 0.37 1.8 0.7 2.9 1 4 5e-3 0.75 9e-3 1.5-7e-3 2.9-0.038 0.83-0.056 1-0.073 1.2z" fill="#332835" /><path
        d="m184 236c-0.52-0.83-0.85-1.9-1.2-3.4 0.45 0.8 0.91 2 1.2 3.4z" fill="#2b283f" /><path d="m184 240c0.016-0.5 0.033-0.68 0.074-1.1 0.66 0.52 1.3 1.3 1.9 2.4-0.44 0.32-0.89 0.31-1.7 0.29-0.34-0.43-0.33-0.85-0.32-1.6z" fill="#2b283f" /><path d="m146 187c0.4 1.4 0.42 2.7 0.45 4.5-5.9 2-6.7 4.1-4.5 9.3 0.66 1.6-0.52 3.9-1.2 5.7-1.3-0.98-2.3-1.7-3.7-2.6-1.1-0.22-1.8-0.36-2.5-0.73-0.027-0.52-0.022-0.83 0.26-1.3 0.034-2.1-0.19-4.1-0.13-6.2 2.1-2.7 3.9-5.3 5.7-7.8 1.7-0.33 3.5-0.65 5.6-0.98z" fill="#2a2a40" /><path d="m140 209c-0.093 3.4-3.1 6.9-0.44 11-2.7 0.026-5.1-0.3-7.7-0.87-0.74-1.4-1.3-2.6-1.5-4 2.1-1.8 3.8-3.5 5.7-5.4 0.41-0.64 0.73-1 1.3-1.2 1.1 0.39 1.9 0.57 2.7 0.76z" fill="#26283f" /><path d="m132 219c2.4 0.33 4.8 0.65 7.6 0.97 4.1-0.032 7.8-0.054 12-0.048 0.48 0.028 0.51 0.12 0.31 0.47-1.7 0.99-3.1 1.6-5 2.2-4.2-1-7.4-0.45-9.9 2.7-1.1-1-2-1.7-3.2-2.6-0.76-1.4-1.3-2.6-1.8-3.8z" fill="#332835" /><path
        d="m140 209c-0.83 0.13-1.7-0.055-2.7-0.83-0.26-1.6-0.25-2.7-0.24-3.7 0.99 0.76 2 1.5 3 2.6 0.015 0.76-2e-3 1.2-0.03 1.9z" fill="#3c262c" /><path d="m155 216c0.31 0.96 0.29 2-0.11 3.4-1.1 0.45-1.8 0.48-2.6 0.51 0 0-0.034-0.095-0.053-0.14 0.78-1.3 1.6-2.5 2.7-3.8z" fill="#26283f" /><path d="m159 221c1.8-0.75 3.8-1.2 5.3-2.3 3.1-2.2 6.4-1.3 6.9 1.6 2 10 8.1 19 7 30-0.48 4.7-6.1 8.3-11 6.2-0.52-1.4-0.81-2.1-0.76-3.1 9-1.9 9.5-1.9 9.1-8.4-0.3-6.1-3.3-11-9.3-14-4.4-2.2-6.4 0.72-9.3 2.2-0.37-2-0.42-3.7-0.75-5.4-0.23-1.2-0.82-2.3-1.1-3.8 1.3-1.2 2.6-2 3.8-2.9z" fill="#9f4f2b" /><path d="m159 220c-1.4 1.1-2.6 2-4.1 3.3-0.52 0.64-0.72 0.86-1.2 1.2-1.1 0.084-1.9 0.13-2.9 1e-3 -1.3-0.84-2.3-1.5-3.4-2.2 1.5-0.64 2.9-1.3 4.6-2.3 0.93-0.37 1.7-0.4 2.7-0.46 2.5-1.3 4.7-2.5 7.3-3.8-0.7 1.3-1.8 2.7-3 4.3z" fill="#50312e" /><path d="m166 253c0.29 0.79 0.58 1.6 0.91 2.7-2.7 1.3-5.5 2.3-8.6 3.3-0.38-2-0.39-4-0.077-6.5 1.8-0.082 3.3 0.19 5.2 0.46 1.1 5e-3 1.9 9e-3 2.6 0.012z" fill="#975231" /><path
        d="m60 169c1.3-0.64 3.1-1.3 5.2-1.9-1.3 0.64-3.1 1.3-5.2 1.9z" fill="#945335" /><path d="m128 264c-1.3-0.72-2.6-1.8-3.9-3.2 1.3 0.74 2.6 1.8 3.9 3.2z" fill="#332e35" /><path d="m147 223c1.4 0.71 2.5 1.4 3.8 2.6 0.82 1.4 1.4 2.3 1.9 3.5 0.16 1.3 0.3 2.3 0.3 3.4 0.17 0.75 0.48 1.3 0.87 2.2 0.15 1.1 0.21 1.8 0.095 2.8 0.16 1.4 0.51 2.6 0.91 4.1 0.066 0.74 0.077 1.2-0.23 1.7-1.4 0.38-2.5 0.68-3.6 0.99-0.43-0.069-0.86-0.14-1.8-0.37-0.67-0.35-0.89-0.52-1.1-0.66-1-0.23-2.6-0.99-3-0.59-1.5 1.4-2.6 3.3-4 5.3-0.11 0.33-0.086 0.29-0.34 0.46-0.42 0.73-0.59 1.3-0.74 1.8 0.022-0.015-0.02-0.047-0.02-0.047-0.99 0.059-2 0.12-3.7 0.23-2-0.18-3.3-0.4-4.6-0.63 0.18-0.28 0.39-0.52 1.1-1 6.3-3.5 6.4-9.2 6.9-15-0.23-1.1-0.55-1.9-0.87-2.7-0.59 0.34-1.2 0.67-2.1 0.94-3.7-2.5-0.11-4.1 0.45-6 2.3-3.5 5.6-4.1 9.7-3.1z" fill="#bb997e" /><path
        d="m155 243c-0.011-0.43-0.023-0.85-0.025-1.9-0.26-1.8-0.52-2.9-0.79-4-0.067-0.74-0.13-1.5-0.26-2.9-0.29-1.1-0.52-1.6-0.76-2.1-0.13-0.96-0.27-1.9-0.17-3.5 0.5-1.7 0.76-2.6 1-3.6 0.16-0.25 0.36-0.47 0.77-0.79 0.61 1 1.2 2.1 1.4 3.3 0.32 1.7 0.37 3.4 0.75 5.8 0.21 1.4 0.22 2.1 0.28 3.1 0.34 0.77 0.63 1.3 0.92 2.1 3e-3 0.77 5e-3 1.2 0.024 2 0.34 1.1 0.65 1.9 0.97 3.1 3e-3 2.1 5e-3 3.9-0.15 5.8-0.37 0.43-0.62 0.64-0.89 0.82-0.53-0.27-1.1-0.54-1.9-0.94-0.42-0.92-0.57-1.7-0.9-3.2-0.24-1.4-0.31-2.2-0.38-2.9z" fill="#975231" /><path d="m154 243c0.39 0.69 0.46 1.5 0.52 2.6-1.7 1.9-3.3 3.4-5 4.8-1.5 1.2-3.2 2.3-4.7 3.4-0.28-0.34-0.56-0.68-0.84-1 2.1-2.7 4.3-5.4 6.5-8.5 1.1-0.63 2.2-0.93 3.6-1.3z" fill="#b28a6b" /><path d="m131 250c1.6 0.14 2.9 0.36 4.6 0.59-0.57 0.81-1.5 1.6-2.7 2.6-1.3 0.027-2.3-0.16-3.4-0.35 0.38-0.93 0.77-1.9 1.5-2.9z" fill="#a68972" /><g fill="#a08166"><path d="m141 248c0.71 0.68 1.4 1.4 2.2 2.1-0.99 0.14-2 0.27-3.1 0.13-0.087-0.28-0.045-0.25 0.14-0.43 0.39-0.73 0.59-1.3 0.79-1.8 0 0-0.024 0.045-0.044 0.028z"/>
        <path d="m148 243c0.45-0.06 0.67 0.11 1 0.45-0.32 0.52-0.77 0.88-1.5 1.3-0.31 0.051-0.37-4e-3 -0.37-4e-3 0.23-0.52 0.47-1 0.91-1.7z" />
        <path d="m147 245c-0.22 0.42-0.46 0.81-0.73 1.2-0.034 0.046-0.26-0.055-0.4-0.088 0.21-0.35 0.42-0.69 0.84-1.1 0.21-0.07 0.27-0.015 0.3 0.014z" /></g><path d="m142 255c-0.01-0.022 0.01 0.022 0 0z" fill="#b28a6b" /><path d="m114 250c-1 0.7-1.6 1.4-2.2 2.4-1.1 0.31-2.1 0.31-3.6 0.29-0.39-0.013-0.45-0.45-0.63-0.96-1.7-0.64-3.2-0.76-4.8-0.89-0.74 0.024-1.5 0.047-2.6 0.098-0.92-0.92-1.5-1.9-2.3-3-0.34-3.4-0.44-6.6-0.45-11 0.48-2.8 0.89-4.7 1.7-6.6 1.1-5e-3 1.9-0.011 2.6 0.37-0.066 3.8 2 4.7 5 5-0.49 1.9-1.6 3.6-1.3 5 0.47 2.2 1.4 5.4 3 6.1 2.8 1.2 5-0.79 5.3-4 0.15-1.5 0.096-3 0.47-4.5 1.4-0.29 2.4-0.58 3.9-0.83 1.4 1.2 2.9 2.2 3.4 3.6 0.77 1.9 0.86 4.2 1.2 6.3-1.5 5.4-5.4 2.2-8.7 2.2z" fill="#241f19" /><path d="m123 248c-0.8-2.1-0.89-4.3-1.7-6.2-0.54-1.4-2-2.4-3.4-4 1.6-1.8 3.6-3.3 5.7-4.4 1.3 1.2-1.2 5.4 3.4 3.5 1.3-0.5 2.2-1.1 3.1-1.1 1.5-0.13 3.9-0.51 4.5 0.26 0.88 1.2 1.1 3.5 0.58 5-0.72 2.1-2.4 3.9-3.6 5.8-2.7 0.4-5.5 0.8-8.6 1.2z" fill="#7b7565" /><path
        d="m132 247c1.1-2.3 2.8-4.1 3.5-6.2 0.52-1.5 0.3-3.8-0.58-5-0.55-0.78-2.9-0.39-4.5-0.26-0.95 0.078-1.8 0.65-3.1 0.77 0.68-2.5 1.7-4.9 3-7.3 1.4-2.2 2.5-4.1 3.6-6.1 0.94 0.66 1.9 1.3 2.9 2.3-0.43 2.3-4 3.8-0.17 6.7 1.2 0.82 2 1.3 2.7 1.7-0.35 5.6-0.5 11-6.6 15-0.42-0.15-0.54-0.42-0.8-1.1z" fill="#6e5e49" /><path d="m158 250c0.28-0.52 0.52-0.73 1.2-1.1 1.6 1.2 2.7 2.5 3.8 3.7-1.5-0.27-3-0.54-4.8-0.9-0.29-0.53-0.29-0.98-0.28-1.8z" fill="#9f4f2b" /><path d="m92 259c0.35-0.38 0.75-0.7 1.2-1-0.2 0.34-0.39 0.68-0.79 1.1-0.2 0.084-0.31-0.022-0.36-0.076z" fill="#594136" /><path d="m99 231c-0.41 1.9-0.81 3.8-1.3 6.2-2.7 0.51-5.2 0.59-8.2 0.68-0.77-1-1.1-2.1-1.2-3.6 0.75-1 1.2-1.6 2.1-2.2 2.1-0.68 3.8-1.4 5.9-2 1.1 0.34 2 0.62 2.8 0.93-0.0082 0.017-0.026 0.048-0.026 0.048z" fill="#393033" /><path d="m90 232c-0.48 0.6-0.97 1.2-1.7 1.9-1.3-2.2-2.3-4.6-3.5-7.1-0.48-0.78-0.7-1.3-1-2.2-0.089-0.29 0.099-0.46 0.57-0.54 1.2-0.067 2-0.06 2.8 0.3 1 2.8 2 5.2 2.9 7.6z" fill="#4c2d1d" /><path
        d="m88 180c0.17-6e-3 0.34-0.012 1.1-0.032 1-0.01 1.4-6e-3 1.9-2e-3 0.19 4e-3 0.38 8e-3 0.81 0.39-0.11 1.8-0.46 3.2-1.2 4.6-1.4 1.1-2.4 2.1-3.4 3.2 1.2 1 2.5 2 3.7 3.3 1.1 0.96 2.2 1.6 3.3 2.3 0.6-1.6 1.2-3.2 2.1-4.9 0.73-1.4 1.2-2.7 1.7-4.2 0.0082-0.75 0.015-1.2 0.021-1.6 0.48-0.91 0.96-1.8 1.8-2.8 2.2 2.3 4.1 4.8 5.8 7.6-1.7 1.6-3.1 2.9-4.8 4.3-0.24 0.013-0.72 0.039-1 0.17-1.4 3-2.6 6-4.1 8.9-2.8 1.7-5.2 3.3-8 4.9-1.1 0.052-1.9 0.083-2.6 0.11 0.31-0.91 0.33-2.2 0.96-2.7 4.2-2.8 3.2-6.3 1.2-10-0.74-0.84-1.2-1.4-2.1-2.4-0.27-2.3-0.19-4.1-0.11-5.9 0.26-0.19 0.49-0.4 1.1-0.99 0.9-1.2 1.4-2.1 1.9-3.2 0.015-0.24 0.06-0.73 0.06-0.73z" fill="#3c262c" /><path d="m88 180c0.0097 0.39-0.035 0.87-0.33 1.2-0.78 0.96-1.3 1.6-1.8 2.2-5.3-4.2-5.6-4.1-9.6 1.6-3.6 5.2-8 9.3-15 10 0.12-0.86 0.61-1.7 1.4-2.8 5.4-0.36 7.2-4.7 9.6-8 0.85-1.2 1.4-2.6 1.9-4 1.4-4.3 4-5.7 8.3-4 0.87 0.34 1.9 0.2 3.2 0.13 0.73-0.13 1.2-0.11 2-0.052 0.34 1.1 0.36 2.1 0.38 3.5z" fill="#262b47" /><path
        d="m83 191c-1.1-0.17-2.3-0.35-3.4-0.52 0.92-1.8 1.8-3.5 3.1-5 0.31 2 0.33 3.8 0.34 5.6z" fill="#262b47" /><path d="m83 191c-0.34-1.8-0.36-3.6-0.35-5.7 0.46-0.35 0.9-0.36 1.7-0.37 0.25 1.8 0.17 3.6 0.2 5.7-0.33 0.31-0.76 0.31-1.5 0.31z" fill="#2b283f" /><path d="m86 183c0.48-0.85 0.96-1.5 1.7-2.2-0.2 0.78-0.69 1.7-1.4 2.7-0.26 0.17-0.28-0.31-0.28-0.55z" fill="#2b283f" /><path d="m87 224c-0.76-7e-3 -1.5-0.014-2.7-0.036 4.1-4.3 0.27-9 0.88-14 2.3 1.8 4 3.7 5.8 6 0.69 1.1 1.3 1.9 1.6 2.9-2.1 1.7-3.9 3.3-5.7 4.8z" fill="#3c262c" /><path d="m91 216c-1.7-2-3.5-4-5.6-6-0.37-1.1-0.39-2.1-0.4-3.5 0.76-0.42 1.5-0.45 3-0.45 4.3 2.7 6.3 5.7 3 10z" fill="#603b34" /><path d="m145 107c0.54 0.3 1.1 0.61 1.9 1.4 0.47 2.9 0.66 5.4 0.46 7.8-1.4 0.013-2.5 0.021-3.5-0.32 0.64-4.7-3.7-2-5.2-3.9-2.5-0.39-4.7-0.55-6.8-1.1 9.3e-4 -1.2-0.01-1.9-0.014-2.7 8e-3 0.021-0.036 0.013 0.36-0.052 4.6-0.42 8.7-0.78 13-1.1z" fill="#9f846b" /><path
        d="m102 108c-4.8 0.31-9.5 0.61-15 0.89 2.4-0.95 5.2-1.9 8.1-2.8 1.7-0.53 3.4-0.98 5.4-1.7 7-0.46 14-0.66 21-0.47-0.99 0.88-2.1 1.4-3.5 1.8-1.5 0.071-2.7 0.22-4.4 0.33-4.2 0.69-8.5-2-12 2-6.9e-4 -0.032 0.063-0.028 0.063-0.028z" fill="#7f6857" /><path d="m118 106c1.1-0.5 2.2-0.99 3.6-1.7 1.9-0.25 3.6-0.29 6-0.09 1.8 1.5 3 2.8 4.1 4 0 0 0.044 8e-3 -0.3 0.067-3.3 2-6.3 3.6-9.5 0.43-0.37-0.36-1.8 0.33-2.9 0.36-0.49-1.1-0.72-2.1-0.95-3.1z" fill="#ac8f75" /><path d="m148 116c-0.19-2.4-0.39-4.9-0.56-7.7 1.2 0.33 2.9 0.82 3.3 1.8 1.6 4 2.8 8.1 4.1 13-1 0.08-2.1-0.22-3.6-0.84-0.76-0.81-1.1-1.3-1.4-2.1-0.66-1.5-1.3-2.6-1.9-3.7z" fill="#3c352e" /><path d="m132 108c-1.5-1.2-2.7-2.4-4.1-3.9 5.4 0.58 11 1.4 17 2.5-4 0.65-8.1 1-13 1.4z" fill="#7f6857" /><path d="m91 264c-0.2 0.51-0.68 1.1-1.5 1.8 0.2-0.51 0.68-1.1 1.5-1.8z" fill="#463531" /><path d="m88 267c-0.2 0.22-0.67 0.5-1.4 0.84 0.2-0.22 0.67-0.5 1.4-0.84z" fill="#463531" /><path
        d="m97 147c2-2 4.1-3.9 6.4-6.3 0.52-0.67 0.72-0.92 1.3-1.2 2.7-0.66 5-1.3 7.7-1.9 1.1 0.074 1.8 0.16 2.6 0.57 0.52 2.6 1.3 5.4 4 2.6 3.3-3.2 6.2-2.1 9.8-0.54 2.1 1 4 1.9 6 3.1 0.86 0.43 1.5 0.6 2.5 0.9 2.5 0.14 4.8 0.14 7 0.14-0.014 0.17-0.028 0.34-0.39 0.88-0.85 1.3-1.3 2.2-1.8 3 0 0 0.082 0.087-0.27 0.078-0.78 0.37-1.2 0.75-1.6 1.1-0.4 0.071-0.8 0.14-1.9 0.25-3.8 0.38-7.4 2-9.8 0.86-8-3.8-15-3.6-23 0.35-2.4 1.2-6 0.17-9.2-0.089 0.28-1.5 0.67-2.7 1.1-3.9z" fill="#332016" /><path d="m96 151c3.1 0.012 6.6 1.1 9.1-0.16 7.9-4 15-4.2 23-0.35 2.4 1.1 6.1-0.47 9.5-0.79-0.036 1.7-0.46 3.4-0.63 4.1-7.9-0.49-16-1.9-23-1.2-7.4 0.71-15 3.6-23 5.9 1.8-1.7 2.8-2.7 4.2-4.2 0.61-1.4 0.82-2.4 1-3.3z" fill="#896b52" /><path d="m81 146c-0.36-4.1-0.58-7.9-0.98-12 2.7-3.4 4.4-8.4 11-6.5 0.33 1.2 0.34 2.3-0.069 3.8-4.6 0.78-7.2 2.5-6.5 7.6 0.45 0.87 0.92 1.4 1.4 2 0.088 0.41 0.18 0.83 0.19 1.8 0.33 1.6 0.45 2.9 1.2 3.5 3.2 2.4 1.5 3.6-0.98 4.7-1.5-1.5-3.1-3-4.7-4.7z" fill="#3e2516" /><path
        d="m147 140s-0.13 0.47-0.53 0.67c-0.95-0.48-1.5-1.2-2-2.2-0.025-1.7-0.13-3-0.18-4.7-2.1-0.86-4.3-1.4-6.5-1.9-0.023 0.04 0.049-0.017 4e-3 -0.44-0.044-2.1-0.044-3.8 0.19-5.7 0.72-0.47 1.2-0.76 2-0.93 2.3 1.3 4.2 2.5 6.3 3.9 0.25 0.54 0.43 0.82 0.57 1.6 0.018 3.5 0.068 6.6 0.12 9.7z" fill="#563a22" /><path d="m148 140c-0.33-2.9-0.38-6-0.071-9.7 1.1-3.8 1.8-7 2.5-10 0.3 0.48 0.59 0.97 1 1.7 0.12 3.6 0.11 7 0.16 11 0.37 1.2 0.67 1.7 0.97 2.2-0.027 1.4-0.053 2.8-0.36 4.5-0.28 0.41-0.72 0.48-0.72 0.48-0.45-1.2-0.91-2.4-1.4-3.6-0.64 1.2-1.2 2.3-2.1 3.5z" fill="#9f846b" /><path d="m86 151c2.3-1.3 4.1-2.5 0.88-4.9-0.73-0.55-0.86-1.9-1.1-3.1 0.98 0.3 1.8 0.87 3.1 1.9 3 0.53 5.6 0.58 8.2 0.63 0 0 0.0068 0.42-0.068 0.62-0.46 1.4-0.85 2.6-1.1 4.1-0.1 1.2-0.31 2.1-0.73 3.3-0.2 0.29-0.64 0.2-0.88-0.17-0.57-1.2-0.89-2-1.2-2.8-0.73 0.63-1.5 1.3-2.2 1.9-0.41 0.076-0.83 0.15-1.8 0.091-1.2-0.23-1.8-0.33-2.4-0.43-0.19-0.27-0.38-0.54-0.67-1z" fill="#674d3a" /><path
        d="m145 139c0.56 0.68 1.1 1.4 2 2.1-0.39 0.99-1.1 2-2.2 3-2.5 0.05-4.8 0.053-7.1-0.44 2.3-1.9 4.8-3.2 7.3-4.6z" fill="#9f846b" /><path d="m91 153c0.41-0.77 1.1-1.4 1.9-2 0.33 0.81 0.65 1.6 1 2.8-0.84 0.021-1.7-0.28-2.9-0.72z" fill="#896b52" /><path d="m151 140c0.034-0.37 0.47-0.44 0.69-0.44 0.14 1.3 0.067 2.5-0.3 3.9-0.36-0.044-0.43-0.22-0.61-0.67-0.01-1 0.091-1.7 0.23-2.8z" fill="#3c352e" /><g fill="#896b52"><path d="m142 148c0.19-0.77 0.68-1.7 1.5-2.7-0.19 0.77-0.68 1.7-1.5 2.7z"/>
        <path d="m87 153c0.49-0.13 1.1-0.03 2 0.28-0.45 0.12-1.1 0.034-2-0.28z" />
        <path d="m140 149c0.24-0.53 0.67-0.91 1.4-1.3-0.2 0.47-0.71 0.97-1.4 1.3z" /></g><path d="m82 160c-0.44-0.35-0.88-0.98-1.2-1.9 0.47 0.34 0.85 0.99 1.2 1.9z" fill="#665451" /><path d="m96 201c1.1-2.9 2.3-5.8 3.7-8.5 0.21 1.1 0.21 1.9-1.2e-4 2.7-0.67 2.5-0.3 4.8 2.6 4.5 1.8-0.17 4.6-1.7 5-3.1 1.7-6.3-3.5-4.1-6.4-4.7 1.4-1.3 2.9-2.6 4.7-3.9 0.83 0.26 1.3 0.55 2.2 1.2 2.5 2.4 7.1 1.3 6.8 5.9-2.8 2.6-5.3 5.1-8 7.8-0.7 0.48-1.2 0.79-1.9 1.2-2.1 0.034-3.9-0.051-6-0.36-1.1-1.1-1.9-1.9-2.8-2.8z" fill="#2f2938" /><path d="m115 195c-4e-3 -4.6-4.6-3.6-6.9-5.9-0.12-0.74-0.12-1.2 0.15-1.7 1.8 0.39 3.3 0.87 5.3 1.4 3.4 0.34 6.5 0.67 9.5 1.3 0.34 2.2 0.61 4 0.46 5.8-3.1-0.34-5.9-0.64-8.6-0.94z" fill="#2e2635" /><path d="m126 184c0.17-0.014 0.34-0.029 1.2-0.049 3.4 0.59 6.1 1.2 8.5 1.9-1.4 1.8-2.5 3.5-3.8 5.5-3 2.4-5.1 2.2-5.9-1.8 0.023-0.2 0.093-0.58 0.28-0.73 0.43-0.36 0.64-0.61 0.81-1.1-7e-3 -0.23-0.021-0.69-0.14-0.99-0.37-1.1-0.63-1.9-0.88-2.7z" fill="#49251b" /><path
        d="m126 189s-0.07 0.39-0.45 0.62c-1.1 0.26-1.8 0.29-2.5 0.31-3-0.33-6-0.66-9.4-1.3 0.25-1.4 0.88-2.5 1.5-3.6 2.7-3.5e-4 5.3-6.9e-4 8.5 0.3 1.5 0.78 2.4 1.2 3.3 1.7 0 0 0.014 0.46-0.17 0.84-0.42 0.6-0.63 0.84-0.81 1.1z" fill="#604135" /><path d="m136 186c-2.7-0.59-5.4-1.2-8.6-1.8 0.83-6.8 5.1-1.4 8.2-2 0.38-9e-4 0.87 0.029 1.1 0.044 0.54 1.1 0.84 2.2 0.88 3.6-0.72 0.28-1.2 0.24-1.6 0.19z" fill="#3f2a2c" /><path d="m115 185c-0.31 1.3-0.94 2.4-1.6 3.8-1.6-0.18-3.1-0.67-4.9-1.4 0.58-3.6 0.73-3.7 6.5-2.4z" fill="#3c262c" /><path d="m127 187c-0.8-0.17-1.7-0.65-2.8-1.4 0.36-0.59 0.85-0.89 1.6-1.3 0.54 0.75 0.79 1.6 1.2 2.7z" fill="#4a302b" /><path d="m136 186c0.79-0.091 1.2-0.045 2 9.7e-4 0.41 0.46 0.47 0.93 0.45 2.1-1.4 1.6-2.8 2.4-4.4 3.2-0.79-0.064-1.2-0.072-1.7-0.08 1.1-1.7 2.2-3.4 3.7-5.2z" fill="#68483b" /><path d="m134 191c1.3-0.86 2.7-1.7 4.1-2.9 0.51-0.35 0.89-0.34 1.6-0.34-1.5 2.5-3.3 5.1-5.5 7.8-0.29 0.18-0.3 0.17-0.29-0.23 0.022-1.7 0.035-3 0.049-4.3z" fill="#3c262c" /><path
        d="m98 183c0.34 0.48 0.33 0.91 0.012 1.8-1.2 1.1-2 1.8-3.1 2.3-1.4-0.76-2.5-1.4-3.5-2.1 0.35-1.4 0.71-2.8 1.1-4.6 1.8 0.6 3.5 1.6 5.6 2.6z" fill="#61352d" /><path d="m91 180c-0.45 0.25-0.87 0.25-1.6 0.25 0.16-0.28 0.64-0.57 1.4-0.94 0.27 0.094 0.26 0.26 0.23 0.69z" fill="#262b47" /><path d="m152 135c-0.43-0.29-0.73-0.77-1-1.5 0.4 0.26 0.77 0.8 1 1.5z" fill="#3c352e" /><path d="m103 251c1.2-0.054 2.7 0.071 4.4 0.49-1.3 0.092-2.7-0.11-4.4-0.49z" fill="#2d3e3e" /><path
        d="m145 139c-2.6 1.8-5 3.1-7.7 4.8-0.82 0.19-1.5 0.024-2.3-0.8-2.6-3.7-4.3-6.9-3.1-11 0.21-0.69-1.5-2-2.4-3-0.63 0.97-1.9 2-1.8 2.9 0.3 3.4-1.4 3.1-3.9 3.2-3.9 0.091-7.7 0.94-12 1.5-2.4 0.26-4.5 0.52-6.5 0.4 0.63-4.1 1.3-7.7 1.9-11 0.96-0.16 2-0.23 2.9-0.5 8.7-2.6 9.5-5.4 3.2-13-0.21-1.2-0.14-2 0.14-2.9 0.44-1.1 0.67-1.9 0.91-2.7 1.2-0.14 2.4-0.29 3.9-0.36 0.55 1 0.78 2 1.3 3.5 0.46 1.3 0.61 2 0.78 3.1 3.3 7.5 16 9.4 23 3.8 0.41-0.058 0.58-0.08 0.75-0.1 1-8e-3 2.1-0.017 3.5-0.03 1 1.1 1.6 2.3 2.3 3.7-0.67 3.5-1.4 6.7-2.4 10-0.5-0.12-0.68-0.41-0.85-1.3-1.1-4.2-2.6-6.8-6.7-3.6-0.49 0.29-0.98 0.59-2 1.2-2.3 2.4-2.8 4.4 0.18 6 0 0-0.072 0.056 0.031 0.32 2.2 0.81 4.3 1.4 6.4 1.9 0.1 1.3 0.2 2.6 0.23 4.4z" fill="#c09f84" /><path d="m86 120c-1.8-4.5 0.46-6.4 5-6.7 1.6 2.8 2 6.7 5.7 5.4 1.7-0.64 2.3-4.1 3.5-6.4 0.21-0.066 0.42-0.13 1.2-0.017 1.5 1.7 2.4 3.3 3.3 4.9-2.1 1.2-4.1 2.7-6.3 3.4-1.8 0.6-3.9 0.3-6.6 0.2-1.6-0.36-2.4-0.52-3.3-0.68-0.73-0.022-1.5-0.044-2.5-0.078z"
        fill="#9f866f" /><path d="m105 117c-1.3-1.4-2.2-3-3.4-4.8-0.19-1.3-0.14-2.4-0.042-3.8 0.054-0.4-0.01-0.4 0.28-0.18 3.6 3.3 7.1 2.6 11 0.84-0.065 0.71-0.13 1.4-0.23 2.5-2.3 2-4.6 3.7-7.3 5.5z" fill="#684c34" /><path d="m107 125c-0.36 3.9-0.99 7.5-1.8 12-0.34 1.2-0.5 1.8-0.66 2.4-0.17 0.27-0.37 0.52-0.82 0.85-2.9-4-2.4-11 0.77-15 0.4-0.43 1.5-0.25 2.5-0.17z" fill="#9f846b" /><path d="m84 139c-0.75-4.7 1.9-6.5 6.5-6.9-1.2 2.2-2.8 4.4-4.9 6.9-0.83 0.15-1.2 0.044-1.6-0.065z" fill="#ad907c" /><path d="m97 146c-2.4 0.25-5 0.19-7.8-0.17 2.4-0.25 5-0.19 7.8 0.17z" fill="#ac8f75" /><path d="m89 120c0.73-0.099 1.6 0.061 2.7 0.41-0.68 0.076-1.6-0.038-2.7-0.41z" fill="#ad907c" /><path d="m84 139c0.39-0.19 0.75-0.083 1.4 0.078 0.25 0.48 0.22 0.9 0.083 1.6-0.57-0.27-1-0.84-1.5-1.7z" fill="#674d3a" /><path d="m100 112c-0.73 2.2-1.4 5.7-3.1 6.4-3.6 1.4-4.1-2.6-5.3-5.4 2.6-0.61 5.3-0.83 8.4-1z" fill="#574632" /><path
        d="m137 204c0.34 1.1 0.33 2.2 0.34 3.6-0.31 0.79-0.63 1.2-1.4 1.9-1.8 0.32-3.1 0.34-4.6 0.11-0.44-0.69-0.78-1.1-1.1-1.9 0.069-1.1 0.12-1.9 0.45-2.7 0.75-0.36 1.2-0.66 2.1-1 0.84-0.18 1.3-0.31 1.8-0.44 0.7 0.15 1.4 0.29 2.5 0.51z" fill="#794e3a" /><path d="m134 196c0.23 2 0.46 3.9 0.23 5.8-0.74-0.32-1-0.57-1.4-1.1-0.68-1.1-1.3-1.9-1.9-3 9e-3 -0.21 0.019-0.62 0.27-0.83 1.1-0.45 1.9-0.69 2.8-0.93 0 0 0.011 0.011 0.015 0.014z" fill="#3c262c" /><path d="m133 201c0.29 0.24 0.58 0.49 1.1 0.94 0.17 0.52 0.17 0.82 0.19 1.3-0.46 0.35-0.93 0.49-1.8 0.34-0.068-1.1 0.21-1.8 0.5-2.6z" fill="#3f2a2c" /><path d="m134 223c-0.86 2.2-2 4.2-3.5 6-0.31-5.3-0.92-10-6.3-13-0.044-1.1-0.075-1.8 0.16-2.7 1.1-0.44 1.9-0.66 3.1-0.84 0.77 0.15 1.2 0.24 1.7 0.62 0.36 0.95 0.69 1.6 1 2.3 0.52 1.2 1 2.4 1.8 3.8 0.76 1.4 1.3 2.6 2.1 4z" fill="#32261d" /><path d="m130 215c-0.62-0.5-0.95-1.2-1.1-2.4 0.75-1.2 1.3-1.9 1.9-2.6 1.3-0.024 2.7-0.047 4.4-0.12-1.4 1.6-3.1 3.3-5.2 5.1z" fill="#3c262c" /><path
        d="m163 253c-1.5-1.3-2.6-2.6-4-3.9-0.33-1.8-0.33-3.5-0.078-5.7-0.24-1.5-0.74-2.4-1.2-3.3-1e-3 -0.44-3e-3 -0.88 0.12-1.9-0.29-1.1-0.69-1.6-1.1-2.2-6e-3 -0.74-0.012-1.5-0.019-2.6 2.8-2.1 4.7-5 9.1-2.9 6 3 9 7.8 9.3 14 0.32 6.5-0.18 6.5-9.1 8.4-1.1 0.2-1.8 0.2-2.9 0.19z" fill="#a9502a" /><path d="m153 225c0.11 0.95-0.15 1.9-0.68 3.2-0.82-0.59-1.4-1.5-1.9-2.7 0.74-0.38 1.5-0.42 2.6-0.51z" fill="#854b35" /><path d="m140 233c-0.83-0.2-1.6-0.64-2.5-1.4 0.44-0.64 1-0.98 1.6-1.3 0.32 0.82 0.64 1.6 0.87 2.7z" fill="#a68972" /><path d="m154 237c0.45 0.86 0.72 2 0.92 3.4-0.41-0.83-0.76-2-0.92-3.4z" fill="#b28a6b" /><path d="m153 232c0.37 0.32 0.6 0.81 0.81 1.6-0.33-0.28-0.64-0.85-0.81-1.6z" fill="#b28a6b" /><path d="m141 248c0.057 0.37-0.14 0.91-0.55 1.7-0.042-0.36 0.13-0.92 0.55-1.7z" fill="#866850" /><path d="m158 240c0.48 0.61 0.98 1.6 1.2 2.6-0.57-0.69-0.89-1.5-1.2-2.6z" fill="#9f4f2b" /><path d="m157 236c0.35 0.26 0.76 0.8 1 1.5-0.41-0.29-0.7-0.77-1-1.5z" fill="#9f4f2b" /><path
        d="m114 239c-0.038 1.5 0.016 3-0.13 4.5-0.33 3.2-2.5 5.3-5.3 4-1.6-0.73-2.5-3.9-3-6.1-0.29-1.4 0.83-3.1 1.6-5 0.25-0.4 0.74-0.43 1.1-0.42 2.2 1 4 2 5.7 3z" fill="#573c33" /><path d="m114 239c-2.1-1-3.9-2-6.1-3.5-0.35-1.8-0.33-3.2 0.028-4.5 1.5 0.63 2.7 1.5 3.9 1.7 1.6 0.16 3.7 0.19 4.9-0.64 0.82-0.54 0.57-2.7 1-4.3 0.77-0.41 1.3-0.63 2.1-0.85 0.24 0.01 0.7 0.054 0.87 0.31 1.1 1.1 2 2 2.9 3.2-0.026 1.2-0.043 1.9-0.061 2.7-2 1.4-4 2.9-6 4.7-1.1 0.66-2.1 0.94-3.5 1.2z" fill="#322d30" /><path d="m102 231c-0.75 6e-3 -1.5 0.012-2.6 0.017-0.37-9.9e-4 -0.36-0.032-0.28-0.41 0.35-2.1 0.63-3.8 0.97-5.9 1-1.1 2-1.9 3.3-2.6 1.8 0.37 3.2 0.67 4.9 1.2 0.74 1.5 1.3 2.7 1.5 3.9-0.71 0.019-1.1 0.042-1.9 0.051-2.2 1.3-4 2.5-5.8 3.8z" fill="#553824" /><path d="m102 231c1.8-1.7 3.6-2.9 5.8-3.8 0.32 1.1 0.29 1.8 0.17 2.6-0.2 0.38-0.15 0.63 0.088 0.85 6e-3 0.011 0.032 0.021 0.032 0.021-0.018 1.4-0.036 2.8-0.059 4.6-5e-3 0.41-0.5 0.45-0.75 0.45-3.2 0.098-5.3-0.79-5.2-4.6z" fill="#3c2c24" /><path
        d="m124 233c-0.071-1-0.054-1.8 0.22-3.1-0.92-1.4-2.1-2.4-3.3-3.3 0 0-0.47-0.044-0.8-0.36-1.3-1.7-2.2-3.2-2.9-4.6 0.23-0.013 0.7-0.027 1.1 2e-3 2.1 0.75 3.8 1.5 5.7 2.2 0-2.8 0-5.5 0.014-8.3 0.014-0.014 0.042-0.042 0.042-0.042 5.3 2.7 6 7.5 6 13-0.85 2.6-1.9 4.9-2.9 7.6-4.3 2.2-1.8-2-3-3.3z" fill="#483725" /><path d="m100 225c-0.27 1.7-0.55 3.5-0.89 5.6-0.89 0.081-1.7-0.2-3.1-0.81-3.9-3.3-4.5-6.4-0.85-9.9 1-1.1 1.8-1.9 3-2.7 0.33 1.5 0.87 3.1 0.26 4.1-1.6 2.4-0.65 3.3 1.6 3.8z" fill="#4c2d1d" /><path d="m95 220c-3.4 3.3-2.9 6.5 0.74 9.7-1.5 0.94-3.2 1.6-5.3 2.3-1.3-2.4-2.3-4.9-3.3-7.6 1.8-1.9 3.6-3.4 5.9-5.1 1 0.19 1.5 0.45 2 0.72z" fill="#5c382e" /><path d="m95 220c-0.71-0.056-1.2-0.32-2-0.71-0.86-0.93-1.5-1.7-2.2-2.8 3.2-4.5 1.2-7.6-2.7-10 2.1-1.7 4.5-3.3 7.2-4.9 1.2 0.82 2.1 1.7 2.9 3-1 1.1-2 1.8-3.2 2.6 1.9 1.4 3.3 2.4 4.5 3.7-0.8 2.4-1.4 4.5-2 6.7-0.81 0.87-1.6 1.7-2.6 2.8z" fill="#43241e" /><path
        d="m101 192c3.2 0.54 8.4-1.6 6.6 4.6-0.4 1.4-3.2 2.9-5 3.1-2.9 0.27-3.3-2-2.6-4.5 0.21-0.79 0.21-1.6 0.32-2.8 0.0091-0.39 0.49-0.42 0.73-0.43z" fill="#262b47" /><path d="m91 185c1.4 0.64 2.5 1.3 3.9 2.4 0.28 0.79 0.24 1.2-0.095 1.7-1.4 0.78-2.5 1.5-3.6 2.2-1.2-1-2.5-2-3.7-3 1-1 2-2.1 3.4-3.2z" fill="#805044" /><path d="m91 192c1.1-1 2.1-1.7 3.9-2.5 0.85-0.052 1.1-0.038 1.3-0.024-0.6 1.6-1.2 3.2-1.8 4.7-1.1-0.65-2.2-1.3-3.3-2.3z" fill="#61352d" /><path d="m96 189c-0.49 0.19-0.71 0.17-1.2 0.14-0.29-0.42-0.25-0.82-0.23-1.5 0.83-0.97 1.7-1.6 2.8-2.4-0.15 1.1-0.61 2.4-1.3 3.8z" fill="#4d2a26" /><path d="m120 112c-0.15-0.73-0.3-1.5-0.5-2.6 0.86-0.57 2.2-1.3 2.6-0.9 3.3 3.2 6.2 1.6 9.5-0.45 0.35 0.69 0.36 1.5 0.3 3-0.38 2.2-0.68 3.6-1.3 4.9-2.2-0.15-4.1-0.15-7.4-0.15-0.5-0.57-1.9-2.2-3.3-3.8z" fill="#7f6857" /><path d="m131 116c0.31-1.4 0.61-2.8 0.98-4.6 2.2-0.2 4.4-0.036 6.8 0.71 0.24 1.3 0.22 2.1-0.11 3-2.8 0.44-5.2 0.68-7.7 0.91z" fill="#483725" /><path
        d="m139 115c0.022-0.73 0.044-1.5 0.14-2.6 1.3 1.4 5.6-1.4 4.9 3.4-0.15 0.37-0.32 0.39-1.1 0.39-1.7-0.41-2.8-0.8-4-1.2z" fill="#7f6857" /><path d="m113 109c-3.8 2-7.3 2.7-11-0.55 2.8-4.2 7.1-1.5 11-2.2 0.23 0.86-4e-3 1.7-0.45 2.8z" fill="#b19278" /><path d="m112 136c3.9-0.53 7.7-1.4 12-1.5 2.5-0.059 4.2 0.17 3.9-3.2-0.08-0.91 1.1-1.9 1.8-2.9 0.85 1 2.6 2.3 2.4 3-1.3 4.2 0.46 7.4 2.8 11-1.9-0.54-3.7-1.5-6-2.8-2.5-1.4-4.5-2.9-6.6-3.1-2.3-0.26-4.8 0.65-7.2 1.1-0.72-0.083-1.4-0.17-2.5-0.52-0.35-0.46-0.34-0.64-0.33-0.83z" fill="#9f846b" /><path d="m115 138c2.4-0.74 4.8-1.7 7.1-1.4 2.1 0.24 4.1 1.8 6.3 3.1-3.1-1.2-6.1-2.3-9.4 0.97-2.8 2.7-3.5-0.031-4-2.6z" fill="#59402d" /><path d="m112 136c0.39 0.19 0.38 0.38 0.36 0.85-2.3 0.91-4.7 1.5-7.4 2.2-0.22-0.56-0.06-1.1 0.28-2 2.2-0.53 4.3-0.79 6.7-1.1z" fill="#59402d" /><g fill="#9f846b"><path d="m140 125c3.8-3.3 5.3-0.67 6.3 3.3-2-0.79-4-2-6.3-3.3z"/>
        <path d="m145 134c-2.1-0.21-4.2-0.76-6.4-1.6 2.1 0.22 4.3 0.75 6.4 1.6z" />
        <path d="m138 132c-3-1.1-2.4-3.1-0.37-5.4 0.32 1.6 0.32 3.3 0.37 5.4z" /></g><path d="m115 195c3.1 0.31 5.8 0.61 9.1 1.1 0.75 0.43 0.96 0.62 1.3 1.2-1.2 2.5-2.5 4.7-4.2 6.8-2.5 0.58-4.7 1.2-7.1 1.9-4 1.9-4.9-1.5-6.7-3.3 2.5-2.6 4.9-5.1 7.7-7.7z" fill="#635236" /><path d="m100 210c-1.4-1-2.8-2.1-4.7-3.4 1.2-0.8 2.1-1.5 3.4-2.4 2.1-0.11 3.9-0.026 6 0.33-0.075 3.7-0.42 7-1.1 11-1.4-1.6-2.5-3.3-3.7-5.1z" fill="#553a28" /><path d="m104 215c0.35-3.4 0.69-6.8 1-11 0.46-0.71 0.93-1 1.6-1.5 2 1.6 2.9 5 6.9 3.4 0.33 0.71 0.31 1.1 0.038 1.7-0.7 0.63-1.1 1.2-1.9 1.8-2.1 1.8-3.9 3.4-6 5.1-0.78 0-1.2 9.3e-4 -1.7 2e-3z" fill="#6f5639" /><path d="m125 197c-0.24-0.16-0.45-0.35-0.77-0.74-0.4-2-0.68-3.9-1-6 0.65-0.36 1.4-0.38 2.4-0.45 1.2 3.8 3.3 4.1 6.3 1.6 0.62-0.29 1.1-0.28 1.9-0.22 0.32 1.4 0.31 2.7 0.29 4.4-0.84 0.64-1.7 0.88-2.9 1.4-0.63 0.51-0.82 0.7-1 1.2-0.38 1.1-0.72 1.9-1.3 2.7-0.24-3e-3 -0.73-9e-3 -0.71-0.34 0.62-3-0.61-3.9-3.1-3.6z" fill="#3f2a2c" /><path
        d="m126 189c-9e-3 -0.12 0.2-0.36 0.63-0.73 0.011 0.12-0.2 0.36-0.63 0.73z" fill="#4a302b" /><path d="m139 115c1.4 0.18 2.5 0.57 4 1-6.7 5.6-19 3.7-23-3.8 1.4 1.2 2.8 2.8 3.3 3.4 3.3 0 5.2 0 7.4 0.15 2.7-0.09 5.2-0.33 8-0.77z" fill="#ac8f75" /><path d="m128 201s0.49 6e-3 0.8 0.35c0.63 1.5 0.95 2.6 1.3 3.7-0.054 0.75-0.11 1.5-0.37 2.8-0.97 1.1-1.7 1.7-2.8 2-0.83-1.4-2-2.8-1.7-3.8 0.48-1.8 1.8-3.4 2.8-5.1z" fill="#50291d" /><path d="m130 205c-0.59-1-0.91-2.2-1.3-3.6 0.27-1.1 0.62-1.9 1.2-3.1 0.25-0.33 0.69-0.33 0.69-0.33 0.6 0.82 1.2 1.6 1.9 2.7-0.2 1.1-0.49 1.9-0.78 3-0.49 0.62-0.96 0.92-1.7 1.3z" fill="#5d3834" /><path d="m127 210c0.76-0.54 1.5-1.1 2.5-1.8 0.54 0.23 0.88 0.66 1.3 1.3-0.48 0.93-1.1 1.6-1.8 2.5-0.65 0.17-1.1 0.078-1.8-0.4-0.25-0.81-0.19-1.2-0.13-1.7z" fill="#5d3834" /><path d="m131 198c-9e-3 0.21-0.44 0.21-0.66 0.2-0.044-0.22 0.15-0.41 0.52-0.7 0.16-0.12 0.15 0.3 0.14 0.5z" fill="#382112" /><path
        d="m114 208c0.015-0.44 0.03-0.89 0.042-1.7 2.1-0.94 4.3-1.5 6.7-1.8 1.3 3.1 2.3 5.8 3.3 8.6 0.03 0.72 0.06 1.4 0.1 2.5 0.014 0.36-0.014 0.39-0.4 0.4-2.2 1.4-4 2.7-6.1 4-1.4-1.1-2.4-2.1-3.1-3.1 1.7-1.4 3.1-2.8 4.4-4.2-1.3-1.3-2.6-2.5-4.1-3.9-0.44-0.38-0.67-0.61-0.89-0.86z" fill="#483725" /><path d="m124 213c-1.3-2.5-2.3-5.3-3.2-8.3 1.4-2.5 2.7-4.6 3.9-7.1 2.5-0.71 3.7 0.21 3.1 3.2-1 2-2.4 3.6-2.9 5.4-0.27 1 0.89 2.4 1.7 3.8 0.26 0.58 0.2 1 0.12 1.8-0.87 0.56-1.7 0.79-2.8 1.2z" fill="#382112" /><path d="m117 222c0.95 1.4 1.9 2.8 2.9 4.6-0.45 0.53-0.99 0.76-2.2 1.2-3-0.089-5.4-0.37-7.8-0.65-0.52-1.2-1-2.4-1.4-4.1 2.9-0.65 5.7-0.84 8.5-1z" fill="#3c2c24" /><path d="m110 227c2.7 0.28 5.1 0.56 7.9 0.84 0.2 1.4 0.45 3.6-0.37 4.1-1.2 0.83-3.3 0.8-4.9 0.64-1.2-0.12-2.4-1-3.9-1.7-0.34-0.074-0.37-0.084-0.37-0.33-2e-3 -0.25-5e-3 -0.72-5e-3 -0.72 0.032-0.71 0.064-1.4 0.13-2.5 0.44-0.37 0.84-0.39 1.5-0.41z" fill="#2c2a43" /><path d="m121 227c1 0.69 2.2 1.6 3.1 2.7-1.1-0.74-2-1.6-3.1-2.7z"
        fill="#3c2c24" /><path d="m117 222c-3 0.2-5.8 0.39-8.9 0.78-1.8-0.087-3.2-0.38-4.9-1.1 0.72-2.2 1.7-3.9 3.1-5.7 2.8-1e-4 5.1 3e-3 7.5 0.24 0.025 0.24 0.076 0.72 0.076 0.72 1.1 0.98 2.1 2 3.5 3.4 0.34 0.82 0.36 1.2 0.38 1.7 0 0-0.47 0.014-0.7 0.027z" fill="#332826" /><path d="m106 216c-0.99 1.8-2 3.5-3 5.6-1 1.1-2 1.9-3 3-2.3-0.23-3.3-1.1-1.7-3.5 0.61-0.93 0.076-2.6-0.26-4.1 0.28-2.2 0.87-4.4 1.7-6.8 1.3 1.4 2.5 3.1 3.9 4.8 0.74-0.11 1.2-0.11 2 0.14 0.38 0.42 0.4 0.59 0.42 0.76z" fill="#604c35" /><path d="m108 230c0.087-0.11 0.09 0.37 0.086 0.6-0.23 0.026-0.29-0.22-0.086-0.6z" fill="#322d30" /><path d="m118 222c-0.37-0.45-0.39-0.86-0.43-1.6 1.8-1.7 3.6-3 5.7-4.4 0.37 2.7 0.37 5.4 0.37 8.2-1.8-0.76-3.6-1.5-5.7-2.2z" fill="#523e29" /><path d="m107 216c-0.45-0.17-0.47-0.34-0.52-0.76 1.8-1.9 3.6-3.6 5.7-5.1 0.66 0.77 0.94 1.3 1.3 2.2 0.35 1.4 0.64 2.5 0.93 3.6-2.3-3e-3 -4.7-6e-3 -7.4-5e-3z" fill="#402e1e" /><path
        d="m113 212c-0.28-0.55-0.56-1.1-0.88-2 0.4-0.85 0.84-1.4 1.5-2 0.48 0.16 0.71 0.39 1.1 1.1-0.5 1.3-1.1 2.1-1.8 2.9z" fill="#635236" /><path d="m113 212c0.56-1.1 1.2-2 1.9-3.1 1.4 0.95 2.7 2.2 3.9 3.5-1.4 1.4-2.7 2.8-4.4 4.2-0.36 0.023-0.42-0.46-0.44-0.69-0.31-1.3-0.6-2.4-0.96-3.9z" fill="#523e29" /></g></g></svg>
