<?xml version="1.0" encoding="UTF-8"?>
<svg height="100mm" version="1.1" viewBox="0 0 100 100" width="100mm" xmlns="http://www.w3.org/2000/svg" xml:space="preserve">


    <g transform="matrix(.24 0 0 .24 28 -.002)"><path d="m206 120v299h-205v-418h205v119m-19 112c-0.19-0.95-0.39-1.9-0.68-3.7-0.062-1.4-0.12-2.7-0.032-4.8-0.3-1.1-0.61-2.2-0.97-4-0.054-0.42-0.11-0.84-0.016-1.9-0.05-0.46-0.1-0.93-0.02-2-0.056-0.43-0.11-0.85-0.03-2.2-0.36-4.1-0.72-8.1-0.94-13-0.38-3.1-0.76-6.1-1-10-0.72-6-1.4-12-2-19 6e-3 -1.3 0.12-2.7 2e-3 -4-1.3-14-2.5-29-4.1-43-0.59-5.4-2-11-2.9-17-0.39-1.4-0.78-2.8-1-4.9-0.045-0.45-0.091-0.9 8e-3 -2.1-0.38-1.4-0.77-2.8-0.98-5 0.6-3.7-0.72-6.5-4-9-0.65-0.49-1.3-0.98-2-1.9 0 0-0.14-0.43 4e-3 -1.1-0.63-0.82-1.3-1.6-2.1-3-0.92-0.81-1.8-1.6-3-3.1-4.6-6.1-9.3-12-14-19-0.29-0.18-0.58-0.36-0.88-0.49 0 0 0.054-0.028-0.042-0.7-1.3-1.5-2.6-2.9-4-4.3 0 0 0.055-0.035-0.036-0.71-1.6-1.8-3.3-3.6-5-5.8 0 0-0.16-0.43-0.11-0.94-0.27-0.18-0.54-0.37-1.1-1.2-1.7-1.7-3.4-3.4-5.1-5.1-6.2-6.4-12-13-19-20-2.9-2.8-5.8-5.5-8.8-9.1-1.9-1.1-3.9-3.2-5.8-3.1-6.8 0.42-10 5.8-14 11-1.4 1.6-2.9 3.1-5 4.8-1.8 2.2-3.8 4.4-5.5 6.7-5.9 8.1-12 16-18 25-0.31 0.76-0.63 1.5-1.6 2.6-3.8 5.9-7.6 12-12 18-2.1 5.6-4.2 11-7 17-1.1 2.6-2.3 5.1-3.6 8.4-0.21 1.8-0.41 3.6-0.74 6.2 0.032 1.1 0.065 2.1-0.26 3.9-0.6 1.5-1.5 2.9-1.7 4.5-1.4 8.3-2.6 17-4 26-0.67 4.4-1.3 8.7-2.7 14-1.1 8.9-2.1 18-3.9 27-0.35 6.2-0.7 12-1.1 20-0.0083 1.6-0.017 3.3-0.28 5.8 0.034 4.4 0.068 8.8-0.03 14 0.044 0.44 0.089 0.88-0.01 2.2-0.066 2-0.13 4-0.82 6.5-0.63 8.5-1.3 17-1.8 26-0.021 0.32 0.96 0.71 1.6 2 0.31 3.4 0.61 6.8 1.2 11 0.31 0.046 0.62 0.093 1.8 0.22 2.4 0.023 4.7 0.045 7.1 0.93-0.02 1.1-0.041 2.3-0.59 4-0.48 2.4-0.96 4.9-2.1 7.8-0.45 2.4-1.1 4.8-1.3 7.2-0.45 5.2-0.72 10-0.89 16-0.015 0.47 1.2 0.97 2.8 1.6 2-0.049 4.1-0.098 6.6 0.071 0.21 0.29 0.42 0.58 0.31 1.6-0.17 1.5-0.34 3-0.54 5.2 0.1 0.43 0.2 0.86 0.12 2.2-0.0083 3.6-0.017 7.2-0.14 12 0.068 0.23 0.14 0.45 0.2 1.5 0.24 6.3 0.48 13 0.59 20 0.082 2 0.16 4.1 0.08 6.9 0.032 1.1 0.063 2.2-0.052 4 0.05 0.75 0.1 1.5 0.0085 2.9-0.059 0.44-0.12 0.88-0.87 1.8-0.0044 6.5-0.0089 13-0.43 20-0.55 5.1-1.1 10-1.7 16-0.69 3.7-1.4 7.4-2.7 11 0.24 1.8 0.48 3.6 1.6 5.6 2 0.048 4 0.096 6.5 0.81 2.9 5e-3 5.7 9e-3 9.5 0.14 4.7-0.032 9.3-0.063 15 0.036 4.5-2 2-5.2 1.2-8.5 0 0-0.13-0.43-0.012-1-0.33-0.41-0.66-0.83-1.6-1.7-1.2-3.9-2.3-7.8-3.7-12-0.27-2.1-0.55-4.2-0.7-6.9-0.049-0.45-0.098-0.91-0.011-2.1-0.041-0.75-0.082-1.5-0.015-2.7-0.037-0.16-0.074-0.33 0.02-1.3-0.044-1.4-0.088-2.8 0.011-5.1 0.36-7.4 0.72-15 1-23-0.07-1.4-0.14-2.8-0.068-5 0.28-8.4 0.57-17 1-26-0.05-1.1-0.1-2.1-0.031-3.9-0.041-0.44-0.082-0.89 0.018-2.2-0.045-2.4-0.09-4.7 0.027-7.8 0.062-0.43 0.12-0.86 1.1-1.4 9.3-0.4 19-0.8 29-1.1 3.7-0.37 7.5-0.75 12-1.2 4.9-0.062 9.9-0.12 16-0.032 0.22-0.053 0.45-0.11 1.5-0.041 2.3-0.032 4.5-0.063 7.5 0.2 0.55 1 1.1 2.1 1.5 4 0.031 11 0.062 23-0.034 35 0.069 9.3 0.14 19 0.083 29 0.033 0.9 0.066 1.8-0.46 3.3-0.22 3.4-0.44 6.7-0.68 10 0 0 0.018 0.012-0.49 0.15-0.1 0.31-0.2 0.62-0.48 1.7-0.62 5.4-1.2 11-1.9 17 0.66 0.38 1.3 0.76 2.6 1.3 0.43 0.031 0.86 0.061 1.8 0.78 5.2 0.43 10 1 16 1.2 2.3 0.096 4.7-0.52 7.7-0.89 0.42 0.011 0.84 0.022 1.5 0.68 0.32 1.1 0.65 2.1 0.94 4.1 1.1 0.42 2.2 1.2 3.3 1.2 6.2 0.047 12-0.089 19-0.031 4.2-0.38 8.4-0.75 14-1.2-1.1-3.3-1.9-6-2.8-9.6-1-4.7-2-9.4-2.3-15-0.29-4.5-0.59-9.1-0.74-14-0.32-3.9-0.5-7.9-1-12-0.45-3.5-1.2-7-1.9-11-0.063-0.72-0.13-1.4-0.053-3.1-0.039-4-0.078-8 0.036-13-0.3-1.1-0.59-2.2-1-4.2-0.081-6.3-0.16-13-0.077-20-0.034-0.76-0.069-1.5 0.051-3-0.29-0.81-0.59-1.6-0.91-3 0.037-0.57 0.075-1.1 0.89-1.8 2.1-0.81 4.1-1.6 7-2.6 0.36-1.1 1.2-2.4 1-3.4-0.97-6.9-2.1-14-3.2-21-0.032-0.39-0.064-0.79 0.079-1.9 0.085-2.7 0.17-5.5 0.89-8.3 0.75-0.39 1.5-0.79 3.1-1.1 2.4 0.35 3.3-0.68 3.2-3.1-0.17-4.3-0.15-8.7-0.1-14-0.094-3.9-0.19-7.7-0.62-12-0.067-0.61-0.13-1.2 0.4-2.1z" opacity="0"/>
        <path d="m111 304c-4.9 0.062-9.9 0.12-15-0.067-2.2-0.68-3.8-1.1-5.3-1.9 1.5-1.1 2.9-2.2 4.4-2.6 2.6-0.63 5.3-0.48 7.8-1.4 1.3-0.45 3.1-3 2.8-3.5-2.7-5.1 0.87-6.4 4.3-7.2 3.2-0.75 6.5-3.5 10-0.1 1.7 1.6 4.3 2.4 6.5 3.5 1.1-2.8 3-5.5 3-8.3 0.15-5.3 1.7-6.7 7-5.4 1.5 0.38 3.3-0.41 5.3-0.65 1.4 0.34 2.5 0.66 3.8 1.3 1.1 4.6 1.2 9.7 8.2 8 1.1-0.28 3 1.6 4.1 2.9 0.23 0.27-1.2 2.5-2.2 3.3-1.9 1.4-4.3 2.2-6.2 3.7-1 0.85-1.4 2.6-2.4 4-3.8 0.66-7.2 1.2-11 1.7-3.5 0.07-6.5 0.13-9.9 0.16-1.9 0.5-3.4 1-5.1 1.7-0.47 0.3-0.64 0.55-0.72 0.87-2.3 0.032-4.5 0.063-7.3-0.16-0.89-0.12-1.3 8e-3 -1.7 0.14z" fill="#c89e42" />
        <path d="m30 353c-0.082-2-0.16-4.1 0.18-6.6 1.5-2 3.3-3.4 3.4-4.9 0.3-7.8 0.14-16 0.47-24 1.6-1.2 2.9-2.4 3.8-3.2 5.4 2.5 11 4.9 16 7.3-0.28 8.4-0.57 17-1.3 26-2.4 2.7-5.2 4.6-6 7.2-1.9 6.3-2.6 13-4.1 19-0.32 1.4-1.7 2.6-3.1 4.8-1.3-4.8-1.6-8.2-3.1-11-1.6-3.1-1.2-4.9 1.8-6.4 0.88-0.43 1.6-1.2 1.3-0.99-2.5-2.3-4.6-4.5-6.9-6.5-0.57-0.51-1.5-0.66-2.2-0.97z" fill="#9a8f71" />
        <path d="m25 410c0.69-3.7 1.4-7.4 2.4-12 1.4-1.8 2.4-3.1 3.9-4.4 7.5 1.8 14-0.041 21 0.042 1.2 3.9 2.3 7.8 3.9 12 0.63 0.93 0.89 1.4 1.1 1.8 4e-6 0 0.13 0.43 0.15 1-0.67 3-1.4 5.4-2.1 7.7-4.7 0.032-9.3 0.063-15-0.23-3.5 0.11-6.4-3.9-9.4-0.48-2-0.048-4-0.096-6.5-0.63-0.46-2.2-0.48-3.8-0.49-5.5z" fill="#9c8d6c" />
        <path d="m30 353c0.83-0.083 1.7 0.065 2.3 0.57 2.3 2 4.5 4.2 6.9 6.5 0.27-0.21-0.45 0.55-1.3 0.99-3.1 1.5-3.4 3.3-1.8 6.4 1.4 2.8 1.8 6.2 3.1 11 1.4-2.2 2.8-3.4 3.1-4.8 1.4-6.4 2.2-13 4.1-19 0.76-2.6 3.6-4.5 5.9-6.8 0.43 1.4 0.5 2.7 0.22 4.6-1.7 3.8-4.3 7.2-4 10 0.34 4.3-1.9 9.7 3.2 13 0.044 1.4 0.088 2.8-0.017 4.7-0.25 0.81-0.19 1.1 0.02 1.3 0.041 0.75 0.082 1.5-0.28 2.6-1.4 0.04-2.5-0.27-3.8-0.83-5.4-1.1-11-1.9-16-3.1-0.4-2.5-0.58-4.6-0.77-6.7-0.36-4-0.73-8-1.1-12 0.059-0.44 0.12-0.88 0.4-1.9 0.12-1.4 0.016-2.2-0.089-3.1-0.032-1.1-0.063-2.2-0.012-3.6z" fill="#9b8d6c" />
        <path d="m183 263c-0.75 0.39-1.5 0.79-2.9 1.2-1.8 0.05-2.8 0.087-4.2 0.069-1.5-0.36-2.6-0.66-4.1-0.99-3.4-0.14-6.3-0.25-9.3-0.76-0.1-1.7-0.17-3-0.21-4.8 0.1-2.8 0.17-5.1 0.5-7.6 0.98-1.1 1.7-2.1 2.9-3.1 3.5-0.016 6.5-0.056 9.8-6e-3 0.77 0.17 1.2 0.24 1.8 0.63 1.4 0.68 2.7 1 4.2 1.7 0.72 4.7 1.2 9.2 1.6 14z" fill="#d2ab8a" />
        <path d="m183 191c0.38 3.1 0.76 6.1 0.72 9.5-1.3-0.65-2.1-1.8-3.2-2.7-1.4-1.1-2.9-1.9-4.4-3.2 0.04-3.4 9e-3 -6.5-0.014-10 0.014-0.72 0.02-1.1 0.27-1.9 2.2-5-0.88-8.7-2.3-13 0.38-1.5 0.72-2.7 1.4-4 0.89-2.2 1.8-4.1 2-6.2 0.22-2.5-0.19-5.1-0.33-8.1-0.34-4-0.53-7.5-1.1-11-0.19-1.2-1.2-2.4-1.9-3.8-0.02-0.42-0.029-0.59-0.03-1.1 2e-5 -0.77-8e-3 -1.2-4e-3 -2.1-0.31-5.2-0.63-9.9-0.75-15 0.055-3.8-0.084-7.2-0.014-11 0.21-7e-4 0.63-4e-3 0.63-4e-3 1.1 5.4 2.5 11 3.1 16 1.6 14 2.8 29 4.1 43 0.12 1.3 4e-3 2.7-0.4 4.5-0.94 1.1-2 1.7-1.9 2.3 0.048 4.6 0.042 9.3 0.63 14 0.15 1.2 2.3 2.1 3.6 3.2z" fill="#c8b375" />
        <path d="m185 214c0.056 0.43 0.11 0.85-0.034 1.8-0.11 1.1-0.016 1.6 0.077 2.2 0.054 0.42 0.11 0.84-0.018 1.8-0.4 1.4-0.61 2.3-1.2 3.2-3.4 2.9-6.4 5.7-9.3 8.5-0.29 0.27-0.21 0.93-0.71 1.4-1.8 0.093-3.2 0.14-4.8 0.07-0.77-0.45-1.3-0.78-1.7-1.3 0.014-0.23 0.044-0.69 0.22-0.84 0.4-0.38 0.59-0.62 1.1-0.97 2.6-2.3 4.9-4.4 7.2-6.6 1.8-0.91 3.9-2.1 4.2-3.6 0.66-3-6.8-12-9.7-12-5 0.62-5.2-2.1-4.9-5.9 2.1-0.76 3.9-1.2 6.1-1.5 1.4 0.97 2.5 2.3 3.5 2.3 5.4-0.13 6.8 2.7 6.2 7.5-0.32 2.7 0.99 4.1 3.8 4z" fill="#d0b361" />
        <path d="m172 96c0.38 1.4 0.77 2.8 0.7 4.6-3.5 1-6.5 1.6-10 2.2-3.5-0.29-6.5-0.58-9.9-0.89-1.8-3e-3 -3.2 0.014-5.1 0.025-4.8-0.036-9.2-0.066-14-0.42-0.019-2 0.023-3.7 0.37-5.5 0.73-0.19 1.1-0.28 1.8-0.32 0.8-0.09 1.3-0.24 2.3-0.35 4.8-0.011 9.2-0.067 14 0.0058 6.7 0.31 13 0.49 19 0.67z" fill="#aeb693" />
        <path d="m16 206c0.0083-1.6 0.017-3.3 0.4-5.5 1-6.9 1.7-13 2.7-20 1.1-5.1 1.8-9.9 2.9-15 1.8-0.33 3.2-0.66 4.9-1.2 1.6-1.4 2.8-2.8 4.4-3.7 4.6-2.6 12-0.4 14 3.7-2.1-0.7-3.9-1.2-5.9-2-6-1.2-9.2 1.1-11 7.2-3.6 2.3-5.8 15-3.4 17 0.37 0.42 1.2 0.41 1.8 0.99 0.017 1.5 0.03 2.5 0.013 3.8-0.05 0.44-0.071 0.61-0.43 0.7-5.3-2.3-6.1-1.7-6.6 3.8-0.34 3.8-1.2 7.5-2 11-0.6-0.78-1.1-1.3-1.7-1.8z" fill="#b9945b" />
        <path d="m147 59c4.6 6.1 9.3 12 14 19 1.5 8 1.5 8-6.1 8-2 0.0045-3.9-0.019-5.8-0.35 3.8-3.5 5.4-7.6 3-12-2.9-5.1-6.8-9.7-10-15-2.7-3.7-5.3-7.5-7.6-11 1.1 0.0022 1.9 0.0043 2.7 0.34 1.7 1.8 3.4 3.2 5 4.6 0 0-0.055 0.035-0.028 0.37 1.4 1.8 2.7 3.2 4 4.6 0 0-0.054 0.028 0.054 0.2 0.29 0.42 0.49 0.64 0.72 0.84z" fill="#c5a752" />
        <path d="m32 381c5.2 0.84 10 1.7 15 2.9-1.3 0.37-2.6 0.07-3.9 0.29-1.1 0.2-2.2 0.95-3.2 1.5 1 0.74 2.1 2.1 3.1 2.1 2.8 0.044 5.6-0.49 8.3-0.79 0.27 2.1 0.55 4.2 0.91 6.6-6.9 0.3-14 2.2-21-8e-3 -1.1-2.4-1.7-4.5-2.1-6.8 0.38-0.44 0.58-0.72 0.79-1.2 0.025-0.21 0.1-0.62 0.41-0.76 0.74-1.4 1.2-2.6 1.6-3.9z" fill="#938665" />
        <path d="m147 406c-0.42-0.011-0.84-0.022-1.9-0.11-7.1-0.69-14-1.3-20-2.3-4.7-1.7-5.3-5.1-4.8-9.1 0.35-2.8 0.71-5.6 1.1-8.6-0.017-0.49-0.039-0.68-0.061-0.88 0 0-0.018-0.012 0.28-0.031 0.78-0.33 1.3-0.65 2.1-0.96 0.78 0.033 1.2 0.063 1.6 0.48-0.82 5.4-0.68 10 3.2 14 1.8-1.1 3.2-2.5 4.9-2.8 1-0.2 2.8 0.91 3.5 1.9 1.2 1.7 1.8 3.7 2.7 5.7 1.4-1.3 2.8-2.7 4.3-4 0.34-0.31 0.81-0.46 1.2-0.66 1.1 0.83 2.2 1.6 3 2.7-0.35 1.8-0.57 3.2-0.8 4.7-0.013 0.027-0.068 0.051-0.068 0.051z" fill="#a29572" />
        <path d="m54 57c0.31-0.76 0.63-1.5 1.4-2.6 1.6-1.1 3-1.6 3.9-2.6 4.7-5.8 9.2-12 14-18 1.1 0.0038 1.9 0.0053 2.5 0.32-0.7 1.4-1.3 2.6-2.2 3.8-5.8 9.4-11 19-16 28-1.6-0.82-3.4-1.7-5.1-3 0.67-2.2 1.3-4 1.9-5.8z" fill="#c79645" />
        <path d="m54 322c-5.2-2-10-4.4-16-6.9-0.87 0.77-2.2 1.9-4 3-1.1 0.03-2 0.045-2.1 0.33-0.71 2.3-1.3 4.6-2.1 6.9-0.2-0.063-0.62-0.13-0.62-0.13 0.0083-3.6 0.017-7.2 0.45-11 4.7-1.5 8.9-2.7 13-3.4 4.4-0.73 6.9 1.3 7.1 6.3 1.3 0.77 2.5 1.2 3.6 1.7 0.05 1.1 0.1 2.1 0.07 3.6z" fill="#90836b" />
        <path d="m31 100c1.1-2.6 2.3-5.1 4-7.8 2.4 0.44 4.1 1 6.3 1.7 5.2 0.39 9.9 0.72 15 1.4-0.017 1.1-0.026 1.9-0.23 2.9-0.42 0.73-0.64 1.2-1.3 1.8-1.8 0.1-3.1 0.16-5 0.16-6.5-0.077-13-0.094-19-0.11z" fill="#465f44" />
        <path d="m176 334c0.039 4 0.078 8-0.3 13-1.1 0.46-1.8 0.47-2.5 0.022-0.47-4.4-0.75-8.3-1.4-12-1.5-8.2-2.8-16 0.79-24 1 0.02 1.7 0.035 2.4 0.05 0.081 6.3 0.16 13 0.092 20 0.23 1.9 0.62 3.1 1 4.3z" fill="#b6ab8e" />
        <path d="m179 387c1 4.7 2 9.4 2.8 15 0.35 8.2 0.24 8.3-6.8 7.7-0.34-7.8-0.67-15-0.8-23 0.73-0.72 1.3-1.3 2-1.7 1.1 0.72 1.9 1.3 2.7 1.9z" fill="#b7a67e" />
        <path d="m23 280c0.48-2.4 0.96-4.9 1.8-7.4 0.59 0.096 0.83 0.23 1.5 0.36 3.2-0.26 5.9-0.55 8.5-0.52-2 1.9-5.3 3.4-5.4 5-0.33 8.2-6 16-0.49 25-0.0076 0.011-0.024 0.033-0.43 0.026-3.2 0.17-4.6-0.93-4.6-3.9 0.0013-1.4-0.64-2.8-0.99-4.6 0.023-4.8 0.046-9.2 0.069-14z" fill="#bf934b" />
        <path d="m172 96c-6.4 0.23-13 0.048-20-0.56 0.13-1.7 0.55-3.2 1.5-4.1 1.1-0.97 2.7-1.3 4.4-2.1 2.7-0.57 5.1-1.1 7.8-1.5 0.88-0.17 1.4-0.41 2-0.65 3.2 1.9 4.5 4.7 3.8 8.8z" fill="#466146" />
        <path d="m25 268c-2.4-0.023-4.7-0.045-7.7-0.29-0.85-0.42-1.1-0.49-1.5-0.45-0.31-3.4-0.61-6.8-0.93-11 0.69-2.6 1.4-4.4 2.5-6.2 1.5 0.17 2.5 0.29 3.6 0.86-0.48 5.8-0.56 11 5.2 14 0.37 0.2 0.51 0.83 0.5 1.5-0.72 0.63-1.2 1.1-1.7 1.5z" fill="#c1927d" />
        <path d="m134 102c4.3 0.03 8.7 0.059 14 0.4 2.5 2.3 4.1 2.1 5.4-0.31 3 0.29 6.1 0.58 9.8 1.1 3.8 0.12 6.9 2e-3 9.9-0.11 0.39 1.4 0.78 2.8 1.1 4.6-0.072 0.37-0.49 0.37-0.98 0.2-1.6-0.71-2.8-1.2-4.3-1.8-1.1-0.016-1.9-0.022-3.1-0.037-11-0.026-22-0.042-33-0.43-0.035-1.4-0.063-2.4 0.19-3.4 0.46-0.11 0.65-0.16 0.83-0.21z" fill="#b8a768" />
        <path d="m181 299c-2.1 0.81-4.1 1.6-6.8 2.2-2.5-0.61-4.4-0.94-6.1-1.6 1.5-0.78 2.8-1.6 4.2-1.6 4.5-0.068 5.8-2.8 5.5-6.5-0.13-1.9-1.2-3.7-1.8-5.9-0.01-1.5-0.018-2.5-0.033-4-0.67-3.1-1.3-5.9-2-9 6e-3 -1.1 0.01-1.9 0.38-2.6 0.85-0.057 1.3-0.1 1.9-0.17 0.026-0.026 0.083 0.021 0.067 0.37 0.71 1.8 1.4 3.3 2.2 5.3 0.93 8.2 1.8 16 2.6 24z" fill="#c6a760" />
        <path d="m27 165c-1.4 0.33-2.8 0.66-4.6 0.56-0.37-4.1-0.35-7.9-0.34-12 0.67-4.4 1.3-8.7 2.4-14 1.4-2.5 2.5-4.4 3.8-6.2 0.74 0.37 1.2 0.63 1.7 1.3 5.3e-4 1.1 0.0022 1.9 0.0014 3-0.0012 0.77 1.1e-4 1.2-0.33 1.8-1.1 5.1-1.9 10-2.9 15-0.073 3.4 0.07 6.6 0.21 9.7z" fill="#bc9352" />
        <path d="m31 100c6.1-0.32 12-0.3 19 0.13 0.81 2 1.1 3.6 1 5.2-7.1 0.16-14 0.26-20 0.37 0.21-1.8 0.41-3.6 0.72-5.7z" fill="#9ea987" />
        <path d="m30 325c0.6-2.3 1.2-4.6 1.9-6.9 0.088-0.28 1-0.3 1.7-0.24 0.18 8 0.34 16 0.044 24-0.058 1.5-1.9 2.9-3.3 4.5-0.59-6.2-0.83-13-0.9-20 0.31-0.87 0.45-1.1 0.57-1.4z" fill="#9a8a7c" />
        <path d="m50 316c-0.13-4.6-2.6-6.7-7-5.9-4.3 0.71-8.5 1.9-13 3-0.44-0.38-0.54-0.81-0.31-1.7 1.3-2 2.3-3.7 3.7-5.5 3.5-0.37 6.6-0.55 9.8-0.38 2.9 4.5 6.9 2.8 11 2.5 0.045 2.4 0.09 4.7-0.31 7.6-1.4 0.44-2.5 0.43-3.5 0.43z" fill="#7c6e59" />
        <path d="m28 134c-1.1 1.9-2.1 3.8-3.5 5.9 0.97-8.2 2.2-16 3.6-25 0.26-1.5 1.1-3 2.3-4.8 1.6-0.36 2.6-0.37 3.6 0.014-2 8.1-4 16-5.9 24z" fill="#b78b50" />
        <path d="m43 305c-3.1 0.18-6.2 0.36-10 0.7-1.4 0.12-2.1 0.078-2.8 0.036-0.21-0.29-0.42-0.58-0.89-1.3-0.26-1.2-0.27-1.9-0.27-2.6 0 0 0.016-0.022 0.49-0.03 12-5e-3 23-0.048 35 0.048 1.9 0.016 3.8 0.63 5.4 1.2-2.1 0.39-3.9 0.64-5.7 0.74-5 0.28-10 0.51-15 0.82-2.1 0.18-3.8 0.28-5.5 0.39z" fill="#bd964d" />
        <path d="m185 214c-2.8 0.55-4.1-0.86-3.8-3.5 0.57-4.8-0.77-7.6-6.2-7.5-1.1 0.025-2.2-1.3-3.4-2.6 0.092-0.99 0.33-1.5 0.81-2 0.24-0.016 0.73-0.026 1-0.12 0.79-1 1.3-1.9 2-2.8 0.24-0.016 0.72-0.048 0.72-0.048 1.5 0.95 3.1 1.8 4.4 2.9 1.1 0.85 1.8 2 3.1 3.1 0.71 4.1 1.1 8.1 1.4 13z" fill="#cfb66f" />
        <path d="m73 34c-4.6 5.9-9.1 12-14 18-0.81 1-2.2 1.6-3.7 2.3 5.5-8.1 11-16 17-24 1.7-2.3 3.6-4.5 5.8-6.4-1.7 3.7-3.6 7.2-5.6 11z" fill="#be8d50" />
        <path d="m137 48c-0.74-0.0022-1.5-0.0043-2.9-0.2-4.6-4.8-8.7-9.3-13-14-3.3-3.9-6.4-7.9-9.5-12 0.018-0.83 0.03-1.3 0.043-1.8 6.2 6.4 12 13 19 19 1.7 1.7 3.4 3.4 5.3 5.7 0.4 0.76 0.59 0.98 0.82 1.2 0 0 0.16 0.43 0.19 0.93 0.016 0.69 3e-3 0.88-9e-3 1.1z" fill="#bf9f53" />
        <path d="m148 410c-0.32-1.1-0.65-2.1-1.1-3.5-0.12-0.32-0.067-0.35 0.25-0.52 1.8-2.7 3.3-5.3 5.1-7.8 1.1 0.85 2.5 1.9 2.4 2.4-2.4 8 2.6 8.8 8.4 9.1 0.29 0.012 0.56 0.33 0.51 0.75-5.4 0.046-10-0.15-16-0.35z" fill="#a89b79" />
        <path d="m166 88c-2.4 0.48-4.7 0.96-7.9 1.5-6.5 0.028-12 0.027-18-0.31 2.4-1.1 4.6-1.9 7.2-2.7 0.77-0.0075 1.2-0.014 1.7-0.021 2 0.01 3.9 0.034 5.9 0.029 7.6-0.017 7.6-0.021 6.2-7.7 0.91 0.4 1.8 1.2 2.9 2.6 0.71 1.4 1.3 2.3 1.9 3.1 0 0 0.14 0.43 0.16 0.99-0.057 1.2-0.13 1.9-0.21 2.5z" fill="#b8a662" />
        <path d="m73 34c1.6-3.5 3.5-6.9 5.6-11 1.5-1.9 2.9-3.5 5-5.2 2.1-1.1 3.6-2.1 5.1-2.7-4.3 6.5-8.7 13-13 19-0.75-0.0015-1.5-3e-3 -2.6-0.0068z" fill="#c8974c" />
        <path d="m17 250c-0.7 1.8-1.4 3.6-2.1 5.8-0.57 0.022-1.5-0.36-1.5-0.69 0.55-8.5 1.2-17 2.2-25 1 0.97 1.7 1.8 2.4 3 0.0082 0.7 0.0087 1.1-0.3 1.7-0.77 1.9-1.6 3.6-1.6 5.3 0.072 3.5 0.63 6.9 0.99 10z" fill="#652a34" />
        <path d="m183 263c-0.86-4.5-1.3-9-2.1-14-0.37-0.98-0.4-1.4-0.41-2.1 0.03-0.44 0.033-0.62 0.23-0.99 0.86-0.4 1.5-0.6 2.4-0.52 1.2 0.72 2.2 1.1 3.3 1.6 0.058 4.3 0.04 8.7 0.21 13 0.091 2.4-0.82 3.4-3.6 3z" fill="#925b49" />
        <path d="m52 376c-5.2-2.8-2.9-8.2-3.3-13-0.25-3.2 2.3-6.6 4.1-10 0.018 7.3-0.34 15-0.77 23z" fill="#9d8861" />
        <path d="m122 342c-0.031-11-0.062-23 0.26-35 0.75-0.48 1.1-0.5 1.8-0.45 0.77 0.35 1.3 0.64 1.8 1.2-7e-3 0.43-9e-3 0.61-0.3 0.87-0.75 0.7-1.2 1.3-1.7 2.4-0.023 11-0.036 21-0.35 31-0.7-7e-3 -1.1-0.01-1.5-0.012z" fill="#8c8273" />
        <path d="m49 305c5-0.25 10-0.47 15-0.76 1.8-0.1 3.5-0.35 6.1-0.74 3.8-0.27 6.8-0.33 10-0.36 0.82-0.012 1.3-0.047 2-0.048 0.23 0.035 0.69 0.14 0.7 0.45-1.5e-5 0.73-0.0025 1.1-5e-3 1.6-9.3 0.4-19 0.8-29 1.2-2.3-0.43-3.8-0.88-5.2-1.3z" fill="#a18148" />
        <path d="m54 57c-0.28 1.7-0.88 3.5-1.6 6-1.8 4.5-3.4 8.2-5.3 12-1.4 1-2.6 2-3.7 2.6-0.35-1.1-0.67-1.9-1-2.7 3.8-5.9 7.6-12 12-18z" fill="#c19254" />
        <path d="m183 191c-1.3-0.6-3.5-1.5-3.7-2.7-0.59-4.6-0.58-9.3-0.63-14-6e-3 -0.57 1-1.1 1.9-1.8 1 5.9 1.8 12 2.4 18z" fill="#c8b480" />
        <path d="m22 154c0.34 3.5 0.33 7.2 0.32 11-0.74 5.3-1.5 10-2.8 15-0.58 0.16-1.1 0.19-1.1 0.19 1.1-8.9 2.1-18 3.5-27z" fill="#a87e53" />
        <path d="m174 233c0.09-0.48 0.012-1.1 0.3-1.4 3-2.8 6-5.6 9.5-8.3 1 0.33 1.5 0.55 2 0.77 0.062 1.4 0.12 2.7-0.034 4.7-0.75 1.5-1.3 2.4-2 3.4-0.43 0.26-0.64 0.45-1.2 0.72-1.1 0.19-1.9 0.34-3 0.43-2.1-0.14-3.8-0.22-5.6-0.3z" fill="#cfb66f" />
        <path d="m174 304c0.29 0.81 0.59 1.6 0.49 2.8-1.1 0.69-1.8 1-3 1.4-4.1 0.7-7.8 1.4-11 1.7 0.3-1.1 0.59-1.9 1.2-2.7 1.4-1.1 2.6-2 4.1-3 3.1-0.049 5.9-0.095 8.6-0.14z" fill="#91866a" />
        <path d="m34 110c-1 0.014-2 0.029-3.4 0.051-0.41-1.1-0.44-2.1-0.41-3.6 6.7-0.5 13-0.6 21-0.65 0.83 0.12 1 0.19 1 0.57-1.8 0.8-3.3 1.3-5.4 1.7-1.8-0.023-3.1-0.034-4.8-0.061-0.79-0.014-1.2-0.011-1.9-0.086-0.73-0.031-1.3 0.015-2.1 0.059-1.5 0.64-2.6 1.3-3.7 1.9-8.9e-4 8e-3 -0.027 3e-3 -0.027 3e-3z" fill="#a0844c" />
        <path d="m42 75c0.62 0.6 0.95 1.4 1.2 2.8-0.7 2.1-1.3 3.5-2.2 5.1-0.75 1-1.2 2-1.6 3.3 0.67 2 1.3 3.7 2 5.7-0.04 0.78-0.06 1.2-0.081 1.7-1.7-0.58-3.5-1.2-5.6-1.7 1.8-5.6 3.9-11 6.3-17z" fill="#b2875a" />
        <path d="m112 20c0.12 0.78 0.11 1.2-0.28 2.1-1.5-0.22-2.6-0.69-3.6-1.4-3-2.1-6-4.2-9-6.7-0.024-1.4-0.047-2.5 0.28-3.5 1.5 0.32 2.6 0.59 3.8 0.86 2.9 2.8 5.8 5.5 8.9 8.6z" fill="#c5a456" />
        <path d="m122 342c0.46-0.46 0.87-0.46 1.6-0.081 0.31 1.1 0.32 1.9 0.32 3.1 0.012 7.2 0.034 14 0.047 21-6e-3 1.8-2e-3 3.2-0.45 4.6-0.75-5e-3 -1-9e-3 -1.3-0.013-0.069-9.3-0.14-19-0.14-29z" fill="#9a7e59" />
        <path d="m124 307c-0.39 0.017-0.79 0.034-1.5 0.047-0.85-1-1.4-2.1-2.3-3.2-0.28-0.46-0.11-0.72 0.76-0.93 2.1-0.6 3.6-1.2 5.1-1.7 3-0.063 6-0.13 9.6 0.036 0.85 0.47 1.1 0.71 1.3 1.3-2 1.1-4 1.9-6 2.5-2.3 0.73-4.7 1.3-7 2z" fill="#856b46" />
        <path d="m103 11c-1.1 0.11-2.2-0.17-4.1-0.5-2.1-0.05-3.5-0.037-5.1 0.13-0.76 1-1.2 1.9-2 3-1.1 0.74-1.9 1.3-2.8 1.8-1.5 0.94-3 1.9-4.8 2.9 3-5 6.2-10 13-11 1.9-0.12 3.9 2 5.8 3.4z" fill="#bb9361" />
        <path d="m23 280c0.33 4.2 0.31 8.5 0.075 14-0.38 4.2-0.54 7.6-0.71 11-0.66-0.49-1.9-1-1.9-1.5 0.17-5.3 0.44-11 0.89-16 0.21-2.4 0.85-4.8 1.6-7.4z" fill="#9a7351" />
        <path d="m182 299c-1.2-7.6-2.1-15-2.7-24 0.43-0.49 0.64-0.5 0.85-0.51 1.1 6.9 2.3 14 3.2 21 0.15 1.1-0.64 2.3-1.4 3.5z" fill="#7c5e3b" />
        <path d="m32 381c-0.2 1.6-0.63 2.8-1.4 3.9-0.62-0.99-0.9-1.8-1.2-2.6 0.0044-6.5 0.0089-13 0.36-20 0.71 3.8 1.1 7.8 1.4 12 0.19 2.1 0.37 4.2 0.77 6.7z" fill="#9a7e59" />
        <path d="m121 386c-0.35 2.8-0.72 5.6-1.1 8.3-0.5 4 0.12 7.5 4.5 9.2-0.97 0.67-1.8 0.99-2.5 1.3-0.43-0.031-0.86-0.061-1.7-0.42-0.97-0.76-1.5-1.2-2.1-1.6 0.62-5.4 1.2-11 2.2-16 0.31-0.36 0.74-0.3 0.74-0.3z" fill="#9d8861" />
        <path d="m176 350c0.64 3.5 1.4 7 1.9 10 0.5 3.9 0.68 7.8 0.61 12-0.82 0.43-1.3 0.44-1.9 0.11-0.37-4.8-0.51-9.2-0.63-14 0.033-3.2 0.052-5.9 0.072-8.7z" fill="#9d7d52" />
        <path d="m18 181c0.33-0.24 0.83-0.28 1.1-0.26-0.42 6.3-1.1 13-2.1 19 0.0026-6.1 0.35-12 1-19z" fill="#78503c" />
        <path d="m175 410c7 0.19 7.2 0.068 6.8-7.7 1.1 2.4 1.9 5.2 3 8.5-5.5 0.49-9.7 0.86-14 0.89-0.46-0.73-0.48-1.1-0.079-1.5 1.8-0.078 3.2-0.12 4.6-0.17z" fill="#9d7d52" />
        <path d="m187 246c-1.1 0.021-2.1-0.41-3.2-1.5-0.27-2.8-0.45-4.8-0.59-7.3 0.14-1.1 0.25-1.8 0.76-2.6 1.2-0.26 2-0.46 2.8-0.67 0.094 3.9 0.19 7.7 0.23 12z" fill="#d2ab8a" />
        <path d="m177 373c0.43-7e-3 0.86-0.013 1.6-0.023 0.62 4.5 0.91 9.1 0.86 14-1.2-0.35-2-0.93-3.1-2-0.31-0.94-0.34-1.4-0.19-2.1 0.39-1.1 0.62-1.9 0.86-3.1 8e-3 -2.2 2e-3 -3.9 4e-3 -5.9 7e-3 -0.24-0.034-0.72-0.034-0.72z" fill="#8c7048" />
        <path d="m22 305c-0.26-3.5-0.095-6.9 0.28-11 0.56 1 1.2 2.4 1.2 3.8-0.0028 3 1.4 4.1 4.6 3.9 0.41 0.71 0.42 1.4 0.43 2.5-2 0.4-4.1 0.45-6.5 0.43z" fill="#b4955e" />
        <path d="m174 304c-2.7 0.33-5.5 0.38-8.7 0.083-0.81-1.2-1.2-2.1-1.5-3.1 7e-3 -0.2 0.012-0.61 0.42-0.57 1.5 0.03 2.6 0.016 3.7 2e-3 1.9 0.33 3.8 0.66 5.9 1.3 0.21 0.89 0.18 1.5 0.16 2.3z" fill="#7a613f" />
        <path d="m52 387c-2.8 0.64-5.6 1.2-8.4 1.1-1.1-0.017-2.1-1.4-3.1-2.1 1.1-0.51 2.1-1.3 3.2-1.5 1.2-0.22 2.6 0.078 4.1-0.046 1.3 0.12 2.4 0.43 3.8 0.76 0.38 0.47 0.43 0.92 0.41 1.7z" fill="#8e8260" />
        <path d="m176 350c0.014 3.1-5e-3 5.8-0.35 9-1.1 0.091-1.9-0.21-2.7-0.97 8e-3 -3.8 0.014-7.2 0.019-11 0.7-2e-3 1.4-4e-3 2.5-0.01 0.41 0.72 0.48 1.4 0.58 2.5z" fill="#b7a67e" />
        <path d="m122 405c0.54-0.66 1.3-0.98 2.4-1.3 6.8 0.6 13 1.2 20 1.9-2 0.41-4.4 1-6.7 0.93-5.2-0.22-10-0.79-16-1.6z" fill="#9a7351" />
        <path d="m49 305c1.9 0.38 3.3 0.82 5.2 1.3 0.34 0.45 0.27 0.88 0.13 1.6-3.8 0.65-7.9 2.3-11-2.2 1.6-0.46 3.3-0.57 5.5-0.74z" fill="#70644c" />
        <path d="m29 382c0.48 0.43 0.76 1.2 1.1 2.4 0.03 0.33-0.048 0.74-0.27 1.1-0.41 0.65-0.6 0.93-0.78 1.2 0.59 2.1 1.2 4.2 1.8 6.6-0.98 1.7-2 3-3.4 4.4 0.24-5 0.79-10 1.5-16z" fill="#7c5e3b" />
        <path d="m83 305c-0.45-0.49-0.45-0.91-0.048-1.6 2.5-0.63 4.5-0.94 6.6-1.3 1.6 0.43 3.1 0.85 4.9 1.6-3.5 0.66-7.3 1-11 1.3z" fill="#856b46" />
        <path d="m170 410c0.017 0.38 0.035 0.76 0.062 1.4-6.2 0.36-12 0.49-19 0.45-1.1-8e-3 -2.2-0.78-3.3-1.6 5.1-0.23 10-0.036 16-0.083 2.5-0.22 4.2-0.19 5.9-0.16z" fill="#8c7048" />
        <path d="m16 206c0.66 0.053 1.2 0.56 1.8 1.8 0.054 4.4 0.041 8.1-0.28 12-0.71 5e-3 -1.1 8e-3 -1.5 0.012-0.034-4.4-0.068-8.8 0.028-14z" fill="#b2875a" />
        <path d="m176 264c1.1-0.036 2.1-0.073 3.6-0.057 0.31 2.8 0.22 5.5-0.23 8.5-1.3-0.76-2.2-1.8-3.2-2.8 0 0-0.056-0.047-0.073-0.4-0.12-1.4-0.22-2.4-0.27-3.7 0.088-0.73 0.13-1.2 0.17-1.6z" fill="#7c5e3b" />
        <path d="m18 232c-0.67-0.86-1.3-1.7-2.1-2.9 0.0069-2.4 0.073-4.4 0.51-6.8 0.78-0.42 1.2-0.42 1.6 0.01-0.49 3.9 0.26 7 2.6 9.5-1.1 0.12-1.9 0.2-2.7 0.27z" fill="#b2875a" />
        <path d="m173 103c-3.1 0.45-6.2 0.57-9.6 0.45 2.7-0.81 5.7-1.4 9.1-2.1 0.43 0.37 0.47 0.82 0.44 1.6z" fill="#afa87a" />
        <path d="m122 371c0.36-0.33 0.66-0.32 1.7-0.22 1.9 1.7 3 3.3 3.7 4.9-1.7-0.02-3.1-0.053-4.6-0.48-0.4-0.64-0.57-0.88-0.74-1.1-0.033-0.9-0.066-1.8-0.037-3z" fill="#a0906c" />
        <path d="m122 375c0.45-0.042 0.63 0.2 0.97 1.3 0.15 3.3 0.13 5.7 0.11 8.1-0.48 0.32-0.96 0.63-1.7 0.98-0.071-3.3 0.15-6.7 0.65-10z" fill="#8c7048" />
        <path d="m32 416c2.8-3.7 5.6 0.26 8.7 0.085-2.7 0.26-5.6 0.25-8.7-0.085z" fill="#9a7e59" />
        <path d="m30 306c0.86-0.31 1.6-0.27 2.6-0.2-0.65 1.6-1.7 3.3-3 5-0.14-1.4 0.026-2.9 0.36-4.8z" fill="#5c4347" />
        <path d="m137 48c-0.079-0.52-0.067-0.7-0.035-1.2 1.7 1.5 3.3 3.3 5 5.5-1.6-1.1-3.2-2.5-5-4.3z" fill="#ab9556" />
        <path d="m56 417c0.27-2.4 0.96-4.8 1.7-7.6 0.74 2.5 3.2 5.6-1.7 7.6z" fill="#9a7e59" />
        <path d="m25 268c0.45-0.86 0.92-1.3 1.8-1.8 0.43-0.044 0.8 0.23 0.89 0.6 0.16 0.88 0.22 1.4 0.064 2.1-0.77 1.4-1.3 2.5-1.9 3.7-0.26-0.1-0.5-0.24-0.83-0.59-0.088-1.3-0.067-2.5-0.065-4z" fill="#925b49" />
        <path d="m146 58c-1.3-1.1-2.6-2.5-4-4.3 1.3 1.1 2.6 2.5 4 4.3z" fill="#ab9556" />
        <path d="m176 270c0.95 0.67 1.9 1.7 3.1 2.8 0.31 0.52 0.34 0.91 0.35 1.6-0.24 0.31-0.44 0.32-0.97 0.36-1-1.5-1.8-2.9-2.5-4.8z" fill="#a88859" />
        <path d="m172 308c0.73-0.33 1.5-0.65 2.5-1 0.34 0.74 0.38 1.5 0.33 2.6-0.77 0.36-1.5 0.34-2.5-2e-3 -0.34-0.76-0.34-1.2-0.34-1.6z" fill="#a39880" />
        <path d="m186 234c-0.63 0.47-1.4 0.67-2.7 0.55-0.58-0.86-0.65-1.4-0.73-1.9 0.17-0.23 0.38-0.43 1.2-0.67 1-0.082 1.5-0.068 1.9-0.054 0.068 0.61 0.13 1.2 0.37 2.1z" fill="#bf896a" />
        <path d="m186 224c-0.56 0.15-1-0.077-1.7-0.49 0.027-1 0.24-1.9 0.67-3 0.51 0.86 0.81 2 1 3.5z" fill="#bfa976" />
        <path d="m50 316c0.89-0.31 1.9-0.3 3.3-0.3 0.42 0.45 0.46 0.89 0.44 1.7-1.2-0.13-2.4-0.6-3.7-1.4z" fill="#87796e" />
        <path d="m176 334c-0.46-0.82-0.84-2-1-3.4 0.5 0.86 0.8 2 1 3.4z" fill="#a39880" />
        <path d="m186 232c-0.77 0.13-1.2 0.12-2.1 0.094 0.18-0.92 0.71-1.8 1.5-2.9 0.46 0.77 0.66 1.7 0.55 2.8z" fill="#bfa976" />
        <path d="m166 88c-0.24-0.73-0.16-1.4-0.052-2.4 0.68 0.16 1.3 0.65 2 1.4-0.52 0.53-1.1 0.77-2 0.94z" fill="#8e8260" />
        <path d="m25 410c0.34 1.5 0.36 3.1 0.39 5.2-0.23-1.4-0.47-3.2-0.39-5.2z" fill="#9a7e59" />
        <path d="m166 84c-0.65-0.49-1.2-1.3-1.8-2.5 0.62 0.49 1.3 1.3 1.8 2.5z" fill="#ac9867" />
        <path d="m18 222c-0.41-2e-3 -0.81-4e-3 -1.5-9e-3 -0.35-0.44-0.39-0.89-0.37-1.7 0.47-0.33 0.88-0.33 1.6-5e-3 0.3 0.78 0.3 1.2 0.3 1.7z" fill="#b9945b" />
        <path d="m118 403c0.61 0.088 1.2 0.52 1.8 1.2-0.57-0.11-1.2-0.49-1.8-1.2z" fill="#9a7351" />
        <path d="m30 357c0.18 0.47 0.28 1.3 0.23 2.4-0.21-0.52-0.26-1.3-0.23-2.4z" fill="#9a7e59" />
        <path d="m111 304c0.085-0.21 0.51-0.34 0.97-0.28-0.18 0.25-0.41 0.3-0.97 0.28z" fill="#a0844c" />
        <path d="m185 218c-0.17-0.22-0.26-0.79-0.21-1.5 0.19 0.27 0.24 0.74 0.21 1.5z" fill="#bfa976" />
        <path d="m58 408c-0.31-0.14-0.56-0.59-0.87-1.3 0.27 0.16 0.6 0.57 0.87 1.3z" fill="#9a7e59" />
        <path d="m137 46c-0.26 0.069-0.45-0.15-0.7-0.6 0.18-0.018 0.45 0.17 0.7 0.6z" fill="#ab9556" />
        <path d="m16 267c0.2-0.27 0.49-0.19 0.9 0.18-0.16 0.13-0.47 0.087-0.9-0.18z" fill="#866259" />
        <path d="m30 325c0.074 0.35-0.061 0.63-0.37 1.1-0.23-0.058-0.3-0.28-0.31-0.86 0.058-0.35 0.48-0.29 0.68-0.22z" fill="#5c4347" />
        <path d="m52 382c-0.27 0.024-0.32-0.23-0.14-0.63 0.12 0.052 0.16 0.22 0.14 0.63z" fill="#9d8861" />
        <path d="m147 59c-0.26 0.068-0.46-0.15-0.74-0.6 0.19-0.023 0.48 0.16 0.74 0.6z" fill="#ab9556" />
        <path d="m121 386c-4e-3 0.29-0.44 0.23-0.65 0.2-0.12-0.33-0.014-0.64 0.34-1 0.27 0.13 0.3 0.32 0.31 0.81z" fill="#8c7048" />
        <path d="m90 302c-2.1 0.7-4.2 1-6.7 1.3-0.4 6e-3 -0.86-0.098-1.2-0.35-0.96-0.086-1.6 0.076-2.2 0.24-3 0.057-6 0.11-9.5 0.17-2.4-0.34-4.3-0.95-6.2-0.97-11-0.096-23-0.052-35-0.059-5.9-8.3-0.31-16 0.019-25 0.067-1.6 3.4-3.1 5.8-5 2.9-0.34 5.3-0.37 8.2-0.39 9.5-0.66 19-1.3 28-2 2.8-0.34 5.9 0.95 7.1-2.7 0.99 0.077 1.7 0.14 2.5 0.48 4.9 4.1 10 1 15 1.5 2.1 0.048 3.9-0.099 6.1-0.25 1.8 6e-3 3.2 0.01 4.9 0.21 1.8-0.45 3.3-1.1 5.2-1.8 1.4-0.019 2.4 0.025 3.6 0.41 3.3 0.81 6.5 1.4 9.7 1.7 3.7 0.32 7.5 0.33 11 0.79 1.4 2.1 2.6 3.9 3.9 5.7-1.6 0.25-3.4 1-4.9 0.67-5.3-1.4-6.9 0.079-7 5.4-0.077 2.8-2 5.6-3 8.3-2.2-1.2-4.8-1.9-6.5-3.5-3.6-3.4-6.9-0.64-10 0.1-3.4 0.8-7 2.2-4.3 7.2 0.3 0.57-1.5 3.1-2.8 3.5-2.4 0.87-5.2 0.72-7.8 1.4-1.5 0.38-2.9 1.4-4.4 2.6z" fill="#c7993f" />
        <path d="m176 282c8e-3 1.1 0.016 2.1-0.13 3.9-0.36 1.6-0.76 2.4-0.75 3.2 0.057 3.9-0.77 6.2-5.7 5.6-3.4-0.42-7.1 0.67-11 1.5-1.1 0.25-1.9 1.8-3.2 2.8-2.8 0.043-5.2 0.081-7.9 0.13-0.25 8e-3 -0.74-6e-3 -0.74-6e-3 0.66-1.3 0.99-3.1 2-3.9 1.9-1.5 4.3-2.3 6.2-3.7 1.1-0.78 2.5-3 2.2-3.3-1.1-1.3-3-3.1-4.1-2.9-7 1.7-7.1-3.3-7.9-8.1 7.2-2.1 14-3.7 21-5.1 1.3-0.25 2.8 0.57 4.2 1.3-0.25 4.3 0.68 7.5 5 8.6z" fill="#cca748" />
        <path d="m171 273c-1.4-0.33-2.9-1.2-4.2-0.9-7.1 1.4-14 3-21 4.7-1.4-0.16-2.5-0.48-4-0.82-1.6-1.8-2.9-3.6-4-5.9 2-1.7 3.8-2.8 6.1-4 2.5-0.022 4.5-0.023 6.9 0.18 4.1 0.041 7.9-0.12 12-0.28 4.1 1.3 7.8 2.6 12 4-4e-3 0.75-8e-3 1.5-0.38 2.6-1.1 0.38-1.9 0.38-2.6 0.39z" fill="#ca9a46" />
        <path d="m147 299c0.37-0.14 0.87-0.13 1.4-0.066 1.4 0.68 2.2 1.3 3 2.1 7e-3 0.21-0.041 0.62-0.46 0.67-2.1 0.07-3.8 0.087-5.9 0.087-0.83-4e-3 -1.3 8e-3 -2.1 0.024-0.75 8e-3 -1.2 0.013-1.9 9e-3 -0.76 2e-3 -1.2 0.013-2 0.02-0.77 2e-3 -1.2 8e-3 -1.7 0.014-0.26-0.24-0.51-0.49-0.91-0.96 3.3-0.75 6.7-1.3 10-1.9z" fill="#a18148" />
        <path d="m126 301c-1.1 0.61-2.6 1.2-4.5 1.7 1.1-0.62 2.6-1.2 4.5-1.7z" fill="#a0844c" />
        <path d="m162 250c-0.07 2.3-0.14 4.7-0.59 7.6-0.84 2.8-1.3 5.1-2.2 7.3-3.5 0.011-6.5 0.018-9.8-0.15-0.76-1.1-1.3-2-1.4-2.9 1.8-0.35 3.3-0.55 4.6-1.1 3.7-1.4 5.5-4.2 4.8-8-0.76-4-4.2-2.6-7.1-2.9-1.1-0.32-1.9-0.63-2.7-1.2 0.024-0.69 0.042-1.1 0.47-1.5 1.8-0.13 3.2-0.2 5-0.25 2.1 0.11 3.8 0.19 5.6 0.58 1.2 1.1 2.2 1.8 3.3 2.6z" fill="#b4603f" />
        <path d="m177 247c-0.44-0.077-0.88-0.15-1.8-0.63-3.5-2-8.5-1.9-7-7.9 3.1-0.44 6-0.55 8.9-0.22-0.028 3-0.053 5.6-0.076 8.3 3e-3 0.16 0.055 0.46 0.055 0.46z" fill="#bd583b" />
        <path d="m174 270c-4.1-1.3-7.8-2.6-12-4.2-0.42-0.24-0.42-0.74-0.39-1.1 0.12-0.89 0.21-1.4 0.3-1.9 3 0.11 5.9 0.23 9.3 0.71 1.7 1.1 3 1.8 4.2 2.6 0.1 1 0.2 2 0.29 3.4-0.5 0.42-0.98 0.47-1.8 0.52z" fill="#c19254" />
        <path d="m168 239c-1.3 5.7 3.7 5.5 6.9 7.5-2.9 0.34-5.9 0.38-9.3 0.15-0.45-0.27-0.49-0.76-0.49-1.2-9e-3 -2.4-0.016-4.4 0.35-6.4 1.1-0.013 1.9-0.023 2.6-0.032z" fill="#ad553c" />
        <path d="m165 246s0.033 0.49 0.036 0.73c-0.72 1.2-1.4 2.2-2.4 3.4-1.3-0.6-2.4-1.3-3.3-2.6 0.74-2.2 1.3-3.8 2.1-5.2 1.4 1.4 2.5 2.6 3.5 3.8z" fill="#ad6c4e" />
        <path d="m162 262c-0.053 0.9-0.14 1.4-0.6 2.3-0.81 0.37-1.3 0.36-1.7 0.35 0.45-2.2 0.91-4.5 1.7-6.8 0.42 1.2 0.49 2.5 0.59 4.2z" fill="#ad6c4e" />
        <path d="m176 266c-1.3-0.43-2.6-1.2-3.9-2.3 1.1-0.04 2.2 0.26 3.7 0.62 0.31 0.47 0.27 0.89 0.18 1.6z" fill="#a88859" />
        <path d="m181 247c0.036 0.41 0.072 0.81 0.16 1.5-1.2-0.066-2.5-0.43-3.9-1.1-0.13-0.31-0.19-0.62 0.18-0.68 1.1-0.028 1.9 4e-3 2.9 0.098 0.23 0.063 0.69 0.17 0.69 0.17z" fill="#bf896a" />
        <path d="m177 152c0.14 2.6 0.55 5.1 0.33 7.6-0.18 2-1.1 4-2.4 6.2-2.5-0.49-4.7-0.72-6.1-1.9-3-2.7-5.7-2.1-8.6-0.36-1.4 0.82-2.8 1.6-4.2 2.1 2.7-5.5 5.3-11 8.3-16 3.4-1.4 6.6-2.6 9.7-3.6 1 2.1 2 3.9 3 5.6z" fill="#cdb360" />
        <path d="m174 170c1.5 4 4.6 7.6 2.2 12-1.7-1.5-2.9-3.1-4.1-5-0.059-1.1-0.096-1.8-0.29-2.9-2.9-3-5.2-1.1-7.8 0.51-1.4 1.4-2.6 2.6-3.8 4.1-0.15 1.4-0.25 2.5-0.63 3.7-0.64 1.4-1 2.7-1.7 3.8-0.8-1.8-1.3-3.4-1.7-5.4-0.017-1.1-0.042-1.8-0.037-2.9 0.093-1.1 0.15-1.8 0.54-2.6 3.9-5 9.4-5.7 15-6.9 1 0.52 1.8 0.82 2.6 1.1z" fill="#947756" />
        <path d="m174 170c-0.83 0.064-1.6-0.24-2.8-1.1-6.5-5.3-12-3.7-14 3.5-0.37 1.2-0.55 2.6-0.82 3.8-0.062 0.71-0.12 1.4-0.51 2.6-0.74 1.4-1.1 2.4-1.6 3.7 0.62 3.1 1.3 5.8 1.5 8.5-1.1 6.7e-4 -1.8-7.4e-4 -2.7-0.38-0.39-2-1-3.7-0.78-5.2 1.2-6.5 2.6-13 3.9-19 1.4-0.82 2.8-1.7 4.2-2.5 2.9-1.7 5.6-2.3 8.6 0.36 1.3 1.2 3.6 1.4 5.8 2.1 0.052 1.2-0.29 2.3-0.67 3.8z" fill="#c7ae67" />
        <path d="m174 146c-3.1 1.3-6.2 2.6-9.7 3.5 5e-3 -4.1 0.34-7.8 1-11 0.78-4e-3 1.2-7e-3 2-0.017 2.4-0.67 4.5-1.3 6.6-2 9e-3 0.17 0.018 0.33 0.034 1.2 5e-3 3.4 3e-3 6.1 9.8e-4 8.8z" fill="#d0af59" />
        <path d="m166 106c0.75 6e-3 1.5 0.012 2.7 0.37 0.96 2.5 1.3 4.8 2 6.9 0.61 1.9 1.5 3.8 2.3 5.7 0.32 4.7 0.64 9.4 0.61 15-2.1-1.2-3.9-2.9-5.6-4.9 0.21-3.9 0.072-7.5 0.65-11 0.55-3.2 0.1-5.8-2.7-8.1 2e-3 -1.5 3e-3 -2.5 4e-3 -3.6z" fill="#d0af59" />
        <path d="m172 178c1.2 1.6 2.4 3.1 3.8 4.9 0.22 0.67 0.21 1.1-0.016 2.1-2 7-5.9 9.9-12 8.8-0.41-0.73-0.63-1.3-0.84-2.1 0.011-0.79 0.013-1.2 0.36-1.6 5.5 0.67 7.7-0.85 8.5-5.8 0.31-2.1 0.15-4.2 0.2-6.3z" fill="#ac8d7a" />
        <path d="m164 194c5.9 0.87 9.8-2 12-8.7 0.24 2.8 0.28 5.9 0.24 9.4-0.072 0.34-0.55 0.38-1.1 0.55-1 1-1.5 1.9-2 2.8 0 0-0.49 9e-3 -1.1 0.026-3-0.63-5.4-1.3-7.8-2.3 8e-3 -0.8 0.011-1.3 0.013-1.7z" fill="#af986a" />
        <path d="m168 129c1.8 1.6 3.5 3.3 5.6 5 0.35 0.48 0.35 0.92 0.35 1.7-2.1 0.99-4.1 1.7-6.5 2-7e-3 -3.1 0.26-5.9 0.53-8.7z" fill="#ceae53" />
        <path d="m174 146c-0.024-3.1-0.022-5.8-0.015-8.9 0.66 0.73 1.7 1.8 1.9 3.1 0.55 3.5 0.74 7.1 1.1 11-0.97-1.3-2-3.1-3-5.2z" fill="#ccb264" />
        <path d="m173 119c-0.98-1.6-1.9-3.4-2.5-5.4-0.67-2.1-1-4.4-1.6-6.9 1.1 0.2 2.2 0.74 3.6 1.4 0.41 3.6 0.55 7.1 0.5 11z" fill="#ccb264" />
        <path d="m165 202c-0.13 3.5 0.055 6.2 5.1 5.6 2.9-0.36 10 9 9.7 12-0.34 1.5-2.4 2.7-4.2 3.6-2.3 2.2-4.6 4.4-7.2 6.2-0.94-2.3-0.91-5.1-2.2-6.3-4.4-4-9.4-7.5-14-12-0.33-2.1-0.67-3.9-1-6-0.34-2.8-0.66-5.2-0.99-7.9 1e-3 -0.42 2e-3 -0.59 0.28-0.92 1.4-1.4 2.6-2.6 3.9-3.6 2.1 5.1 6.3 7.1 11 8.7z" fill="#d1b25a" />
        <path d="m152 212c4.7 3.7 9.7 7.2 14 11 1.3 1.2 1.3 3.9 1.9 6.3-0.16 0.67-0.35 0.92-0.95 1.1-0.94 0.39-1.5 0.77-2.4 1.2-0.48 0.16-0.67 0.23-1.2 0.25-0.7-0.087-1.1-0.11-1.8-0.18-0.79-0.037-1.2-0.032-2-0.24-1.8-0.42-3.2-0.62-4.7-1.2 1.4-5.9 1.7-11-3.1-15-0.5-0.45 5e-3 -2 0.044-3.1z" fill="#ceab52" />
        <path d="m165 202c-4.7-1.3-8.9-3.4-11-8.7-0.58-1-0.83-1.5-1.1-2 0.73 1e-3 1.5 3e-3 2.7 0.29 2.9 2.1 3.8 6.5 8.2 4.8 2.4 0.65 4.8 1.3 7.6 1.9 0.16 0.5-0.072 1-0.43 1.7-2 0.72-3.8 1.2-5.9 2z" fill="#c8aa58" />
        <path d="m168 239c-0.91 0.34-1.7 0.35-2.9 0.074-0.75-1.1-0.99-1.9-0.89-2.8 1.8-0.97 3.3-1.9 4.7-2.8 1.4-0.046 2.7-0.091 4.5-0.18 2.1 0.031 3.8 0.11 6 0.64 0.43 1.7 0.43 3 0.056 4.4-1.1 1e-3 -1.9 2e-3 -2.6 2e-3 -2.9 0.11-5.8 0.22-8.9 0.66z" fill="#b4603f" />
        <path d="m169 233c-1.2 1-2.6 1.9-4.4 2.5-0.4-1.3-0.44-2.3-0.49-3.3 0.19-0.07 0.38-0.14 1.2-0.27 1.1-0.058 1.5-0.056 2-0.056 0.49 0.33 0.99 0.67 1.8 1.1z" fill="#b07a49" />
        <path d="m167 232c-0.47 0.23-0.92 0.23-1.7 0.19 0.22-0.41 0.78-0.79 1.5-1 0.2 0.15 0.17 0.6 0.16 0.83z" fill="#c49e5b" />
        <path d="m52 106c-0.17-0.064-0.34-0.13-0.76-0.3-0.57-1.7-0.9-3.3-1.2-5.2 1.3-0.42 2.7-0.48 4.9-0.54 4-0.52 7.2-1 11-1.6 11-0.13 22-0.25 33-0.31 12-0.58 24-1.2 36-1.8-0.042 1.7-0.084 3.4-0.065 5.4-0.12 0.37-0.31 0.42-1.2 0.48-3.1 0.056-5.4 0.092-8.1 0.056-1.8-0.089-3.2-0.11-4.9-0.14-1.8 0.33-3.2 0.67-5.1 1-2.1 0.31-3.9 0.59-5.9 0.66-4.6-1.3-9-2.7-13 1.1-1.4 0.028-2.5 0.036-3.8-0.14-1.4 0.26-2.6 0.71-4.3 1.2-8.5 0.072-16 0.12-25 0.14-2.5-0.012-4.5 0.011-7 7e-3 -1.5-0.028-2.5-0.027-3.6-0.027z" fill="#a7b28d" />
        <path d="m134 96c-12 0.73-24 1.4-36 1.6 0.19-2.1 0.84-3.8 1.9-5.6 1.4-0.26 2.5-0.4 3.8-0.46 0.52 0.047 0.73 0.019 1.4 0.046 2.1 0.0062 3.7-0.043 5.6 0.2 1.8-0.17 3.3-0.64 5.2-1.1 1.1-0.29 1.8-0.56 3.1-0.79 7.2-0.28 14-0.61 21-0.94 5.7 1e-3 11 2e-3 17 0.06-0.92 0.69-2.5 1.1-3.6 2-0.99 0.88-1.4 2.4-2 3.9-4.3 0.35-8.7 0.41-14 0.19-1.2-0.0094-1.8 0.25-2.4 0.51-0.42 0.094-0.84 0.19-1.6 0.38z" fill="#556942" />
        <path d="m153 102c-0.89 2.4-2.5 2.6-4.5 0.34 1.3-0.32 2.7-0.34 4.5-0.34z" fill="#afa87a" />
        <path d="m136 96c0.34-0.32 0.96-0.58 1.7-0.62-0.39 0.38-0.92 0.53-1.7 0.62z" fill="#748563" />
        <path d="m18 222c0.0015-0.88 0.0039-1.3 0.0047-2.1 0.012-4 0.025-7.7 0.047-12 0.66-4.2 1.6-7.9 1.9-12 0.49-5.5 1.4-6.2 6.7-3.6 1.1 0.86 1.7 1.4 2.3 2.1 0.35 0.75 0.65 1.2 1.1 2 2.7 1.5 5.3 2.6 7.8 4-1.9 0.73-3.9 2-5.3 1.4-8.6-3.2-8.6-3.4-10 5.5-0.088 0.49-0.28 0.97-0.27 1.5 0.2 7.2-4.4 16 5.9 20-0.012 0.7-0.019 1.1-0.46 1.6-2.5 0.047-4.5 0.027-6.5 7e-3 -2.8-2.4-3.5-5.5-3-9.4z" fill="#c3984d" />
        <path d="m27 165c-0.39-2.9-0.53-6-0.21-9.3 0.97 0.043 1.5 0.3 2.2 0.85 2.9 0.77 5.6 1.6 8.3 1.6 8.8 0.23 15 4.7 18 13 3.3 8.8 0.37 16-4.8 23-0.78-3e-3 -1.2-5e-3 -1.7-0.34-0.0072-0.77-0.011-1.2 0.15-2 4.6-8.1 4-19-1.1-24-0.69-1.1-1.3-1.9-2-2.7-2-4.3-9.8-6.5-14-3.9-1.5 0.87-2.8 2.3-4.4 3.7z" fill="#c49f51" />
        <path d="m30 197c-0.3-0.47-0.59-0.94-0.99-2-0.71-1.4-1.3-2.2-1.9-3.1-0.013-1.1-0.025-2.1-0.036-4 0.36-2.9 0.71-5 1.4-6.9 1.1 2.8 1.9 5.3 2.8 8.2 4.8 5.9 11 4.3 14-3.6 0.39-1.4 0.58-2.6 0.8-4 0.05-0.44 0.072-0.61 0.45-0.78 1.1 6e-3 1.8 6e-3 2.5 0.41-1.3 4.1-2.6 7.9-4.2 12-5.1 1.5-9.1 6-15 3.9z" fill="#a18267" />
        <path d="m49 181c-0.71-4.2e-4 -1.4-8.4e-4 -2.5-0.4-0.43-2.8-0.5-5.2-0.54-8-0.3-6.7-5.5-4.7-8.9-6 1.1-1.4 2.1-2.5 3.1-3.5 1.8 0.54 3.5 1.1 5.6 1.8 0.96 0.96 1.6 1.8 2.4 3.3 0.36 4.8 0.61 8.8 0.87 13z" fill="#9e825b" />
        <path d="m28 181c-0.35 2.1-0.71 4.2-1.1 6.7-0.63 0.22-1.5 0.22-1.8-0.19-2.4-2.7-0.21-15 3.4-17 0.41 0.4 0.42 0.58 0.28 1.1-0.37 2.8-0.59 5.2-0.8 7.9 0.012 0.72 0.015 1.1 0.018 1.5z" fill="#a88859" />
        <path d="m29 171c-0.0097-0.18-0.019-0.36-0.054-0.8 1.7-6.4 4.9-8.6 11-7.5-0.71 1.3-1.7 2.3-3.1 3.9-2.8 1.8-5.2 3.1-7.7 4.4z" fill="#b29c71" />
        <path d="m27 192c0.64 0.56 1.3 1.4 1.9 2.5-0.57-0.17-1.2-0.66-1.9-1.4-0.084-0.46-0.063-0.64-0.013-1.1z" fill="#a88859" />
        <path d="m99 14c3 2.1 6 4.2 9 6.3 1 0.68 2.2 1.1 3.6 1.7 3.5 4 6.7 8 9.9 12 3.9 4.6 7.9 9.2 12 14 2.9 4 5.5 7.7 8.2 11 3.4 4.8 7.3 9.4 10 15 2.4 4.2 0.76 8.4-3 12-0.56 0.33-1 0.34-2.1 0.13-6.4 0.016-12 0.094-18 0.52-4.7 0.35-9.4 1.1-14 1.5-1.8-1.1-3.8-1.7-4.8-3.1-2.1-2.8-4.2-5.8-5.4-9.1-0.38-1 2.4-3 3.1-4.7 0.59-1.4 0.28-3.3 0.69-5 2.5-3.6 6.6-7.1 6.5-11-0.13-5.2-3-10-5.1-15-0.44-1.1-2.3-1.9-3.6-2.2-5.3-1.1-11-1.9-16-3.3 2.7-6 5.4-12 8-17 0.47-1 0.66-2.2 0.98-3.3z" fill="#cca946" />
        <path d="m29 387c-0.0017-0.11 0.19-0.39 0.57-0.83 0.0051 0.11-0.19 0.39-0.57 0.83z" fill="#9a7e59" />
        <path d="m148 401c-1-0.76-2.1-1.5-3.2-2.3-0.37 0.2-0.84 0.36-1.2 0.66-1.5 1.3-2.9 2.7-4.3 4-0.86-1.9-1.5-4-2.7-5.7-0.73-1-2.5-2.1-3.5-1.9-1.7 0.32-3.1 1.7-4.9 2.8-3.9-3.9-4-8.7-3-14 0.25-0.4 0.72-0.42 1.1-0.22 3.8 0.7 7.3 1.2 11 1.7 2.8 0.046 5.1 0.087 7.6 0.41 0.74 0.72 1.4 1.2 2 1.6-9e-3 9e-3 8e-3 -0.01 0.057 0.37 0.33 4.5 0.61 8.5 0.88 13z" fill="#a79c79" />
        <path d="m145 386c-2.3-0.041-4.7-0.081-7.4-0.47 0.24-1.9 0.9-3.5 1.6-5-5.5-2.7-10-2.4-13 3.4 0 0-0.47 0.021-0.71 0.036-0.68-0.016-1.1-0.046-1.9-0.078-0.31-2.4-0.29-4.8-0.22-7.7 1.4-0.42 2.7-0.39 4.9-0.35 5.6 0.65 10 1.3 15 2.3 0.7 2.8 1.3 5.3 1.9 7.7-0.024 0.025-0.072 0.076-0.072 0.076z" fill="#8e8260" />
        <path d="m148 401c-0.15-4.4-0.42-8.5-0.39-13 1.4 1.6 2.5 3.6 3.7 5.7 0.47 0.4 0.76 0.6 1 1.2-0.052 1.1-0.087 1.9-0.12 2.7-1.5 2.6-2.9 5.1-4.7 7.8-0.09-1.3 0.13-2.7 0.48-4.5z" fill="#8e8260" />
        <path d="m47 75c1.6-3.8 3.2-7.5 4.9-12 1.9 0.56 3.6 1.5 5.2 2.3 5.3-8.9 11-18 17-27 1.1 1.3 1.8 2.3 2.8 3.7 4.1-7.5 4.8-7.8 8.4-4.9-7.3 8.7-8.3 18-6 29 0.59 2.7 0.76 6-4.1 5.2-0.91-0.14-3 1.6-3.1 2.5-0.53 6.7-3.4 11-9.7 14-0.8 0.33-1.3 1.3-2.4 2-1.5-0.0061-2.5-0.014-3.6-0.38-1.3-5.9-5.5-1.4-8.1-3-0.39-4.1-0.62-7.9-0.86-12z" fill="#cb9d44" />
        <path d="m85 37c-3.7-2.6-4.4-2.2-8.5 5.2-0.94-1.4-1.7-2.5-2.4-3.9 0.54-1.5 1.1-2.6 1.8-4 4.4-6.4 8.7-12 13-19 0.87-0.91 1.7-1.4 3.1-2.3 1-1.2 1.5-2.1 1.9-3 1.4-0.013 2.7-0.027 4.5-0.021 0.43 1.1 0.45 2.1 0.48 3.5-0.32 1.5-0.5 2.6-0.98 3.7-2.6 5.7-5.3 11-8.3 18-1.1 1.4-1.9 2.3-3 3.1-0.75-0.37-1.2-0.63-1.7-0.88z" fill="#cea047" />
        <path d="m100 92c-0.65 1.7-1.3 3.4-2 5.5-11 0.49-21 0.6-33 0.62-3.7-0.18-6.5-0.26-9.3-0.35 0.0091-0.76 0.018-1.5 0.39-2.7 2.1-1.1 3.8-1.7 6-2.4 3.5 0.0083 6.6 0.014 10 0.08 2.3-0.22 4.2-0.5 6.3-0.71 0.56 0.13 0.87 0.24 1.3 0.74 2.3 3.1 3.4 2 4.4-0.84 1.5-0.05 2.5-0.015 3.6 0.36 0.81 0.98 1.6 1.6 2.3 2.2 0.54-0.89 1.1-1.8 2-2.8 2.8 0.016 5.2 0.15 7.6 0.29z" fill="#4e6440" />
        <path d="m62 93c-1.7 0.67-3.4 1.3-5.5 2-5.1-0.31-9.8-0.64-15-1-0.45-0.5-0.43-0.94 0.0044-1.7 1.5-0.3 2.5-0.3 4-0.26 5.8 0.34 11 0.64 16 0.93z" fill="#9a824c" />
        <path d="m56 98c3-0.12 5.8-0.036 9 0.16-2.7 0.64-5.8 1.2-9.5 1.6-0.23-0.56-0.0069-1.1 0.41-1.8z" fill="#748563" />
        <path d="m172 308c0.39 0.41 0.39 0.84 0.39 1.6-3.2 8.4-1.9 17-0.44 25 0.69 3.9 0.97 7.8 1.4 12-5e-3 3.8-0.011 7.2-0.42 11-2.6 2.1-4.8 3.8-7 5.4 0.21 0.24 0.42 0.48 0.62 0.71-2.1 0.77-4.2 1.5-6.5 2-0.39-6.8-0.57-13-0.57-20 0.39-11 0.61-22 0.84-33 0.044-1.1 0.073-1.8 0.11-2.5 0.01-8e-3 0.033-0.023 0.033-0.023 3.7-0.67 7.4-1.3 11-2z" fill="#aca482" />
        <path d="m152 398c-0.33-0.82-0.3-1.6-0.038-3 0.36-2.4 0.5-4.2 0.67-6.4 0.08-0.77 0.13-1.2 0.63-1.6 7.1-0.01 14-0.022 20-0.034 0.33 7.3 0.67 15 1 22-1.4 0.5-2.8 0.55-4.6 0.62-2.1 4e-3 -3.8-0.025-5.9-0.052-0.71-0.17-0.98-0.49-1.3-0.51-5.8-0.25-11-1.1-8.4-9.1 0.16-0.53-1.3-1.6-2.4-2.4z" fill="#afa482" />
        <path d="m174 387c-6.8 0.2-13 0.21-21-0.028-0.5-0.42-0.47-0.59-0.25-0.89 0.4-0.34 0.6-0.57 1.1-0.9 1.7-0.71 3.1-1.3 4.9-2 5.8-0.013 11-0.023 16-0.032 0.023 0.45 0.046 0.91 0.092 1.7-0.5 0.88-1 1.4-1.8 2.1z" fill="#a29572" />
        <path d="m43 272c-2.4 0.029-4.8 0.058-7.6 0.084-3.1 0.28-5.9 0.57-9 0.83 0.14-1.2 0.69-2.3 1.9-3.7 4.7-0.25 8.7-0.26 13-0.062 1.1 0.45 2 0.69 2.7 1.2-0.4 0.72-0.66 1.2-0.92 1.7z" fill="#ae7b3a" />
        <path d="m28 267c-6e-6 0-0.37-0.27-0.54-0.43-0.43-0.58-0.57-1.2-0.94-1.4-5.7-3-5.7-8.3-4.8-14 1.1-0.61 1.9-0.68 3-0.7 1.1 0.044 1.9 0.026 2.9 0.063 0.59 0.083 0.93 0.11 1.3 0.43 0.34 1 0.6 1.8 0.86 3-0.17 4.1-0.32 7.8-0.68 12-0.5 0.64-0.8 1.1-1.1 1.6z" fill="#cc9c7c" />
        <path d="m24 250c-0.74 0.078-1.5 0.16-2.6 0.32-1.4-0.033-2.5-0.16-3.9-0.33-0.75-3.5-1.3-6.9-1.4-10-0.035-1.7 0.84-3.4 2-5.3 1.1-0.22 1.6-0.21 1.9 0.19-0.35 1.5-0.72 2.6-0.84 3.7-0.7 6.6 1.7 8.7 8.3 7.2 0.64-0.14 1.3-0.26 2-0.032 0.15 1.1 0.22 1.8-0.16 2.6-1.1 0.052-1.7 0.094-2.6 0.15-1.1 0.64-1.9 1.3-2.7 1.9z" fill="#92322b" />
        <path d="m166 106c0.47 1.1 0.47 2.1 0.042 3.6-5.5 0.2-11 0.32-16-0.27-4-0.47-5.1 1.2-5.4 4.7-2.1 0.65-3.9 1.3-5.9 1.9-1.1-0.34-1.9-0.64-2.8-1.1-0.35-0.4-0.58-0.6-1.2-0.78-1.5 1e-3 -2.5 0.017-3.9-0.14-3.4 0.6-6.6 1.4-9.7 1.8 0.67-3.1 1.3-5.9 2-8.9-3e-3 -0.43-5e-3 -0.6 0.32-0.77 0.77-0.017 1.2-0.029 2.1-0.028 2.8 0.01 5.2 7e-3 7.6 4e-3 11 0.016 21 0.033 33 0.058z" fill="#c9a951" />
        <path d="m133 106c-2.4 0.38-4.8 0.38-7.6 1.2e-4 -0.43-1.4-0.42-2.3-0.41-3.3 2.3-0.036 4.7-0.071 7.5-0.061 0.46 1 0.49 2 0.52 3.4z" fill="#b89b55" />
        <path d="m156 299c0.92-0.96 1.7-2.5 2.8-2.8 3.5-0.82 7.2-1.9 11-1.5 4.9 0.61 5.8-1.7 5.7-5.6-0.012-0.79 0.39-1.6 0.75-2.8 0.8 1.5 1.9 3.3 2 5.2 0.26 3.7-1.1 6.4-5.5 6.5-1.3 0.021-2.7 0.82-4.2 1.6-1.3 0.35-2.3 0.37-4.2 0.24-3.1-0.41-5.6-0.69-8-0.96z" fill="#c9a951" />
        <path d="m171 273c0.74-0.41 1.5-0.42 2.6-0.43 1 2.7 1.7 5.5 2.4 8.6-4.3-0.73-5.2-3.9-5-8.2z" fill="#c9a951" />
        <path d="m38 108c0.53-0.046 1.1-0.093 1.9 0.18 0.9 0.16 1.5 0.015 2.2-0.13 1.4 0.011 2.7 0.021 4.5 0.36 0.43 0.74 0.44 1.2 0.21 1.8-3.7 8.1-6.6 16-7.2 25-3.5-8e-3 -6.5 0.012-9.6 0.033-0.5-0.25-0.99-0.5-1.7-0.88 1.7-7.9 3.7-16 5.7-24-7e-3 -0.4 0.019-0.4 0.38-0.4 1.5-0.65 2.6-1.3 3.7-1.9z" fill="#c79843" />
        <path d="m30 135c3.1-0.39 6.1-0.42 9.5-0.074-0.63 4.2-1.5 8-2.5 12-1.2 4.3-3.2 7.8-8 9-0.5-0.25-1-0.51-1.8-0.88 0.52-5 1.3-9.9 2.8-15 1.9-0.37 3.1-0.59 4.3-0.81-0.06-0.54-0.12-1.1-0.18-1.6-1.4 0.1-2.8 0.2-4.2 0.3-0.0016-0.75-0.0033-1.5-0.0038-2.6z" fill="#c79a44" />
        <path d="m30 138c1.4-0.43 2.8-0.53 4.2-0.63 0.06 0.54 0.12 1.1 0.18 1.6-1.2 0.22-2.4 0.44-4 0.66-0.37-0.44-0.37-0.89-0.37-1.7z" fill="#caa248" />
        <path d="m173 198c0.2-0.77 0.71-1.6 1.5-2.7-0.21 0.75-0.69 1.7-1.5 2.7z" fill="#c8b375" />
        <path d="m115 88c4.7-0.58 9.4-1.4 14-1.7 5.7-0.43 12-0.51 18-0.52-1.9 1-4.1 1.8-6.5 2.9-6.9 0.66-14 0.99-21 1.1-1.6-0.38-2.5-0.53-3.5-0.65-0.19 0.029-0.59 0.044-0.59-0.25-3e-3 -0.49-4e-3 -0.68-6e-3 -0.87z" fill="#c5a752" />
        <path d="m20 234c-0.45-7e-3 -0.91-0.014-1.7-0.025-0.34-0.41-0.34-0.81-0.35-1.5 0.76-0.37 1.5-0.45 2.7-0.57 2.4-0.03 4.4-9e-3 7.2 0.013 1.6 0.4 2.4 0.8 3 1.5-0.63 2.4-1 4.5-1.8 6.5-1.6-0.96-2.8-1.9-4.1-2.8-1.6-1.1-3.3-2.1-5-3.2z" fill="#913c1e" />
        <path d="m177 238c0.75-0.44 1.5-0.44 2.9-0.53 1.5-0.028 2.3 0.034 3.1 0.095 0.18 2.1 0.37 4.2 0.44 6.6-0.78 0.61-1.4 0.82-2.5 1.3-0.61 0.47-0.82 0.67-0.99 0.91-0.76-0.032-1.5-0.064-2.7-0.19-0.35-2.7-0.32-5.2-0.29-8.2z" fill="#ad553c" />
        <path d="m180 247c-0.055-0.3 0.15-0.5 0.57-0.78 0.18 0.064 0.18 0.24 0.15 0.69-0.028 0.27-0.49 0.16-0.71 0.095z" fill="#ad6c4e" />
        <path d="m143 378c-4.7-0.64-9.4-1.3-15-1.9-1.6-1.6-2.7-3.2-4.1-4.9-0.31-1.5-0.32-2.9 0.044-4.8 4.4-3.6 5.2-17 1.4-21-0.47-0.4-1.2-0.49-1.8-0.72-6e-3 -0.74-0.013-1.5-0.027-2.6 6e-3 -10 0.02-20 0.35-31 2.2 0.65 5 3 5.8 2.5 3.9-2.8 7.9-1.4 12-0.62-0.69 2.7-1.1 5.2-2.1 7.3-2.6 5-6.3 9.6-1.7 15 0.75 0.97 0.06 3.2-0.21 4.8-1.1 6.7-1 6.9 6.1 7.4 0.6 3.5 1.2 6.6 1.8 10 7e-3 2.4-0.037 4.5-0.18 6.6-0.22 0.46-0.15 0.75 0.17 1.4 2e-3 4.1-0.051 7.7-0.44 11-1 8e-3 -1.7 0.016-2.4 0.023z" fill="#9e9576" />
        <path d="m142 313c-4-0.33-7.9-1.7-12 1-0.78 0.55-3.6-1.8-5.8-2.9 0.15-0.71 0.61-1.3 1.6-1.8 2.3 0.27 4.2 0.9 5.9 0.51 1.5-0.36 2.8-1.8 4.4-3 1.1-0.41 1.9-0.62 2.9-0.5 1.7 1.5 3.2 2.6 4.8 4.1 4e-3 1.1-0.018 1.9-0.35 2.6-0.73-0.012-1.1-0.016-1.6-0.022z" fill="#9a8f71" />
        <path d="m139 306c-0.83 0.21-1.7 0.42-3.2 0.83-3.7 0.53-6.8 0.85-9.8 1.2-0.49-0.29-0.98-0.58-1.8-0.93 2.1-0.72 4.4-1.3 6.8-2 2-0.63 3.9-1.4 6-2.5 0.51-0.38 0.95-0.39 1.9-0.25 1 0.045 1.6-0.052 2.1-0.15 0.43-5e-3 0.86-9e-3 1.7 0.25 0.68 0.73 0.98 1.2 1.3 2-0.028 0.8-0.053 1.3-0.39 1.6-1.7-0.06-3.1-0.041-4.5-0.023z" fill="#89775b" />
        <path d="m126 308c3-0.58 6.1-0.9 9.5-1.2-0.94 0.97-2.2 2.4-3.7 2.8-1.6 0.39-3.5-0.25-5.6-0.6-0.26-0.34-0.26-0.52-0.25-0.95z" fill="#91866a" />
        <path d="m80 303c0.29-0.19 0.93-0.35 1.7-0.3-0.37 0.25-0.84 0.28-1.7 0.3z" fill="#bd964d" />
        <path d="m45 92c-1.1 0.0038-2.1 0.0076-3.5-0.028-1-1.7-1.7-3.4-2.1-5.6 0.74-1.4 1.2-2.3 1.6-3.3 0.58-1.5 1.2-2.9 1.9-4.7 1.3-1.2 2.4-2.2 3.8-3.2 0.54 3.7 0.77 7.4 1.2 12 0.15 1.5 0.14 2.2-0.19 3-1.1 0.63-1.9 1.2-2.7 1.8z" fill="#c79645" />
        <path d="m183 238c-0.88 0.3-1.7 0.24-2.8 0.26-0.25-1.2-0.25-2.5-0.25-4.2 0.74-0.54 1.5-0.69 2.6-0.88 0.45 0.49 0.52 1 0.69 1.9-5e-3 1.1-0.11 1.8-0.25 2.9z" fill="#a4603e" />
        <path d="m161 307c-0.29 0.77-0.58 1.5-0.88 2.6-8e-3 0.31-0.031 0.33-0.43 0.3-1.5 0.96-2.6 1.9-3.7 3.2-0.55 1.1-1.1 1.9-1.7 2.3-0.19-2.5-0.26-4.6-0.11-7 0.43-2.1 0.64-3.9 0.86-6 0.029-0.78 0.049-1.2 0.36-1.7 0.68-0.022 1.1 8e-3 1.5 0.39 1.4 2.2 2.8 4 4.1 5.8z" fill="#7c6e59" />
        <path d="m161 307c-1.7-1.7-3-3.6-4.1-5.8 1.1-0.39 1.9-0.37 2.8-0.25 0.12 0.11 0.59 0.14 0.59 0.14s0.38-0.29 0.73-0.34c1.1-0.058 1.8-0.066 2.5-0.073 0.34 0.87 0.68 1.7 1.1 2.9-1 1.3-2.2 2.3-3.6 3.4z" fill="#6c5b43" />
        <g fill="#b78b50"><path d="m47 110c-0.01-0.42-0.02-0.84-0.043-1.6 1.6-0.79 3.2-1.3 4.9-2.1 1.2-0.32 2.3-0.33 3.7 5e-3 0.042 1.1-0.25 1.9-0.95 2.7-2.8 0.33-5.2 0.65-7.6 0.97z"/>
            <path d="m38 108c-0.74 0.65-1.8 1.3-3.3 1.9 0.74-0.65 1.8-1.3 3.3-1.9z" />
            <path d="m42 108c-0.29 0.17-0.92 0.32-1.6 0.23 0.38-0.24 0.83-0.24 1.6-0.23z" /></g>
        <path d="m41 83c-0.14 0.81-0.59 1.7-1.3 2.8 0.14-0.81 0.59-1.7 1.3-2.8z" fill="#c19254" />
        <path d="m124 345c0.62-0.24 1.4-0.15 1.8 0.25 3.7 3.2 3 17-1.4 20-0.38-6.6-0.4-13-0.41-20z" fill="#a0906c" />
        <path d="m94 10c-0.2 0.75-0.66 1.6-1.4 2.7 0.19-0.76 0.68-1.6 1.4-2.7z" fill="#c8974c" />
        <path d="m160 366c2.1-0.77 4.2-1.5 6.3-2.3-0.21-0.24-0.42-0.48-0.62-0.71 2.2-1.7 4.4-3.3 7-5 1.2 0.3 2 0.6 3.1 0.96 0.45 4.5 0.59 8.9 0.96 14 0.24 0.33 0.28 0.81-0.063 1.2-6.1 1.5-12 2.7-18 3.5 0.28-4.1 0.58-7.7 0.89-11z" fill="#b7aa87" />
        <path d="m159 378c5.7-1.2 11-2.4 17-3.7 0.34 1.6 0.34 3.4-0.12 5.5-6.1 0.75-12 1.1-17 1 3e-3 -1.1 1e-3 -1.9 0.025-2.7 0.025-0.063 0.076-0.19 0.076-0.19z" fill="#958d6c" />
        <path d="m159 381c5.7-0.33 11-0.65 17-0.96 0.23 0.81 8e-3 1.6-0.39 2.7-5.5 0.28-11 0.29-17 0.12-0.47-0.73-0.36-1.3-0.25-1.8z" fill="#a79c79" />
        <path d="m164 301c-0.71 0.21-1.4 0.22-2.7 0.25-0.81 0.056-0.99 0.086-1.2 0.11-0.77-0.013-1.5-0.027-2.7 4e-3 -0.78 0.014-1.2-0.016-2.3-0.038-1.8 0.06-2.9 0.11-4 0.16-0.81-0.62-1.6-1.2-2.8-1.9 2.1-0.11 4.5-0.15 7.3-0.19 2.8 0.27 5.3 0.54 8 0.91 0.31 0.094 0.3 0.5 0.29 0.71z" fill="#c6a760" />
        <path d="m28 267c0.21-0.83 0.51-1.3 1.4-1.9 3 0.18 5.4 0.34 7.8 0.87 1.7 0.38 3.3 1.2 4.8 2-0.44 0.34-0.64 0.59-0.79 0.88-4 0.016-8 0.032-12 0.03-0.52-0.52-0.59-1-0.74-1.9z" fill="#83421b" />
        <path d="m116 267c-1-0.044-2.1-0.089-3.8-0.18-1.5-0.11-2.3-0.18-3.1-0.63 5e-3 -1.1 6e-3 -1.9 0.36-2.6 2-0.52 3.9-0.73 5.4-1.7 5-3.2 1.5-8.2 2.6-12 1.7 0.34 3.1 0.67 4.5 1.5 0.5 5.1 0.96 9.8 1.1 15-0.51 6e-3 -0.71 0.015-1.1 0.16-0.47 0.34-0.69 0.59-1.3 0.89-1.8 0.16-3.2 0.29-4.6 0.42z" fill="#a34425" />
        <path d="m116 268c1.3-0.47 2.7-0.61 4.8-0.7 0.84 0.076 1 0.12 1.4 0.27 0.8-0.083 1.4-0.29 2.4-0.47 5.8-0.63 11-1.3 17-1.8 0.71 0.43 1.2 0.72 1.6 1-1.8 1.1-3.7 2.3-5.8 3.6-4 0.061-7.8 0.048-12-0.27-3.2-0.27-6.4-0.9-9.7-1.7z" fill="#bd8a43" />
        <path d="m43 272c-0.16-0.48 0.1-0.96 0.96-1.7 5.7-0.28 11-0.16 16-0.39 1.6-0.073 3.2-1.1 5.2-1.7 1.4-0.099 2.5-0.15 3.8-0.11 0.75 0.7 1.2 1.3 1.7 1.9-9.1 0.67-18 1.3-28 2z" fill="#b9863b" />
        <path d="m81 267c-0.66-0.065-1.3-0.13-2.7-0.3-2.8-0.43-5-0.75-7.4-1.2-0.79-0.38-1.3-0.69-1.4-1 1.1-0.016 1.9-0.027 2.9-0.18 2.1-1.7 3.9-3.3 6-4.8 1.3 0.71 2.4 1.3 3.4 2.3 0.16 1.1 0.25 1.8 0.26 2.9-0.44 0.95-0.78 1.6-1.1 2.2z" fill="#9e4428" />
        <path d="m81 268c0.16-0.89 0.51-1.5 1.2-2.4 0.78-0.27 1.2-0.24 1.9-0.044 1.5 0.36 2.6 0.54 4.1 0.98 2.8 0.45 5.2 0.65 7.7 1.2 0.014 0.76 0.02 1.2 0.026 1.6-4.9-0.33-10 2.7-15-1.3z" fill="#ae7b3a" />
        <path d="m71 266c2.1 0.32 4.2 0.65 6.7 1.1-0.53 3.8-3.6 2.5-6.4 2.8-0.89-0.59-1.4-1.2-1.9-2.1 0.47-0.81 1-1.3 1.6-1.8z" fill="#9f6e3b" />
        <path d="m96 269c-0.3-0.63-0.31-1.1-0.034-1.9 0.76-0.74 1.2-1.1 2-1.4 0.75-0.026 1.2-0.034 1.7 0.26 0.73 1.1 1.4 2 2 2.8-1.8 0.15-3.6 0.3-5.7 0.25z" fill="#bd8a43" />
        <path d="m109 267c0.78 0.07 1.6 0.14 2.7 0.32-1.1 0.76-2.6 1.4-4.4 1.6-0.25-0.87-0.23-1.2 0.11-1.7 0.74-0.11 1.2-0.15 1.6-0.2z" fill="#bd8a43" />
        <path d="m107 267c-0.02 0.38-0.041 0.76-0.078 1.4-1.4 0.28-2.8 0.28-4.6 0.27-1.1-0.84-1.7-1.7-2.1-2.9 0.56-0.41 0.94-0.45 1.6-0.23 1.9 0.65 3.6 1 5.2 1.4z" fill="#ae7b3a" />
        <path d="m143 266c-0.9-0.27-1.4-0.57-2.1-1.3-0.34-0.92-0.41-1.4-0.32-2.1 0.48-1.4 0.79-2.5 1.4-3.7 0.71 2e-3 1.1 3e-3 1.7 0.28 1.4 1.1 2.6 1.9 3.8 2.7 2e-3 3e-3 4e-3 0.011 4e-3 0.011 0.5 0.89 1 1.8 1.8 3.1 0.27 0.62 0.28 0.8 0.28 0.98-2 3e-4 -4.1 6.1e-4 -6.6 0.023z" fill="#ab6336" />
        <path d="m150 266c-0.35-0.38-0.36-0.56-0.36-1 3-0.28 6.1-0.28 9.5-0.29 0.9 4e-3 1.3 0.012 2.1 0.027 0.33 7e-3 0.34 0.5 0.34 0.75-3.8 0.41-7.5 0.57-12 0.53z" fill="#b9863b" />
        <path d="m154 309c0.071 2.1 0.14 4.2 0.28 7.1 0.13 9.9 0.18 19 0.087 28-0.5 7.5-0.84 15-1.2 22-0.019 6.8 0.024 13 0.067 20-0.032 0.17-0.063 0.34-0.018 0.76 0.027 0.69-0.024 1.1-0.43 2-0.83 2-1.3 3.6-1.8 5.1-1.1-1.9-2.1-3.9-3.6-5.9-0.36-0.049-0.37-0.03-0.38-0.37-0.06-0.78-0.12-1.2-0.14-2.1-0.36-2.8-0.75-5.3-1.1-7.7 0.053-3.6 0.11-7.3 0.17-12-0.037-0.92-0.082-1.1-0.13-1.3 0.044-2 0.087-4 0.17-6.9-0.25-4.3-0.53-7.7-0.89-12 0.22-5.1 0.51-9.8 0.87-15-0.32-9.5-0.7-19-1-28 0.098-0.74 0.14-1.2 0.18-1.6 1.7-0.017 3.4-0.034 5.8-0.029 1.3 0.34 1.8 0.66 2.3 1.4 0.23 2.1 0.53 3.9 0.83 5.6z" opacity="0" />
        <path d="m153 303c-0.53-0.32-1.1-0.64-1.9-1-0.32-0.075-0.27-0.49-0.27-0.69 1.1-0.26 2.2-0.31 3.7-0.32 0.39 0.49 0.37 0.94 0.039 1.7-0.72 0.33-1.1 0.33-1.5 0.33z" fill="#6c5b43" />
        <path d="m145 302c0.32 0.44 0.28 0.87-0.041 1.6-0.28 0.33-0.72 0.34-0.72 0.34-0.29-0.47-0.59-0.94-0.95-1.7 0.41-0.28 0.88-0.29 1.7-0.29z" fill="#856b46" />
        <path d="m141 302c-0.21 0.11-0.75 0.2-1.5 0.16 0.26-0.15 0.7-0.16 1.5-0.16z" fill="#856b46" />
        <path d="m161 242c-0.54 1.6-1.1 3.2-1.9 5.1-2 0.16-3.7 0.082-6-0.36-3-1.2-5.5-2-8.2-2.9 0.96-1.8 1.7-3.2 2.4-4.5-0.86-1.5-1.6-2.9-1.9-4.3 5.2-0.017 9.8-0.02 15 0.37 0.42 2.1 0.83 3.9 1.2 5.8-0.04 0.24-0.029 0.74-0.029 0.74z" fill="#d2aa87" />
        <path d="m151 250c2.6 0.32 6-1.1 6.8 2.9 0.74 3.9-1.1 6.7-4.8 8-1.4 0.51-2.8 0.71-4.6 1.1-0.39 9e-3 -0.39 9.1e-4 -0.32-0.35 0.91-4.1 5.5-7 2.9-12z" fill="#bd583b" />
        <path d="m151 250c2.9 4.7-1.7 7.5-2.6 12-1.3-0.46-2.5-1.3-3.9-2.8 0.17-3.7 0.51-6.8 1.1-9.7 1.1 0.024 1.9-0.04 2.7-0.1 0.78 0.31 1.6 0.62 2.7 0.94z" fill="#b25235" />
        <path d="m145 235c0.77 1.4 1.5 2.8 2.4 4.3-0.69 1.3-1.4 2.7-2.4 4.5 2.8 0.9 5.2 1.7 7.8 2.8-1.2 0.41-2.6 0.49-4.8 0.56-1.6 0.032-2.4 0.069-3.4-0.17-0.7-4.2-1.1-8.1-1.2-12 0.73-7e-3 1.2-5e-3 1.6-3e-3z" fill="#d19f7e" />
        <path d="m145 247c0.78-0.037 1.6-0.075 2.7-0.059 0.37 0.45 0.36 0.84 0.33 1.5-0.84 0.36-1.7 0.43-2.8 0.1-0.27-0.78-0.29-1.2-0.31-1.6z" fill="#ad6c4e" />
        <path d="m161 242c-0.29-0.14-0.3-0.63-0.078-1.2 0.37-3.3 0.51-6.1 0.66-8.8 0.4 0.027 0.8 0.055 1.5 0.14 0.34 1.1 0.39 2 0.44 3.4 0.25 1.2 0.49 2 0.86 3.1 0.13 2.3 0.14 4.3 0.15 6.7-1.1-0.79-2.2-2-3.5-3.4z" fill="#9e5938" />
        <path d="m153 191c0.41 0.88 0.66 1.4 1 2.1-1 1.5-2.2 2.7-3.6 3.7-0.27-0.96-0.27-1.7-0.11-2.7-1.6-4.7-3.7-9-1.3-14 0.22-0.44-0.14-1.3-0.5-1.9-2.4-3.4-4.9-6.7-7.3-10 0.23-4.6 0.4-8.7-4-11-0.72-0.44-0.71-2.1-0.92-3.4 0.37-0.75 0.63-1.2 1.2-1.9 1.1-1 1.9-2 3.1-2.9 1.1 2e-4 1.9 4e-4 2.8 0.33 4.4 1.4 8.5 2.7 13 3.4 0.63 0.1 2.4-2.4 2.4-3.7 0.21-4.8 2.3-8.1 6.6-10-0.33 3.7-0.67 7.4-1 12-2.6 5.5-5.3 11-8 16-1.4 6.8-2.8 13-4 20-0.27 1.5 0.38 3.2 0.78 5.2z" fill="#ceae53" />
        <path d="m160 183c0.1-1 0.21-2.1 0.7-3.6 2.1-1.7 3.9-3 6-4.3 0.76-4e-3 1.2-2e-3 1.7 0.37 0.38 1.1 0.97 1.9 0.91 2.7-0.22 2.9-0.64 5.8-0.99 8.7-2.2-0.45-4.4-0.89-6.6-1.3-0.48-0.1-0.95-0.27-1.5-0.76-0.13-0.8-0.22-1.3-0.31-1.7z" fill="#bd958d" />
        <path d="m156 176c-0.059-1.2 0.12-2.5 0.49-3.7 2.1-7.2 7.7-8.8 14-3.7-5.1 1.8-11 2.5-14 7.5z" fill="#ac9867" />
        <path d="m160 185c0.47 0.14 0.94 0.31 1.4 0.41 2.2 0.46 4.4 0.9 6.6 1.3 0.35-2.9 0.77-5.8 0.99-8.7 0.056-0.74-0.53-1.5-0.52-2.7 1.3-0.36 2.4-0.35 3.4-0.34 0.037 0.73 0.074 1.5 0.13 2.6-0.032 2.5 0.13 4.6-0.18 6.7-0.73 4.9-3 6.4-8.7 5.5-1.4-1.8-2.3-3.3-3.1-4.8z" fill="#b78d86" />
        <path d="m164 196c-4.4 2-5.3-2.4-7.9-4.5-0.81-3-1.4-5.7-1.8-8.8 0.74-0.46 1.2-0.5 1.6-0.54 0.47 1.6 0.94 3.2 1.9 5.3 2 1.9 3.6 3.4 5.1 4.9 0.22 0.52 0.44 1 0.85 1.8 0.19 0.67 0.19 1.1 0.18 1.9z" fill="#9a824c" />
        <path d="m163 192c-1.6-1.1-3.1-2.6-4.8-4.4 0.22-1.5 0.59-2.8 1.2-4.2 0.36 0.29 0.45 0.74 0.58 1.5 0.87 1.9 1.7 3.4 2.8 5.1 0.23 0.68 0.23 1.1 0.22 1.9z" fill="#a18267" />
        <path d="m166 175c-1.8 1.3-3.5 2.6-5.6 3.9 0.84-1.1 2-2.3 3.8-3.7 1-0.22 1.4-0.22 1.9-0.21z" fill="#b78d86" />
        <path d="m166 175c-0.75-3.6e-4 -1.2-7e-3 -1.9-0.01 2.1-1.4 4.4-3.2 7.3-0.28-0.88 0.29-1.9 0.28-3.3 0.28-0.82 7e-3 -1.3 5e-3 -2 9e-3z" fill="#ac8d7a" />
        <path d="m156 182c-0.43 0.41-0.84 0.45-1.6 0.51 0.094-0.93 0.5-1.9 1.2-3 0.32 0.61 0.35 1.3 0.37 2.4z" fill="#ac9867" />
        <path d="m165 138c-4.7 1.9-6.7 5.2-7 10-0.059 1.3-1.8 3.8-2.4 3.7-4.3-0.7-8.5-2-13-3.6 4.3-5.3 9.3-9.7 8.7-17 3e-3 -0.42 5e-3 -0.59 0.33-0.87 3.5-3 3.6-5.6-0.36-8.2-2.3-2.8-4.7-5.2-7-7.6-0.12-3.4 0.95-5.2 5-4.7 5 0.59 10 0.47 16 0.67 3.2 1.9 3.7 4.4 3.1 7.7-0.58 3.4-0.45 7-0.65 11-0.29 3.2-0.56 6-0.93 9.1-0.54 0.32-0.99 0.32-1.8 0.33z" fill="#cdab4d" />
        <path d="m141 168c2.4 3.3 4.9 6.6 7.3 10 0.36 0.5 0.72 1.4 0.5 1.9-2.4 4.9-0.3 9.3 1.1 14-1.7-1.1-3.1-2.3-5.4-4.4v12c1.7-0.26 3.1-0.47 4.5-0.34 0.65 2.1 1.4 3.9 2.1 5.7 0.33 1.7 0.67 3.5 1 5.6-0.04 1.4-0.55 3-0.045 3.5 4.8 4.3 4.5 9.6 2.7 15-3.2 0.081-5.9-0.23-8.4-0.78 1.7-1.2 3.1-2.1 5.2-3.5-4.9-1.7-7.4-3.3-4.1-8.3 1.5-2.3-0.68-5.9-4.5-6.9-3.2-0.88-6.3-2.4-11-4 2.1-1.6 3.2-2.4 4.2-3.3 0.8-0.73 1.9-1.6 2.1-2.5 0.93-5.8 1.6-12 2.5-18-0.32-1.1-1.5-3.2-1.5-5.3 0.036-3.2 0.91-6.4 1.4-9.6 6.1e-4 -4.3e-4 4e-3 -3e-3 4e-3 -3e-3z" fill="#cdab4d" />
        <path d="m149 200c-1.4 0.21-2.8 0.42-4.5 0.68v-12c2.4 2.1 3.7 3.2 5.3 4.6 0.24 0.99 0.24 1.7 0.24 2.9-7.1e-4 0.54-2e-3 0.71-0.19 1.3-0.4 0.99-0.6 1.5-0.81 2z" fill="#cdaa4a" />
        <path d="m149 200c0.26-0.86 0.47-1.4 0.86-2.1 0.51 2.2 0.83 4.6 1.2 7.4-0.69-1.4-1.4-3.2-2-5.3z" fill="#ceae53" />
        <path d="m146 230c2.8 0.31 5.5 0.62 8.6 0.95 1.8 0.22 3.3 0.42 5.1 1.2 0.3 1.3 0.29 2.1 0.28 2.8-4.7 3e-3 -9.4 6e-3 -15 0.023-0.88 0.012-1.3 9e-3 -2.1-0.32-0.36-0.78-0.37-1.2-0.18-1.9 0.4-0.76 0.59-1.3 1-2 0.73-0.37 1.2-0.56 1.8-0.74z" fill="#c49e5b" />
        <path d="m160 235c3e-3 -1.1 0.012-1.9 0.016-3 0.45-0.38 0.9-0.38 1.7-0.34 0.19 2.8 0.046 5.5-0.28 8.6-0.6-1.4-1-3.1-1.4-5.2z" fill="#b07a49" />
        <path d="m63 106c8-0.053 16-0.11 25-0.14 1.3 0.053 1.7 0.088 2.2 0.51-0.013 1.4-0.021 2.5-0.39 3.5-2.1 0.012-3.9 0.026-6.1 0.036-6.5 2e-3 -13 8e-3 -19 7e-3 -0.78-0.017-1.2-0.027-1.7-0.43 0.018-1.4 0.034-2.5 0.05-3.5z" fill="#c0a35d" />
        <path d="m125 102c0.4 1.1 0.39 2 0.37 3.4-0.45 0.38-0.89 0.39-1.9 0.23-1.4 0.28-2.3 0.73-3.5 1.2-2.5 0.031-4.5 0.056-7 0.072-1.5 9e-3 -2.5 0.027-4 0.016-1.5-0.049-2.5-0.069-3.8-0.095-0.24-7e-3 -0.73-0.014-0.74-0.33-0.015-0.74-0.024-1.2 0.35-1.6 1.8-0.37 3.2-0.74 4.6-1.1 1.7-0.28 3.5-0.56 5.9-0.68 2.2-0.3 3.7-0.75 5.2-1.2 1.4 0.018 2.8 0.036 4.6 0.13z" fill="#ab9556" />
        <path d="m63 106c0.43 1.1 0.41 2.1-0.034 3.5-2.8 0.075-5.2-0.24-7.6-0.56 0.29-0.78 0.59-1.6 0.94-2.6 2.1-0.33 4.2-0.35 6.7-0.34z" fill="#b89b55" />
        <path d="m109 104c-1.1 0.57-2.5 0.94-4.8 1.3-3.2-0.066-5.6-0.12-8-0.17 3.8-3.8 8.2-2.4 13-1.1z" fill="#a7a678" />
        <path d="m96 105c2.8 0.031 5.2 0.084 8 0.16 0.45 0.44 0.46 0.87 0.018 1.6-4.2 3e-3 -7.9-0.32-12-0.92-7e-3 -0.45-0.0094-0.63-0.012-0.82 1-7e-3 2.1-0.014 3.5-0.042z" fill="#c0a35d" />
        <path d="m120 102c-1.1 0.47-2.6 0.93-4.4 1.2 1.2-0.53 2.6-0.87 4.4-1.2z" fill="#a7a678" />
        <path d="m92 105c0.26 0.36 0.27 0.55-0.059 1-0.77 0.29-1.2 0.31-1.7 0.33-0.46-0.034-0.93-0.069-1.7-0.14 0.83-0.48 2-0.93 3.5-1.2z" fill="#a7a678" />
        <path d="m115 88c0.29 0.37 0.29 0.56 2e-3 1.2-1.5 1.1-2.6 1.9-3.8 2.6-1.7 0.049-3.3 0.098-5.4-0.063-0.85-0.13-1.2-0.048-1.6 0.033-1 0.14-2.1 0.28-3.5 0.54-2.8-0.022-5.2-0.16-8.4-0.26-1.8 0.12-2.9 0.2-4 0.28-1.1-0.035-2.1-0.07-3.9-0.12-1.9 0.19-3 0.4-4.1 0.6-0.29-0.16-0.6-0.27-1.1-0.63-2.4-0.85-4.6-1.4-7.2-2-4.2-6e-3 -7.9-0.0065-12-0.0069 0.65-0.7 1.2-1.7 2-2 6.3-2.6 9.2-7.4 9.7-14 0.077-0.96 2.1-2.7 3.1-2.5 4.8 0.75 4.7-2.5 4.1-5.2-2.3-10-1.3-20 6-29 0.65-0.055 1.1 0.2 2.1 0.81 2.7e-4 1.4-0.46 2.3-0.82 3.4-1.9 5.5-4.5 11-5.4 17-0.29 2 3.8 4.6 5.9 7 0.078 0.087 0.31 0.031 0.8 0.064 0.18-0.68 0.37-1.4 0.87-2 6.3 3.1 12 5.2 19 1.1 0.36 0.77 0.65 1.3 0.95 1.8-0.089 1.6 0.22 3.5-0.37 4.9-0.73 1.8-3.5 3.7-3.1 4.7 1.2 3.3 3.2 6.3 5.4 9.1 1 1.3 3 2 4.8 3.1z" fill="#c9a147" />
        <path d="m111 92c0.95-1 2.1-1.8 3.6-2.6 0.29-0.12 0.69-0.13 0.94 0.11 0.29 0.62 0.33 1 0.37 1.4-1.6 0.47-3.1 0.94-4.9 1.1z" fill="#8a874d" />
        <path d="m116 91c-0.35-0.36-0.39-0.74-0.49-1.4 0.81-0.13 1.7 0.02 2.8 0.36-0.49 0.46-1.3 0.74-2.3 1z" fill="#c9a147" />
        <path d="m104 92c0.069-0.16 0.45-0.24 0.89-0.16-0.15 0.18-0.36 0.21-0.89 0.16z" fill="#ab9556" />
        <path d="m49 194c0.45 2e-3 0.89 4e-3 1.9 0.29 2.1 0.68 3.7 1.7 5.1 1.3 3.6-0.84 7.2-2.1 11-3.5 3.3-1.3 5.6-1.8 6.7 2.7 0.31 1.3 2.7 2.9 4.2 2.9 2.2 0.067 4.4-1.1 6.9-1.7 4.1 5.2 6.7 11 14 14 0.44 0.13 0.49 1.3 0.96 1.7 1.7 1.3 3.4 2.5 5.1 4.1-1e-3 4.8-4e-3 9.2-0.2 14-0.74 1.1-1.3 1.9-2.2 2.8-1.8 0.022-3.2 0.061-5 0.065-4.5-0.35-8.5-0.67-13-1.2-6.8-0.087-13 0.064-20 0.24-5.4 0.057-10 0.089-16 0.06-0.83-0.093-1.3-0.13-2.1-0.38-6.1-0.41-12-0.6-18-0.79-10-4.3-5.7-13-5.9-20-0.014-0.48 0.18-0.97 0.27-1.5 1.6-8.9 1.6-8.8 10-5.5 1.4 0.52 3.4-0.71 5.6-1.6 3.9-2.7 7.3-5 11-7.3z" fill="#ca9f45" />
        <path d="m49 194c-3.4 2.6-6.9 4.9-11 7.3-2.9-1-5.5-2.1-8.3-3.6 5.6 1.8 9.5-2.7 15-4.3 1.8-0.5 2.8-0.8 3.9-1.1 0.0037 0.44 0.0073 0.88 0.015 1.7z" fill="#af924b" />
        <path d="m28 230c5.8-0.11 12 0.077 18 0.87 0.31 1.4 0.28 2.2-0.21 2.9-5.1-0.32-9.7-0.64-14-0.96-0.83-0.4-1.7-0.8-2.8-1.3-0.35-0.47-0.34-0.87-0.33-1.6z" fill="#b78b50" />
        <path d="m84 196c-2.2 0.66-4.4 1.9-6.6 1.8-1.5-0.046-3.9-1.6-4.2-2.9-1.1-4.5-3.4-4-6.7-2.7-3.5 1.4-7 2.6-11 3.5-1.4 0.32-3-0.66-4.7-1.3 4.6-7.4 7.5-15 4.3-24-3-8.1-9.1-13-18-13-2.7-0.072-5.4-0.86-8.3-1.6 4.5-1.4 6.6-5 7.7-9.3 1-3.8 1.9-7.6 2.9-12 0.28-9 3.1-17 6.8-25 2.6-0.59 5-0.91 7.8-1.2 2.8 0.32 5.2 0.64 8 0.95 0.87 5e-3 1.3 0.015 2.2 0.37 1.3 1.5 2.4 2.6 2.8 3.9 0.31 1.1-0.34 2.5-0.9 3.7-1.1 0.35-1.9 0.69-3.1 0.94-3.4-0.36-6.5-0.64-9.9-0.92-6.9 1.5-12 15-7.3 20 0.6 0.69 1.7 0.94 2.6 1.8 0.082 1.1 0.13 1.8 0.33 2.9 5.4 6.4 8.2 6.9 17 2.7 1.5-0.67 2.6-1.3 4-1.9 0.94 0.76 1.7 1.4 2.1 2.1 0.84 1.5 1.5 3.1 2.2 4.6 1.7-1.3 4.4-2.4 4.9-4.1 1.5-5 4.5-5 8.5-3.4 0.75 2.7 2.2 5.1 1.9 7.3-0.89 5.5-2.6 11-4.1 17-0.35 0.43-0.59 0.64-1.2 0.82-6.2 1-6.9 2.1-5.1 7.3 0.64 1.8 0.98 3.8 1.4 6-0.77 5.8-0.57 11 3.1 16z" fill="#caa248" />
        <path d="m49 192c-1.3 0.61-2.3 0.9-3.8 1.3 0.96-3.7 2.3-7.4 3.6-12-0.24-4.5-0.5-8.5-0.82-13 5 4.7 5.6 15 1 23z" fill="#b4955e" />
        <path d="m28 181c-0.33-0.59-0.33-0.99 0.015-1.8 2.1-2.3 3.9-4.3 5.7-6 2.9 2 5.7 3.6 8.3 5.4 1.3 0.89 2.4 2.2 3.5 3.3-0.19 1.1-0.38 2.3-1.1 3.8-4.4 4.2-9.2 3.1-14 3.2-0.76-2.6-1.5-5.2-2.6-7.9z" fill="#b48485" />
        <path d="m46 182c-1.2-0.84-2.2-2.1-3.6-3-2.7-1.8-5.5-3.4-8-5.7 3.9-0.42 7.7-0.3 11-0.18 0.065 2.4 0.13 4.8 0.21 7.6-0.013 0.57-0.035 0.74-0.085 1.2z" fill="#ae837b" />
        <path d="m31 189c4.4-0.44 9.3 0.69 13-3.2-2.6 7.5-8.6 9.1-13 3.2z" fill="#ae837b" />
        <path d="m46 173c-3.8 0.24-7.5 0.12-12 0.24-2.1 2.2-3.8 4.2-5.9 6.2-0.14-2.4 0.085-4.8 0.46-7.6 2.6-1.6 5-2.9 7.8-4.4 3.8 0.8 9-1.1 9.3 5.5z" fill="#866259" />
        <path d="m88 63c-0.19 0.74-0.39 1.5-0.57 2.1-0.49-0.033-0.73 0.023-0.8-0.064-2.1-2.3-6.2-5-5.9-7 0.82-5.7 3.4-11 5.4-17 0.36-1 0.82-2 1.1-3.2 0.66-1.1 1.5-2 2.6-3.1 5.6 0.78 11 1.6 16 2.7 1.3 0.28 3.2 1.1 3.6 2.2 2.1 5 5 10 5.1 15 0.086 3.4-4 6.9-6.5 11-0.62-0.38-0.91-0.87-1.3-2-0.039-1.4-0.02-2.1 0.33-3 1.1-2.4 1.9-4.6 2.8-7.1 0.039-0.72-0.074-1.3-0.19-2.2-3e-3 -1.1-7e-3 -1.9-0.02-3-1.7-2.5-3.3-4.6-5.1-6.8-0.36-0.42-0.59-0.63-1-1.1-1.1-0.75-2-1.2-3.2-1.8-1.8-0.35-3.2-0.62-4.9-0.91-2 0.4-5-0.65-3.7 3.3-1.1 1.4-2.1 2.5-3.4 3.8-0.37 5.4-0.4 11-0.47 16-0.04 0.79-0.057 1.2-0.074 1.7z" fill="#caa650" />
        <path d="m126 384c2.6-6.1 7.2-6.3 13-3.6-0.66 1.5-1.3 3.1-2 5-3.5-0.15-6.9-0.65-11-1.4z" fill="#958d6c" />
        <path d="m147 386c0.057 0.44 0.11 0.87 0.18 1.6-0.61-0.11-1.2-0.56-2-1.3-0.11-0.28-0.065-0.33 0.26-0.35 0.73-0.016 1.1-0.012 1.5-7e-3z" fill="#8e8260" />
        <path d="m147 386c-0.44 0.4-0.84 0.4-1.5 0.39-0.9-2.5-1.5-4.9-2.2-7.7 0.57-0.37 1.2-0.37 2.3-0.38 0.73 2.4 1.1 4.9 1.5 7.7z" fill="#8e7b54" />
        <path d="m151 394c0.29-1.7 0.76-3.3 1.6-5 0.19 1.7 0.046 3.5-0.3 5.5-0.5 0.042-0.79-0.16-1.3-0.56z" fill="#a89b79" />
        <path d="m60 90c4.1-0.0014 7.8-9.2e-4 12 0.36 0.45 1.1 0.45 1.8 0.44 2.5-3-6e-3 -6.1-0.012-9.6-0.02-5.8-0.3-11-0.6-17-0.94 0.32-0.65 1.1-1.2 2.7-1.9 3.1-0.027 5.5-0.032 7.9-0.037 1.1 8e-3 2.1 0.016 3.6 0.022z" fill="#bb9852" />
        <path d="m56 90c-2.3 0.36-4.7 0.37-7.5 0.37-0.44-0.75-0.44-1.5-0.43-2.6 2.5 0.89 6.7-3.6 8 2.2z" fill="#c9a147" />
        <path d="m72 93c-0.45-0.77-0.45-1.5-0.44-2.5 2.2 0.2 4.4 0.75 6.5 1.5-1.9 0.51-3.8 0.79-6.1 1z" fill="#ab9556" />
        <path d="m80 93c1-0.55 2.2-0.76 3.6-0.86-0.28 2.8-1.3 4-3.6 0.86z" fill="#556942" />
        <path d="m88 92c1-0.42 2.1-0.5 3.6-0.5-0.15 0.97-0.69 1.9-1.2 2.7-0.77-0.64-1.5-1.3-2.3-2.2z" fill="#556942" />
        <path d="m154 344c-0.058-9-0.12-18-0.12-27 0.58-1.3 1.1-2.1 2.1-3.2 1.5-0.33 2.5-0.35 3.6-0.36-0.22 11-0.44 22-1.2 33-1.3 0.29-2 0.29-2.8 0.026-0.54-0.78-1-1.3-1.5-1.8z" fill="#a39880" />
        <path d="m156 346c0.74 5.8e-4 1.5 1e-3 2.6 2e-3 0.54 6.4 0.72 13 1.1 20-0.088 4-0.39 7.6-0.67 12 0.024 0.42-0.028 0.54-0.37 0.54-1.7-0.66-3.1-1.3-4.5-2.4-0.018-3.5-9e-3 -6.5 0.23-9.8 0.7-6.7 1.2-13 1.6-20z" fill="#a79776" />
        <path d="m160 313c-1.1 0.37-2.1 0.38-3.6 0.4 0.7-0.98 1.8-2 3.3-2.9 0.36 0.74 0.33 1.4 0.28 2.5z" fill="#91866a" />
        <path d="m154 376c1.4 0.66 2.8 1.3 4.5 2 0.32 0.82 0.32 1.6 0.32 2.7-0.12 0.93-0.23 1.5-0.18 2.2-1.2 0.81-2.6 1.4-4.4 1.7-0.31-3.1-0.25-5.9-0.2-8.6z" fill="#988461" />
        <path d="m154 375c-0.026 3.2-0.078 6-0.098 9.2-0.13 0.71-0.33 0.94-0.73 1.3-0.22-6.2-0.27-13 6e-3 -19 0.49-0.47 0.65-0.47 0.82-0.48-9e-3 3-0.018 6-5.8e-4 9.5z" fill="#856b46" />
        <path d="m65 268c-1.6 0.58-3.2 1.6-4.8 1.7-5.1 0.23-10 0.11-16 0.15-1.3-0.21-2.2-0.45-3.3-0.9-0.11-0.5 0.094-0.75 0.84-1.2 2-1.4 3.4-2.6 5.2-3.7 5.1 0.66 9.8 1.2 15 1.8 1.2 0.79 2 1.5 2.9 2.2z" fill="#9f6e3b" />
        <path d="m47 264c-1.4 1.2-2.9 2.4-4.7 3.7-2-0.54-3.6-1.4-5.3-1.8-2.3-0.52-4.8-0.69-7.6-1.1-0.26-3.7-0.1-7.4 0.37-12 0.64-1.1 0.97-1.7 1.5-2.3 0.24 2e-3 0.71 7e-3 0.71 0.45 0.032 2.4-0.69 5 0.27 6.3 1.5 2.1 4 4.1 6.4 5 3 1 4.5-1.6 4.8-4.3 0.37-2.8 0.3-5.6 0.74-8.4 1.1 0.35 1.9 0.65 2.7 1.4-0.057 4.5-0.045 8.6-0.033 13z" fill="#973a22" />
        <path d="m32 251c0-2e-5 -0.48-5e-3 -0.99-0.22-1.2-0.36-1.8-0.5-2.5-0.65-0.34-0.028-0.68-0.055-1.3-0.47-0.25-0.82-0.26-1.3-0.26-1.7 0.6-0.041 1.2-0.082 2.5-0.081 6.3-0.63 12-1.3 18-1.8 0.77 1.1 1.3 2 1.7 3.1-0.69 0.76-1.3 1.3-1.9 1.7-0.81-0.3-1.6-0.6-3.2-0.95-4.5 0.3-8.2 0.66-12 1z" fill="#9e5536" />
        <path d="m27 248c0.33 0.43 0.34 0.86 0.34 1.6-0.76 0.35-1.5 0.36-2.7 0.32 0.41-0.69 1.2-1.3 2.3-2z" fill="#a3593f" />
        <path d="m29 250c0.59-0.15 1.3-3e-3 2.2 0.35-0.055 0.77-0.38 1.3-1 2-0.57-0.6-0.83-1.3-1.2-2.4z" fill="#a3593f" />
        <path d="m47 246c-5.6 0.67-11 1.3-17 2-0.35-0.78-0.43-1.5-0.45-2.9 0.014-2.1-0.026-3.6-0.065-5 0.41-2.1 0.83-4.1 1.5-6.5 4.8-0.018 9.5 0.3 15 0.65 0.64 0.038 1 0.042 1 0.47 0.19 2.4 0.33 4.4 0.39 6.8-0.098 1.8-0.12 3.2-0.14 4.6z" fill="#d19f7e" />
        <path d="m29 240c0.37 1.5 0.41 2.9 0.32 4.7-0.77 0.47-1.4 0.59-2.1 0.73-6.7 1.4-9-0.59-8.3-7.2 0.12-1.1 0.49-2.2 0.84-3.7 1.8 0.65 3.5 1.7 5.1 2.8 1.3 0.86 2.5 1.8 4.1 2.8z" fill="#9d2d1f" />
        <path d="m86 166c1.4-5.4 3.1-11 4-16 0.35-2.2-1.1-4.7-1.9-7.7-0.14-4.8-0.085-8.9-0.033-13 1.6e-4 -1.1 3.8e-5 -1.9-0.024-3-1.4-4.2-0.43-6.9 3.8-7.7 1.9-0.37 4-0.58 5.9-0.31 7.4 1 12-3.3 16-8.6 3.3 1.2 5.9 1.1 8-2 0.79-0.014 1.2-0.021 1.7-0.028-0.66 2.7-1.3 5.5-2 9-0.35 8.5-0.66 16-0.94 24 2 7.3 6.1 9.6 16 9.8 0.36 0.43 0.59 0.64 0.86 0.81-0.25 0.5-0.5 1-1.2 1.8-2.6 2-4.8 3.6-7 5.2-2.6 0.021-4.6 1.2-6.8 1.9-1.3 0.44-2.8 0.5-4.2 0.29-3.8-0.57-7.5-1.6-11-1.9-1.1-0.087-2.3 1.7-3.9 2.6-1.8 1e-3 -3.2 1e-3 -4.7-0.31-4.2-1.8-6.2-1-6.9 2.7-0.0054 1.1-0.0098 1.8-0.34 2.6-0.77 0.02-1.2 0.029-2 0.037-1.1-5.6e-4 -1.9-6.4e-4 -2.6-7e-4z" fill="#cca74a" />
        <path d="m120 140c0.31-7.7 0.62-15 0.96-24 3.2-1.2 6.3-2 9.5-2.3-1.8 2.3-6.5 2.3-4.8 7.2-0.65 2.1-1.1 3.9-1.9 5.9-0.84 3.7-1.3 7.3-2 11-0.72 0.73-1.2 1.3-1.7 1.8z" fill="#c0a35d" />
        <path d="m126 121c-1.9-4.6 2.8-4.6 4.9-6.7 1.3-0.25 2.4-0.27 4-0.084 0.73 0.44 0.97 0.63 1.2 0.77 0.8 0.3 1.6 0.59 2.9 1.2 1.4 0.82 2.2 1.4 3.1 2.3 0.67 2.8 1.3 5.2 1.7 7.4-1.1-0.98-2-1.7-2.8-2.6-5.1-6.1-8.8-6.6-15-2.2z" fill="#a39063" />
        <path d="m142 118c-0.86-0.54-1.7-1.1-2.8-1.8 1.5-0.88 3.3-1.5 5.4-2.2 2.7 2.4 5 4.9 7.4 8 0.042 1.8 6.2e-4 2.9-0.28 3.8-1.7-2.2-2.8-4.4-4.6-5.9-1.3-1.1-3.4-1.2-5.1-1.8z" fill="#c8aa58" />
        <path d="m123 107c-0.45 0.26-0.9 0.27-1.9 0.27-0.58-9e-3 -1.1-0.039-1.1-0.039 0.85-0.45 1.7-0.9 2.8-1.2 0.23 0.35 0.23 0.52 0.24 0.95z" fill="#b89b55" />
        <path d="m136 115c-0.13 0.033-0.37-0.16-0.7-0.58 0.12-0.022 0.36 0.17 0.7 0.58z" fill="#c0a35d" />
        <path d="m146 332c-0.29 4.7-0.58 9.3-1 15-0.37 0.84-0.6 1.1-0.83 1.3-7.1-0.12-7.2-0.25-6.1-7 0.27-1.6 0.96-3.8 0.21-4.8-4.6-5.9-0.84-11 1.7-15 1.1-2.1 1.5-4.6 2.1-7.3 0.42-0.41 0.83-0.4 1.6 0.074 0.38 5.1 0.26 9.8 0.5 14 0.073 1.4 1.1 2.8 1.7 4.2z" fill="#a2997f" />
        <path d="m144 348c0.22-0.67 0.45-0.92 0.89-1.3 0.5 3.3 0.78 6.6 0.98 10-0.68-2.6-1.3-5.7-1.9-9.2z" fill="#8e7b54" />
        <path d="m146 365c0.15 0.062 0.19 0.25 0.18 0.71-0.33 0.036-0.4-0.25-0.18-0.71z" fill="#8e7b54" />
        <path d="m146 332c-0.67-0.92-1.7-2.3-1.8-3.7-0.24-4.6-0.12-9.3-0.19-14-0.022-1.2-2.9e-4 -2 0.021-3.5-0.027-1.8-0.053-2.9-0.079-3.9 0.025-0.46 0.05-0.92 0.078-1.7 3e-3 -0.34 0.44-0.36 0.67-0.37 0.6 9 0.99 18 1.3 28z" fill="#6f6152" />
        <path d="m144 306c0.34 1.1 0.37 2.2 0.37 3.6-1.6-0.74-3.1-1.9-4.8-3.3 1.3-0.35 2.7-0.37 4.4-0.31z" fill="#91866a" />
        <path d="m153 303c0.47-0.4 0.88-0.4 1.6-0.4 0.099 1.8-0.11 3.6-0.54 5.7-0.52-1.4-0.82-3.2-1.1-5.3z" fill="#65554d" />
        <path d="m160 301c0.058-0.14 0.24-0.17 0.69-0.17 0.27 0.023-0.11 0.31-0.11 0.31s-0.46-0.032-0.59-0.14z" fill="#7a613f" />
        <path d="m117 250c-0.82 4.1 2.7 9.1-2.3 12-1.4 0.93-3.3 1.1-5.7 1.6-5.4-1.3-5.1-4.5-4.5-8.3 0.61-4.1 2.5-5.9 6.5-5.7 2 0.11 4 0.02 6 0.02z" fill="#af462a" />
        <path d="m117 250c-2.3-0.017-4.3 0.075-6.3-0.037-4.1-0.23-5.9 1.6-6.5 5.7-0.58 3.8-0.89 7 4.2 8.3 0.36 0.84 0.36 1.6 0.36 2.7-0.43 0.43-0.85 0.48-1.6 0.58-1.9-0.33-3.6-0.71-5.5-1.5-0.35-0.43-0.41-0.76-0.39-0.94-0.094-0.42-0.28-0.53-0.59-0.96-0.016-1.9 5e-3 -3.4 0.28-5 0.13-1.1 0.013-1.9-0.13-3.2 0.026-1.8 0.072-3.2 0.41-4.7 0.71-1.1 1.1-2 2-2.9 5.8 0.011 11-6e-3 17 0.057 0.84 0.42 1.4 0.76 1.9 1.4-0.11 0.74-0.19 1.2-0.27 1.6-1.4-0.33-2.7-0.66-4.5-1z" fill="#9e4f2e" />
        <path d="m122 251c0.038-0.88 0.11-1.3 0.46-2.2 0.76-0.6 1.2-0.76 1.7-0.49-0.015 4.1-0.34 7.8 0.13 11 0.18 1.4 2.2 3.5 3.4 3.6 4.4 0.13 8.9-0.47 13-0.8 0.068 0.45 0.14 0.9 0.24 1.7-5.3 0.99-11 1.6-17 2.1-0.71-0.43-0.92-0.61-1.2-0.74-0.46-4.7-0.92-9.4-1.4-15z" fill="#ca926f" />
        <path d="m123 266c0.56 0.13 0.77 0.31 1.1 0.72-0.46 0.38-1 0.58-1.8 0.35-0.18-0.64-0.17-0.84-0.16-1 0.2-9e-3 0.41-0.018 0.92-0.024z" fill="#ae7b3a" />
        <path d="m122 266c0.2 0.07 0.19 0.28 0.16 0.79-0.19 0.27-0.36 0.23-0.78 0.13-0.068-0.34 0.15-0.58 0.62-0.93z" fill="#9e4f2e" />
        <path d="m65 268c-1.2-0.67-2.1-1.4-3.1-2.5 0.15-1.5 0.46-2.6 1.1-3.7 1.1-0.01 1.8-0.016 2.8 0.14 1.1 1.1 1.9 2 2.7 2.8 0.5 0.3 1 0.61 1.8 0.99-0.27 0.58-0.84 1.1-1.6 1.8-1.2 0.27-2.3 0.32-3.7 0.42z" fill="#965327" />
        <path d="m78 260c-1.8 1.6-3.6 3.1-5.8 4.5-4.2-4.5-3.1-9.4-1.8-14 2.1-0.1 3.8-0.17 5.8 0.074 0.76 3.5 1.3 6.6 1.8 9.8z" fill="#b2482d" />
        <path d="m78 260c-0.81-3.3-1.3-6.4-1.8-10 1.2-0.67 2.3-0.83 3.8-0.85 1.2 0.44 2.1 0.72 2.9 1.4 0.03 1.5 0.11 2.5 0.11 4-0.15 1.1-0.23 1.8-0.58 2.8-0.53 1.8-0.79 3.3-1 4.8-1-0.63-2.1-1.3-3.4-2z" fill="#a94d30" />
        <path d="m70 250c-0.87 4.9-1.9 9.8 2 14-0.71 0.38-1.5 0.39-2.6 0.4-1.2-0.89-2-1.8-3.1-3.3 0.077-4.6 0.41-8.6 1.1-13 0.82-0.13 1.3-0.17 1.9 0.038 0.33 0.55 0.56 0.83 0.8 1.1z" fill="#a94d30" />
        <path d="m82 262c0.2-1.9 0.46-3.4 1.2-4.8 0.64 2.5 0.78 5 0.93 7.5-0.4-0.028-0.8-0.056-1.5-0.12-0.4-0.77-0.49-1.5-0.65-2.6z" fill="#bf896a" />
        <path d="m84 265c-0.45-2.7-0.6-5.1-0.97-7.9-0.15-1-0.068-1.8 0.36-3 0.64-1.9 0.94-3.2 1.5-4.7 1.5-0.71 2.7-1.2 4.3-1.6 0.75 0.027 1.2-5e-3 1.9 0.16 1.8 0.32 3.2 0.45 4.9 0.85 1.7 0.24 3.2 0.21 4.7 0.49 0.11 0.73 0.18 1.1 0.24 1.6-0.046 1.4-0.093 2.8-0.32 4.8-0.096 1.5-9e-3 2.3 0.077 3.2-0.02 1.5-0.041 2.9 0.049 5 0.22 0.73 0.34 0.88 0.49 1 0 0 0.064 0.33 0.092 0.49-0.35 0.2-0.72 0.24-1.4 0.35-0.7 0.076-1.1 0.084-2.2-0.099-3.8-0.03-6.9 0.13-10 0.29-1.2-0.18-2.3-0.37-3.8-0.72z" fill="#d3a986" />
        <path d="m88 266c2.8-0.41 5.9-0.57 9.3-0.53-0.15 0.54-0.62 0.87-1.4 1.3-2.7-0.11-5.2-0.31-8-0.76z" fill="#ca926f" />
        <path d="m141 263c-4.6 0.64-9.1 1.3-13 1.1-1.2-0.037-3.2-2.2-3.4-3.6-0.47-3.6-0.14-7.3 0.32-11 4.1-0.62 7.8-0.7 12-0.58 1.1-0.22 1.9-0.62 3.1-0.88 4.5 3.3 1.8 7.9 2.8 12-0.31 1.1-0.63 2.2-1.1 3.7z" fill="#d2a27e" />
        <path d="m136 248c-3.7 0.073-7.4 0.15-11 0.33-0.94 0.27-1.4 0.44-2.1 0.72-0.77-0.23-1.3-0.56-1.9-1.3 0.42-3.2 0.94-6 1.5-9.1-0.32-1.8-0.66-3.2-0.95-4.9 0.036-0.8 0.024-1.3 0.043-1.7 0.031-4e-3 0.045-0.064 0.42-0.098 1.1-0.036 1.9-0.037 2.7 0.3 0.33 1.2 0.63 2 0.93 3.3 2e-3 1.4 0.011 2.4 0.012 3.4 4e-3 5 3.5 5.7 7.4 6.2 4.2 0.49 7.3-0.79 8.2-5.2 0.36-1.8-0.38-3.9-0.33-5.9 0.78-0.37 1.3-0.68 2-0.98 0.25 0.01 0.74 0.028 0.74 0.028 9e-3 0.45 0.017 0.91 0.063 1.7 0.44 4.2 0.85 8.1 1.6 12 0.31 0.68 0.33 1.1 0.36 1.8-0.33 3.3-0.66 6.4-1 9.8-0.41 0.42-0.82 0.42-1.5 0.42-1.3-3.8 1.4-8.4-3.4-12-1.5 0.12-2.2 0.42-3 0.72z" fill="#a4603e" />
        <path d="m154 366c-0.4 0.29-0.57 0.3-1 0.31 0.085-7 0.42-14 0.92-22 0.63 0.062 1.1 0.58 1.6 1.4-0.4 6.7-0.86 13-1.6 20z" fill="#988461" />
        <path d="m103 161c1.2-0.93 2.4-2.7 3.5-2.6 3.8 0.31 7.6 1.3 11 1.9 1.4 0.2 2.9 0.15 4.2-0.29 2.2-0.76 4.3-1.9 6.8-1.9 2.2-1.6 4.3-3.3 6.9-5 0.68 1 0.66 2.7 1.4 3.1 4.4 2.6 4.2 6.7 4 11 6.4e-4 0.44-2e-3 0.45-0.34 0.39-4.4-1.5-6.7 1.6-7.4 4.3-0.73 2.5 0.6 5.6 1.2 9.8-4 5.1-5.5 4 0.18 13-6.6 3.6-6.4-5.8-10-5.7-1.9 1.8-3.3 3-4.6 3.8-1e-3 -2.9 0.26-5.4-0.067-7.8-0.39-2.9-1.3-5.8-2-9.1-0.72-2-0.99-4.2-2.2-5.2-4.1-3.7-8.5-7-13-10z" fill="#cdab4d" />
        <path d="m152 131c0.62 7.3-4.3 12-8.8 17-0.92 0.28-1.7 0.28-2.8 0.25-0.4-0.03-0.46-0.091-0.37-0.42 1.4-2.4 2.7-4.5 4.4-6.6 1.8-2 3.2-3.9 4.6-5.8 1-1.4 2-2.8 3-4.2z" fill="#c9a951" />
        <path d="m137 151c-0.55-0.035-0.79-0.24-1.1-1-0.14-0.96-0.14-1.4 0.25-1.9 1.4-0.047 2.5-0.085 3.5-0.12 0 0 0.055 0.06 0.083 0.091-0.78 0.93-1.6 1.8-2.7 2.9z" fill="#c9a951" />
        <path d="m152 131c-1 1.6-2 3-3 4.4-1.4 1.9-2.9 3.8-4.6 5.4-0.98-1.4-1.6-2.5-2.1-3.9 0.71-2.1 1.3-3.8 2.2-5.6 2.8-1.4 5.2-2.7 7.6-3.6 8e-3 1.1 0.012 1.9 0.016 2.6-1e-3 0.17-3e-3 0.33-6e-3 0.75z" fill="#c8aa58" />
        <path d="m152 130c-0.33-0.64-0.34-1.4-0.34-2.8-3e-3 -0.62-7e-3 -1.1-7e-3 -1.1 0.041-1.1 0.083-2.3 0.074-3.7 3.9 2 3.8 4.6 0.28 7.6z" fill="#c9a951" />
        <path d="m120 194c1.4-1.3 2.7-2.5 4.6-4.3 3.6-0.12 3.4 9.2 10 5.7-5.7-9.3-4.2-8.3-0.18-13-0.61-4.1-1.9-7.2-1.2-9.8 0.79-2.7 3-5.8 7.4-4.3-0.18 3.3-1.1 6.5-1.1 9.7-0.024 2.1 1.2 4.3 1.5 5.3-0.87 6.5-1.6 12-2.5 18-0.15 0.92-1.3 1.7-2.1 2.5-1 0.92-2.1 1.7-4.2 3.3 4.3 1.6 7.3 3.1 11 4 3.9 1 6 4.6 4.5 6.9-3.2 5.1-0.73 6.6 4.1 8.3-2.1 1.4-3.6 2.3-5.2 3.5-0.76 0.43-1.3 0.61-2.3 1-0.98 0.48-1.5 0.73-2.4 1-2.1-0.063-3.8-0.15-5.6-0.63 0.52-5.1-1.8-6.7-6.2-6.1-1.8 0.23-3.7 0.32-5.4-0.067-7.4-1.7-14 0.092-20 4-3e-3 -5e-3 -0.012 4e-3 -0.012 4e-3 2e-3 -4.4 4e-3 -8.8-0.07-14-0.21-2.8-0.33-4.9-0.46-7 2-0.089 4.1-0.2 6.1-0.26 0.81-0.021 1.6 0.096 2.5 0.54 1.2 4.9 3.3 5.9 7.3 3.9-0.78-2.8-1.6-5.5-2.3-8.7-2e-3 -2.1-4e-3 -3.9 0.24-5.6 0.42-2e-3 0.58-3e-3 1-0.093 0.76-0.7 1.2-1.3 1.7-2.2 2e-3 -0.78 4e-3 -1.2 6e-3 -1.7z" fill="#cdaa4a" />
        <path d="m142 232c0.49-0.25 0.99-0.5 1.8-0.79 0.078 0.49-0.12 1-0.52 1.8-0.2 0.21-0.69 0.2-0.95-0.11-0.27-0.5-0.28-0.7-0.29-0.89z" fill="#b78b50" />
        <path d="m88 129c-0.052 4.1-0.1 8.2-0.077 13-3.8-0.93-6.8-0.91-8.3 4.1-0.5 1.7-3.2 2.7-4.9 4.1-0.74-1.5-1.4-3.1-2.2-4.6-0.44-0.78-1.2-1.4-2-2.4 1-5.6 2.8-11 3-16 0.087-1.9-3.5-4-5.2-6.1-0.61-0.73-0.87-1.8-1.3-2.6 0.23-1.3 0.88-2.6 0.57-3.7-0.37-1.3-1.6-2.4-2.5-3.9 5.9-0.34 12-0.35 18 0.04-1.2 4.4-2.8 8.5-4.4 12 4.3-2.2 7.7-4.8 11-7.7 1.6-1.5 2.7-3.4 4.3-5.1 0.78-3e-3 1.2-4e-3 1.9 0.28 1.7 1.7 3.4 4.4 4.6 4.2 4-0.7 8.2-1.9 8.2-7.4 1.1-0.018 2.1-0.037 3.6 0.28 0.4 0.76 0.4 1.2 0.4 1.6-3.8 5.3-8 9.6-15 8.6-1.9-0.27-4-0.059-5.9 0.31-4.2 0.81-5.2 3.5-4.2 7.7-4.2 0.052-6.8 2-8 5.3-0.46 1.3 0.92 3.2 1.5 4.9 1.6-0.92 3.5-1.6 4.8-2.8 1.1-0.97 1.5-2.6 2.2-4z" fill="#cca54a" />
        <path d="m94 110c-1.3 1.7-2.4 3.7-4 5.1-3.2 2.9-6.6 5.6-11 7.7 1.6-4 3.2-8.1 4.9-12 1.8-0.4 3.5-0.41 6.1-0.42 1.8 0.016 2.9 0.021 4 0.026z" fill="#caa248" />
        <path d="m94 110c-1.4-3e-3 -2.5-8e-3 -3.9-0.022-0.39-1-0.39-2.1-0.37-3.5 0.45-0.41 0.89-0.42 1.7-0.45 4 0.32 7.7 0.64 12 0.96 0.46-8e-3 0.95-8.5e-4 1.1 0.34-2.8 1.1-5.7 1.9-8.6 2.7-0.44 7.4e-4 -0.89 1e-3 -1.7 5e-3z" fill="#c4a255" />
        <path d="m96 110c2.7-1.1 5.6-1.9 8.7-3 1.2-0.31 2.3-0.29 3.7-0.24 0.4 5.5-3.9 6.7-7.8 7.4-1.2 0.21-2.9-2.5-4.6-4.2z" fill="#caa248" />
        <path d="m113 109c-0.36-0.5-0.36-0.93-0.37-1.7 2-0.35 4.1-0.37 6.6-0.4 0.44-6e-3 0.93 0.024 1.2 0.039-1.5 3.2-4.1 3.2-7.4 2z" fill="#c9a951" />
        <path d="m88 63c-0.29-0.65-0.27-1.1 0.16-1.9 1.5-0.3 2.5-0.29 3.8-0.059 3.1 0.4 5.9 0.57 9.1 0.76 1.1-0.0041 1.9-0.017 2.9-0.15 1.1-0.36 1.9-0.59 2.7-0.82-0.019 0.74-0.039 1.5-0.061 2.6-6.3 4.7-12 2.6-19-0.46z" fill="#a0844c" />
        <path d="m112 208c-0.82-0.054-1.6-0.17-2.4-0.15-2 0.052-4.1 0.17-6.1 0.26 0.13 2.1 0.26 4.1 0.46 6.6-1.6-0.88-3.4-2-5.1-3.3-0.47-0.37-0.52-1.5-0.96-1.7-6.9-2.1-9.4-8.4-14-14-4-4.7-4.2-9.9-3.1-16 0.49-0.38 0.66-0.38 0.88-0.096 0.35 0.76 0.64 1.2 0.96 2.1 1.3 2.8 2.6 5.2 3.9 8 1.4 2.8 2.7 5.3 4.1 8 0.74 0.71 1.4 1.1 2.3 1.6 1.4 0.37 2.5 0.71 3.9 1.3 6.7 2.7 10 1.9 15-3.3 1.1-0.015 1.8-0.027 2.9-0.026 0.82 0.025 1.3 0.037 1.8 0.049 2e-3 1.7 4e-3 3.4-0.35 5.6-1.8 1.8-3.2 3.1-4.6 4.4z" fill="#c6a24a" />
        <path d="m47 241c-0.14-2-0.29-4-0.22-6.7 0.55-1.5 0.88-2.3 1.2-3.1 4.9-0.032 9.9-0.063 15 0.2 0.9 1.1 1.3 1.8 1.5 2.8-0.77 1.1-1.4 1.9-2.2 2.5-1.1-1.1-2-1.9-3.3-2.8-6-0.97-9.2 1.2-9.9 7-1.1 4e-3 -1.8 8e-3 -2.5 0.012z" fill="#9f5129" />
        <path d="m96 249c-1.5-0.13-2.9-0.26-4.5-0.9 5.1-1.9 9.1-4.3 7.5-11-0.67-1.7-1.3-3.2-1.9-4.6 1.4-0.039 2.8-0.079 4.7 0.1 0.79 0.47 1.1 0.65 1.4 1.1 0.077 0.46 0.11 0.64-0.048 1.1-2.3 4.7-3.4 9.2-0.055 14-0.42 0.94-0.84 1.9-1.6 2.9-0.36-0.28-0.42-0.7-0.74-1.7-1.7-0.55-3.2-0.52-4.7-0.49z" fill="#9e5938" />
        <path d="m65 234c-0.38-0.76-0.75-1.5-1.2-2.6 6.4-0.47 13-0.62 20-0.26-0.034 1.3-0.27 2.1-0.98 2.9-5.8 0.049-11 0.095-17 0.11-0.22-0.032-0.65-0.12-0.65-0.12z" fill="#bf945c" />
        <path d="m83 234c0.24-0.78 0.47-1.6 0.85-2.6 4.2 0.04 8.2 0.36 13 0.71 1.1 1.5 1.7 2.9 2 4.5-7.1-3-7.9-2.7-13 4.4-0.8 4e-3 -1.3 7e-3 -1.8-0.4-0.32-2.5-0.59-4.5-0.87-6.6z" fill="#a95a33" />
        <path d="m103 233c-0.31-0.13-0.58-0.32-0.95-0.77 0.39-1.1 0.93-1.9 1.7-3 0.2-0.23 0.21-0.24 0.56-0.014 4.1 0.41 7.9 0.42 12 0.84 1.8 0.2 3.4 1.2 5.1 1.9 0 0-0.014 0.06-0.48 0.071-3.2 0.64-5.9 1.3-9 1.9-1.8 0.027-3.2 0.045-4.8-0.13-1.4-0.39-2.5-0.58-3.6-0.78z" fill="#c49e5b" />
        <path d="m48 231c0.016 0.88-0.32 1.7-0.91 2.8-0.25 0.23-0.62 0.23-0.8 0.2-0.15-0.8-0.12-1.6-0.076-2.7 0.49-0.35 0.96-0.32 1.8-0.23z" fill="#ae7b3a" />
        <path d="m67 118c0.75 0.87 1 1.9 1.6 2.6 1.8 2.1 5.3 4.1 5.2 6.1-0.24 5.3-2 10-3.3 16-1.3 0.96-2.4 1.6-3.8 1.9 0.34-2.4 1-4.5 1.7-7 0.055-1.4 0.1-2.5 0.45-3.7 0.085-2.1-0.13-4.1-0.42-6.4-1.4-2.5-2.8-4.6-4.1-7 0.011-0.73 0.017-1.1 0.023-1.6 0.78-0.33 1.6-0.67 2.7-1z" fill="#c4a255" />
        <path d="m64 119c0.39 0.5 0.38 0.92-0.023 1.7-4.3 0.42-7.1 1.7-7 6.3-0.19 4e-3 -0.57 0.039-0.95 0.059-1.8 1.5-3.3 2.9-4.5 4.5-0.93 1.3-1.4 3-2.3 4.2-1.6-5.7-0.76-10 3.7-14 0.87-0.74 1.1-2.3 1.6-3.5 3.1 0.27 6.1 0.55 9.6 0.91z" fill="#a89461" />
        <path d="m68 138c-0.67 2.1-1.3 4.2-2 6.6-8.5 4.5-11 4.1-16-2.4 1.6-0.63 3-0.94 4.6-1.2 0.24 0.021 0.72 0.056 0.88 0.36 3.2 4.5 4.3 4.6 7.2 0.56 1.1-1.4 1.9-2.7 3.1-4 1.1 0.016 1.8 0.026 2.5 0.035z" fill="#a68951" />
        <path d="m54 118c-0.11 1.2-0.3 2.7-1.2 3.5-4.5 3.8-5.3 8.5-3.7 15 0.19 1.4 0.16 2.2 0.12 2.9-0.87-0.45-2-0.7-2.6-1.4-4.3-4.9 0.44-18 7.3-20z" fill="#c4a255" />
        <path d="m82 180c-0.17-5e-5 -0.33-8e-5 -0.75-6e-5 -0.72-1.9-1.1-3.8-1.7-5.7-1.8-5.2-1.2-6.3 5-6.9 0.031 2.5-0.25 4.5-0.53 7-0.016 2.1-0.028 3.8-0.37 5.5-0.76 0.014-1.2 0.02-1.6 0.026z" fill="#cca74a" />
        <path d="m49 139c2e-3 -1.1 0.035-1.9 0.073-3 0.68-1.9 1.2-3.5 2.1-4.9 1.2-1.6 2.7-3 4.4-4.2 0.34 0.56 0.32 0.79 0.051 1.1-0.7 4.3-1.1 8.4-1.6 13-1.4 0.31-2.8 0.62-4.5 0.95-0.4-0.72-0.45-1.5-0.54-2.6z" fill="#947756" />
        <path d="m84 174c0.28-2.1 0.56-4.2 0.91-6.6 0.34-0.56 0.58-0.77 0.93-1.2 0.89-0.19 1.6-0.19 2.6 0.13 0.0016 1.5-0.23 2.6-0.47 4-0.0061 0.23-0.022 0.7-0.33 0.81-1.4 1-2.6 2-3.7 2.9z" fill="#c4a855" />
        <path d="m92 61c-1-0.015-2.1-0.03-3.5-0.066-0.35-5.2-0.31-10 0.27-16 1.4 1.2 2.3 2.4 3.1 4 3.3e-4 1.8 0.013 3.2 0.052 5 0.039 2.4 0.051 4.5 0.063 6.6z" fill="#7e5b40" />
        <path d="m107 61c-1.1 0.35-2 0.58-3 0.55 0.36-5 1-9.7 1.6-15 0.02-0.44 0.028-0.61 0.34-0.68 1.4 1.1 2.5 2 3.6 2.9 4e-3 0.74 8e-3 1.5-0.14 2.8-0.039 1.1 0.073 1.6 0.18 2.2-0.76 2.3-1.5 4.5-2.6 6.9z" fill="#af9162" />
        <path d="m92 49c-0.87-1.2-1.7-2.4-2.8-3.8 0.76-1.3 1.7-2.5 3.2-3.9 1.6-0.37 2.6-0.44 3.9-0.44 0.79 0.38 1.3 0.69 1.8 1.4-0.069 1.3-0.12 2.3-0.45 3.4-0.72 0.53-1.2 0.93-1.9 1.4-1.5 0.7-2.6 1.3-3.7 1.9z" fill="#674c36" />
        <path d="m98 42c-0.5-0.31-1-0.61-1.8-1.3-0.26-1.1-0.23-1.8-0.21-2.5 1.4 0.27 2.8 0.55 4.7 1.2 1.4 0.84 2.3 1.3 3.3 1.8 0.26 0.18 0.49 0.39 0.91 1.1 0.52 1.6 0.82 2.7 1.1 3.8-8e-3 0.17-0.016 0.35-0.28 0.66-0.74-0.12-1.2-0.37-1.9-0.89-2.1-1.5-3.9-2.7-5.8-3.9z" fill="#a88859" />
        <g fill="#b89b55"><path d="m106 46c-0.61-1.2-0.91-2.3-1.3-3.7 1.6 1.8 3.2 3.8 4.9 6.3-1.1-0.57-2.2-1.5-3.6-2.6z"/>
            <path d="m96 38c0.34 0.7 0.31 1.4 0.28 2.4-1 0.42-2.1 0.49-3.5 0.58-1.8-3.6 1.2-2.6 3.2-3z" />
            <path d="m104 41c-0.76-0.19-1.7-0.65-2.7-1.4 0.78 0.18 1.7 0.66 2.7 1.4z" />
            <path d="m110 54c-0.26-0.37-0.38-0.92-0.34-1.6 0.26 0.37 0.38 0.92 0.34 1.6z" /></g>
        <path d="m63 262c-0.32 1.1-0.63 2.2-1.1 3.6-4.9-0.2-9.6-0.72-15-1.4-0.37-4.2-0.38-8.3-0.32-13 0.65-0.94 1.2-1.4 2.4-2.2 3.6-0.31 6.6-0.35 9.9-0.29 0.42 0.14 0.59 0.19 0.87 0.52 0.98 0.7 1.8 1.1 2.7 2 0.12 3.8 0.21 7.2 0.3 11z" fill="#d1a382" />
        <path d="m32 252c3.7-0.79 7.4-1.1 12-1.5 0.33 2.8 0.41 5.7 0.035 8.5-0.36 2.7-1.8 5.3-4.8 4.3-2.5-0.83-4.9-2.8-6.4-5-0.96-1.3-0.24-3.9-0.27-6.3z" fill="#a83b25" />
        <path d="m59 249c-3 0.036-6 0.071-9.5 0.11-0.96-0.89-1.5-1.8-2.2-2.8-0.25-1.6-0.23-3-0.13-4.8 0.79-0.33 1.5-0.33 2.7-0.031 2.4 1.6 4.1 3.8 6.1 3.9 3.3 0.2 3-3 3.3-5.4 0.2-1.9 0.56-3.8 0.85-5.8 0.87 0.84 1.7 1.7 2.8 3.2 0.21 3 0.22 5.4-0.018 8-1.4 1.4-2.6 2.5-3.8 3.7z" fill="#9e4428" />
        <path d="m103 161c4.7 3.4 9.1 6.7 13 10 1.2 1.1 1.5 3.2 1.9 5.2-0.78 0.37-1.2 0.37-1.9 0.11-3.3-5-5.5-11-13-11-2.5-0.34-4.5-0.66-6.9-0.93-1.8 0.35-3.2 0.65-4.6 0.93-0.0087-0.019-0.026-0.056-0.026-0.056 0.0044-0.74 0.0088-1.5 0.36-2.7 2.5-1.1 4.6-1.7 6.7-2.2 1.4 1e-5 2.8 4e-5 4.6-1e-3z" fill="#c4a855" />
        <path d="m88 129c-0.71 1.7-1.1 3.4-2.2 4.3-1.3 1.2-3.2 1.9-4.8 2.8-0.54-1.6-1.9-3.6-1.5-4.9 1.2-3.3 3.8-5.2 8-4.9 0.4 0.75 0.4 1.5 0.4 2.6z" fill="#caa248" />
        <path d="m136 148c-2e-3 0.44-4e-3 0.88-8e-3 1.7-9.9 0.3-14-2.1-16-9.3 0.5-0.91 1-1.4 1.8-1.8 2.3 3.2 2.8 7.9 8.3 7.9 2.1 0.74 4 1.2 5.9 1.6z" fill="#c2a04d" />
        <path d="m98 161c-2 0.88-4.1 1.4-6.5 2.2 0.32-3.2 2.3-3.9 6.5-2.2z" fill="#cdab4d" />
        <path d="m88 170c0.23-1.1 0.46-2.3 0.84-3.7 0.58-0.33 1-0.34 1.8-0.36 0.33-0.011 0.35 0.026 0.35 0.44 0.0011 1.5-0.0031 2.5-0.0056 3.6 0.0016 3e-3 -0.0065-2.7e-4 -0.38-2.4e-4 -1.1 0.015-1.9 0.031-2.6 0.046z" fill="#c6a760" />
        <path d="m126 121c6.4-4.7 10-4.1 15 1.9 0.73 0.87 1.6 1.6 2.8 2.9 0.27 1.3 0.25 2-0.088 2.7-1.1-0.28-1.9-0.53-3-1-4.3-5.4-6.9-6.1-11-3.2-0.012 0.039 0.044 0.099-0.25 0.18-0.68 0.77-1.1 1.5-1.6 2.3-0.44 0.33-0.64 0.56-1.1 0.81-0.74-0.079-1.2-0.13-1.7-0.34-0.32-0.33-0.54-0.47-0.78-0.57 0.46-1.8 0.91-3.6 1.6-5.7z" fill="#826b53" />
        <path d="m124 127c0.61-0.051 0.82 0.089 1.1 0.9 0.18 5.4-1.2 11 5.2 13 0.72 0.28 0.76 2.3 0.94 3.8-0.47 0.53-0.76 0.82-1.1 1.1-5.3 0.31-5.8-4.4-7.9-7.8 0.39-3.9 0.87-7.5 1.7-11z" fill="#a4864d" />
        <path d="m144 129c0.025-0.73 0.05-1.5 0.056-2.5-0.66-2.8-1.3-5.2-2-8 1.7 0.2 3.8 0.34 5.1 1.4 1.8 1.5 3 3.8 4.6 5.9 0.23 0.23 0.24 0.73 0.24 0.98-2.4 1.6-4.8 2.9-7.6 3.9-0.41-0.78-0.45-1.2-0.48-1.7z" fill="#c7ae67" />
        <path d="m103 248c-3.8-4.4-2.7-8.8-0.27-13 0.53 0.012 0.68 0.23 0.8 0.88-0.33 2.4-0.92 4.3-0.85 6.3 0.048 1.3 0.95 3.6 1.6 3.6 4.4 0.42 8.9 0.67 13 0.17 0.98-0.11 1.5-3.4 2.4-5.2 0.26-0.53 0.94-0.86 1.4-1.3-0.51 2.8-1 5.6-1.8 8.7-5.5 0.33-11 0.34-17 0.33z" fill="#cf9b77" />
        <path d="m101 259c-0.34-0.7-0.43-1.6-0.31-2.6 0.32 0.68 0.44 1.6 0.31 2.6z" fill="#ca926f" />
        <path d="m101 265c-0.17 0.044-0.29-0.1-0.48-0.4 0.19-0.13 0.38-0.017 0.48 0.4z" fill="#ca926f" />
        <path d="m59 249c0.94-1.2 2.1-2.4 3.9-3.6 1.7 1.2 2.8 2.4 3.9 3.7-0.33 4-0.67 8-1 12-0.72 0.46-1.4 0.46-2.5 0.47-0.45-3.4-0.54-6.7-0.73-11-0.99-1.2-1.9-1.6-2.8-2-0.17-0.05-0.34-0.1-0.76-0.24z" fill="#9e5536" />
        <path d="m70 250c-0.66-0.25-0.89-0.53-1-1.3 0.95-0.88 1.8-1.3 3-1.8 3.8-0.35 7.2-0.68 11-0.71-1.1 1.1-2.1 1.8-3 2.6-1.1 0.16-2.3 0.32-3.7 0.69-2 0.27-3.7 0.33-5.8 0.43z" fill="#c28060" />
        <path d="m80 249c0.66-0.92 1.6-1.7 2.9-3.1 0.45-2.1 0.63-3.6 0.81-5 0.46-2e-3 0.92-5e-3 1.7 0.32 0.34 0.77 0.35 1.2 0.37 2 0.67 1.1 1.3 1.9 2.2 2.9 0.41 0.7 0.63 1.2 0.85 1.7-1.2 0.49-2.5 0.98-4.2 1.7-0.87 0.33-1.2 0.41-1.6 0.49-0.89-0.29-1.8-0.57-3-1z" fill="#9e5938" />
        <path d="m83 251c0.4-0.48 0.75-0.55 1.4-0.67-0.032 1.3-0.33 2.6-0.9 4.1-0.35-0.88-0.43-2-0.46-3.4z" fill="#bf896a" />
        <path d="m72 247c-0.83 0.45-1.7 0.89-2.7 1.5-0.69 0.22-1.2 0.26-2 0.39-1.5-1.2-2.6-2.4-4-3.8-0.29-2.5-0.3-4.9-0.3-7.7 0.62-1.3 1.2-2.1 2-3.2 0.16-0.27 0.59-0.18 0.8 0.24 1.2 5 1.3 10 6.2 13z" fill="#cf9b77" />
        <path d="m89 248c-0.54-0.56-0.76-1.1-1.2-2.1-0.86-1.3-1.5-2.1-2.2-2.9-0.0011-0.44-0.0022-0.89-0.0031-1.7 4.6-7.4 5.4-7.7 13-4.4 1.9 6.6-2 9-7.5 11-0.59 0.35-1 0.38-1.8 0.36z" fill="#b75434" />
        <path d="m96 249c1.3-0.3 2.8-0.33 4.5-0.089-1.3 0.3-2.8 0.33-4.5 0.089z" fill="#bf896a" />
        <path d="m136 248c0.57-0.49 1.4-0.8 2.5-1.1-0.53 0.44-1.4 0.85-2.5 1.1z" fill="#ca926f" />
        <path d="m122 239c-0.51 0.79-1.2 1.1-1.4 1.6-0.88 1.8-1.4 5.1-2.4 5.2-4.4 0.5-8.8 0.24-13-0.17-0.69-0.065-1.6-2.4-1.6-3.6-0.072-1.9 0.52-3.9 1.2-6.3 1.1-0.77 1.9-1.1 2.6-1.4 1.4-0.018 2.8-0.036 5-0.033 3.5 0.052 6.2 0.084 8.9 0.12 0.34 1.4 0.68 2.8 1 4.6z" fill="#d3ae8c" />
        <path d="m121 232c-2.1-0.61-3.7-1.6-5.5-1.8-3.7-0.43-7.5-0.44-12-0.84 5.9-4.1 13-5.9 20-4.2 1.7 0.39 3.6 0.29 5.4 0.067 4.4-0.56 6.8 0.95 5.8 6.2-4.1 0.52-7.8 0.55-11 0.59-0.75 1e-3 -1.5 2e-3 -2.6 0.038z" fill="#ceab52" />
        <path d="m140 234c0.24 2 0.98 4 0.62 5.9-0.84 4.4-3.9 5.6-8.2 5.2-3.9-0.45-7.4-1.1-7.4-6.2-7.6e-4 -1-9e-3 -2 0.44-3.4 5.1-0.77 9.8-1.1 15-1.4z" fill="#b75c3d" />
        <path d="m140 234c-5 0.4-9.7 0.73-15 1.1-0.75-0.83-1-1.7-1.4-2.8 3.6-0.37 7.3-0.4 11-0.53 2.2-4e-3 3.9 0.083 6 0.15 0.44 0.17 0.44 0.37 0.47 0.86-0.48 0.6-0.98 0.91-1.8 1.3z" fill="#b16a3b" />
        <path d="m121 234c-2.7 0.31-5.4 0.28-8.6 0.21 2.3-0.66 5-1.3 8.1-1.9 0.45 0.45 0.46 0.91 0.42 1.7z" fill="#bfa976" />
        <path d="m116 177c0.46-2e-3 0.91-4e-3 1.7-7e-3 1 2.9 1.9 5.8 2.3 8.7 0.32 2.4 0.066 4.9 0.067 7.8-6.5e-4 0.91-3e-3 1.4-0.29 2.2-0.76 1-1.2 1.6-1.7 2.2-0.17 4.9e-4 -0.33 9.6e-4 -0.75 3e-3 -0.72-0.01-1.2-0.023-2-0.48 6e-3 -7.1 0.34-14 0.68-21z" fill="#c8aa58" />
        <path d="m130 146c0.12-0.6 0.41-0.89 1.2-1.4 0.86-0.21 1.3-0.22 2-0.19 5.3-0.39 7.8-3.4 8.8-7.9 0.63 1.1 1.3 2.2 1.9 3.7-1.3 2.4-2.6 4.5-4 6.9-1.1 0.36-2.2 0.4-3.6 0.45-2.3-0.41-4.2-0.83-6.3-1.6z" fill="#af924b" />
        <path d="m142 137c-1.1 4.9-3.6 7.8-8.9 7.9 0.69-1.3 1.9-2.2 2.7-3.3 1.1-1.6 2-3.5 2.9-5.5 0.021-0.24 0.064-0.72 0.35-0.82 0.73-0.72 1.2-1.3 1.6-2.4-0.019-1.7-0.04-3.1-0.061-4.4 0.8 0.25 1.6 0.51 2.7 0.79 0.35 0.49 0.38 0.95 0.44 1.8-0.54 2.1-1.1 3.9-1.8 6z" fill="#ab9069" />
        <path d="m112 208c1.4-1.7 2.8-3 4.6-4.4 1.1 2.7 1.9 5.5 2.7 8.3-4.1 1.9-6.2 0.95-7.3-3.9z" fill="#cdab4d" />
        <path d="m118 198c0.18-0.52 0.66-1.1 1.4-1.8-0.19 0.52-0.66 1.1-1.4 1.8z" fill="#cdab4d" />
        <path d="m92 61c-0.29-2.3-0.3-4.4-0.024-6.6 3.1 1 5.9 2.2 8.7 3.8 0.015 1.4 0.027 2.5 0.038 3.6-2.8-0.18-5.6-0.36-8.7-0.75z" fill="#966d62" />
        <path d="m101 62c-0.39-1.1-0.4-2.1-0.063-3.7 1.1-2.4 1.9-4.3 2.8-6.4 0.033-0.78-0.055-1.4-0.13-2.3 0.041-1.4 0.068-2.5 0.095-3.5 0.48 0.26 0.96 0.51 1.7 0.89-0.39 4.8-1 9.6-1.7 15-0.77 0.4-1.5 0.41-2.7 0.42z" fill="#997d69" />
        <path d="m116 177c-0.13 7-0.46 14-0.82 21-0.74 0.44-1.5 0.45-2.7 0.27-0.78-0.41-1-0.63-1.3-1.2 0.033-0.75 0.047-1.2 0.31-1.9 5-9.5 3-18-5.5-25-1.1-1.4-1.9-2.6-2.8-3.8 7.3-0.22 9.4 5.7 13 11z" fill="#ab9556" />
        <path d="m111 197c0.26 0.22 0.51 0.44 0.93 0.85-4.5 5.4-7.8 6.2-15 3.1-0.3-1-0.31-1.5 0.13-1.9 4.8-0.67 9.1-1.4 13-2z" fill="#af924b" />
        <path d="m84 174c1.1-1.4 2.3-2.3 3.7-2.9-0.014 5.7-0.33 11-0.67 17-0.055 0.75-0.097 1.2-0.14 1.6-1.3-2.4-2.6-4.8-3.7-7.9 0.37-1.1 0.56-1.7 0.76-2.2 0.012-1.7 0.025-3.4 0.041-5.5z" fill="#c6a760" />
        <path d="m87 190c-0.0057-0.8 0.036-1.2 0.33-2 0.26-0.35 0.74-0.4 1-0.19 3.1 3.7 5.9 7.2 8.7 11 0.0044 0.46 0.0088 0.92 0.017 1.7-1.1 7e-3 -2.2-0.33-3.7-0.98-1.1-0.75-1.7-1.2-2.3-1.6-1.3-2.4-2.6-4.9-4-7.7z" fill="#a0844c" />
        <path d="m91 198c0.52 0.15 1.2 0.58 1.9 1.3-0.52-0.15-1.1-0.58-1.9-1.3z" fill="#af924b" />
        <path d="m84 180c0.13 0.53-0.063 1.1-0.45 1.8-0.49-0.27-0.78-0.75-1.1-1.5 0.38-0.28 0.81-0.29 1.6-0.3z" fill="#c4a855" />
        <path d="m60 234c0.15 1.9-0.21 3.8-0.41 5.8-0.25 2.4 0.072 5.6-3.3 5.4-1.9-0.12-3.7-2.3-5.7-3.9 0.23-6.1 3.4-8.3 9.4-7.3z" fill="#ab4327" />
        <path d="m107 234c-0.49 0.53-1.3 0.86-2.4 1.2-0.46-0.2-0.62-0.42-0.94-0.76-0.18-0.32-0.22-0.5-0.3-0.96 1.1-0.082 2.2 0.11 3.6 0.5z" fill="#bfa976" />
        <path d="m72 247c-5.3-2.6-5.4-7.6-6.4-13 5.4-0.44 11-0.48 17-0.53 0.75 2.1 1 4.1 1.3 6.6-0.15 1.9-0.33 3.3-0.69 5.1-3.6 0.66-7 0.99-11 1.3z" fill="#d1a480" />
        <path d="m57 127c-0.21-4.5 2.6-5.9 6.9-6 1.7 2.1 3.1 4.2 4.4 6.9-0.028 0.77-0.063 0.94-0.29 1.3-0.67 0.72-1.1 1.2-1.7 1.5-0.67-0.73-1.2-1.2-2-2-1.3-2.6-2.8-3.4-5.5-1.7-0.85-0.011-1.3-0.021-1.8-0.031z" fill="#7a613f" />
        <path d="m66 131c0.47-0.53 0.95-1.1 1.7-1.3 0.3 1.7 0.37 3.1 0.44 4.6-0.046 1-0.092 2.1-0.15 3.5-0.74 0.38-1.5 0.37-2.6-0.066-0.35-1.8-0.33-3.2-0.14-4.8 0.33-0.7 0.49-1.2 0.68-1.7 0.028-0.029 0.085-0.087 0.085-0.087z" fill="#8c7048" />
        <path d="m68 134c-0.37-1.3-0.44-2.7-0.55-4.6-8.1e-4 -0.6 0.034-0.77 0.14-1.2 0.28 1.7 0.5 3.6 0.41 5.8z" fill="#a68951" />
        <path d="m57 127c0.68 6e-3 1.2 0.016 1.9 0.29-0.69 0.55-1.6 0.84-2.6 1.1 0.018-0.23 0.037-0.46 0.081-1 0.026-0.35 0.4-0.38 0.59-0.38z" fill="#89775b" />
        <path d="m56 128c1.2-0.41 2.1-0.7 3.2-1.3 2.4-1.9 3.9-1.1 5.1 1.7 0.063 0.73 0.017 0.91-0.35 1.2-2.1 3.7-3.8 7.3-6 11-1.1 0.011-1.9 0.026-2.6 0.041 0 1e-5 -0.48-0.036-0.72-0.056 0.2-4.2 0.65-8.3 1.3-13z" fill="#ae8d86" />
        <path d="m58 141c1.8-3.6 3.5-7.1 5.7-11 0.4 0.096 0.54 0.57 0.55 0.86 0.32 0.75 0.64 1.2 0.95 1.7-0.022 1.4-0.044 2.8-0.057 4.6-0.82 1.7-1.6 2.9-3.1 4.4-1.8-0.19-2.9-0.54-4-0.88z" fill="#bc9c8a" />
        <path d="m58 141c1.5 0.35 2.6 0.69 4.1 1.1-2.3 3.9-3.4 3.8-6.6-0.71 0.6-0.32 1.3-0.33 2.5-0.35z" fill="#ab9069" />
        <path d="m88 188s-0.49 0.048-0.73 0.077c0.079-5.4 0.4-11 0.72-17-0.0023-0.42 0.013-0.89 0.019-1.1 0.75-0.25 1.5-0.27 2.6 0.026 0.65 1.4 0.97 2.6 1.3 4-0.32 3.5-0.62 6.6-0.9 10 0.028 1.1 0.051 1.8-0.25 2.5-1.1 0.34-1.9 0.66-2.7 0.98z" fill="#b5a16e" />
        <path d="m104 52c-0.76 1.9-1.5 3.8-2.6 5.8-3.2-1.1-6-2.3-9.1-3.7-0.33-1.6-0.34-3-0.35-4.8 1.2-1 2.3-1.7 4-2.1 2.3 2.9 4.2 5.6 8.1 4.8z" fill="#a67077" />
        <path d="m104 52c-4 0.98-5.9-1.7-7.9-4.7 0.22-0.67 0.67-1.1 1.7-1.4 2.4 1.4 4.2 2.8 6 4.1 0.088 0.58 0.18 1.2 0.14 1.9z" fill="#936368" />
        <path d="m104 50c-1.8-0.97-3.6-2.3-5.8-3.9-0.28-1.1-0.23-2.1-0.16-3.4 1.9 0.83 3.7 2 5.8 3.5 0.18 1.3 0.15 2.4 0.11 3.8z" fill="#6c5b43" />
        <path d="m60 249c0.78 0.12 1.7 0.53 2.6 1.2-0.79-0.11-1.7-0.54-2.6-1.2z" fill="#cf9b77" />
        <path d="m92 174c-0.33-1.1-0.65-2.2-0.93-3.7 0.049-0.31 0.057-0.3 0.34-0.47 1.8-1.7 3.2-3.3 4.7-4.8 2.1 0.32 4.1 0.64 6.6 0.98 1.2 1.2 2.1 2.4 3.1 4.1 0.17 0.78 0.15 1-0.25 1.2-1.4-0.18-2.4-0.29-3.8-0.55-4.2-1.1-7.4 0.041-9.9 3.2z" fill="#b2a47c" />
        <path d="m96 165c-1.1 1.5-2.6 3-4.4 4.7-0.28-0.89-0.27-1.9-0.27-3.4 1.4-0.69 2.8-0.99 4.6-1.3z" fill="#b5a16e" />
        <path d="m139 135s-0.042 0.48-0.35 0.9c-3.9 4-7.3 3.2-10 0.05 3.5-0.87 7.2-1.4 7.2-5.6 0.022-3.7-2.3-5.6-6-5.7 4.1-2.8 6.6-2.1 11 3.3 0.29 1.6 0.31 2.9 0.04 4.7-0.73 1.1-1.2 1.7-1.6 2.4z" fill="#bfa093" />
        <path d="m130 125c3.7 0.072 6.1 2 6 5.7-0.026 4.3-3.7 4.8-7.3 5.2-0.79-2.8-1.1-5.2-1.4-7.6 0.17-0.27 0.37-0.5 1.1-0.93 0.87-0.9 1.3-1.6 1.6-2.3 0 0-0.057-0.06-0.044-0.099z" fill="#c7a79b" />
        <path d="m127 128c0.63 2.4 0.95 4.9 1.4 7.7 3.4 3.6 6.8 4.3 11 0.57-0.67 1.6-1.5 3.4-2.6 5-0.79 1.1-2 2-3.1 3.3-0.45 0.34-0.84 0.35-1.5 0.31-0.65-1.3-0.69-3.4-1.4-3.6-6.3-2.4-5-7.7-5-13 0.44-0.42 0.87-0.37 1.6-0.29z" fill="#ac8d7a" />
        <path d="m129 125c-0.084 0.59-0.46 1.3-1.1 2 0.082-0.59 0.46-1.3 1.1-2z" fill="#bfa093" />
        <path d="m86 243c0.62 0.44 1.3 1.2 1.9 2.3-0.62-0.45-1.3-1.2-1.9-2.3z" fill="#a95a33" />
        <path d="m139 135c0.16-0.52 0.6-1.1 1.3-1.9-0.16 0.52-0.6 1.1-1.3 1.9z" fill="#ac8d7a" />
        <path d="m88 188c0.51-0.53 1.3-0.85 2.6-0.92 2.7 2.7 4.9 5.2 7.4 7.9 3.6 0.96 6.3 0.53 8-3.2 1.1-2.4 1.9-4.7 3-7 0.77 0.015 1.2 0.022 1.7 0.4 0.019 3.4-0.037 6.5-0.093 9.6-0.013 0.43-0.027 0.86-0.06 1.6-4.4 1-8.7 1.7-14 2.4-3.2-3.5-6.1-7-9.1-11z" fill="#ab9571" />
        <path d="m111 195c-0.2-2.8-0.14-5.9-0.16-9.8-0.19-4.1 0.22-7.7-4.1-9.4-0.43-1.6-0.8-2.9-1.2-4.2 0.023-0.23 0.046-0.45 0.1-1 8.3 6.1 10 15 5.3 24z" fill="#b29c71" />
        <path d="m64 131s-0.14-0.47-0.22-0.71c-0.033-0.41 0.013-0.59 0.13-1 0.64 0.2 1.2 0.67 1.9 1.4 0.1 0.27 0.046 0.33-0.28 0.34-0.72 9e-3 -1.1 2e-4 -1.5-9e-3z" fill="#8c7048" />
        <path d="m64 131c0.39-0.28 0.78-0.27 1.5-0.25 0.14 0.51-0.024 1-0.35 1.7-0.48-0.26-0.8-0.71-1.1-1.5z" fill="#a68951" />
        <path d="m92 174c2.5-3.5 5.6-4.7 9.8-3.3-1.1 1.3-2.3 2.1-3.7 3.3-1.6 1.8-3.2 3.2-4.7 5.1-0.12 1.4-0.18 2.5-0.49 3.6-0.75 0.44-1.2 0.73-1.7 1 0.29-3.1 0.59-6.3 0.91-9.8z" fill="#826b53" />
        <path d="m91 184c0.49-0.65 0.99-0.95 1.8-1 2 2.3 3.6 4.5 5.3 7 0.0019 1.8 1.8e-4 3.2-0.0015 4.5-2.2-2.5-4.4-5-6.8-7.7-0.24-0.99-0.26-1.7-0.29-2.8z" fill="#a18267" />
        <path d="m98 174c1.3-0.84 2.5-1.7 3.9-2.8 1.1-0.21 2.2-0.098 3.5 0.082 0.74 1.4 1.1 2.7 1.5 4.3 0.035 0.36-1e-3 0.41-0.33 0.41-0.77-1e-3 -1.2-4e-3 -1.9-0.2-1.1-0.094-1.9 6e-3 -3.1 0.049-1.4-0.65-2.5-1.2-3.7-1.8z" fill="#89775b" />
        <path d="m109 185c-0.78 2.3-1.6 4.6-3 6.8-2.1-0.63-3.6-1.2-5.1-2.1-0.8-3-1.8-5.5 1.7-7.1 0.8-0.36 0.92-2.3 1.7-3.5 1.1-0.044 1.9-0.064 2.8 0.24 0.71 2.1 1.3 3.9 1.9 5.7z" fill="#bd958d" />
        <path d="m101 190c1.5 0.57 3 1.1 4.7 1.9-1.1 3.8-3.8 4.2-7.4 3.2-0.32-1.5-0.32-2.9 0.054-4.7 1.1-0.43 1.9-0.44 2.6-0.44z" fill="#ac8d7a" />
        <path d="m109 185c-0.91-1.8-1.5-3.6-2.2-6.1-0.15-1.4-0.16-2.1-0.16-2.9 1e-5 0 0.036-0.048 0.064-0.063 4.3 1.3 3.8 4.9 4 8.6-0.44 0.41-0.89 0.4-1.7 0.39z" fill="#997d69" />
        <path d="m101 190c-0.68 0.38-1.4 0.39-2.6 0.4-2-2.1-3.7-4.2-5.4-6.7 0.011-1.4 0.075-2.4 0.53-3.9 3.4-0.75 6.5-1.1 9.7-1.4 0.25 0.013 0.74 0.03 0.75 0.28 9e-3 0.42 0.013 0.59 0.018 0.76-0.43 1.2-0.54 3.1-1.3 3.4-3.6 1.6-2.5 4.2-1.7 7.1z" fill="#b78d86" />
        <path d="m103 178c-3 0.33-6.1 0.65-9.4 1 1.2-1.4 2.7-2.9 4.3-4.7 1.2 0.3 2.4 0.89 3.9 1.8 0.68 0.83 0.93 1.3 1.2 1.9z" fill="#ae837b" />
        <path d="m103 178c-0.5-0.53-0.75-1-1.1-1.8 0.74-0.36 1.6-0.46 2.6-0.086-0.15 0.96-0.45 1.4-0.75 1.9 0 0-0.5-0.017-0.74-0.03z" fill="#997d69" />
        <path d="m104 178c0.3-0.74 0.59-1.2 0.95-2 0.5-0.28 0.94-0.27 1.7-0.27 0.34 0.73 0.34 1.5 0.35 2.5-0.75 0.38-1.5 0.4-2.6 0.45-0.38-0.15-0.38-0.31-0.39-0.74z" fill="#ae837b" /></g></svg>
