<?xml version="1.0" encoding="UTF-8" standalone="no"?><!-- Created with Inkscape (http://www.inkscape.org/) -->

<svg xmlns:inkscape="http://www.inkscape.org/namespaces/inkscape" xmlns:sodipodi="http://sodipodi.sourceforge.net/DTD/sodipodi-0.dtd" height="100mm" id="svg239" version="1.1"
    viewBox="0 0 100 100" width="100mm"
    xmlns="http://www.w3.org/2000/svg"
    inkscape:version="1.3.2 (091e20ef0f, 2023-11-25)"
    sodipodi:docname="d4_d8_d20_#19.svg">
    <sodipodi:namedview bordercolor="#000000" borderopacity="0.25" id="namedview241"
        pagecolor="#ffffff" showgrid="false" inkscape:current-layer="g2"
        inkscape:cx="237.72507" inkscape:cy="209.95345" inkscape:deskcolor="#d1d1d1"
        inkscape:document-units="mm" inkscape:pagecheckerboard="0" inkscape:pageopacity="0.0" inkscape:showpageshadow="2"
        inkscape:window-height="872" inkscape:window-maximized="0" inkscape:window-width="1661"
        inkscape:window-x="259" inkscape:window-y="120" inkscape:zoom="1.8003991" />
    <defs id="defs236">
        <clipPath clipPathUnits="userSpaceOnUse" id="presentation_clip_path">
            <rect height="14540" id="rect494" width="14534" x="0" y="0" />
        </clipPath>
    </defs>
    <g style="display:none" id="layer1" transform="matrix(0.63302508,0,0,0.63298099,-8.1775215,-3.6648477)" inkscape:groupmode="layer"
        inkscape:label="d2"
        sodipodi:insensitive="true">
        <path style="fill:#ffffff;stroke:#1f1f1f;stroke-width:3.15954;stroke-dasharray:none" class="st0" d="m 160.95048,109.91201 c -13.84755,38.1268 -56.02086,57.78141 -94.147632,43.90756 C 28.649806,139.94573 9.0214846,97.772395 22.895319,59.671875 36.769155,21.545078 78.916175,1.890463 117.04295,15.764308 c 38.10049,13.847568 57.75509,56.020903 43.90753,94.147702 z"
            id="Circle_2_"
            inkscape:connector-curvature="0"
            inkscape:label="d2" sodipodi:insensitive="true" />
    </g>
    <g style="display:inline" id="layer2" inkscape:groupmode="layer" inkscape:label="d4_d8_d20"
        sodipodi:insensitive="true">
        <path style="display:inline;stroke-width:2;stroke-dasharray:none" d="M 50.011078,4.7357968 95.903964,96.507705 H 4.1181441 Z"
            fill="none" id="path286" stroke="#000000" stroke-width="1.71652"
            inkscape:label="d4_d8_d20"
            sodipodi:insensitive="true" />
    </g>
    <g style="display:none" id="layer3" inkscape:groupmode="layer" inkscape:label="d6"
        sodipodi:insensitive="true">
        <path style="stroke-width:2;stroke-dasharray:none" d="M 50.026283,3.2176363 96.12403,49.653173 50.013213,96.108459 3.9089305,49.653173 50.013213,3.2044705" fill="none"
            id="path592"
            stroke="#000000" stroke-width="141" inkscape:label="d6"
            sodipodi:insensitive="true" />
    </g>
    <g style="display:none" id="layer4" transform="translate(-0.39620815,0.51694854)" inkscape:groupmode="layer"
        inkscape:label="d10" sodipodi:insensitive="true">
        <path style="fill:none;stroke:#000000;stroke-width:2;stroke-dasharray:none"
            d="M 96.296261,69.034408 50.322132,95.160021 4.3479949,69.034408 50.322132,3.7203772 c 0,0 45.974129,65.3140308 45.974129,65.3140308 z"
            id="path1307"
            inkscape:label="d10" sodipodi:insensitive="true" />
    </g>
    <g style="display:none" id="layer5" inkscape:groupmode="layer" inkscape:label="d12"
        sodipodi:insensitive="true">
        <path style="stroke-width:2;stroke-dasharray:none" d="M 50.5658,3.2939299 97.470915,39.21492 79.55635,97.378329 21.57525,97.363589 3.660685,39.2444 50.5658,3.3234096" fill="none"
            id="path1405"
            stroke="#000000" stroke-width="1.01219" inkscape:label="d12"
            sodipodi:insensitive="true" />
    </g>
    <g style="display:none" id="layer6" inkscape:groupmode="layer" inkscape:label="d4_d8_d20 # 20"
        sodipodi:insensitive="true">
        <text style="font-style:normal;font-variant:normal;font-weight:normal;font-stretch:normal;font-size:50.9419px;font-family:FreeSans;-inkscape-font-specification:FreeSans;text-align:start;text-anchor:start;display:inline;fill:#000000;stroke-width:32.0894"
            id="text1"
            x="22.267975" y="92.117805" inkscape:label="20" xml:space="preserve"><tspan
         style="font-style:normal;font-variant:normal;font-weight:normal;font-stretch:normal;font-family:FreeSans;-inkscape-font-specification:FreeSans;text-align:start;text-anchor:start;stroke-width:32.0894"
         id="tspan1"
         x="22.267975"
         y="92.117805"
         sodipodi:role="line">20</tspan></text>
    </g>
    <g style="display:inline" id="g2" inkscape:groupmode="layer" inkscape:label="d4_d8_d20 # 19">
        <path
            style="font-size:50.9419px;font-family:FreeSans;-inkscape-font-specification:FreeSans;stroke-width:32.0894"
            aria-label="19"
            d="m 33.874425,66.392147 h -7.997878 v -3.20934 Q 31.072621,62.520563 32.651819,61.348899 34.231018,60.177235 35.402682,56 h 2.95463 v 36.117805 h -4.482887 z m 41.059157,7.233749 q 0,4.788539 -0.866012,8.456356 -0.866012,3.616874 -2.190502,5.705492 -1.273547,2.088618 -3.107455,3.413107 -1.782967,1.273548 -3.413108,1.681083 -1.63014,0.407535 -3.413107,0.407535 -4.126293,0 -6.877156,-2.496153 -2.699921,-2.496153 -3.362165,-6.928098 h 4.482887 q 0.560361,2.598037 2.13956,4.02441 1.579198,1.426373 3.922526,1.426373 3.871584,0 5.90926,-3.514991 2.088618,-3.565933 2.13956,-10.18838 -3.362166,4.02441 -8.252588,4.02441 -4.890422,0 -7.997878,-3.209339 -3.107456,-3.20934 -3.107456,-8.252588 0,-5.297957 3.311224,-8.711064 Q 57.613337,56 62.758469,56 74.933582,56 74.933582,73.625896 Z M 62.707527,59.922526 q -3.107456,0 -5.145132,2.241443 -2.037676,2.241444 -2.037676,5.654551 0,3.616875 1.88485,5.756434 1.884851,2.088618 5.145132,2.088618 3.260282,0 5.348899,-2.139559 2.13956,-2.13956 2.13956,-5.450784 0,-3.514991 -2.088618,-5.807376 -2.088618,-2.343327 -5.247015,-2.343327 z"
            id="text2" inkscape:label="19" />
    </g>
</svg>
