<?xml version="1.0" encoding="UTF-8" standalone="no"?><!-- Created with Inkscape (http://www.inkscape.org/) -->

<svg xmlns:inkscape="http://www.inkscape.org/namespaces/inkscape"
    xmlns:sodipodi="http://sodipodi.sourceforge.net/DTD/sodipodi-0.dtd" height="100mm" id="svg239"
    version="1.1" viewBox="0 0 100 100" width="100mm" xmlns="http://www.w3.org/2000/svg"
    inkscape:version="1.3.2 (091e20ef0f, 2023-11-25)" sodipodi:docname="d4_d8_d20_#20.svg">
    <sodipodi:namedview bordercolor="#000000" borderopacity="0.25" id="namedview241"
        pagecolor="#ffffff" showgrid="false" inkscape:current-layer="layer6" inkscape:cx="238.00279"
        inkscape:cy="209.95345" inkscape:deskcolor="#d1d1d1" inkscape:document-units="mm"
        inkscape:pagecheckerboard="0" inkscape:pageopacity="0.0" inkscape:showpageshadow="2"
        inkscape:window-height="872" inkscape:window-maximized="0" inkscape:window-width="1661"
        inkscape:window-x="259" inkscape:window-y="120" inkscape:zoom="1.8003991" />
    <defs id="defs236">
        <clipPath clipPathUnits="userSpaceOnUse" id="presentation_clip_path">
            <rect height="14540" id="rect494" width="14534" x="0" y="0" />
        </clipPath>
    </defs>
    <g style="display:none" id="layer1"
        transform="matrix(0.63302508,0,0,0.63298099,-8.1775215,-3.6648477)"
        inkscape:groupmode="layer" inkscape:label="d2" sodipodi:insensitive="true">
        <path style="fill:#ffffff;stroke:#1f1f1f;stroke-width:3.15954;stroke-dasharray:none"
            class="st0"
            d="m 160.95048,109.91201 c -13.84755,38.1268 -56.02086,57.78141 -94.147632,43.90756 C 28.649806,139.94573 9.0214846,97.772395 22.895319,59.671875 36.769155,21.545078 78.916175,1.890463 117.04295,15.764308 c 38.10049,13.847568 57.75509,56.020903 43.90753,94.147702 z"
            id="Circle_2_" inkscape:connector-curvature="0" inkscape:label="d2"
            sodipodi:insensitive="true" />
    </g>
    <g style="display:inline" id="layer2" inkscape:groupmode="layer" inkscape:label="d4_d8_d20"
        sodipodi:insensitive="true">
        <path style="display:inline;stroke-width:2;stroke-dasharray:none"
            d="M 50.011078,4.7357968 95.903964,96.507705 H 4.1181441 Z" fill="none" id="path286"
            stroke="#000000" stroke-width="1.71652" inkscape:label="d4_d8_d20"
            sodipodi:insensitive="true" />
    </g>
    <g style="display:none" id="layer3" inkscape:groupmode="layer" inkscape:label="d6"
        sodipodi:insensitive="true">
        <path style="stroke-width:2;stroke-dasharray:none"
            d="M 50.026283,3.2176363 96.12403,49.653173 50.013213,96.108459 3.9089305,49.653173 50.013213,3.2044705"
            fill="none" id="path592" stroke="#000000" stroke-width="141" inkscape:label="d6"
            sodipodi:insensitive="true" />
    </g>
    <g style="display:none" id="layer4" transform="translate(-0.39620815,0.51694854)"
        inkscape:groupmode="layer" inkscape:label="d10" sodipodi:insensitive="true">
        <path style="fill:none;stroke:#000000;stroke-width:2;stroke-dasharray:none"
            d="M 96.296261,69.034408 50.322132,95.160021 4.3479949,69.034408 50.322132,3.7203772 c 0,0 45.974129,65.3140308 45.974129,65.3140308 z"
            id="path1307" inkscape:label="d10" sodipodi:insensitive="true" />
    </g>
    <g style="display:none" id="layer5" inkscape:groupmode="layer" inkscape:label="d12"
        sodipodi:insensitive="true">
        <path style="stroke-width:2;stroke-dasharray:none"
            d="M 50.5658,3.2939299 97.470915,39.21492 79.55635,97.378329 21.57525,97.363589 3.660685,39.2444 50.5658,3.3234096"
            fill="none" id="path1405" stroke="#000000" stroke-width="1.01219" inkscape:label="d12"
            sodipodi:insensitive="true" />
    </g>
    <g style="display:inline" id="layer6" inkscape:groupmode="layer"
        inkscape:label="d4_d8_d20 # 20">
        <path
            style="font-size:50.9419px;font-family:FreeSans;-inkscape-font-specification:FreeSans;stroke-width:32.0894"
            aria-label="20"
            d="M 24.81507,68.531707 Q 25.171663,56 36.735474,56 q 5.145132,0 8.354471,2.95463 3.20934,2.95463 3.20934,7.641284 0,6.724331 -7.641285,10.901567 l -5.09419,2.750862 q -3.311223,1.782967 -4.737596,3.464049 -1.426373,1.681083 -1.782967,3.973468 h 19.001328 v 4.431945 H 23.999999 q 0.305652,-5.960202 2.39427,-9.169541 2.088617,-3.260282 7.743168,-6.469621 l 4.686655,-2.648979 q 4.890422,-2.801804 4.890422,-7.131866 0,-2.903688 -2.037676,-4.83948 -2.037676,-1.935792 -5.09419,-1.935792 -6.775272,0 -7.284691,8.609181 z m 27.967089,6.113027 q 0,-4.533829 0.764129,-7.997878 0.764128,-3.464049 1.935792,-5.399841 1.171664,-1.986734 2.801804,-3.20934 1.630141,-1.222605 3.107456,-1.63014 Q 62.919597,56 64.60068,56 76.4192,56 76.4192,74.950386 q 0,8.914832 -3.056514,13.652428 -3.005572,4.686655 -8.762006,4.686655 -5.807377,0 -8.812949,-4.737596 -3.005572,-4.788539 -3.005572,-13.907139 z m 19.05227,-0.101883 q 0,-14.569383 -7.233749,-14.569383 -7.23375,0 -7.23375,14.722208 0,14.875035 7.131866,14.875035 3.7697,0 5.552667,-3.667817 1.782966,-3.667817 1.782966,-11.360043 z"
            id="text1" inkscape:label="20" />
    </g>
    <g style="display:none" id="g2" inkscape:groupmode="layer" inkscape:label="d4_d8_d20 # 19"
        sodipodi:insensitive="true">
        <text
            style="font-style:normal;font-variant:normal;font-weight:normal;font-stretch:normal;font-size:50.9419px;font-family:FreeSans;-inkscape-font-specification:FreeSans;text-align:start;text-anchor:start;display:inline;fill:#000000;stroke-width:32.0894"
            id="text2" x="20.680473" y="92.117805" inkscape:label="19" xml:space="preserve"><tspan
         style="font-style:normal;font-variant:normal;font-weight:normal;font-stretch:normal;font-family:FreeSans;-inkscape-font-specification:FreeSans;text-align:start;text-anchor:start;stroke-width:32.0894"
         id="tspan2"
         x="20.680473"
         y="92.117805"
         sodipodi:role="line">19</tspan></text>
    </g>
</svg>
