<?xml version="1.0" encoding="UTF-8" standalone="no"?>
<svg xmlns:inkscape="http://www.inkscape.org/namespaces/inkscape"
    xmlns:sodipodi="http://sodipodi.sourceforge.net/DTD/sodipodi-0.dtd" height="24" id="svg4"
    version="1.1" viewBox="0 -960 960 960" width="24" xmlns="http://www.w3.org/2000/svg"
    inkscape:version="1.1.2 (0a00cf5339, 2022-02-04)"
    sodipodi:docname="custom_casino_FILL0_wght400_GRAD0_opsz24 (copy).svg">
    <defs id="defs8" />
    <sodipodi:namedview bordercolor="#666666" borderopacity="1.0" id="namedview6"
        pagecolor="#ffffff" showgrid="false" inkscape:current-layer="svg4" inkscape:cx="11.181516"
        inkscape:cy="17.560714" inkscape:pagecheckerboard="0" inkscape:pageopacity="0.0"
        inkscape:pageshadow="2" inkscape:window-height="544" inkscape:window-maximized="0"
        inkscape:window-width="1132" inkscape:window-x="214" inkscape:window-y="150"
        inkscape:zoom="13.951596" />
    <path
        d="m 522.42641,-183.01515 q 17.67767,-17.67767 17.67767,-42.42641 0,-24.74874 -17.67767,-42.42641 -17.67767,-17.67767 -42.42641,-17.67767 -24.74874,0 -42.42641,17.67767 -17.67767,17.67767 -17.67767,42.42641 0,24.74874 17.67767,42.42641 17.67767,17.67767 42.42641,17.67767 24.74874,0 42.42641,-17.67767 z M 267.86797,-437.57359 q 17.67767,-17.67767 17.67767,-42.42641 0,-24.74874 -17.67767,-42.42641 -17.67767,-17.67767 -42.42641,-17.67767 -24.74874,0 -42.42641,17.67767 -17.67767,17.67767 -17.67767,42.42641 0,24.74874 17.67767,42.42641 17.67767,17.67767 42.42641,17.67767 24.74874,0 42.42641,-17.67767 z m 254.55844,0 q 17.67767,-17.67767 17.67767,-42.42641 0,-24.74874 -17.67767,-42.42641 -17.67767,-17.67767 -42.42641,-17.67767 -24.74874,0 -42.42641,17.67767 -17.67767,17.67767 -17.67767,42.42641 0,24.74874 17.67767,42.42641 17.67767,17.67767 42.42641,17.67767 24.74874,0 42.42641,-17.67767 z m 254.55844,0 q 17.67767,-17.67767 17.67767,-42.42641 0,-24.74874 -17.67767,-42.42641 -17.67767,-17.67767 -42.42641,-17.67767 -24.74874,0 -42.42641,17.67767 -17.67767,17.67767 -17.67767,42.42641 0,24.74874 17.67767,42.42641 17.67767,17.67767 42.42641,17.67767 24.74874,0 42.42641,-17.67767 z M 522.42641,-692.13203 q 17.67767,-17.67767 17.67767,-42.42641 0,-24.74874 -17.67767,-42.42641 -17.67767,-17.67767 -42.42641,-17.67767 -24.74874,0 -42.42641,17.67767 -17.67767,17.67767 -17.67767,42.42641 0,24.74874 17.67767,42.42641 17.67767,17.67767 42.42641,17.67767 24.74874,0 42.42641,-17.67767 z m 14.14213,664.68037 Q 513.23402,-4.1171363 480,-4.1171363 q -33.23402,0 -56.56854,-23.3345237 L 27.45166,-423.43146 Q 4.1171363,-446.76598 4.1171363,-480 q 0,-33.23402 23.3345237,-56.56854 l 395.9798,-395.9798 q 23.33452,-23.33452 56.56854,-23.33452 33.23402,0 56.56854,23.33452 l 395.9798,395.9798 q 23.33452,23.33452 23.33452,56.56854 0,33.23402 -23.33452,56.56854 z M 480,-84.020203 875.9798,-480 480,-875.9798 84.020203,-480 Z M 84.020203,-480 480,-84.020203 Z"
        id="path2" />
</svg>
