<?xml version="1.0" encoding="UTF-8" standalone="no"?>
<svg xmlns:inkscape="http://www.inkscape.org/namespaces/inkscape"
    xmlns:sodipodi="http://sodipodi.sourceforge.net/DTD/sodipodi-0.dtd" height="24" id="svg4"
    version="1.1" viewBox="0 -960 960 960" width="24" xmlns="http://www.w3.org/2000/svg"
    inkscape:version="1.1.2 (0a00cf5339, 2022-02-04)"
    sodipodi:docname="personal_bag_FILL0_wght400_GRAD0_opsz24.svg">
    <defs id="defs8" />
    <sodipodi:namedview bordercolor="#666666" borderopacity="1.0" id="namedview6"
        pagecolor="#ffffff" showgrid="false" inkscape:current-layer="svg4" inkscape:cx="8.0398099"
        inkscape:cy="14.232636" inkscape:pagecheckerboard="0" inkscape:pageopacity="0.0"
        inkscape:pageshadow="2" inkscape:window-height="736" inkscape:window-maximized="1"
        inkscape:window-width="1366" inkscape:window-x="0" inkscape:window-y="0"
        inkscape:zoom="18.408395" />
    <path
        d="m 280,-80 c -22,0 -40.83333,-7.833333 -56.5,-23.5 C 207.83333,-119.16667 200,-138 200,-160 v -320 c 0,-56.66667 14.83333,-107.33333 44.5,-152 29.66667,-44.66667 68.16667,-78 115.5,-100 v -28 c 0,-33.33333 11.66667,-61.66667 35,-85 23.33333,-23.33333 51.66667,-35 85,-35 33.33333,0 61.66667,11.66667 85,35 23.33333,23.33333 35,51.66667 35,85 v 28 c 47.33333,22 85.83333,55.33333 115.5,100 29.66667,44.66667 44.5,95.33333 44.5,152 v 320 c 0,22 -7.83333,40.83333 -23.5,56.5 C 720.83333,-87.833333 702,-80 680,-80 Z m 0,-80 h 400 v -320 c 0,-55.33333 -19.5,-102.5 -58.5,-141.5 -39,-39 -86.16667,-58.5 -141.5,-58.5 -55.33333,0 -102.5,19.5 -141.5,58.5 -39,39 -58.5,86.16667 -58.5,141.5 z m 160,-596 c 7.33333,-1.33333 14,-2.33333 20,-3 6,-0.66667 12.66667,-1 20,-1 7.33333,0 14,0.33333 20,1 6,0.66667 12.66667,1.66667 20,3 v -4 c 0,-11.33333 -3.83333,-20.83333 -11.5,-28.5 -7.66667,-7.66667 -17.16667,-11.5 -28.5,-11.5 -11.33333,0 -20.83333,3.83333 -28.5,11.5 -7.66667,7.66667 -11.5,17.16667 -11.5,28.5 z m -160,596 h 400 z"
        id="path2" sodipodi:nodetypes="ssssscssssscssssssccsssssccssscssssscccc" />
</svg>
