<?xml version="1.0" encoding="UTF-8"?>
<!DOCTYPE svg PUBLIC "-//W3C//DTD SVG 1.1//EN" "http://www.w3.org/Graphics/SVG/1.1/DTD/svg11.dtd">
<svg version="1.1" width="141.83mm" height="143.56mm" viewBox="0 0 14183 14356" preserveAspectRatio="xMidYMid" fill-rule="evenodd" clip-path="url(#presentation_clip_path)" stroke-width="28.222" stroke-linejoin="round" xmlns="http://www.w3.org/2000/svg" xmlns:ooo="http://xml.openoffice.org/svg/export" xmlns:xlink="http://www.w3.org/1999/xlink" xml:space="preserve">
 <defs class="ClipPathGroup">
  <clipPath id="presentation_clip_path" clipPathUnits="userSpaceOnUse">
   <rect x="0" y="0" width="14183" height="14356"/>
  </clipPath>
 </defs>
 <defs class="TextShapeIndex">
  
 </defs>
 <defs class="EmbeddedBulletChars">
  <g id="bullet-char-template57356" transform="scale(0.00048828125,-0.00048828125)">
   <path d="M 580,1141 L 1163,571 580,0 -4,571 580,1141 Z"/>
  </g>
  <g id="bullet-char-template57354" transform="scale(0.00048828125,-0.00048828125)">
   <path d="M 8,1128 L 1137,1128 1137,0 8,0 8,1128 Z"/>
  </g>
  <g id="bullet-char-template10146" transform="scale(0.00048828125,-0.00048828125)">
   <path d="M 174,0 L 602,739 174,1481 1456,739 174,0 Z M 1358,739 L 309,1346 659,739 1358,739 Z"/>
  </g>
  <g id="bullet-char-template10132" transform="scale(0.00048828125,-0.00048828125)">
   <path d="M 2015,739 L 1276,0 717,0 1260,543 174,543 174,936 1260,936 717,1481 1274,1481 2015,739 Z"/>
  </g>
  <g id="bullet-char-template10007" transform="scale(0.00048828125,-0.00048828125)">
   <path d="M 0,-2 C -7,14 -16,27 -25,37 L 356,567 C 262,823 215,952 215,954 215,979 228,992 255,992 264,992 276,990 289,987 310,991 331,999 354,1012 L 381,999 492,748 772,1049 836,1024 860,1049 C 881,1039 901,1025 922,1006 886,937 835,863 770,784 769,783 710,716 594,584 L 774,223 C 774,196 753,168 711,139 L 727,119 C 717,90 699,76 672,76 641,76 570,178 457,381 L 164,-76 C 142,-110 111,-127 72,-127 30,-127 9,-110 8,-76 1,-67 -2,-52 -2,-32 -2,-23 -1,-13 0,-2 Z"/>
  </g>
  <g id="bullet-char-template10004" transform="scale(0.00048828125,-0.00048828125)">
   <path d="M 285,-33 C 182,-33 111,30 74,156 52,228 41,333 41,471 41,549 55,616 82,672 116,743 169,778 240,778 293,778 328,747 346,684 L 369,508 C 377,444 397,411 428,410 L 1163,1116 C 1174,1127 1196,1133 1229,1133 1271,1133 1292,1118 1292,1087 L 1292,965 C 1292,929 1282,901 1262,881 L 442,47 C 390,-6 338,-33 285,-33 Z"/>
  </g>
  <g id="bullet-char-template9679" transform="scale(0.00048828125,-0.00048828125)">
   <path d="M 813,0 C 632,0 489,54 383,161 276,268 223,411 223,592 223,773 276,916 383,1023 489,1130 632,1184 813,1184 992,1184 1136,1130 1245,1023 1353,916 1407,772 1407,592 1407,412 1353,268 1245,161 1136,54 992,0 813,0 Z"/>
  </g>
  <g id="bullet-char-template8226" transform="scale(0.00048828125,-0.00048828125)">
   <path d="M 346,457 C 273,457 209,483 155,535 101,586 74,649 74,723 74,796 101,859 155,911 209,963 273,989 346,989 419,989 480,963 531,910 582,859 608,796 608,723 608,648 583,586 532,535 482,483 420,457 346,457 Z"/>
  </g>
  <g id="bullet-char-template8211" transform="scale(0.00048828125,-0.00048828125)">
   <path d="M -4,459 L 1135,459 1135,606 -4,606 -4,459 Z"/>
  </g>
 </defs>
 <defs class="TextEmbeddedBitmaps"/>
 <g>
  <g id="id2" class="Master_Slide">
   <g id="bg-id2" class="Background"/>
   <g id="bo-id2" class="BackgroundObjects"/>
  </g>
 </g>
 <g class="SlideGroup">
  <g>
   <g id="id1" class="Slide" clip-path="url(#presentation_clip_path)">
    <g class="Page">
     <g class="Group">
      <g class="com.sun.star.drawing.EllipseShape">
       <g id="id3">
        <path fill="rgb(255,255,255)" stroke="none" d="M 7092,14321 C 5793,14321 4689,14025 3564,13376 2439,12726 1631,11918 981,10793 332,9668 36,8564 36,7265 36,5966 332,4862 981,3737 1631,2612 2439,1804 3564,1154 4689,505 5793,209 7092,209 8391,209 9495,505 10620,1154 11745,1804 12553,2612 13203,3737 13852,4862 14148,5966 14148,7265 14148,8564 13852,9668 13203,10793 12553,11918 11745,12726 10620,13376 9495,14025 8391,14321 7092,14321 L 7092,14321 Z"/>
        <path fill="none" stroke="rgb(192,192,192)" stroke-width="71" d="M 7092,14321 C 5793,14321 4689,14025 3564,13376 2439,12726 1631,11918 981,10793 332,9668 36,8564 36,7265 36,5966 332,4862 981,3737 1631,2612 2439,1804 3564,1154 4689,505 5793,209 7092,209 8391,209 9495,505 10620,1154 11745,1804 12553,2612 13203,3737 13852,4862 14148,5966 14148,7265 14148,8564 13852,9668 13203,10793 12553,11918 11745,12726 10620,13376 9495,14025 8391,14321 7092,14321 L 7092,14321 Z"/>
       </g>
      </g>
      <g class="com.sun.star.drawing.EllipseShape">
       <g id="id4">
        <path fill="rgb(255,255,255)" stroke="none" d="M 7092,7265 L 7092,4971 C 7514,4971 7873,5067 8238,5278 8604,5489 8867,5752 9078,6118 9162,6264 9221,6395 9273,6556 L 7092,7265 Z"/>
        <path fill="none" stroke="rgb(192,192,192)" stroke-width="71" d="M 7092,7265 L 7092,4971 C 7514,4971 7873,5067 8238,5278 8604,5489 8867,5752 9078,6118 9162,6264 9221,6395 9273,6556 L 7092,7265 Z"/>
       </g>
      </g>
      <g class="com.sun.star.drawing.TextShape">
       <g id="id5">
        <text class="TextShape"><tspan class="TextParagraph" font-family="Nimbus Sans L, sans-serif" font-size="776px" font-weight="400"><tspan class="TextPosition" x="7310" y="6628"><tspan fill="rgb(192,192,192)" stroke="none">72°</tspan></tspan></tspan></text>
       </g>
      </g>
      <g class="com.sun.star.drawing.PolyLineShape">
       <g id="id6">
        <path fill="none" stroke="rgb(192,192,192)" stroke-width="71" d="M 7093,7266 L 7093,210 7093,7266 13803,5086 7093,7266 11240,12974 7093,7266 2946,12974 7093,7266 383,5086 7093,7266 Z"/>
       </g>
      </g>
      <g class="com.sun.star.drawing.EllipseShape">
       <g id="id7">
        <path fill="rgb(255,255,255)" stroke="none" d="M 7094,7444 C 7061,7444 7034,7437 7006,7420 6977,7404 6957,7384 6941,7356 6924,7327 6917,7300 6917,7267 6917,7234 6924,7207 6941,7179 6957,7150 6977,7130 7006,7114 7034,7097 7061,7090 7094,7090 7127,7090 7154,7097 7183,7114 7211,7130 7231,7150 7247,7179 7264,7207 7271,7234 7271,7267 7271,7300 7264,7327 7247,7356 7231,7384 7211,7404 7183,7420 7154,7437 7127,7444 7094,7444 L 7094,7444 Z"/>
        <path fill="none" stroke="rgb(192,192,192)" stroke-width="71" d="M 7094,7444 C 7061,7444 7034,7437 7006,7420 6977,7404 6957,7384 6941,7356 6924,7327 6917,7300 6917,7267 6917,7234 6924,7207 6941,7179 6957,7150 6977,7130 7006,7114 7034,7097 7061,7090 7094,7090 7127,7090 7154,7097 7183,7114 7211,7130 7231,7150 7247,7179 7264,7207 7271,7234 7271,7267 7271,7300 7264,7327 7247,7356 7231,7384 7211,7404 7183,7420 7154,7437 7127,7444 7094,7444 L 7094,7444 Z"/>
       </g>
      </g>
      <g class="com.sun.star.drawing.EllipseShape">
       <g id="id8">
        <path fill="rgb(255,255,255)" stroke="none" d="M 7093,212 L 8677,1363 C 8507,1596 8322,1763 8072,1908 7760,2088 7453,2170 7093,2170 6732,2170 6425,2088 6113,1908 5863,1763 5678,1596 5508,1363 L 7093,212 Z"/>
        <path fill="none" stroke="rgb(0,0,0)" stroke-width="71" d="M 7093,212 L 8677,1363 C 8507,1596 8322,1763 8072,1908 7760,2088 7453,2170 7093,2170 6732,2170 6425,2088 6113,1908 5863,1763 5678,1596 5508,1363 L 7093,212 Z"/>
       </g>
      </g>
      <g class="com.sun.star.drawing.TextShape">
       <g id="id9">
        <text class="TextShape"><tspan class="TextParagraph" font-family="Nimbus Sans L, sans-serif" font-size="776px" font-weight="400"><tspan class="TextPosition" x="6205" y="1793"><tspan fill="rgb(0,0,0)" stroke="none">108°</tspan></tspan></tspan></text>
       </g>
      </g>
      <g class="com.sun.star.drawing.PolyLineShape">
       <g id="id10">
        <path fill="none" stroke="rgb(0,0,0)" stroke-width="141" d="M 7095,212 L 13803,5086 11241,12978 2949,12976 387,5090 7095,216"/>
       </g>
      </g>
      <g class="com.sun.star.drawing.EllipseShape">
       <g id="id11">
        <path fill="rgb(255,255,255)" stroke="none" d="M 6935,135 C 6950,106 6969,84 6996,66 7023,48 7050,39 7083,37 7115,36 7144,41 7173,56 7202,70 7223,89 7241,117 7259,144 7268,171 7270,204 7272,236 7266,264 7252,293 7237,322 7218,344 7191,362 7164,380 7137,389 7104,391 7072,393 7043,387 7014,372 6985,358 6964,339 6946,312 6928,284 6919,257 6917,225 6915,192 6921,164 6935,135 L 6935,135 Z"/>
        <path fill="none" stroke="rgb(0,0,0)" stroke-width="71" d="M 6935,135 C 6950,106 6969,84 6996,66 7023,48 7050,39 7083,37 7115,36 7144,41 7173,56 7202,70 7223,89 7241,117 7259,144 7268,171 7270,204 7272,236 7266,264 7252,293 7237,322 7218,344 7191,362 7164,380 7137,389 7104,391 7072,393 7043,387 7014,372 6985,358 6964,339 6946,312 6928,284 6919,257 6917,225 6915,192 6921,164 6935,135 L 6935,135 Z"/>
       </g>
      </g>
      <g class="com.sun.star.drawing.EllipseShape">
       <g id="id12">
        <path fill="rgb(255,255,255)" stroke="none" d="M 13662,4986 C 13681,4960 13703,4942 13733,4928 13763,4915 13791,4911 13823,4914 13856,4918 13882,4928 13909,4947 13935,4966 13953,4988 13966,5018 13980,5048 13984,5076 13981,5109 13977,5141 13967,5168 13948,5194 13929,5221 13907,5239 13877,5252 13847,5265 13819,5270 13786,5266 13754,5263 13727,5253 13701,5233 13674,5214 13656,5192 13643,5162 13630,5132 13625,5104 13629,5072 13632,5039 13642,5012 13662,4986 L 13662,4986 Z"/>
        <path fill="none" stroke="rgb(0,0,0)" stroke-width="71" d="M 13662,4986 C 13681,4960 13703,4942 13733,4928 13763,4915 13791,4911 13823,4914 13856,4918 13882,4928 13909,4947 13935,4966 13953,4988 13966,5018 13980,5048 13984,5076 13981,5109 13977,5141 13967,5168 13948,5194 13929,5221 13907,5239 13877,5252 13847,5265 13819,5270 13786,5266 13754,5263 13727,5253 13701,5233 13674,5214 13656,5192 13643,5162 13630,5132 13625,5104 13629,5072 13632,5039 13642,5012 13662,4986 L 13662,4986 Z"/>
       </g>
      </g>
      <g class="com.sun.star.drawing.EllipseShape">
       <g id="id13">
        <path fill="rgb(255,255,255)" stroke="none" d="M 11296,12809 C 11327,12819 11351,12834 11373,12859 11395,12883 11408,12908 11414,12940 11421,12972 11420,13001 11410,13032 11400,13063 11384,13087 11360,13109 11336,13130 11310,13143 11278,13150 11246,13157 11218,13155 11187,13145 11156,13135 11132,13120 11110,13095 11088,13071 11075,13046 11068,13014 11061,12982 11063,12953 11073,12922 11083,12891 11099,12867 11123,12845 11147,12824 11173,12811 11205,12804 11236,12797 11265,12799 11296,12809 L 11296,12809 Z"/>
        <path fill="none" stroke="rgb(0,0,0)" stroke-width="71" d="M 11296,12809 C 11327,12819 11351,12834 11373,12859 11395,12883 11408,12908 11414,12940 11421,12972 11420,13001 11410,13032 11400,13063 11384,13087 11360,13109 11336,13130 11310,13143 11278,13150 11246,13157 11218,13155 11187,13145 11156,13135 11132,13120 11110,13095 11088,13071 11075,13046 11068,13014 11061,12982 11063,12953 11073,12922 11083,12891 11099,12867 11123,12845 11147,12824 11173,12811 11205,12804 11236,12797 11265,12799 11296,12809 L 11296,12809 Z"/>
       </g>
      </g>
      <g class="com.sun.star.drawing.EllipseShape">
       <g id="id14">
        <path fill="rgb(255,255,255)" stroke="none" d="M 3126,12975 C 3126,13008 3119,13035 3102,13064 3086,13092 3066,13112 3038,13128 3009,13145 2982,13152 2949,13152 2916,13152 2889,13145 2861,13128 2832,13112 2812,13092 2796,13064 2779,13035 2772,13008 2772,12975 2772,12942 2779,12915 2796,12887 2812,12858 2832,12838 2861,12822 2889,12805 2916,12798 2949,12798 2982,12798 3009,12805 3038,12822 3066,12838 3086,12858 3102,12887 3119,12915 3126,12942 3126,12975 L 3126,12975 Z"/>
        <path fill="none" stroke="rgb(0,0,0)" stroke-width="71" d="M 3126,12975 C 3126,13008 3119,13035 3102,13064 3086,13092 3066,13112 3038,13128 3009,13145 2982,13152 2949,13152 2916,13152 2889,13145 2861,13128 2832,13112 2812,13092 2796,13064 2779,13035 2772,13008 2772,12975 2772,12942 2779,12915 2796,12887 2812,12858 2832,12838 2861,12822 2889,12805 2916,12798 2949,12798 2982,12798 3009,12805 3038,12822 3066,12838 3086,12858 3102,12887 3119,12915 3126,12942 3126,12975 L 3126,12975 Z"/>
       </g>
      </g>
      <g class="com.sun.star.drawing.EllipseShape">
       <g id="id15">
        <path fill="rgb(255,255,255)" stroke="none" d="M 441,5259 C 410,5269 381,5271 349,5264 317,5257 292,5244 268,5222 243,5200 228,5176 218,5145 208,5114 206,5086 213,5054 220,5022 233,4996 254,4972 276,4948 300,4932 331,4922 362,4912 391,4911 423,4918 455,4924 480,4937 504,4959 529,4981 544,5005 554,5036 564,5067 566,5096 559,5127 552,5159 539,5185 518,5209 496,5233 472,5249 441,5259 L 441,5259 Z"/>
        <path fill="none" stroke="rgb(0,0,0)" stroke-width="71" d="M 441,5259 C 410,5269 381,5271 349,5264 317,5257 292,5244 268,5222 243,5200 228,5176 218,5145 208,5114 206,5086 213,5054 220,5022 233,4996 254,4972 276,4948 300,4932 331,4922 362,4912 391,4911 423,4918 455,4924 480,4937 504,4959 529,4981 544,5005 554,5036 564,5067 566,5096 559,5127 552,5159 539,5185 518,5209 496,5233 472,5249 441,5259 L 441,5259 Z"/>
       </g>
      </g>
     </g>
    </g>
   </g>
  </g>
 </g>
</svg>