<?xml version="1.0" encoding="utf-8"?>
<!-- Generator: Adobe Illustrator 25.2.3, SVG Export Plug-In . SVG Version: 6.00 Build 0)  -->
<svg version="1.1"
	 id="Layer_1" inkscape:version="0.48.4 r9939" sodipodi:docname="CIRCLE_as-requested.svg" xmlns:cc="http://creativecommons.org/ns#" xmlns:dc="http://purl.org/dc/elements/1.1/" xmlns:inkscape="http://www.inkscape.org/namespaces/inkscape" xmlns:rdf="http://www.w3.org/1999/02/22-rdf-syntax-ns#" xmlns:sodipodi="http://sodipodi.sourceforge.net/DTD/sodipodi-0.dtd" xmlns:svg="http://www.w3.org/2000/svg"
	 xmlns="http://www.w3.org/2000/svg" xmlns:xlink="http://www.w3.org/1999/xlink" x="0px" y="0px" viewBox="0 0 611.8 618.2"
	 style="enable-background:new 0 0 611.8 618.2;" xml:space="preserve">
<style type="text/css">
	.st0{fill:#FFFFFF;stroke:#1F1F1F;stroke-width:8;}
	.st1{fill:none;stroke:#0000FF;stroke-width:4;}
	.st2{fill:none;stroke:#FF0000;stroke-width:4;}
	.st3{fill:#FFFFFF;stroke:#009900;stroke-width:4;}
	.st4{fill:#0000FF;}
	.st5{fill:#FF0000;}
	.st6{fill:#1F1F1F;}
	.st7{fill:none;stroke:#1F1F1F;stroke-width:8;}
	.st8{fill:#009900;}
</style>
<sodipodi:namedview  bordercolor="#666666" borderopacity="1" gridtolerance="10" guidetolerance="10" id="namedview4058" inkscape:current-layer="layer1" inkscape:cx="419.57513" inkscape:cy="531.72247" inkscape:pageopacity="0" inkscape:pageshadow="2" inkscape:window-height="837" inkscape:window-maximized="1" inkscape:window-width="1600" inkscape:window-x="-4" inkscape:window-y="-4" inkscape:zoom="3.0540278" objecttolerance="10" pagecolor="#ffffff" showgrid="false">
	</sodipodi:namedview>
<g id="layer1" inkscape:groupmode="layer" inkscape:label="Background">
	<path id="Circle_2_" inkscape:connector-curvature="0" class="st0" d="M568.8,407.5c-52.7,145.1-213.2,219.9-358.3,167.1
		C65.3,521.8-9.4,361.3,43.4,216.3C96.2,71.2,256.6-3.6,401.7,49.2C546.7,101.9,621.5,262.4,568.8,407.5L568.8,407.5z"/>
	<line id="Diameter_line_2_" class="st1" x1="50.9" y1="430.9" x2="559.7" y2="193.6"/>
	<line id="Radius_line_2_" class="st2" x1="305" y1="312.3" x2="568.7" y2="408.3"/>
	
		<circle id="Centre_point" sodipodi:cx="305" sodipodi:cy="312.29999" sodipodi:rx="5.1999998" sodipodi:ry="5.1999998" class="st3" cx="305" cy="312.3" r="5.2">
	</circle>
	<path id="D" inkscape:connector-curvature="0" class="st4" d="M119.5,362.7l9.8-4.7c2.8-1.3,5.2-1.5,7.5-0.7s4.1,2.6,5.2,5.3
		c0.9,1.9,1.4,3.9,1.5,5.7c0.1,2-0.1,3.9-0.6,5.2c-0.5,1.5-1.4,3-2.8,4.5c-1.3,1.5-2.9,2.6-4.6,3.4l-11.2,5.1l-0.2-1.2l1.2-0.6
		c0.7-0.3,1.1-0.7,1.3-1c0.2-0.4,0.2-0.9,0.1-1.5l-3.4-19c0-0.1-0.1-0.3-0.1-0.4c-0.1-0.3-0.4-0.5-0.7-0.5c-0.3,0-0.9,0.1-1.5,0.4
		l-1.7,0.8v-0.8L119.5,362.7L119.5,362.7z M134.6,380.8c1.4-0.7,2.6-1.5,3.4-2.6c0.9-1,1.4-2.4,1.8-3.9c0.4-1.5,0.3-3.3,0-5.2
		c-0.5-2.7-1-4.8-1.9-6.6c-1-2.3-2.5-3.6-4.2-4c-1.2-0.3-2.9,0.1-4.8,1c-1.2,0.6-1.9,0.9-2.1,1.2c-0.2,0.3-0.2,0.8-0.1,1.5l3.4,19
		c0,0.3,0.1,0.5,0.2,0.7c0.1,0.3,0.3,0.4,0.6,0.5s0.6,0,1-0.2L134.6,380.8z"/>
	<path id="R" inkscape:connector-curvature="0" class="st5" d="M400.3,314.5l10.5,3.9c2.6,0.9,4.3,2.2,5.1,3.6
		c0.8,1.4,1,2.9,0.4,4.6c-0.5,1.2-1.1,2.2-2.2,2.7c-0.9,0.6-2.3,0.9-3.9,0.9c-1.1,0-2.6-0.3-4.6-0.8c1,0.8,1.7,1.4,2,2.2
		c0.4,0.7,0.5,1.5,0.5,2.3c0,0.7-0.5,2.1-1.3,4.3c-0.5,1.3-0.7,2.2-0.7,2.6s0.2,0.6,0.6,0.8c0.8,0.3,1.9-0.4,3.3-2l0.8,0.6
		c-2.1,2.5-4.1,3.3-5.9,2.5c-0.9-0.4-1.5-0.9-1.9-1.8c-0.4-0.8-0.3-1.9,0.2-3.2c0.3-0.7,0.6-1.4,1-2.2c0.6-1,0.9-1.7,1-2.1
		c0.5-1.1,0.5-2.2,0.1-2.8c-0.4-0.8-1.3-1.3-2.6-1.9l-2.3-0.9l-5.6,8c-0.1,0.1-0.1,0.2-0.1,0.3c-0.1,0.3-0.1,0.6,0.1,0.8
		c0.2,0.3,0.6,0.6,1,0.8l2.4,0.8l-0.7,1l-10.4-3.9l0.7-1l1.9,0.7c0.9,0.3,1.4,0.1,2-0.6l11.4-16.2c0.1-0.1,0.1-0.2,0.2-0.3
		c0.1-0.3,0.1-0.6-0.2-0.8c-0.3-0.3-0.6-0.5-1.1-0.7l-2.3-0.8L400.3,314.5z M401.3,326.6l3.1,1.1c1.7,0.6,3.1,0.8,4.3,0.8
		c1.1-0.1,2.1-0.5,2.7-1c0.9-0.9,1.7-1.9,2.2-3.1c0.4-1.1,0.4-2.1-0.2-3s-1.7-1.6-3.5-2.3c-1.1-0.4-1.9-0.6-2.3-0.6
		c-0.4,0.1-0.8,0.3-1,0.8L401.3,326.6L401.3,326.6z"/>
	<path id="C_1_" inkscape:connector-curvature="0" class="st6" d="M518.8,70.8l2.3-0.8l1,0.5l-5.1,7.3l-0.9-0.5
		c0.8-1.7,1.2-3.1,1.3-4.2c0.2-1.5,0.1-2.8-0.5-4c-0.6-1.1-1.4-1.9-2.6-2.5c-1.5-0.7-3.3-0.8-5-0.2c-1.9,0.6-4,2-5.9,4.3
		c-1.8,2-3.1,4-4.2,6c-0.9,2.2-1.2,4.1-0.7,5.6c0.6,1.7,1.8,2.9,3.6,3.7c1.6,0.8,3.3,0.9,4.8,0.5c1.8-0.4,3.5-1.4,5-3.1l0.8,0.9
		c-1.8,1.7-3.5,2.8-5.1,3.4c-2.3,0.7-4.5,0.5-6.7-0.6c-2.6-1.1-4.3-3-5.1-5.3c-0.9-2.5-0.9-4.8,0.4-7.5c1.1-2.5,2.8-4.5,4.9-6.1
		c2.3-1.8,4.6-2.8,6.8-3.2c2.4-0.4,4.5-0.1,6.5,0.9c1,0.5,1.9,1,2.6,1.8C517.7,68.3,518.3,69.5,518.8,70.8L518.8,70.8z"/>
	<path id="path4797" inkscape:connector-curvature="0" class="st7" d="M568.8,407.5c-52.7,145.1-213.2,219.9-358.3,167.1
		C65.3,521.8-9.4,361.3,43.4,216.3C96.2,71.2,256.6-3.6,401.7,49.2C546.7,101.9,621.5,262.4,568.8,407.5L568.8,407.5z"/>
</g>
<path id="path3124" inkscape:connector-curvature="0" class="st8" d="M290.2,283.5c-2.6-0.3-5,0.1-7,1.1c-2,1-3.6,2.5-4.9,4.4
	c-1.2,1.9-2,4.1-2.3,6.5c-0.3,2.6,0.2,4.9,1.4,6.8s3.3,3,6.2,3.4c2.6,0.3,5-0.1,7-1.1c2-1,3.6-2.5,4.9-4.4c1.2-1.9,2-4.1,2.3-6.5
	c0.3-2.6-0.2-4.9-1.4-6.8C295.1,285,293.1,283.9,290.2,283.5z M289.9,284.6c2,0.3,3.3,1.2,4.1,2.7c0.8,1.5,1,3.4,0.7,5.5
	c-0.2,2.1-0.8,4.1-1.8,6c-0.9,1.9-2.2,3.4-3.7,4.5c-1.5,1.1-3.3,1.5-5.4,1.4c-2-0.3-3.3-1.2-4.1-2.7c-0.8-1.5-1-3.4-0.7-5.5
	c0.2-2.1,0.8-4.1,1.7-6c0.9-1.9,2.1-3.4,3.7-4.5C286,284.8,287.8,284.4,289.9,284.6L289.9,284.6z"/>
</svg>
