<?xml version="1.0" encoding="UTF-8"?>
<!DOCTYPE svg PUBLIC "-//W3C//DTD SVG 1.1//EN" "http://www.w3.org/Graphics/SVG/1.1/DTD/svg11.dtd">
<svg version="1.1" width="145.34mm" height="145.4mm" viewBox="0 0 14534 14540" preserveAspectRatio="xMidYMid" fill-rule="evenodd" clip-path="url(#presentation_clip_path)" stroke-width="28.222" stroke-linejoin="round" xmlns="http://www.w3.org/2000/svg" xmlns:ooo="http://xml.openoffice.org/svg/export" xmlns:xlink="http://www.w3.org/1999/xlink" xml:space="preserve">
 <defs class="ClipPathGroup">
  <clipPath id="presentation_clip_path" clipPathUnits="userSpaceOnUse">
   <rect x="0" y="0" width="14534" height="14540"/>
  </clipPath>
 </defs>
 <defs class="TextShapeIndex">
  
 </defs>
 <defs class="EmbeddedBulletChars">
  <g id="bullet-char-template57356" transform="scale(0.00048828125,-0.00048828125)">
   <path d="M 580,1141 L 1163,571 580,0 -4,571 580,1141 Z"/>
  </g>
  <g id="bullet-char-template57354" transform="scale(0.00048828125,-0.00048828125)">
   <path d="M 8,1128 L 1137,1128 1137,0 8,0 8,1128 Z"/>
  </g>
  <g id="bullet-char-template10146" transform="scale(0.00048828125,-0.00048828125)">
   <path d="M 174,0 L 602,739 174,1481 1456,739 174,0 Z M 1358,739 L 309,1346 659,739 1358,739 Z"/>
  </g>
  <g id="bullet-char-template10132" transform="scale(0.00048828125,-0.00048828125)">
   <path d="M 2015,739 L 1276,0 717,0 1260,543 174,543 174,936 1260,936 717,1481 1274,1481 2015,739 Z"/>
  </g>
  <g id="bullet-char-template10007" transform="scale(0.00048828125,-0.00048828125)">
   <path d="M 0,-2 C -7,14 -16,27 -25,37 L 356,567 C 262,823 215,952 215,954 215,979 228,992 255,992 264,992 276,990 289,987 310,991 331,999 354,1012 L 381,999 492,748 772,1049 836,1024 860,1049 C 881,1039 901,1025 922,1006 886,937 835,863 770,784 769,783 710,716 594,584 L 774,223 C 774,196 753,168 711,139 L 727,119 C 717,90 699,76 672,76 641,76 570,178 457,381 L 164,-76 C 142,-110 111,-127 72,-127 30,-127 9,-110 8,-76 1,-67 -2,-52 -2,-32 -2,-23 -1,-13 0,-2 Z"/>
  </g>
  <g id="bullet-char-template10004" transform="scale(0.00048828125,-0.00048828125)">
   <path d="M 285,-33 C 182,-33 111,30 74,156 52,228 41,333 41,471 41,549 55,616 82,672 116,743 169,778 240,778 293,778 328,747 346,684 L 369,508 C 377,444 397,411 428,410 L 1163,1116 C 1174,1127 1196,1133 1229,1133 1271,1133 1292,1118 1292,1087 L 1292,965 C 1292,929 1282,901 1262,881 L 442,47 C 390,-6 338,-33 285,-33 Z"/>
  </g>
  <g id="bullet-char-template9679" transform="scale(0.00048828125,-0.00048828125)">
   <path d="M 813,0 C 632,0 489,54 383,161 276,268 223,411 223,592 223,773 276,916 383,1023 489,1130 632,1184 813,1184 992,1184 1136,1130 1245,1023 1353,916 1407,772 1407,592 1407,412 1353,268 1245,161 1136,54 992,0 813,0 Z"/>
  </g>
  <g id="bullet-char-template8226" transform="scale(0.00048828125,-0.00048828125)">
   <path d="M 346,457 C 273,457 209,483 155,535 101,586 74,649 74,723 74,796 101,859 155,911 209,963 273,989 346,989 419,989 480,963 531,910 582,859 608,796 608,723 608,648 583,586 532,535 482,483 420,457 346,457 Z"/>
  </g>
  <g id="bullet-char-template8211" transform="scale(0.00048828125,-0.00048828125)">
   <path d="M -4,459 L 1135,459 1135,606 -4,606 -4,459 Z"/>
  </g>
 </defs>
 <defs class="TextEmbeddedBitmaps"/>
 <g>
  <g id="id2" class="Master_Slide">
   <g id="bg-id2" class="Background"/>
   <g id="bo-id2" class="BackgroundObjects"/>
  </g>
 </g>
 <g class="SlideGroup">
  <g>
   <g id="id1" class="Slide" clip-path="url(#presentation_clip_path)">
    <g class="Page">
     <g class="Group">
      <g class="com.sun.star.drawing.EllipseShape">
       <g id="id3">
        <path fill="rgb(255,255,255)" stroke="none" d="M 7263,14323 C 5964,14323 4860,14027 3735,13378 2610,12728 1802,11920 1152,10795 503,9670 207,8566 207,7267 207,5968 503,4864 1152,3739 1802,2614 2610,1806 3735,1156 4860,507 5964,211 7263,211 8562,211 9666,507 10791,1156 11916,1806 12724,2614 13374,3739 14023,4864 14319,5968 14319,7267 14319,8566 14023,9670 13374,10795 12724,11920 11916,12728 10791,13378 9666,14027 8562,14323 7263,14323 L 7263,14323 Z"/>
        <path fill="none" stroke="rgb(192,192,192)" stroke-width="71" d="M 7263,14323 C 5964,14323 4860,14027 3735,13378 2610,12728 1802,11920 1152,10795 503,9670 207,8566 207,7267 207,5968 503,4864 1152,3739 1802,2614 2610,1806 3735,1156 4860,507 5964,211 7263,211 8562,211 9666,507 10791,1156 11916,1806 12724,2614 13374,3739 14023,4864 14319,5968 14319,7267 14319,8566 14023,9670 13374,10795 12724,11920 11916,12728 10791,13378 9666,14027 8562,14323 7263,14323 L 7263,14323 Z"/>
       </g>
      </g>
      <g class="com.sun.star.drawing.EllipseShape">
       <g id="id4">
        <path fill="rgb(255,255,255)" stroke="none" d="M 7263,7267 L 7263,5150 C 7653,5150 7984,5239 8321,5434 8659,5628 8902,5871 9096,6208 9291,6546 9380,6877 9380,7267 L 9380,7267 7263,7267 Z"/>
        <path fill="none" stroke="rgb(192,192,192)" stroke-width="71" d="M 7263,7267 L 7263,5150 C 7653,5150 7984,5239 8321,5434 8659,5628 8902,5871 9096,6208 9291,6546 9380,6877 9380,7267 L 9380,7267 7263,7267 Z"/>
       </g>
      </g>
      <g class="com.sun.star.drawing.TextShape">
       <g id="id5">
        <text class="TextShape"><tspan class="TextParagraph" font-family="Nimbus Sans L, sans-serif" font-size="776px" font-weight="400"><tspan class="TextPosition" x="7526" y="6903"><tspan fill="rgb(192,192,192)" stroke="none">90°</tspan></tspan></tspan></text>
       </g>
      </g>
      <g class="com.sun.star.drawing.PolyLineShape">
       <g id="id6">
        <path fill="none" stroke="rgb(192,192,192)" stroke-width="71" d="M 7265,7268 L 7265,213 7265,7268 14320,7268 7265,7268 7265,14324 7265,7268 209,7268 7265,7268 Z"/>
       </g>
      </g>
      <g class="com.sun.star.drawing.EllipseShape">
       <g id="id7">
        <path fill="rgb(255,255,255)" stroke="none" d="M 7265,7444 C 7232,7444 7205,7437 7177,7420 7148,7404 7128,7384 7112,7356 7095,7327 7088,7300 7088,7267 7088,7234 7095,7207 7112,7179 7128,7150 7148,7130 7177,7114 7205,7097 7232,7090 7265,7090 7298,7090 7325,7097 7354,7114 7382,7130 7402,7150 7418,7179 7435,7207 7442,7234 7442,7267 7442,7300 7435,7327 7418,7356 7402,7384 7382,7404 7354,7420 7325,7437 7298,7444 7265,7444 L 7265,7444 Z"/>
        <path fill="none" stroke="rgb(192,192,192)" stroke-width="71" d="M 7265,7444 C 7232,7444 7205,7437 7177,7420 7148,7404 7128,7384 7112,7356 7095,7327 7088,7300 7088,7267 7088,7234 7095,7207 7112,7179 7128,7150 7148,7130 7177,7114 7205,7097 7232,7090 7265,7090 7298,7090 7325,7097 7354,7114 7382,7130 7402,7150 7418,7179 7435,7207 7442,7234 7442,7267 7442,7300 7435,7327 7418,7356 7402,7384 7382,7404 7354,7420 7325,7437 7298,7444 7265,7444 L 7265,7444 Z"/>
       </g>
      </g>
      <g class="com.sun.star.drawing.EllipseShape">
       <g id="id8">
        <path fill="rgb(255,255,255)" stroke="none" d="M 7264,210 L 8714,1660 C 8581,1794 8453,1892 8290,1986 7963,2175 7642,2261 7264,2261 6886,2261 6565,2175 6239,1986 6075,1892 5947,1794 5814,1660 L 7264,210 Z"/>
        <path fill="none" stroke="rgb(0,0,0)" stroke-width="71" d="M 7264,210 L 8714,1660 C 8581,1794 8453,1892 8290,1986 7963,2175 7642,2261 7264,2261 6886,2261 6565,2175 6239,1986 6075,1892 5947,1794 5814,1660 L 7264,210 Z"/>
       </g>
      </g>
      <g class="com.sun.star.drawing.TextShape">
       <g id="id9">
        <text class="TextShape"><tspan class="TextParagraph" font-family="Nimbus Sans L, sans-serif" font-size="776px" font-weight="400"><tspan class="TextPosition" x="6592" y="1916"><tspan fill="rgb(0,0,0)" stroke="none">90°</tspan></tspan></tspan></text>
       </g>
      </g>
      <g class="com.sun.star.drawing.PolyLineShape">
       <g id="id10">
        <path fill="none" stroke="rgb(0,0,0)" stroke-width="141" d="M 7266,214 L 14320,7268 7264,14325 209,7268 7264,212"/>
       </g>
      </g>
      <g class="com.sun.star.drawing.EllipseShape">
       <g id="id11">
        <path fill="rgb(255,255,255)" stroke="none" d="M 7140,89 C 7163,66 7187,51 7219,43 7250,35 7279,35 7310,43 7342,51 7367,66 7390,89 7413,112 7427,137 7436,168 7444,200 7444,228 7436,260 7427,291 7413,316 7390,339 7367,362 7342,377 7310,385 7279,393 7250,393 7219,385 7187,377 7163,362 7140,339 7116,316 7102,291 7094,260 7085,228 7085,200 7094,168 7102,137 7116,112 7140,89 L 7140,89 Z"/>
        <path fill="none" stroke="rgb(0,0,0)" stroke-width="71" d="M 7140,89 C 7163,66 7187,51 7219,43 7250,35 7279,35 7310,43 7342,51 7367,66 7390,89 7413,112 7427,137 7436,168 7444,200 7444,228 7436,260 7427,291 7413,316 7390,339 7367,362 7342,377 7310,385 7279,393 7250,393 7219,385 7187,377 7163,362 7140,339 7116,316 7102,291 7094,260 7085,228 7085,200 7094,168 7102,137 7116,112 7140,89 L 7140,89 Z"/>
       </g>
      </g>
      <g class="com.sun.star.drawing.EllipseShape">
       <g id="id12">
        <path fill="rgb(255,255,255)" stroke="none" d="M 14195,7145 C 14218,7122 14242,7107 14274,7099 14305,7091 14334,7091 14365,7099 14397,7107 14422,7122 14445,7145 14468,7168 14482,7193 14491,7224 14499,7256 14499,7284 14491,7316 14482,7347 14468,7372 14445,7395 14422,7418 14397,7433 14365,7441 14334,7449 14305,7449 14274,7441 14242,7433 14218,7418 14195,7395 14171,7372 14157,7347 14149,7316 14140,7284 14140,7256 14149,7224 14157,7193 14171,7168 14195,7145 L 14195,7145 Z"/>
        <path fill="none" stroke="rgb(0,0,0)" stroke-width="71" d="M 14195,7145 C 14218,7122 14242,7107 14274,7099 14305,7091 14334,7091 14365,7099 14397,7107 14422,7122 14445,7145 14468,7168 14482,7193 14491,7224 14499,7256 14499,7284 14491,7316 14482,7347 14468,7372 14445,7395 14422,7418 14397,7433 14365,7441 14334,7449 14305,7449 14274,7441 14242,7433 14218,7418 14195,7395 14171,7372 14157,7347 14149,7316 14140,7284 14140,7256 14149,7224 14157,7193 14171,7168 14195,7145 L 14195,7145 Z"/>
       </g>
      </g>
      <g class="com.sun.star.drawing.EllipseShape">
       <g id="id13">
        <path fill="rgb(255,255,255)" stroke="none" d="M 7391,14201 C 7414,14224 7429,14248 7437,14280 7445,14311 7445,14340 7437,14371 7429,14403 7414,14428 7391,14451 7368,14474 7343,14488 7312,14497 7280,14505 7252,14505 7220,14497 7189,14488 7164,14474 7141,14451 7118,14428 7103,14403 7095,14371 7087,14340 7087,14311 7095,14280 7103,14248 7118,14224 7141,14201 7164,14177 7189,14163 7220,14155 7252,14146 7280,14146 7312,14155 7343,14163 7368,14177 7391,14201 L 7391,14201 Z"/>
        <path fill="none" stroke="rgb(0,0,0)" stroke-width="71" d="M 7391,14201 C 7414,14224 7429,14248 7437,14280 7445,14311 7445,14340 7437,14371 7429,14403 7414,14428 7391,14451 7368,14474 7343,14488 7312,14497 7280,14505 7252,14505 7220,14497 7189,14488 7164,14474 7141,14451 7118,14428 7103,14403 7095,14371 7087,14340 7087,14311 7095,14280 7103,14248 7118,14224 7141,14201 7164,14177 7189,14163 7220,14155 7252,14146 7280,14146 7312,14155 7343,14163 7368,14177 7391,14201 L 7391,14201 Z"/>
       </g>
      </g>
      <g class="com.sun.star.drawing.EllipseShape">
       <g id="id14">
        <path fill="rgb(255,255,255)" stroke="none" d="M 338,7395 C 315,7418 291,7433 259,7441 228,7449 199,7449 168,7441 136,7433 111,7418 88,7395 65,7372 51,7347 42,7316 34,7284 34,7256 42,7224 51,7193 65,7168 88,7145 111,7122 136,7107 168,7099 199,7091 228,7091 259,7099 291,7107 315,7122 338,7145 362,7168 376,7193 384,7224 393,7256 393,7284 384,7316 376,7347 362,7372 338,7395 L 338,7395 Z"/>
        <path fill="none" stroke="rgb(0,0,0)" stroke-width="71" d="M 338,7395 C 315,7418 291,7433 259,7441 228,7449 199,7449 168,7441 136,7433 111,7418 88,7395 65,7372 51,7347 42,7316 34,7284 34,7256 42,7224 51,7193 65,7168 88,7145 111,7122 136,7107 168,7099 199,7091 228,7091 259,7099 291,7107 315,7122 338,7145 362,7168 376,7193 384,7224 393,7256 393,7284 384,7316 376,7347 362,7372 338,7395 L 338,7395 Z"/>
       </g>
      </g>
     </g>
    </g>
   </g>
  </g>
 </g>
</svg>