<svg version="1.1" viewBox="0 0 100 81" xmlns="http://www.w3.org/2000/svg" xmlns:xlink="http://www.w3.org/1999/xlink">
 <path d="m50 2 43.30127019 75h-86.60254038z" fill="none" stroke="#000" stroke-width="1.5"/>
 <path id="b" d="m56 12.39201122a12 12 0 0 1-6 1.607988781 12 12 0 0 1-6-1.608239075m6 60.85823908v7.5" fill="none" stroke="#000" stroke-width="1.5"/>
 <use transform="rotate(120,50,52)" xlink:href="#b"/>
 <use transform="rotate(240 50 52)" xlink:href="#b"/>
 <path id="a" transform="matrix(.006 0 0 -.006 53.885 28)" d="m675 1121q0-121-84.5-205t-205.5-84q-120 0-204.5 84.5t-84.5 204.5 84.5 204.5 204.5 84.5q121 0 205.5-84.5t84.5-204.5zm-80 0q0 88-61 149t-149 61q-87 0-148.5-61.5t-61.5-148.5 62-148.5 148-61.5q88 0 149 61.5t61 148.5zm-669-456q0-309-78-469-118-242-362-242-226 0-344 209-93 164-93 502 0 315 76 475 117 247 363 247 238 0 355-232 83-165 83-490zm-173-102v260q0 216-37 329-61 190-230 190-168 0-229-191-37-114-37-329 0-41 1-122v-121q0-239 33-360 59-220 232-220 172 0 233 212 34 120 34 352zm-858-139q0-190-118-327-124-143-311-143-242 0-353 247-83 183-83 458 0 205 75 375 85 191 245 287 111 66 229 66 112 0 184-54 81-61 81-169 0-44-26.5-73t-69.5-29q-41 0-68.5 28t-27.5 69q0 98 114 93-57 85-183 85-81 0-155-47-210-133-210-607 84 206 260 206 183 0 303-143 114-135 114-322zm-187-54v104q0 160-38 238-63 129-193 129t-199-127q-57-103-57-244 0-206 38-302 26-67 80-110 59-47 127-47 140 0 206 136 36 74 36 223z"/>
 <use transform="translate(24,44)" xlink:href="#a"/>
 <use transform="translate(-22,44)" xlink:href="#a"/>
</svg>
