<?xml version="1.0" encoding="UTF-8" standalone="no"?>
<svg
   height="24"
   id="svg22"
   version="1.1"
   viewBox="0 -960 960 960"
   width="24"
   inkscape:version="1.2.2 (b0a8486541, 2022-12-01)"
   sodipodi:docname="app-icon.svg"
   xmlns:inkscape="http://www.inkscape.org/namespaces/inkscape"
   xmlns:sodipodi="http://sodipodi.sourceforge.net/DTD/sodipodi-0.dtd"
   xmlns="http://www.w3.org/2000/svg"
   xmlns:svg="http://www.w3.org/2000/svg">
  <sodipodi:namedview
     bordercolor="#666666"
     borderopacity="1.0"
     id="namedview14"
     pagecolor="#ffffff"
     showgrid="false"
     inkscape:current-layer="g20"
     inkscape:cx="1.4792593"
     inkscape:cy="21.508431"
     inkscape:pagecheckerboard="0"
     inkscape:pageopacity="0.0"
     inkscape:pageshadow="2"
     inkscape:window-height="1011"
     inkscape:window-maximized="1"
     inkscape:window-width="1920"
     inkscape:window-x="0"
     inkscape:window-y="32"
     inkscape:zoom="16.90035"
     inkscape:showpageshadow="2"
     inkscape:deskcolor="#d1d1d1" />
  <defs
     id="defs26" />
  <g
     style="stroke-width:0.952893"
     id="g20"
     transform="matrix(0.84054097,0,0,0.8443391,73.259541,-65.339077)">
    <g
       id="g167"
       inkscape:highlight-color="#000000">
      <path
         style="paint-order:stroke markers fill"
         d="m 536.57,-27.452 c -15.556,15.556 -34.413,23.335 -56.569,23.335 -22.156,0 -41.012,-7.7782 -56.569,-23.335 l -395.98,-395.98 c -15.556,-15.556 -23.335,-34.413 -23.335,-56.569 0,-22.156 7.7782,-41.012 23.335,-56.569 l 395.98,-395.98 c 15.556,-15.556 34.413,-23.335 56.569,-23.335 22.156,0 41.012,7.7782 56.569,23.335 l 395.98,395.98 c 15.556,15.556 23.335,34.413 23.335,56.569 0,22.156 -7.7782,41.012 -23.335,56.569 z m -56.569,-56.569 395.98,-395.98 -395.98,-395.98 -395.98,395.98 z m -395.98,-395.98 395.98,395.98 z"
         id="path16"
         opacity="0.801"
         stroke-width="0" />
    </g>
    <path
       style="paint-order:fill markers stroke"
       d="m 502.65292,-379.29463 v -28.233 c 0.59776,-27.031 8.9665,-40.247 47.223,-74.487 44.83203,-40.847 59.77602,-67.27799 59.77602,-107.51999 0,-70.28201 -49.61402,-115.33 -127.32003,-115.33 -86.67603,0 -130.91003,47.45499 -130.91003,140.56 h 50.81 c 0,-64.87501 23.31302,-93.70901 77.11104,-93.70901 46.028,0 76.51402,27.63199 76.51402,68.48001 0,27.63199 -13.15101,51.05899 -44.83202,79.29198 -50.81002,45.05199 -62.16701,62.47301 -62.16701,97.914 v 33.03801 z m 0,57.06599 H 448.8539 v 62.47301 h 53.79902 z"
       id="path18"
       opacity="0.801"
       stroke="#000000"
       stroke-linecap="round"
       stroke-linejoin="round"
       stroke-width="37.985"
       inkscape:highlight-color="#000000" />
  </g>
</svg>
