<?xml version="1.0" encoding="UTF-8" standalone="no"?>
<svg xmlns:inkscape="http://www.inkscape.org/namespaces/inkscape"
    xmlns:sodipodi="http://sodipodi.sourceforge.net/DTD/sodipodi-0.dtd" height="24" id="svg22"
    version="1.1" viewBox="0 -960 960 960" width="24" xmlns="http://www.w3.org/2000/svg"
    inkscape:version="1.1.2 (0a00cf5339, 2022-02-04)" sodipodi:docname="AppIcon.svg">
    <sodipodi:namedview bordercolor="#666666" borderopacity="1.0" id="namedview14"
        pagecolor="#ffffff" showgrid="false" inkscape:current-layer="svg22" inkscape:cx="-3.7300251"
        inkscape:cy="9.0730341" inkscape:pagecheckerboard="0" inkscape:pageopacity="0.0"
        inkscape:pageshadow="2" inkscape:window-height="736" inkscape:window-maximized="1"
        inkscape:window-width="1366" inkscape:window-x="0" inkscape:window-y="0"
        inkscape:zoom="9.9195042" />
    <defs id="defs26" />
    <g style="stroke-width:0.952893" id="g20"
        transform="matrix(0.84054097,0,0,0.8443391,73.259541,-65.339077)">
        <path style="paint-order:stroke markers fill"
            d="m 536.57,-27.452 c -15.556,15.556 -34.413,23.335 -56.569,23.335 -22.156,0 -41.012,-7.7782 -56.569,-23.335 l -395.98,-395.98 c -15.556,-15.556 -23.335,-34.413 -23.335,-56.569 0,-22.156 7.7782,-41.012 23.335,-56.569 l 395.98,-395.98 c 15.556,-15.556 34.413,-23.335 56.569,-23.335 22.156,0 41.012,7.7782 56.569,23.335 l 395.98,395.98 c 15.556,15.556 23.335,34.413 23.335,56.569 0,22.156 -7.7782,41.012 -23.335,56.569 z m -56.569,-56.569 395.98,-395.98 -395.98,-395.98 -395.98,395.98 z m -395.98,-395.98 395.98,395.98 z"
            id="path16" opacity="0.801" stroke-width="0" />
        <path style="paint-order:fill markers stroke"
            d="m 507.4,-360.34 v -28.233 c 0.59777,-27.031 8.9665,-40.247 47.223,-74.487 44.832,-40.847 59.776,-67.278 59.776,-107.52 0,-70.282 -49.614,-115.33 -127.32,-115.33 -86.676,0 -130.91,47.455 -130.91,140.56 h 50.81 c 0,-64.875 23.313,-93.709 77.111,-93.709 46.028,0 76.514,27.632 76.514,68.48 0,27.632 -13.151,51.059 -44.832,79.292 -50.81,45.052 -62.167,62.473 -62.167,97.914 v 33.038 z m 0,57.066 h -53.799 v 62.473 H 507.4 Z"
            id="path18" opacity="0.801" stroke="#000000" stroke-linecap="round"
            stroke-linejoin="round" stroke-width="37.9851" />
    </g>
</svg>
